G75*
%MOIN*%
%OFA0B0*%
%FSLAX25Y25*%
%IPPOS*%
%LPD*%
%AMOC8*
5,1,8,0,0,1.08239X$1,22.5*
%
%ADD10C,0.00000*%
%ADD11C,0.01575*%
%ADD12C,0.01476*%
%ADD13C,0.00984*%
%ADD14C,0.00787*%
%ADD15C,0.05906*%
%ADD16C,0.00500*%
%ADD17R,0.05906X0.03543*%
%ADD18R,0.03543X0.05906*%
%ADD19R,0.04134X0.04134*%
%ADD20C,0.01772*%
%ADD21R,0.16142X0.16142*%
%ADD22C,0.00689*%
%ADD23R,0.07000X0.07000*%
%ADD24C,0.07000*%
%ADD25R,0.05315X0.01575*%
%ADD26R,0.06299X0.08268*%
%ADD27R,0.07480X0.07087*%
%ADD28R,0.07480X0.07480*%
%ADD29C,0.01181*%
%ADD30C,0.00591*%
%ADD31C,0.01000*%
%ADD32C,0.02578*%
%ADD33C,0.01600*%
%ADD34C,0.10000*%
%ADD35C,0.03200*%
%ADD36C,0.02400*%
%ADD37C,0.01200*%
D10*
X0003000Y0010697D02*
X0003000Y0231169D01*
X0388827Y0231169D01*
X0388827Y0010697D01*
X0003000Y0010697D01*
X0008512Y0023492D02*
X0008514Y0023650D01*
X0008520Y0023808D01*
X0008530Y0023966D01*
X0008544Y0024124D01*
X0008562Y0024281D01*
X0008583Y0024438D01*
X0008609Y0024594D01*
X0008639Y0024750D01*
X0008672Y0024905D01*
X0008710Y0025058D01*
X0008751Y0025211D01*
X0008796Y0025363D01*
X0008845Y0025514D01*
X0008898Y0025663D01*
X0008954Y0025811D01*
X0009014Y0025957D01*
X0009078Y0026102D01*
X0009146Y0026245D01*
X0009217Y0026387D01*
X0009291Y0026527D01*
X0009369Y0026664D01*
X0009451Y0026800D01*
X0009535Y0026934D01*
X0009624Y0027065D01*
X0009715Y0027194D01*
X0009810Y0027321D01*
X0009907Y0027446D01*
X0010008Y0027568D01*
X0010112Y0027687D01*
X0010219Y0027804D01*
X0010329Y0027918D01*
X0010442Y0028029D01*
X0010557Y0028138D01*
X0010675Y0028243D01*
X0010796Y0028345D01*
X0010919Y0028445D01*
X0011045Y0028541D01*
X0011173Y0028634D01*
X0011303Y0028724D01*
X0011436Y0028810D01*
X0011571Y0028894D01*
X0011707Y0028973D01*
X0011846Y0029050D01*
X0011987Y0029122D01*
X0012129Y0029192D01*
X0012273Y0029257D01*
X0012419Y0029319D01*
X0012566Y0029377D01*
X0012715Y0029432D01*
X0012865Y0029483D01*
X0013016Y0029530D01*
X0013168Y0029573D01*
X0013321Y0029612D01*
X0013476Y0029648D01*
X0013631Y0029679D01*
X0013787Y0029707D01*
X0013943Y0029731D01*
X0014100Y0029751D01*
X0014258Y0029767D01*
X0014415Y0029779D01*
X0014574Y0029787D01*
X0014732Y0029791D01*
X0014890Y0029791D01*
X0015048Y0029787D01*
X0015207Y0029779D01*
X0015364Y0029767D01*
X0015522Y0029751D01*
X0015679Y0029731D01*
X0015835Y0029707D01*
X0015991Y0029679D01*
X0016146Y0029648D01*
X0016301Y0029612D01*
X0016454Y0029573D01*
X0016606Y0029530D01*
X0016757Y0029483D01*
X0016907Y0029432D01*
X0017056Y0029377D01*
X0017203Y0029319D01*
X0017349Y0029257D01*
X0017493Y0029192D01*
X0017635Y0029122D01*
X0017776Y0029050D01*
X0017915Y0028973D01*
X0018051Y0028894D01*
X0018186Y0028810D01*
X0018319Y0028724D01*
X0018449Y0028634D01*
X0018577Y0028541D01*
X0018703Y0028445D01*
X0018826Y0028345D01*
X0018947Y0028243D01*
X0019065Y0028138D01*
X0019180Y0028029D01*
X0019293Y0027918D01*
X0019403Y0027804D01*
X0019510Y0027687D01*
X0019614Y0027568D01*
X0019715Y0027446D01*
X0019812Y0027321D01*
X0019907Y0027194D01*
X0019998Y0027065D01*
X0020087Y0026934D01*
X0020171Y0026800D01*
X0020253Y0026664D01*
X0020331Y0026527D01*
X0020405Y0026387D01*
X0020476Y0026245D01*
X0020544Y0026102D01*
X0020608Y0025957D01*
X0020668Y0025811D01*
X0020724Y0025663D01*
X0020777Y0025514D01*
X0020826Y0025363D01*
X0020871Y0025211D01*
X0020912Y0025058D01*
X0020950Y0024905D01*
X0020983Y0024750D01*
X0021013Y0024594D01*
X0021039Y0024438D01*
X0021060Y0024281D01*
X0021078Y0024124D01*
X0021092Y0023966D01*
X0021102Y0023808D01*
X0021108Y0023650D01*
X0021110Y0023492D01*
X0021108Y0023334D01*
X0021102Y0023176D01*
X0021092Y0023018D01*
X0021078Y0022860D01*
X0021060Y0022703D01*
X0021039Y0022546D01*
X0021013Y0022390D01*
X0020983Y0022234D01*
X0020950Y0022079D01*
X0020912Y0021926D01*
X0020871Y0021773D01*
X0020826Y0021621D01*
X0020777Y0021470D01*
X0020724Y0021321D01*
X0020668Y0021173D01*
X0020608Y0021027D01*
X0020544Y0020882D01*
X0020476Y0020739D01*
X0020405Y0020597D01*
X0020331Y0020457D01*
X0020253Y0020320D01*
X0020171Y0020184D01*
X0020087Y0020050D01*
X0019998Y0019919D01*
X0019907Y0019790D01*
X0019812Y0019663D01*
X0019715Y0019538D01*
X0019614Y0019416D01*
X0019510Y0019297D01*
X0019403Y0019180D01*
X0019293Y0019066D01*
X0019180Y0018955D01*
X0019065Y0018846D01*
X0018947Y0018741D01*
X0018826Y0018639D01*
X0018703Y0018539D01*
X0018577Y0018443D01*
X0018449Y0018350D01*
X0018319Y0018260D01*
X0018186Y0018174D01*
X0018051Y0018090D01*
X0017915Y0018011D01*
X0017776Y0017934D01*
X0017635Y0017862D01*
X0017493Y0017792D01*
X0017349Y0017727D01*
X0017203Y0017665D01*
X0017056Y0017607D01*
X0016907Y0017552D01*
X0016757Y0017501D01*
X0016606Y0017454D01*
X0016454Y0017411D01*
X0016301Y0017372D01*
X0016146Y0017336D01*
X0015991Y0017305D01*
X0015835Y0017277D01*
X0015679Y0017253D01*
X0015522Y0017233D01*
X0015364Y0017217D01*
X0015207Y0017205D01*
X0015048Y0017197D01*
X0014890Y0017193D01*
X0014732Y0017193D01*
X0014574Y0017197D01*
X0014415Y0017205D01*
X0014258Y0017217D01*
X0014100Y0017233D01*
X0013943Y0017253D01*
X0013787Y0017277D01*
X0013631Y0017305D01*
X0013476Y0017336D01*
X0013321Y0017372D01*
X0013168Y0017411D01*
X0013016Y0017454D01*
X0012865Y0017501D01*
X0012715Y0017552D01*
X0012566Y0017607D01*
X0012419Y0017665D01*
X0012273Y0017727D01*
X0012129Y0017792D01*
X0011987Y0017862D01*
X0011846Y0017934D01*
X0011707Y0018011D01*
X0011571Y0018090D01*
X0011436Y0018174D01*
X0011303Y0018260D01*
X0011173Y0018350D01*
X0011045Y0018443D01*
X0010919Y0018539D01*
X0010796Y0018639D01*
X0010675Y0018741D01*
X0010557Y0018846D01*
X0010442Y0018955D01*
X0010329Y0019066D01*
X0010219Y0019180D01*
X0010112Y0019297D01*
X0010008Y0019416D01*
X0009907Y0019538D01*
X0009810Y0019663D01*
X0009715Y0019790D01*
X0009624Y0019919D01*
X0009535Y0020050D01*
X0009451Y0020184D01*
X0009369Y0020320D01*
X0009291Y0020457D01*
X0009217Y0020597D01*
X0009146Y0020739D01*
X0009078Y0020882D01*
X0009014Y0021027D01*
X0008954Y0021173D01*
X0008898Y0021321D01*
X0008845Y0021470D01*
X0008796Y0021621D01*
X0008751Y0021773D01*
X0008710Y0021926D01*
X0008672Y0022079D01*
X0008639Y0022234D01*
X0008609Y0022390D01*
X0008583Y0022546D01*
X0008562Y0022703D01*
X0008544Y0022860D01*
X0008530Y0023018D01*
X0008520Y0023176D01*
X0008514Y0023334D01*
X0008512Y0023492D01*
X0008512Y0218374D02*
X0008514Y0218532D01*
X0008520Y0218690D01*
X0008530Y0218848D01*
X0008544Y0219006D01*
X0008562Y0219163D01*
X0008583Y0219320D01*
X0008609Y0219476D01*
X0008639Y0219632D01*
X0008672Y0219787D01*
X0008710Y0219940D01*
X0008751Y0220093D01*
X0008796Y0220245D01*
X0008845Y0220396D01*
X0008898Y0220545D01*
X0008954Y0220693D01*
X0009014Y0220839D01*
X0009078Y0220984D01*
X0009146Y0221127D01*
X0009217Y0221269D01*
X0009291Y0221409D01*
X0009369Y0221546D01*
X0009451Y0221682D01*
X0009535Y0221816D01*
X0009624Y0221947D01*
X0009715Y0222076D01*
X0009810Y0222203D01*
X0009907Y0222328D01*
X0010008Y0222450D01*
X0010112Y0222569D01*
X0010219Y0222686D01*
X0010329Y0222800D01*
X0010442Y0222911D01*
X0010557Y0223020D01*
X0010675Y0223125D01*
X0010796Y0223227D01*
X0010919Y0223327D01*
X0011045Y0223423D01*
X0011173Y0223516D01*
X0011303Y0223606D01*
X0011436Y0223692D01*
X0011571Y0223776D01*
X0011707Y0223855D01*
X0011846Y0223932D01*
X0011987Y0224004D01*
X0012129Y0224074D01*
X0012273Y0224139D01*
X0012419Y0224201D01*
X0012566Y0224259D01*
X0012715Y0224314D01*
X0012865Y0224365D01*
X0013016Y0224412D01*
X0013168Y0224455D01*
X0013321Y0224494D01*
X0013476Y0224530D01*
X0013631Y0224561D01*
X0013787Y0224589D01*
X0013943Y0224613D01*
X0014100Y0224633D01*
X0014258Y0224649D01*
X0014415Y0224661D01*
X0014574Y0224669D01*
X0014732Y0224673D01*
X0014890Y0224673D01*
X0015048Y0224669D01*
X0015207Y0224661D01*
X0015364Y0224649D01*
X0015522Y0224633D01*
X0015679Y0224613D01*
X0015835Y0224589D01*
X0015991Y0224561D01*
X0016146Y0224530D01*
X0016301Y0224494D01*
X0016454Y0224455D01*
X0016606Y0224412D01*
X0016757Y0224365D01*
X0016907Y0224314D01*
X0017056Y0224259D01*
X0017203Y0224201D01*
X0017349Y0224139D01*
X0017493Y0224074D01*
X0017635Y0224004D01*
X0017776Y0223932D01*
X0017915Y0223855D01*
X0018051Y0223776D01*
X0018186Y0223692D01*
X0018319Y0223606D01*
X0018449Y0223516D01*
X0018577Y0223423D01*
X0018703Y0223327D01*
X0018826Y0223227D01*
X0018947Y0223125D01*
X0019065Y0223020D01*
X0019180Y0222911D01*
X0019293Y0222800D01*
X0019403Y0222686D01*
X0019510Y0222569D01*
X0019614Y0222450D01*
X0019715Y0222328D01*
X0019812Y0222203D01*
X0019907Y0222076D01*
X0019998Y0221947D01*
X0020087Y0221816D01*
X0020171Y0221682D01*
X0020253Y0221546D01*
X0020331Y0221409D01*
X0020405Y0221269D01*
X0020476Y0221127D01*
X0020544Y0220984D01*
X0020608Y0220839D01*
X0020668Y0220693D01*
X0020724Y0220545D01*
X0020777Y0220396D01*
X0020826Y0220245D01*
X0020871Y0220093D01*
X0020912Y0219940D01*
X0020950Y0219787D01*
X0020983Y0219632D01*
X0021013Y0219476D01*
X0021039Y0219320D01*
X0021060Y0219163D01*
X0021078Y0219006D01*
X0021092Y0218848D01*
X0021102Y0218690D01*
X0021108Y0218532D01*
X0021110Y0218374D01*
X0021108Y0218216D01*
X0021102Y0218058D01*
X0021092Y0217900D01*
X0021078Y0217742D01*
X0021060Y0217585D01*
X0021039Y0217428D01*
X0021013Y0217272D01*
X0020983Y0217116D01*
X0020950Y0216961D01*
X0020912Y0216808D01*
X0020871Y0216655D01*
X0020826Y0216503D01*
X0020777Y0216352D01*
X0020724Y0216203D01*
X0020668Y0216055D01*
X0020608Y0215909D01*
X0020544Y0215764D01*
X0020476Y0215621D01*
X0020405Y0215479D01*
X0020331Y0215339D01*
X0020253Y0215202D01*
X0020171Y0215066D01*
X0020087Y0214932D01*
X0019998Y0214801D01*
X0019907Y0214672D01*
X0019812Y0214545D01*
X0019715Y0214420D01*
X0019614Y0214298D01*
X0019510Y0214179D01*
X0019403Y0214062D01*
X0019293Y0213948D01*
X0019180Y0213837D01*
X0019065Y0213728D01*
X0018947Y0213623D01*
X0018826Y0213521D01*
X0018703Y0213421D01*
X0018577Y0213325D01*
X0018449Y0213232D01*
X0018319Y0213142D01*
X0018186Y0213056D01*
X0018051Y0212972D01*
X0017915Y0212893D01*
X0017776Y0212816D01*
X0017635Y0212744D01*
X0017493Y0212674D01*
X0017349Y0212609D01*
X0017203Y0212547D01*
X0017056Y0212489D01*
X0016907Y0212434D01*
X0016757Y0212383D01*
X0016606Y0212336D01*
X0016454Y0212293D01*
X0016301Y0212254D01*
X0016146Y0212218D01*
X0015991Y0212187D01*
X0015835Y0212159D01*
X0015679Y0212135D01*
X0015522Y0212115D01*
X0015364Y0212099D01*
X0015207Y0212087D01*
X0015048Y0212079D01*
X0014890Y0212075D01*
X0014732Y0212075D01*
X0014574Y0212079D01*
X0014415Y0212087D01*
X0014258Y0212099D01*
X0014100Y0212115D01*
X0013943Y0212135D01*
X0013787Y0212159D01*
X0013631Y0212187D01*
X0013476Y0212218D01*
X0013321Y0212254D01*
X0013168Y0212293D01*
X0013016Y0212336D01*
X0012865Y0212383D01*
X0012715Y0212434D01*
X0012566Y0212489D01*
X0012419Y0212547D01*
X0012273Y0212609D01*
X0012129Y0212674D01*
X0011987Y0212744D01*
X0011846Y0212816D01*
X0011707Y0212893D01*
X0011571Y0212972D01*
X0011436Y0213056D01*
X0011303Y0213142D01*
X0011173Y0213232D01*
X0011045Y0213325D01*
X0010919Y0213421D01*
X0010796Y0213521D01*
X0010675Y0213623D01*
X0010557Y0213728D01*
X0010442Y0213837D01*
X0010329Y0213948D01*
X0010219Y0214062D01*
X0010112Y0214179D01*
X0010008Y0214298D01*
X0009907Y0214420D01*
X0009810Y0214545D01*
X0009715Y0214672D01*
X0009624Y0214801D01*
X0009535Y0214932D01*
X0009451Y0215066D01*
X0009369Y0215202D01*
X0009291Y0215339D01*
X0009217Y0215479D01*
X0009146Y0215621D01*
X0009078Y0215764D01*
X0009014Y0215909D01*
X0008954Y0216055D01*
X0008898Y0216203D01*
X0008845Y0216352D01*
X0008796Y0216503D01*
X0008751Y0216655D01*
X0008710Y0216808D01*
X0008672Y0216961D01*
X0008639Y0217116D01*
X0008609Y0217272D01*
X0008583Y0217428D01*
X0008562Y0217585D01*
X0008544Y0217742D01*
X0008530Y0217900D01*
X0008520Y0218058D01*
X0008514Y0218216D01*
X0008512Y0218374D01*
X0370717Y0218374D02*
X0370719Y0218532D01*
X0370725Y0218690D01*
X0370735Y0218848D01*
X0370749Y0219006D01*
X0370767Y0219163D01*
X0370788Y0219320D01*
X0370814Y0219476D01*
X0370844Y0219632D01*
X0370877Y0219787D01*
X0370915Y0219940D01*
X0370956Y0220093D01*
X0371001Y0220245D01*
X0371050Y0220396D01*
X0371103Y0220545D01*
X0371159Y0220693D01*
X0371219Y0220839D01*
X0371283Y0220984D01*
X0371351Y0221127D01*
X0371422Y0221269D01*
X0371496Y0221409D01*
X0371574Y0221546D01*
X0371656Y0221682D01*
X0371740Y0221816D01*
X0371829Y0221947D01*
X0371920Y0222076D01*
X0372015Y0222203D01*
X0372112Y0222328D01*
X0372213Y0222450D01*
X0372317Y0222569D01*
X0372424Y0222686D01*
X0372534Y0222800D01*
X0372647Y0222911D01*
X0372762Y0223020D01*
X0372880Y0223125D01*
X0373001Y0223227D01*
X0373124Y0223327D01*
X0373250Y0223423D01*
X0373378Y0223516D01*
X0373508Y0223606D01*
X0373641Y0223692D01*
X0373776Y0223776D01*
X0373912Y0223855D01*
X0374051Y0223932D01*
X0374192Y0224004D01*
X0374334Y0224074D01*
X0374478Y0224139D01*
X0374624Y0224201D01*
X0374771Y0224259D01*
X0374920Y0224314D01*
X0375070Y0224365D01*
X0375221Y0224412D01*
X0375373Y0224455D01*
X0375526Y0224494D01*
X0375681Y0224530D01*
X0375836Y0224561D01*
X0375992Y0224589D01*
X0376148Y0224613D01*
X0376305Y0224633D01*
X0376463Y0224649D01*
X0376620Y0224661D01*
X0376779Y0224669D01*
X0376937Y0224673D01*
X0377095Y0224673D01*
X0377253Y0224669D01*
X0377412Y0224661D01*
X0377569Y0224649D01*
X0377727Y0224633D01*
X0377884Y0224613D01*
X0378040Y0224589D01*
X0378196Y0224561D01*
X0378351Y0224530D01*
X0378506Y0224494D01*
X0378659Y0224455D01*
X0378811Y0224412D01*
X0378962Y0224365D01*
X0379112Y0224314D01*
X0379261Y0224259D01*
X0379408Y0224201D01*
X0379554Y0224139D01*
X0379698Y0224074D01*
X0379840Y0224004D01*
X0379981Y0223932D01*
X0380120Y0223855D01*
X0380256Y0223776D01*
X0380391Y0223692D01*
X0380524Y0223606D01*
X0380654Y0223516D01*
X0380782Y0223423D01*
X0380908Y0223327D01*
X0381031Y0223227D01*
X0381152Y0223125D01*
X0381270Y0223020D01*
X0381385Y0222911D01*
X0381498Y0222800D01*
X0381608Y0222686D01*
X0381715Y0222569D01*
X0381819Y0222450D01*
X0381920Y0222328D01*
X0382017Y0222203D01*
X0382112Y0222076D01*
X0382203Y0221947D01*
X0382292Y0221816D01*
X0382376Y0221682D01*
X0382458Y0221546D01*
X0382536Y0221409D01*
X0382610Y0221269D01*
X0382681Y0221127D01*
X0382749Y0220984D01*
X0382813Y0220839D01*
X0382873Y0220693D01*
X0382929Y0220545D01*
X0382982Y0220396D01*
X0383031Y0220245D01*
X0383076Y0220093D01*
X0383117Y0219940D01*
X0383155Y0219787D01*
X0383188Y0219632D01*
X0383218Y0219476D01*
X0383244Y0219320D01*
X0383265Y0219163D01*
X0383283Y0219006D01*
X0383297Y0218848D01*
X0383307Y0218690D01*
X0383313Y0218532D01*
X0383315Y0218374D01*
X0383313Y0218216D01*
X0383307Y0218058D01*
X0383297Y0217900D01*
X0383283Y0217742D01*
X0383265Y0217585D01*
X0383244Y0217428D01*
X0383218Y0217272D01*
X0383188Y0217116D01*
X0383155Y0216961D01*
X0383117Y0216808D01*
X0383076Y0216655D01*
X0383031Y0216503D01*
X0382982Y0216352D01*
X0382929Y0216203D01*
X0382873Y0216055D01*
X0382813Y0215909D01*
X0382749Y0215764D01*
X0382681Y0215621D01*
X0382610Y0215479D01*
X0382536Y0215339D01*
X0382458Y0215202D01*
X0382376Y0215066D01*
X0382292Y0214932D01*
X0382203Y0214801D01*
X0382112Y0214672D01*
X0382017Y0214545D01*
X0381920Y0214420D01*
X0381819Y0214298D01*
X0381715Y0214179D01*
X0381608Y0214062D01*
X0381498Y0213948D01*
X0381385Y0213837D01*
X0381270Y0213728D01*
X0381152Y0213623D01*
X0381031Y0213521D01*
X0380908Y0213421D01*
X0380782Y0213325D01*
X0380654Y0213232D01*
X0380524Y0213142D01*
X0380391Y0213056D01*
X0380256Y0212972D01*
X0380120Y0212893D01*
X0379981Y0212816D01*
X0379840Y0212744D01*
X0379698Y0212674D01*
X0379554Y0212609D01*
X0379408Y0212547D01*
X0379261Y0212489D01*
X0379112Y0212434D01*
X0378962Y0212383D01*
X0378811Y0212336D01*
X0378659Y0212293D01*
X0378506Y0212254D01*
X0378351Y0212218D01*
X0378196Y0212187D01*
X0378040Y0212159D01*
X0377884Y0212135D01*
X0377727Y0212115D01*
X0377569Y0212099D01*
X0377412Y0212087D01*
X0377253Y0212079D01*
X0377095Y0212075D01*
X0376937Y0212075D01*
X0376779Y0212079D01*
X0376620Y0212087D01*
X0376463Y0212099D01*
X0376305Y0212115D01*
X0376148Y0212135D01*
X0375992Y0212159D01*
X0375836Y0212187D01*
X0375681Y0212218D01*
X0375526Y0212254D01*
X0375373Y0212293D01*
X0375221Y0212336D01*
X0375070Y0212383D01*
X0374920Y0212434D01*
X0374771Y0212489D01*
X0374624Y0212547D01*
X0374478Y0212609D01*
X0374334Y0212674D01*
X0374192Y0212744D01*
X0374051Y0212816D01*
X0373912Y0212893D01*
X0373776Y0212972D01*
X0373641Y0213056D01*
X0373508Y0213142D01*
X0373378Y0213232D01*
X0373250Y0213325D01*
X0373124Y0213421D01*
X0373001Y0213521D01*
X0372880Y0213623D01*
X0372762Y0213728D01*
X0372647Y0213837D01*
X0372534Y0213948D01*
X0372424Y0214062D01*
X0372317Y0214179D01*
X0372213Y0214298D01*
X0372112Y0214420D01*
X0372015Y0214545D01*
X0371920Y0214672D01*
X0371829Y0214801D01*
X0371740Y0214932D01*
X0371656Y0215066D01*
X0371574Y0215202D01*
X0371496Y0215339D01*
X0371422Y0215479D01*
X0371351Y0215621D01*
X0371283Y0215764D01*
X0371219Y0215909D01*
X0371159Y0216055D01*
X0371103Y0216203D01*
X0371050Y0216352D01*
X0371001Y0216503D01*
X0370956Y0216655D01*
X0370915Y0216808D01*
X0370877Y0216961D01*
X0370844Y0217116D01*
X0370814Y0217272D01*
X0370788Y0217428D01*
X0370767Y0217585D01*
X0370749Y0217742D01*
X0370735Y0217900D01*
X0370725Y0218058D01*
X0370719Y0218216D01*
X0370717Y0218374D01*
X0370717Y0023492D02*
X0370719Y0023650D01*
X0370725Y0023808D01*
X0370735Y0023966D01*
X0370749Y0024124D01*
X0370767Y0024281D01*
X0370788Y0024438D01*
X0370814Y0024594D01*
X0370844Y0024750D01*
X0370877Y0024905D01*
X0370915Y0025058D01*
X0370956Y0025211D01*
X0371001Y0025363D01*
X0371050Y0025514D01*
X0371103Y0025663D01*
X0371159Y0025811D01*
X0371219Y0025957D01*
X0371283Y0026102D01*
X0371351Y0026245D01*
X0371422Y0026387D01*
X0371496Y0026527D01*
X0371574Y0026664D01*
X0371656Y0026800D01*
X0371740Y0026934D01*
X0371829Y0027065D01*
X0371920Y0027194D01*
X0372015Y0027321D01*
X0372112Y0027446D01*
X0372213Y0027568D01*
X0372317Y0027687D01*
X0372424Y0027804D01*
X0372534Y0027918D01*
X0372647Y0028029D01*
X0372762Y0028138D01*
X0372880Y0028243D01*
X0373001Y0028345D01*
X0373124Y0028445D01*
X0373250Y0028541D01*
X0373378Y0028634D01*
X0373508Y0028724D01*
X0373641Y0028810D01*
X0373776Y0028894D01*
X0373912Y0028973D01*
X0374051Y0029050D01*
X0374192Y0029122D01*
X0374334Y0029192D01*
X0374478Y0029257D01*
X0374624Y0029319D01*
X0374771Y0029377D01*
X0374920Y0029432D01*
X0375070Y0029483D01*
X0375221Y0029530D01*
X0375373Y0029573D01*
X0375526Y0029612D01*
X0375681Y0029648D01*
X0375836Y0029679D01*
X0375992Y0029707D01*
X0376148Y0029731D01*
X0376305Y0029751D01*
X0376463Y0029767D01*
X0376620Y0029779D01*
X0376779Y0029787D01*
X0376937Y0029791D01*
X0377095Y0029791D01*
X0377253Y0029787D01*
X0377412Y0029779D01*
X0377569Y0029767D01*
X0377727Y0029751D01*
X0377884Y0029731D01*
X0378040Y0029707D01*
X0378196Y0029679D01*
X0378351Y0029648D01*
X0378506Y0029612D01*
X0378659Y0029573D01*
X0378811Y0029530D01*
X0378962Y0029483D01*
X0379112Y0029432D01*
X0379261Y0029377D01*
X0379408Y0029319D01*
X0379554Y0029257D01*
X0379698Y0029192D01*
X0379840Y0029122D01*
X0379981Y0029050D01*
X0380120Y0028973D01*
X0380256Y0028894D01*
X0380391Y0028810D01*
X0380524Y0028724D01*
X0380654Y0028634D01*
X0380782Y0028541D01*
X0380908Y0028445D01*
X0381031Y0028345D01*
X0381152Y0028243D01*
X0381270Y0028138D01*
X0381385Y0028029D01*
X0381498Y0027918D01*
X0381608Y0027804D01*
X0381715Y0027687D01*
X0381819Y0027568D01*
X0381920Y0027446D01*
X0382017Y0027321D01*
X0382112Y0027194D01*
X0382203Y0027065D01*
X0382292Y0026934D01*
X0382376Y0026800D01*
X0382458Y0026664D01*
X0382536Y0026527D01*
X0382610Y0026387D01*
X0382681Y0026245D01*
X0382749Y0026102D01*
X0382813Y0025957D01*
X0382873Y0025811D01*
X0382929Y0025663D01*
X0382982Y0025514D01*
X0383031Y0025363D01*
X0383076Y0025211D01*
X0383117Y0025058D01*
X0383155Y0024905D01*
X0383188Y0024750D01*
X0383218Y0024594D01*
X0383244Y0024438D01*
X0383265Y0024281D01*
X0383283Y0024124D01*
X0383297Y0023966D01*
X0383307Y0023808D01*
X0383313Y0023650D01*
X0383315Y0023492D01*
X0383313Y0023334D01*
X0383307Y0023176D01*
X0383297Y0023018D01*
X0383283Y0022860D01*
X0383265Y0022703D01*
X0383244Y0022546D01*
X0383218Y0022390D01*
X0383188Y0022234D01*
X0383155Y0022079D01*
X0383117Y0021926D01*
X0383076Y0021773D01*
X0383031Y0021621D01*
X0382982Y0021470D01*
X0382929Y0021321D01*
X0382873Y0021173D01*
X0382813Y0021027D01*
X0382749Y0020882D01*
X0382681Y0020739D01*
X0382610Y0020597D01*
X0382536Y0020457D01*
X0382458Y0020320D01*
X0382376Y0020184D01*
X0382292Y0020050D01*
X0382203Y0019919D01*
X0382112Y0019790D01*
X0382017Y0019663D01*
X0381920Y0019538D01*
X0381819Y0019416D01*
X0381715Y0019297D01*
X0381608Y0019180D01*
X0381498Y0019066D01*
X0381385Y0018955D01*
X0381270Y0018846D01*
X0381152Y0018741D01*
X0381031Y0018639D01*
X0380908Y0018539D01*
X0380782Y0018443D01*
X0380654Y0018350D01*
X0380524Y0018260D01*
X0380391Y0018174D01*
X0380256Y0018090D01*
X0380120Y0018011D01*
X0379981Y0017934D01*
X0379840Y0017862D01*
X0379698Y0017792D01*
X0379554Y0017727D01*
X0379408Y0017665D01*
X0379261Y0017607D01*
X0379112Y0017552D01*
X0378962Y0017501D01*
X0378811Y0017454D01*
X0378659Y0017411D01*
X0378506Y0017372D01*
X0378351Y0017336D01*
X0378196Y0017305D01*
X0378040Y0017277D01*
X0377884Y0017253D01*
X0377727Y0017233D01*
X0377569Y0017217D01*
X0377412Y0017205D01*
X0377253Y0017197D01*
X0377095Y0017193D01*
X0376937Y0017193D01*
X0376779Y0017197D01*
X0376620Y0017205D01*
X0376463Y0017217D01*
X0376305Y0017233D01*
X0376148Y0017253D01*
X0375992Y0017277D01*
X0375836Y0017305D01*
X0375681Y0017336D01*
X0375526Y0017372D01*
X0375373Y0017411D01*
X0375221Y0017454D01*
X0375070Y0017501D01*
X0374920Y0017552D01*
X0374771Y0017607D01*
X0374624Y0017665D01*
X0374478Y0017727D01*
X0374334Y0017792D01*
X0374192Y0017862D01*
X0374051Y0017934D01*
X0373912Y0018011D01*
X0373776Y0018090D01*
X0373641Y0018174D01*
X0373508Y0018260D01*
X0373378Y0018350D01*
X0373250Y0018443D01*
X0373124Y0018539D01*
X0373001Y0018639D01*
X0372880Y0018741D01*
X0372762Y0018846D01*
X0372647Y0018955D01*
X0372534Y0019066D01*
X0372424Y0019180D01*
X0372317Y0019297D01*
X0372213Y0019416D01*
X0372112Y0019538D01*
X0372015Y0019663D01*
X0371920Y0019790D01*
X0371829Y0019919D01*
X0371740Y0020050D01*
X0371656Y0020184D01*
X0371574Y0020320D01*
X0371496Y0020457D01*
X0371422Y0020597D01*
X0371351Y0020739D01*
X0371283Y0020882D01*
X0371219Y0021027D01*
X0371159Y0021173D01*
X0371103Y0021321D01*
X0371050Y0021470D01*
X0371001Y0021621D01*
X0370956Y0021773D01*
X0370915Y0021926D01*
X0370877Y0022079D01*
X0370844Y0022234D01*
X0370814Y0022390D01*
X0370788Y0022546D01*
X0370767Y0022703D01*
X0370749Y0022860D01*
X0370735Y0023018D01*
X0370725Y0023176D01*
X0370719Y0023334D01*
X0370717Y0023492D01*
D11*
X0338393Y0024830D02*
X0333669Y0024830D01*
X0333669Y0034280D01*
X0338393Y0034280D01*
X0338393Y0024830D01*
X0338393Y0026326D02*
X0333669Y0026326D01*
X0333669Y0027822D02*
X0338393Y0027822D01*
X0338393Y0029318D02*
X0333669Y0029318D01*
X0333669Y0030814D02*
X0338393Y0030814D01*
X0338393Y0032310D02*
X0333669Y0032310D01*
X0333669Y0033806D02*
X0338393Y0033806D01*
X0313079Y0024830D02*
X0308355Y0024830D01*
X0308355Y0034280D01*
X0313079Y0034280D01*
X0313079Y0024830D01*
X0313079Y0026326D02*
X0308355Y0026326D01*
X0308355Y0027822D02*
X0313079Y0027822D01*
X0313079Y0029318D02*
X0308355Y0029318D01*
X0308355Y0030814D02*
X0313079Y0030814D01*
X0313079Y0032310D02*
X0308355Y0032310D01*
X0308355Y0033806D02*
X0313079Y0033806D01*
D12*
X0312932Y0041710D02*
X0308502Y0041710D01*
X0308502Y0051258D01*
X0312932Y0051258D01*
X0312932Y0041710D01*
X0312932Y0043112D02*
X0308502Y0043112D01*
X0308502Y0044514D02*
X0312932Y0044514D01*
X0312932Y0045916D02*
X0308502Y0045916D01*
X0308502Y0047318D02*
X0312932Y0047318D01*
X0312932Y0048720D02*
X0308502Y0048720D01*
X0308502Y0050122D02*
X0312932Y0050122D01*
X0333816Y0041710D02*
X0338246Y0041710D01*
X0333816Y0041710D02*
X0333816Y0051258D01*
X0338246Y0051258D01*
X0338246Y0041710D01*
X0338246Y0043112D02*
X0333816Y0043112D01*
X0333816Y0044514D02*
X0338246Y0044514D01*
X0338246Y0045916D02*
X0333816Y0045916D01*
X0333816Y0047318D02*
X0338246Y0047318D01*
X0338246Y0048720D02*
X0333816Y0048720D01*
X0333816Y0050122D02*
X0338246Y0050122D01*
D13*
X0335973Y0062961D02*
X0335973Y0065913D01*
X0339319Y0065913D01*
X0339319Y0062961D01*
X0335973Y0062961D01*
X0335973Y0063896D02*
X0339319Y0063896D01*
X0339319Y0064831D02*
X0335973Y0064831D01*
X0335973Y0065766D02*
X0339319Y0065766D01*
X0335973Y0069654D02*
X0335973Y0072606D01*
X0339319Y0072606D01*
X0339319Y0069654D01*
X0335973Y0069654D01*
X0335973Y0070589D02*
X0339319Y0070589D01*
X0339319Y0071524D02*
X0335973Y0071524D01*
X0335973Y0072459D02*
X0339319Y0072459D01*
X0344044Y0066701D02*
X0346996Y0066701D01*
X0344044Y0066701D02*
X0344044Y0072803D01*
X0346996Y0072803D01*
X0346996Y0066701D01*
X0346996Y0067636D02*
X0344044Y0067636D01*
X0344044Y0068571D02*
X0346996Y0068571D01*
X0346996Y0069506D02*
X0344044Y0069506D01*
X0344044Y0070441D02*
X0346996Y0070441D01*
X0346996Y0071376D02*
X0344044Y0071376D01*
X0344044Y0072311D02*
X0346996Y0072311D01*
X0355855Y0066701D02*
X0358807Y0066701D01*
X0355855Y0066701D02*
X0355855Y0072803D01*
X0358807Y0072803D01*
X0358807Y0066701D01*
X0358807Y0067636D02*
X0355855Y0067636D01*
X0355855Y0068571D02*
X0358807Y0068571D01*
X0358807Y0069506D02*
X0355855Y0069506D01*
X0355855Y0070441D02*
X0358807Y0070441D01*
X0358807Y0071376D02*
X0355855Y0071376D01*
X0355855Y0072311D02*
X0358807Y0072311D01*
X0315697Y0070638D02*
X0315697Y0067686D01*
X0312351Y0067686D01*
X0312351Y0070638D01*
X0315697Y0070638D01*
X0315697Y0068621D02*
X0312351Y0068621D01*
X0312351Y0069556D02*
X0315697Y0069556D01*
X0315697Y0070491D02*
X0312351Y0070491D01*
X0315697Y0063945D02*
X0315697Y0060993D01*
X0312351Y0060993D01*
X0312351Y0063945D01*
X0315697Y0063945D01*
X0315697Y0061928D02*
X0312351Y0061928D01*
X0312351Y0062863D02*
X0315697Y0062863D01*
X0315697Y0063798D02*
X0312351Y0063798D01*
X0374162Y0038552D02*
X0377114Y0038552D01*
X0374162Y0038552D02*
X0374162Y0041898D01*
X0377114Y0041898D01*
X0377114Y0038552D01*
X0377114Y0039487D02*
X0374162Y0039487D01*
X0374162Y0040422D02*
X0377114Y0040422D01*
X0377114Y0041357D02*
X0374162Y0041357D01*
X0380855Y0038552D02*
X0383807Y0038552D01*
X0380855Y0038552D02*
X0380855Y0041898D01*
X0383807Y0041898D01*
X0383807Y0038552D01*
X0383807Y0039487D02*
X0380855Y0039487D01*
X0380855Y0040422D02*
X0383807Y0040422D01*
X0383807Y0041357D02*
X0380855Y0041357D01*
X0355658Y0157449D02*
X0355658Y0160401D01*
X0359004Y0160401D01*
X0359004Y0157449D01*
X0355658Y0157449D01*
X0355658Y0158384D02*
X0359004Y0158384D01*
X0359004Y0159319D02*
X0355658Y0159319D01*
X0355658Y0160254D02*
X0359004Y0160254D01*
X0355658Y0164142D02*
X0355658Y0167094D01*
X0359004Y0167094D01*
X0359004Y0164142D01*
X0355658Y0164142D01*
X0355658Y0165077D02*
X0359004Y0165077D01*
X0359004Y0166012D02*
X0355658Y0166012D01*
X0355658Y0166947D02*
X0359004Y0166947D01*
X0337941Y0168275D02*
X0337941Y0165323D01*
X0337941Y0168275D02*
X0341287Y0168275D01*
X0341287Y0165323D01*
X0337941Y0165323D01*
X0337941Y0166258D02*
X0341287Y0166258D01*
X0341287Y0167193D02*
X0337941Y0167193D01*
X0337941Y0168128D02*
X0341287Y0168128D01*
X0337941Y0172016D02*
X0337941Y0174968D01*
X0341287Y0174968D01*
X0341287Y0172016D01*
X0337941Y0172016D01*
X0337941Y0172951D02*
X0341287Y0172951D01*
X0341287Y0173886D02*
X0337941Y0173886D01*
X0337941Y0174821D02*
X0341287Y0174821D01*
X0330067Y0174968D02*
X0330067Y0172016D01*
X0330067Y0174968D02*
X0333413Y0174968D01*
X0333413Y0172016D01*
X0330067Y0172016D01*
X0330067Y0172951D02*
X0333413Y0172951D01*
X0333413Y0173886D02*
X0330067Y0173886D01*
X0330067Y0174821D02*
X0333413Y0174821D01*
X0330067Y0168275D02*
X0330067Y0165323D01*
X0330067Y0168275D02*
X0333413Y0168275D01*
X0333413Y0165323D01*
X0330067Y0165323D01*
X0330067Y0166258D02*
X0333413Y0166258D01*
X0333413Y0167193D02*
X0330067Y0167193D01*
X0330067Y0168128D02*
X0333413Y0168128D01*
X0282429Y0207055D02*
X0276327Y0207055D01*
X0282429Y0207055D02*
X0282429Y0204103D01*
X0276327Y0204103D01*
X0276327Y0207055D01*
X0276327Y0205038D02*
X0282429Y0205038D01*
X0282429Y0205973D02*
X0276327Y0205973D01*
X0276327Y0206908D02*
X0282429Y0206908D01*
X0282429Y0222803D02*
X0276327Y0222803D01*
X0282429Y0222803D02*
X0282429Y0219851D01*
X0276327Y0219851D01*
X0276327Y0222803D01*
X0276327Y0220786D02*
X0282429Y0220786D01*
X0282429Y0221721D02*
X0276327Y0221721D01*
X0276327Y0222656D02*
X0282429Y0222656D01*
X0261169Y0222803D02*
X0255067Y0222803D01*
X0261169Y0222803D02*
X0261169Y0219851D01*
X0255067Y0219851D01*
X0255067Y0222803D01*
X0255067Y0220786D02*
X0261169Y0220786D01*
X0261169Y0221721D02*
X0255067Y0221721D01*
X0255067Y0222656D02*
X0261169Y0222656D01*
X0261169Y0207055D02*
X0255067Y0207055D01*
X0261169Y0207055D02*
X0261169Y0204103D01*
X0255067Y0204103D01*
X0255067Y0207055D01*
X0255067Y0205038D02*
X0261169Y0205038D01*
X0261169Y0205973D02*
X0255067Y0205973D01*
X0255067Y0206908D02*
X0261169Y0206908D01*
X0152311Y0202527D02*
X0152311Y0199575D01*
X0148965Y0199575D01*
X0148965Y0202527D01*
X0152311Y0202527D01*
X0152311Y0200510D02*
X0148965Y0200510D01*
X0148965Y0201445D02*
X0152311Y0201445D01*
X0152311Y0202380D02*
X0148965Y0202380D01*
X0144437Y0202527D02*
X0144437Y0199575D01*
X0141091Y0199575D01*
X0141091Y0202527D01*
X0144437Y0202527D01*
X0144437Y0200510D02*
X0141091Y0200510D01*
X0141091Y0201445D02*
X0144437Y0201445D01*
X0144437Y0202380D02*
X0141091Y0202380D01*
X0136760Y0204103D02*
X0130658Y0204103D01*
X0130658Y0207055D01*
X0136760Y0207055D01*
X0136760Y0204103D01*
X0136760Y0205038D02*
X0130658Y0205038D01*
X0130658Y0205973D02*
X0136760Y0205973D01*
X0136760Y0206908D02*
X0130658Y0206908D01*
X0115500Y0204103D02*
X0109398Y0204103D01*
X0109398Y0207055D01*
X0115500Y0207055D01*
X0115500Y0204103D01*
X0115500Y0205038D02*
X0109398Y0205038D01*
X0109398Y0205973D02*
X0115500Y0205973D01*
X0115500Y0206908D02*
X0109398Y0206908D01*
X0109398Y0219851D02*
X0115500Y0219851D01*
X0109398Y0219851D02*
X0109398Y0222803D01*
X0115500Y0222803D01*
X0115500Y0219851D01*
X0115500Y0220786D02*
X0109398Y0220786D01*
X0109398Y0221721D02*
X0115500Y0221721D01*
X0115500Y0222656D02*
X0109398Y0222656D01*
X0130658Y0219851D02*
X0136760Y0219851D01*
X0130658Y0219851D02*
X0130658Y0222803D01*
X0136760Y0222803D01*
X0136760Y0219851D01*
X0136760Y0220786D02*
X0130658Y0220786D01*
X0130658Y0221721D02*
X0136760Y0221721D01*
X0136760Y0222656D02*
X0130658Y0222656D01*
X0144437Y0195834D02*
X0144437Y0192882D01*
X0141091Y0192882D01*
X0141091Y0195834D01*
X0144437Y0195834D01*
X0144437Y0193817D02*
X0141091Y0193817D01*
X0141091Y0194752D02*
X0144437Y0194752D01*
X0144437Y0195687D02*
X0141091Y0195687D01*
X0152311Y0195834D02*
X0152311Y0192882D01*
X0148965Y0192882D01*
X0148965Y0195834D01*
X0152311Y0195834D01*
X0152311Y0193817D02*
X0148965Y0193817D01*
X0148965Y0194752D02*
X0152311Y0194752D01*
X0152311Y0195687D02*
X0148965Y0195687D01*
X0141091Y0190716D02*
X0141091Y0187764D01*
X0141091Y0190716D02*
X0144437Y0190716D01*
X0144437Y0187764D01*
X0141091Y0187764D01*
X0141091Y0188699D02*
X0144437Y0188699D01*
X0144437Y0189634D02*
X0141091Y0189634D01*
X0141091Y0190569D02*
X0144437Y0190569D01*
X0141091Y0184023D02*
X0141091Y0181071D01*
X0141091Y0184023D02*
X0144437Y0184023D01*
X0144437Y0181071D01*
X0141091Y0181071D01*
X0141091Y0182006D02*
X0144437Y0182006D01*
X0144437Y0182941D02*
X0141091Y0182941D01*
X0141091Y0183876D02*
X0144437Y0183876D01*
X0026327Y0064732D02*
X0026327Y0061780D01*
X0022981Y0061780D01*
X0022981Y0064732D01*
X0026327Y0064732D01*
X0026327Y0062715D02*
X0022981Y0062715D01*
X0022981Y0063650D02*
X0026327Y0063650D01*
X0026327Y0064585D02*
X0022981Y0064585D01*
X0026327Y0058039D02*
X0026327Y0055087D01*
X0022981Y0055087D01*
X0022981Y0058039D01*
X0026327Y0058039D01*
X0026327Y0056022D02*
X0022981Y0056022D01*
X0022981Y0056957D02*
X0026327Y0056957D01*
X0026327Y0057892D02*
X0022981Y0057892D01*
D14*
X0374849Y0046917D02*
X0377213Y0046917D01*
X0374849Y0046917D02*
X0374849Y0049281D01*
X0377213Y0049281D01*
X0377213Y0046917D01*
X0377213Y0047665D02*
X0374849Y0047665D01*
X0374849Y0048413D02*
X0377213Y0048413D01*
X0377213Y0049161D02*
X0374849Y0049161D01*
X0380755Y0046917D02*
X0383119Y0046917D01*
X0380755Y0046917D02*
X0380755Y0049281D01*
X0383119Y0049281D01*
X0383119Y0046917D01*
X0383119Y0047665D02*
X0380755Y0047665D01*
X0380755Y0048413D02*
X0383119Y0048413D01*
X0383119Y0049161D02*
X0380755Y0049161D01*
D15*
X0380913Y0105933D03*
X0380913Y0115933D03*
X0380913Y0125933D03*
X0380913Y0135933D03*
X0010913Y0135933D03*
X0010913Y0145933D03*
X0010913Y0155933D03*
X0010913Y0165933D03*
X0010913Y0175933D03*
X0010913Y0185933D03*
X0010913Y0125933D03*
X0010913Y0115933D03*
X0010913Y0105933D03*
X0010913Y0095933D03*
X0010913Y0085933D03*
X0010913Y0075933D03*
X0010913Y0065933D03*
X0010913Y0055933D03*
D16*
X0003000Y0010028D02*
X0003000Y0231839D01*
X0388827Y0231839D01*
X0388827Y0010028D01*
X0003000Y0010028D01*
D17*
X0162449Y0110697D03*
X0162449Y0115697D03*
X0162449Y0120697D03*
X0162449Y0125697D03*
X0162449Y0130697D03*
X0162449Y0135697D03*
X0162449Y0140697D03*
X0162449Y0145697D03*
X0162449Y0150697D03*
X0162449Y0155697D03*
X0162449Y0160697D03*
X0162449Y0165697D03*
X0162449Y0170697D03*
X0162449Y0175697D03*
X0162449Y0180697D03*
X0162449Y0185697D03*
X0162449Y0190697D03*
X0162449Y0195697D03*
X0162449Y0200697D03*
X0229378Y0200697D03*
X0229378Y0195697D03*
X0229378Y0190697D03*
X0229378Y0185697D03*
X0229378Y0180697D03*
X0229378Y0175697D03*
X0229378Y0170697D03*
X0229378Y0165697D03*
X0229378Y0160697D03*
X0229378Y0155697D03*
X0229378Y0150697D03*
X0229378Y0145697D03*
X0229378Y0140697D03*
X0229378Y0135697D03*
X0229378Y0130697D03*
X0229378Y0125697D03*
X0229378Y0120697D03*
X0229378Y0115697D03*
X0229378Y0110697D03*
D18*
X0218413Y0131760D03*
X0213413Y0131760D03*
X0208413Y0131760D03*
X0203413Y0131760D03*
X0198413Y0131760D03*
X0193413Y0131760D03*
X0188413Y0131760D03*
X0183413Y0131760D03*
X0178413Y0131760D03*
X0173413Y0131760D03*
D19*
X0199240Y0165795D03*
D20*
X0199299Y0168768D03*
X0196248Y0165815D03*
X0193197Y0168768D03*
X0190244Y0165815D03*
X0187291Y0168768D03*
X0190244Y0171819D03*
X0187291Y0174772D03*
X0190244Y0177823D03*
X0193197Y0174772D03*
X0196248Y0177626D03*
X0199299Y0174772D03*
X0196248Y0171819D03*
D21*
X0193236Y0171799D03*
D22*
X0322734Y0070589D02*
X0322734Y0068521D01*
X0319486Y0068521D01*
X0319486Y0070589D01*
X0322734Y0070589D01*
X0322734Y0069176D02*
X0319486Y0069176D01*
X0319486Y0069831D02*
X0322734Y0069831D01*
X0322734Y0070486D02*
X0319486Y0070486D01*
X0332577Y0070589D02*
X0332577Y0068521D01*
X0329329Y0068521D01*
X0329329Y0070589D01*
X0332577Y0070589D01*
X0332577Y0069176D02*
X0329329Y0069176D01*
X0329329Y0069831D02*
X0332577Y0069831D01*
X0332577Y0070486D02*
X0329329Y0070486D01*
X0332577Y0066849D02*
X0332577Y0064781D01*
X0329329Y0064781D01*
X0329329Y0066849D01*
X0332577Y0066849D01*
X0332577Y0065436D02*
X0329329Y0065436D01*
X0329329Y0066091D02*
X0332577Y0066091D01*
X0332577Y0066746D02*
X0329329Y0066746D01*
X0332577Y0063109D02*
X0332577Y0061041D01*
X0329329Y0061041D01*
X0329329Y0063109D01*
X0332577Y0063109D01*
X0332577Y0061696D02*
X0329329Y0061696D01*
X0329329Y0062351D02*
X0332577Y0062351D01*
X0332577Y0063006D02*
X0329329Y0063006D01*
X0322734Y0063109D02*
X0322734Y0061041D01*
X0319486Y0061041D01*
X0319486Y0063109D01*
X0322734Y0063109D01*
X0322734Y0061696D02*
X0319486Y0061696D01*
X0319486Y0062351D02*
X0322734Y0062351D01*
X0322734Y0063006D02*
X0319486Y0063006D01*
D23*
X0300835Y0225264D03*
D24*
X0310835Y0225264D03*
X0320835Y0225264D03*
X0330835Y0225264D03*
X0340835Y0225264D03*
X0350835Y0225264D03*
D25*
X0372390Y0078807D03*
X0372390Y0076248D03*
X0372390Y0073689D03*
X0372390Y0071130D03*
X0372390Y0068571D03*
D26*
X0372882Y0061484D03*
X0372882Y0085894D03*
D27*
X0382921Y0088650D03*
X0382921Y0058728D03*
D28*
X0382921Y0068965D03*
X0382921Y0078414D03*
D29*
X0379476Y0155382D02*
X0379476Y0158926D01*
X0385382Y0158926D01*
X0385382Y0155382D01*
X0379476Y0155382D01*
X0379476Y0156504D02*
X0385382Y0156504D01*
X0385382Y0157626D02*
X0379476Y0157626D01*
X0379476Y0158748D02*
X0385382Y0158748D01*
X0379476Y0177429D02*
X0379476Y0180973D01*
X0385382Y0180973D01*
X0385382Y0177429D01*
X0379476Y0177429D01*
X0379476Y0178551D02*
X0385382Y0178551D01*
X0385382Y0179673D02*
X0379476Y0179673D01*
X0379476Y0180795D02*
X0385382Y0180795D01*
D30*
X0364417Y0174969D02*
X0364417Y0173197D01*
X0364417Y0174969D02*
X0369929Y0174969D01*
X0369929Y0173197D01*
X0364417Y0173197D01*
X0364417Y0173758D02*
X0369929Y0173758D01*
X0369929Y0174319D02*
X0364417Y0174319D01*
X0364417Y0174880D02*
X0369929Y0174880D01*
X0364417Y0171032D02*
X0364417Y0169260D01*
X0364417Y0171032D02*
X0369929Y0171032D01*
X0369929Y0169260D01*
X0364417Y0169260D01*
X0364417Y0169821D02*
X0369929Y0169821D01*
X0369929Y0170382D02*
X0364417Y0170382D01*
X0364417Y0170943D02*
X0369929Y0170943D01*
X0364417Y0167095D02*
X0364417Y0165323D01*
X0364417Y0167095D02*
X0369929Y0167095D01*
X0369929Y0165323D01*
X0364417Y0165323D01*
X0364417Y0165884D02*
X0369929Y0165884D01*
X0369929Y0166445D02*
X0364417Y0166445D01*
X0364417Y0167006D02*
X0369929Y0167006D01*
X0364417Y0163158D02*
X0364417Y0161386D01*
X0364417Y0163158D02*
X0369929Y0163158D01*
X0369929Y0161386D01*
X0364417Y0161386D01*
X0364417Y0161947D02*
X0369929Y0161947D01*
X0369929Y0162508D02*
X0364417Y0162508D01*
X0364417Y0163069D02*
X0369929Y0163069D01*
D31*
X0371704Y0163469D02*
X0387077Y0163469D01*
X0387077Y0162471D02*
X0371724Y0162471D01*
X0371724Y0162362D02*
X0371724Y0163394D01*
X0371602Y0163851D01*
X0371366Y0164260D01*
X0371102Y0164523D01*
X0371324Y0164745D01*
X0371324Y0167673D01*
X0370820Y0168177D01*
X0371324Y0168682D01*
X0371324Y0171610D01*
X0370820Y0172114D01*
X0371324Y0172619D01*
X0371324Y0175547D01*
X0370507Y0176364D01*
X0363839Y0176364D01*
X0363158Y0175683D01*
X0346182Y0175683D01*
X0343183Y0178683D01*
X0342245Y0179620D01*
X0335605Y0179620D01*
X0334668Y0178683D01*
X0332546Y0176561D01*
X0329407Y0176561D01*
X0328475Y0175628D01*
X0328475Y0175092D01*
X0240615Y0175092D01*
X0238952Y0176755D01*
X0237956Y0177751D01*
X0233431Y0177751D01*
X0233431Y0177924D01*
X0233158Y0178197D01*
X0233431Y0178470D01*
X0233431Y0178997D01*
X0303625Y0178997D01*
X0329787Y0205158D01*
X0330761Y0205158D01*
X0332161Y0206558D01*
X0332161Y0208537D01*
X0330761Y0209936D01*
X0328782Y0209936D01*
X0327383Y0208537D01*
X0327383Y0207563D01*
X0302217Y0182397D01*
X0233431Y0182397D01*
X0233431Y0182924D01*
X0233158Y0183197D01*
X0233431Y0183470D01*
X0233431Y0184194D01*
X0302169Y0184194D01*
X0303165Y0185190D01*
X0339014Y0221039D01*
X0339920Y0220664D01*
X0341750Y0220664D01*
X0343440Y0221364D01*
X0344734Y0222658D01*
X0345435Y0224349D01*
X0345435Y0226179D01*
X0344734Y0227870D01*
X0343440Y0229164D01*
X0342219Y0229669D01*
X0349450Y0229669D01*
X0348229Y0229164D01*
X0346935Y0227870D01*
X0346235Y0226179D01*
X0346235Y0224349D01*
X0346935Y0222658D01*
X0348229Y0221364D01*
X0349920Y0220664D01*
X0351750Y0220664D01*
X0353440Y0221364D01*
X0354734Y0222658D01*
X0355435Y0224349D01*
X0355435Y0226179D01*
X0354734Y0227870D01*
X0353440Y0229164D01*
X0352219Y0229669D01*
X0387077Y0229669D01*
X0387077Y0182218D01*
X0387055Y0182256D01*
X0386666Y0182645D01*
X0386189Y0182921D01*
X0385657Y0183063D01*
X0382929Y0183063D01*
X0382929Y0179701D01*
X0381929Y0179701D01*
X0381929Y0178701D01*
X0377386Y0178701D01*
X0377386Y0177154D01*
X0377528Y0176622D01*
X0377804Y0176146D01*
X0378193Y0175756D01*
X0378669Y0175481D01*
X0379201Y0175339D01*
X0381929Y0175339D01*
X0381929Y0178701D01*
X0382929Y0178701D01*
X0382929Y0175339D01*
X0385657Y0175339D01*
X0386189Y0175481D01*
X0386666Y0175756D01*
X0387055Y0176146D01*
X0387077Y0176184D01*
X0387077Y0160171D01*
X0387055Y0160209D01*
X0386666Y0160598D01*
X0386189Y0160873D01*
X0385657Y0161016D01*
X0382929Y0161016D01*
X0382929Y0157654D01*
X0381929Y0157654D01*
X0381929Y0161016D01*
X0379201Y0161016D01*
X0378669Y0160873D01*
X0378193Y0160598D01*
X0377804Y0160209D01*
X0377528Y0159732D01*
X0377386Y0159201D01*
X0377386Y0157654D01*
X0381929Y0157654D01*
X0381929Y0156654D01*
X0377386Y0156654D01*
X0377386Y0155107D01*
X0377528Y0154575D01*
X0377804Y0154098D01*
X0378193Y0153709D01*
X0378669Y0153434D01*
X0379201Y0153291D01*
X0381929Y0153291D01*
X0381929Y0156654D01*
X0382929Y0156654D01*
X0382929Y0153291D01*
X0385657Y0153291D01*
X0386189Y0153434D01*
X0386666Y0153709D01*
X0387055Y0154098D01*
X0387077Y0154137D01*
X0387077Y0093635D01*
X0386859Y0093693D01*
X0383421Y0093693D01*
X0383421Y0089150D01*
X0382421Y0089150D01*
X0382421Y0093693D01*
X0378984Y0093693D01*
X0378602Y0093591D01*
X0378260Y0093393D01*
X0377981Y0093114D01*
X0377783Y0092772D01*
X0377681Y0092391D01*
X0377681Y0089150D01*
X0382421Y0089150D01*
X0382421Y0088150D01*
X0377681Y0088150D01*
X0377681Y0084909D01*
X0377783Y0084527D01*
X0377981Y0084185D01*
X0378260Y0083906D01*
X0378602Y0083709D01*
X0378895Y0083630D01*
X0378602Y0083551D01*
X0378260Y0083354D01*
X0377981Y0083075D01*
X0377783Y0082733D01*
X0377681Y0082351D01*
X0377681Y0078913D01*
X0382421Y0078913D01*
X0382421Y0077914D01*
X0377681Y0077914D01*
X0377681Y0074476D01*
X0377783Y0074094D01*
X0377981Y0073752D01*
X0378044Y0073689D01*
X0377981Y0073626D01*
X0377783Y0073284D01*
X0377681Y0072902D01*
X0377681Y0069465D01*
X0382421Y0069465D01*
X0382421Y0077913D01*
X0383421Y0077913D01*
X0383421Y0073173D01*
X0383421Y0069465D01*
X0382421Y0069465D01*
X0382421Y0068465D01*
X0377681Y0068465D01*
X0377681Y0065027D01*
X0377783Y0064646D01*
X0377981Y0064304D01*
X0378260Y0064024D01*
X0378602Y0063827D01*
X0378896Y0063748D01*
X0378602Y0063670D01*
X0378260Y0063472D01*
X0377981Y0063193D01*
X0377783Y0062851D01*
X0377681Y0062469D01*
X0377681Y0059228D01*
X0382421Y0059228D01*
X0382421Y0058229D01*
X0377681Y0058229D01*
X0377681Y0054988D01*
X0377783Y0054606D01*
X0377981Y0054264D01*
X0378260Y0053985D01*
X0378602Y0053787D01*
X0378984Y0053685D01*
X0382421Y0053685D01*
X0382421Y0058228D01*
X0383421Y0058228D01*
X0383421Y0053685D01*
X0386859Y0053685D01*
X0387077Y0053744D01*
X0387077Y0012197D01*
X0004750Y0012197D01*
X0004750Y0229669D01*
X0154075Y0229669D01*
X0154075Y0203457D01*
X0153905Y0203751D01*
X0153534Y0204122D01*
X0153080Y0204384D01*
X0152573Y0204520D01*
X0151122Y0204520D01*
X0151122Y0201536D01*
X0150154Y0201536D01*
X0150154Y0204520D01*
X0148702Y0204520D01*
X0148196Y0204384D01*
X0147741Y0204122D01*
X0147370Y0203751D01*
X0147108Y0203297D01*
X0146972Y0202790D01*
X0146972Y0201536D01*
X0150153Y0201536D01*
X0150153Y0200567D01*
X0146972Y0200567D01*
X0146972Y0200095D01*
X0146029Y0201039D01*
X0146029Y0203187D01*
X0145096Y0204120D01*
X0145064Y0204120D01*
X0145064Y0208437D01*
X0145153Y0208526D01*
X0145153Y0210505D01*
X0143753Y0211905D01*
X0141774Y0211905D01*
X0140375Y0210505D01*
X0140375Y0208526D01*
X0140464Y0208437D01*
X0140464Y0204120D01*
X0140431Y0204120D01*
X0139498Y0203187D01*
X0139498Y0200028D01*
X0137016Y0202510D01*
X0137419Y0202510D01*
X0138352Y0203443D01*
X0138352Y0207715D01*
X0137419Y0208647D01*
X0129998Y0208647D01*
X0129065Y0207715D01*
X0129065Y0207279D01*
X0117092Y0207279D01*
X0117092Y0207715D01*
X0116159Y0208647D01*
X0108738Y0208647D01*
X0107806Y0207715D01*
X0107806Y0203443D01*
X0108738Y0202510D01*
X0116159Y0202510D01*
X0117092Y0203443D01*
X0117092Y0203879D01*
X0129065Y0203879D01*
X0129065Y0203443D01*
X0129998Y0202510D01*
X0133190Y0202510D01*
X0133190Y0201528D01*
X0134186Y0200532D01*
X0139498Y0195220D01*
X0139498Y0192223D01*
X0139922Y0191799D01*
X0139498Y0191376D01*
X0139498Y0187104D01*
X0140431Y0186172D01*
X0145096Y0186172D01*
X0146029Y0187104D01*
X0146029Y0188997D01*
X0158396Y0188997D01*
X0158396Y0188470D01*
X0158669Y0188197D01*
X0158396Y0187924D01*
X0158396Y0183470D01*
X0158669Y0183197D01*
X0158396Y0182924D01*
X0158396Y0178470D01*
X0158669Y0178197D01*
X0158396Y0177924D01*
X0158396Y0177297D01*
X0021812Y0177297D01*
X0014678Y0184431D01*
X0014966Y0185127D01*
X0014966Y0186739D01*
X0014349Y0188229D01*
X0013209Y0189369D01*
X0011720Y0189986D01*
X0010107Y0189986D01*
X0008618Y0189369D01*
X0007478Y0188229D01*
X0006861Y0186739D01*
X0006861Y0185127D01*
X0007478Y0183638D01*
X0008618Y0182497D01*
X0010107Y0181880D01*
X0011720Y0181880D01*
X0012415Y0182169D01*
X0020487Y0174097D01*
X0158396Y0174097D01*
X0158396Y0173470D01*
X0158669Y0173197D01*
X0158396Y0172924D01*
X0158396Y0172297D01*
X0016812Y0172297D01*
X0014678Y0174431D01*
X0014966Y0175127D01*
X0014966Y0176739D01*
X0014349Y0178229D01*
X0013209Y0179369D01*
X0011720Y0179986D01*
X0010107Y0179986D01*
X0008618Y0179369D01*
X0007478Y0178229D01*
X0006861Y0176739D01*
X0006861Y0175127D01*
X0007478Y0173638D01*
X0008618Y0172497D01*
X0010107Y0171880D01*
X0011720Y0171880D01*
X0012415Y0172169D01*
X0014550Y0170034D01*
X0015487Y0169097D01*
X0158396Y0169097D01*
X0158396Y0168470D01*
X0158669Y0168197D01*
X0158396Y0167924D01*
X0158396Y0167297D01*
X0014735Y0167297D01*
X0014349Y0168229D01*
X0013209Y0169369D01*
X0011720Y0169986D01*
X0010107Y0169986D01*
X0008618Y0169369D01*
X0007478Y0168229D01*
X0006861Y0166739D01*
X0006861Y0165127D01*
X0007478Y0163638D01*
X0008618Y0162497D01*
X0010107Y0161880D01*
X0011720Y0161880D01*
X0013209Y0162497D01*
X0014349Y0163638D01*
X0014539Y0164097D01*
X0158396Y0164097D01*
X0158396Y0163470D01*
X0158669Y0163197D01*
X0158396Y0162924D01*
X0158396Y0162297D01*
X0015014Y0162297D01*
X0012415Y0159698D01*
X0011720Y0159986D01*
X0010107Y0159986D01*
X0008618Y0159369D01*
X0007478Y0158229D01*
X0006861Y0156739D01*
X0006861Y0155127D01*
X0007478Y0153638D01*
X0008618Y0152497D01*
X0010107Y0151880D01*
X0011720Y0151880D01*
X0013209Y0152497D01*
X0014349Y0153638D01*
X0014966Y0155127D01*
X0014966Y0156739D01*
X0014678Y0157435D01*
X0016340Y0159097D01*
X0158396Y0159097D01*
X0158396Y0158470D01*
X0158669Y0158197D01*
X0158396Y0157924D01*
X0158396Y0157297D01*
X0020014Y0157297D01*
X0019077Y0156360D01*
X0019077Y0156360D01*
X0012415Y0149698D01*
X0011720Y0149986D01*
X0010107Y0149986D01*
X0008618Y0149369D01*
X0007478Y0148229D01*
X0006861Y0146739D01*
X0006861Y0145127D01*
X0007478Y0143638D01*
X0008618Y0142497D01*
X0010107Y0141880D01*
X0011720Y0141880D01*
X0013209Y0142497D01*
X0014349Y0143638D01*
X0014966Y0145127D01*
X0014966Y0146739D01*
X0014678Y0147435D01*
X0021340Y0154097D01*
X0158396Y0154097D01*
X0158396Y0153470D01*
X0158669Y0153197D01*
X0158396Y0152924D01*
X0158396Y0152297D01*
X0035014Y0152297D01*
X0012415Y0129698D01*
X0011720Y0129986D01*
X0010107Y0129986D01*
X0008618Y0129369D01*
X0007478Y0128229D01*
X0006861Y0126739D01*
X0006861Y0125127D01*
X0007478Y0123638D01*
X0008618Y0122497D01*
X0010107Y0121880D01*
X0011720Y0121880D01*
X0013209Y0122497D01*
X0014349Y0123638D01*
X0014966Y0125127D01*
X0014966Y0126739D01*
X0014678Y0127435D01*
X0036340Y0149097D01*
X0158396Y0149097D01*
X0158396Y0148470D01*
X0158669Y0148197D01*
X0158396Y0147924D01*
X0158396Y0147297D01*
X0060014Y0147297D01*
X0012415Y0099698D01*
X0011720Y0099986D01*
X0010107Y0099986D01*
X0008618Y0099369D01*
X0007478Y0098229D01*
X0006861Y0096739D01*
X0006861Y0095127D01*
X0007478Y0093638D01*
X0008618Y0092497D01*
X0010107Y0091880D01*
X0011720Y0091880D01*
X0013209Y0092497D01*
X0014349Y0093638D01*
X0014966Y0095127D01*
X0014966Y0096739D01*
X0014678Y0097435D01*
X0061340Y0144097D01*
X0158396Y0144097D01*
X0158396Y0143470D01*
X0158669Y0143197D01*
X0158396Y0142924D01*
X0158396Y0142297D01*
X0065014Y0142297D01*
X0064077Y0141360D01*
X0012415Y0089698D01*
X0011720Y0089986D01*
X0010107Y0089986D01*
X0008618Y0089369D01*
X0007478Y0088229D01*
X0006861Y0086739D01*
X0006861Y0085127D01*
X0007478Y0083638D01*
X0008618Y0082497D01*
X0010107Y0081880D01*
X0011720Y0081880D01*
X0013209Y0082497D01*
X0014349Y0083638D01*
X0014966Y0085127D01*
X0014966Y0086739D01*
X0014678Y0087435D01*
X0066340Y0139097D01*
X0158396Y0139097D01*
X0158396Y0138470D01*
X0158669Y0138197D01*
X0158396Y0137924D01*
X0158396Y0137297D01*
X0070014Y0137297D01*
X0012415Y0079698D01*
X0011720Y0079986D01*
X0010107Y0079986D01*
X0008618Y0079369D01*
X0007478Y0078229D01*
X0006861Y0076739D01*
X0006861Y0075127D01*
X0007478Y0073638D01*
X0008618Y0072497D01*
X0010107Y0071880D01*
X0011720Y0071880D01*
X0013209Y0072497D01*
X0014349Y0073638D01*
X0014966Y0075127D01*
X0014966Y0076739D01*
X0014678Y0077435D01*
X0071340Y0134097D01*
X0158396Y0134097D01*
X0158396Y0133490D01*
X0158296Y0133390D01*
X0158098Y0133048D01*
X0157996Y0132666D01*
X0157996Y0131083D01*
X0162063Y0131083D01*
X0162063Y0130311D01*
X0157996Y0130311D01*
X0157996Y0128728D01*
X0158098Y0128346D01*
X0158296Y0128004D01*
X0158396Y0127904D01*
X0158396Y0123470D01*
X0158669Y0123197D01*
X0158396Y0122924D01*
X0158396Y0118470D01*
X0158669Y0118197D01*
X0158396Y0117924D01*
X0158396Y0113470D01*
X0158669Y0113197D01*
X0158396Y0112924D01*
X0158396Y0108470D01*
X0159040Y0107825D01*
X0165857Y0107825D01*
X0166502Y0108470D01*
X0166502Y0112924D01*
X0166229Y0113197D01*
X0166502Y0113470D01*
X0166502Y0117924D01*
X0166229Y0118197D01*
X0166502Y0118470D01*
X0166502Y0122924D01*
X0166229Y0123197D01*
X0166502Y0123470D01*
X0166502Y0127904D01*
X0166602Y0128004D01*
X0166799Y0128346D01*
X0166902Y0128728D01*
X0166902Y0130311D01*
X0162835Y0130311D01*
X0162835Y0131083D01*
X0166902Y0131083D01*
X0166902Y0132666D01*
X0166799Y0133048D01*
X0166602Y0133390D01*
X0166502Y0133490D01*
X0166502Y0137924D01*
X0166229Y0138197D01*
X0166502Y0138470D01*
X0166502Y0142924D01*
X0166229Y0143197D01*
X0166502Y0143470D01*
X0166502Y0147924D01*
X0166229Y0148197D01*
X0166502Y0148470D01*
X0166502Y0152924D01*
X0166229Y0153197D01*
X0166502Y0153470D01*
X0166502Y0154097D01*
X0176235Y0154097D01*
X0189766Y0140566D01*
X0197566Y0140566D01*
X0198503Y0141504D01*
X0198965Y0141966D01*
X0199902Y0142903D01*
X0199902Y0143323D01*
X0203661Y0147082D01*
X0204777Y0147082D01*
X0206176Y0148481D01*
X0206176Y0150460D01*
X0204777Y0151860D01*
X0202798Y0151860D01*
X0201398Y0150460D01*
X0201398Y0149344D01*
X0197951Y0145897D01*
X0196903Y0146944D01*
X0194924Y0146944D01*
X0194923Y0146944D01*
X0194923Y0148071D01*
X0193524Y0149471D01*
X0192408Y0149471D01*
X0170519Y0171360D01*
X0169582Y0172297D01*
X0166502Y0172297D01*
X0166502Y0172924D01*
X0166229Y0173197D01*
X0166502Y0173470D01*
X0166502Y0177924D01*
X0166229Y0178197D01*
X0166502Y0178470D01*
X0166502Y0182924D01*
X0166229Y0183197D01*
X0166502Y0183470D01*
X0166502Y0187924D01*
X0166229Y0188197D01*
X0166502Y0188470D01*
X0166502Y0192924D01*
X0166229Y0193197D01*
X0166502Y0193470D01*
X0166502Y0197904D01*
X0166602Y0198004D01*
X0166799Y0198346D01*
X0166902Y0198728D01*
X0166902Y0200311D01*
X0162835Y0200311D01*
X0162835Y0201083D01*
X0166902Y0201083D01*
X0166902Y0202666D01*
X0166799Y0203048D01*
X0166763Y0203110D01*
X0225064Y0203110D01*
X0225027Y0203048D01*
X0224925Y0202666D01*
X0224925Y0201083D01*
X0228992Y0201083D01*
X0228992Y0200311D01*
X0224925Y0200311D01*
X0224925Y0198728D01*
X0225027Y0198346D01*
X0225225Y0198004D01*
X0225325Y0197904D01*
X0225325Y0197262D01*
X0224462Y0198125D01*
X0222483Y0198125D01*
X0221083Y0196726D01*
X0221083Y0195610D01*
X0218873Y0193399D01*
X0217935Y0192462D01*
X0217935Y0141924D01*
X0225325Y0134534D01*
X0225325Y0133470D01*
X0225598Y0133197D01*
X0225325Y0132924D01*
X0225325Y0128470D01*
X0225598Y0128197D01*
X0225325Y0127924D01*
X0225325Y0123470D01*
X0225598Y0123197D01*
X0225325Y0122924D01*
X0225325Y0118470D01*
X0225598Y0118197D01*
X0225325Y0117924D01*
X0225325Y0113470D01*
X0225598Y0113197D01*
X0225325Y0112924D01*
X0225325Y0108470D01*
X0225970Y0107825D01*
X0232786Y0107825D01*
X0233431Y0108470D01*
X0233431Y0112924D01*
X0233158Y0113197D01*
X0233431Y0113470D01*
X0233431Y0117924D01*
X0233158Y0118197D01*
X0233431Y0118470D01*
X0233431Y0122924D01*
X0233158Y0123197D01*
X0233431Y0123470D01*
X0233431Y0127924D01*
X0233158Y0128197D01*
X0233431Y0128470D01*
X0233431Y0132924D01*
X0233158Y0133197D01*
X0233431Y0133470D01*
X0233431Y0137124D01*
X0234294Y0136261D01*
X0236273Y0136261D01*
X0237062Y0137050D01*
X0347534Y0137050D01*
X0377149Y0107435D01*
X0376861Y0106739D01*
X0376861Y0105127D01*
X0377478Y0103638D01*
X0378618Y0102497D01*
X0380107Y0101880D01*
X0381720Y0101880D01*
X0383209Y0102497D01*
X0384349Y0103638D01*
X0384966Y0105127D01*
X0384966Y0106739D01*
X0384349Y0108229D01*
X0383209Y0109369D01*
X0381720Y0109986D01*
X0380107Y0109986D01*
X0379412Y0109698D01*
X0348860Y0140250D01*
X0237062Y0140250D01*
X0236693Y0140618D01*
X0237062Y0140987D01*
X0353597Y0140987D01*
X0377149Y0117435D01*
X0376861Y0116739D01*
X0376861Y0115127D01*
X0377478Y0113638D01*
X0378618Y0112497D01*
X0380107Y0111880D01*
X0381720Y0111880D01*
X0383209Y0112497D01*
X0384349Y0113638D01*
X0384966Y0115127D01*
X0384966Y0116739D01*
X0384349Y0118229D01*
X0383209Y0119369D01*
X0381720Y0119986D01*
X0380107Y0119986D01*
X0379412Y0119698D01*
X0354923Y0144187D01*
X0237062Y0144187D01*
X0236693Y0144555D01*
X0237062Y0144924D01*
X0359660Y0144924D01*
X0377149Y0127435D01*
X0376861Y0126739D01*
X0376861Y0125127D01*
X0377478Y0123638D01*
X0378618Y0122497D01*
X0380107Y0121880D01*
X0381720Y0121880D01*
X0383209Y0122497D01*
X0384349Y0123638D01*
X0384966Y0125127D01*
X0384966Y0126739D01*
X0384349Y0128229D01*
X0383209Y0129369D01*
X0381720Y0129986D01*
X0380107Y0129986D01*
X0379412Y0129698D01*
X0360986Y0148124D01*
X0237062Y0148124D01*
X0236693Y0148492D01*
X0237062Y0148861D01*
X0365723Y0148861D01*
X0377149Y0137435D01*
X0376861Y0136739D01*
X0376861Y0135127D01*
X0377478Y0133638D01*
X0378618Y0132497D01*
X0380107Y0131880D01*
X0381720Y0131880D01*
X0383209Y0132497D01*
X0384349Y0133638D01*
X0384966Y0135127D01*
X0384966Y0136739D01*
X0384349Y0138229D01*
X0383209Y0139369D01*
X0381720Y0139986D01*
X0380107Y0139986D01*
X0379412Y0139698D01*
X0367049Y0152061D01*
X0237062Y0152061D01*
X0236273Y0152850D01*
X0234294Y0152850D01*
X0233431Y0151987D01*
X0233431Y0152924D01*
X0233158Y0153197D01*
X0233431Y0153470D01*
X0233431Y0157924D01*
X0233158Y0158197D01*
X0233431Y0158470D01*
X0233431Y0162924D01*
X0233158Y0163197D01*
X0233431Y0163470D01*
X0233431Y0163997D01*
X0235476Y0163997D01*
X0240025Y0168546D01*
X0328475Y0168546D01*
X0328475Y0164663D01*
X0329407Y0163731D01*
X0334073Y0163731D01*
X0335005Y0164663D01*
X0335005Y0165199D01*
X0336349Y0165199D01*
X0336349Y0164663D01*
X0337281Y0163731D01*
X0341947Y0163731D01*
X0342880Y0164663D01*
X0342880Y0165199D01*
X0349056Y0165199D01*
X0350436Y0163820D01*
X0352415Y0163820D01*
X0352904Y0164309D01*
X0354065Y0164309D01*
X0354065Y0163482D01*
X0354998Y0162550D01*
X0359663Y0162550D01*
X0360596Y0163482D01*
X0360596Y0164309D01*
X0363030Y0164309D01*
X0362981Y0164260D01*
X0362744Y0163851D01*
X0362622Y0163394D01*
X0362622Y0162362D01*
X0367083Y0162362D01*
X0367083Y0162181D01*
X0367264Y0162181D01*
X0367264Y0162362D01*
X0371724Y0162362D01*
X0371724Y0162181D02*
X0367264Y0162181D01*
X0367264Y0159591D01*
X0370165Y0159591D01*
X0370622Y0159713D01*
X0371031Y0159949D01*
X0371366Y0160284D01*
X0371602Y0160693D01*
X0371724Y0161150D01*
X0371724Y0162181D01*
X0371724Y0161472D02*
X0387077Y0161472D01*
X0387077Y0160474D02*
X0386790Y0160474D01*
X0382929Y0160474D02*
X0381929Y0160474D01*
X0381929Y0159475D02*
X0382929Y0159475D01*
X0382929Y0158477D02*
X0381929Y0158477D01*
X0381929Y0157478D02*
X0360996Y0157478D01*
X0360996Y0157187D02*
X0360996Y0158441D01*
X0357815Y0158441D01*
X0357815Y0155457D01*
X0359266Y0155457D01*
X0359773Y0155593D01*
X0360227Y0155855D01*
X0360598Y0156226D01*
X0360860Y0156680D01*
X0360996Y0157187D01*
X0360745Y0156480D02*
X0377386Y0156480D01*
X0377386Y0155481D02*
X0359357Y0155481D01*
X0357815Y0155481D02*
X0356846Y0155481D01*
X0356846Y0155457D02*
X0356846Y0158441D01*
X0353665Y0158441D01*
X0353665Y0157187D01*
X0353801Y0156680D01*
X0354063Y0156226D01*
X0354434Y0155855D01*
X0354889Y0155593D01*
X0355395Y0155457D01*
X0356846Y0155457D01*
X0356846Y0156480D02*
X0357815Y0156480D01*
X0357815Y0157478D02*
X0356846Y0157478D01*
X0356846Y0158441D02*
X0357815Y0158441D01*
X0357815Y0159410D01*
X0356846Y0159410D01*
X0356846Y0158441D01*
X0356846Y0158477D02*
X0233431Y0158477D01*
X0233431Y0159475D02*
X0353665Y0159475D01*
X0353665Y0159410D02*
X0356846Y0159410D01*
X0356846Y0162394D01*
X0355395Y0162394D01*
X0354889Y0162258D01*
X0354434Y0161996D01*
X0354063Y0161625D01*
X0353801Y0161171D01*
X0353665Y0160664D01*
X0353665Y0159410D01*
X0353665Y0160474D02*
X0233431Y0160474D01*
X0233431Y0161472D02*
X0353975Y0161472D01*
X0354079Y0163469D02*
X0233430Y0163469D01*
X0233431Y0162471D02*
X0362622Y0162471D01*
X0362622Y0162181D02*
X0362622Y0161150D01*
X0362744Y0160693D01*
X0362981Y0160284D01*
X0363315Y0159949D01*
X0363724Y0159713D01*
X0364181Y0159591D01*
X0367083Y0159591D01*
X0367083Y0162181D01*
X0362622Y0162181D01*
X0362622Y0161472D02*
X0360686Y0161472D01*
X0360598Y0161625D02*
X0360227Y0161996D01*
X0359773Y0162258D01*
X0359266Y0162394D01*
X0357815Y0162394D01*
X0357815Y0159410D01*
X0360996Y0159410D01*
X0360996Y0160664D01*
X0360860Y0161171D01*
X0360598Y0161625D01*
X0360996Y0160474D02*
X0362871Y0160474D01*
X0360996Y0159475D02*
X0377459Y0159475D01*
X0377386Y0158477D02*
X0357815Y0158477D01*
X0357815Y0159475D02*
X0356846Y0159475D01*
X0356846Y0160474D02*
X0357815Y0160474D01*
X0357815Y0161472D02*
X0356846Y0161472D01*
X0360583Y0163469D02*
X0362642Y0163469D01*
X0367083Y0161472D02*
X0367264Y0161472D01*
X0367264Y0160474D02*
X0367083Y0160474D01*
X0371475Y0160474D02*
X0378068Y0160474D01*
X0381929Y0156480D02*
X0382929Y0156480D01*
X0382929Y0155481D02*
X0381929Y0155481D01*
X0381929Y0154483D02*
X0382929Y0154483D01*
X0382929Y0153484D02*
X0381929Y0153484D01*
X0378583Y0153484D02*
X0233431Y0153484D01*
X0233431Y0152486D02*
X0233930Y0152486D01*
X0233431Y0154483D02*
X0377582Y0154483D01*
X0386276Y0153484D02*
X0387077Y0153484D01*
X0387077Y0152486D02*
X0236637Y0152486D01*
X0235283Y0150461D02*
X0366386Y0150461D01*
X0380913Y0135933D01*
X0384648Y0137508D02*
X0387077Y0137508D01*
X0387077Y0138506D02*
X0384072Y0138506D01*
X0382881Y0139505D02*
X0387077Y0139505D01*
X0387077Y0140503D02*
X0378606Y0140503D01*
X0377607Y0141502D02*
X0387077Y0141502D01*
X0387077Y0142500D02*
X0376609Y0142500D01*
X0375610Y0143499D02*
X0387077Y0143499D01*
X0387077Y0144498D02*
X0374612Y0144498D01*
X0373613Y0145496D02*
X0387077Y0145496D01*
X0387077Y0146495D02*
X0372615Y0146495D01*
X0371616Y0147493D02*
X0387077Y0147493D01*
X0387077Y0148492D02*
X0370618Y0148492D01*
X0369619Y0149490D02*
X0387077Y0149490D01*
X0387077Y0150489D02*
X0368621Y0150489D01*
X0367622Y0151487D02*
X0387077Y0151487D01*
X0373082Y0141502D02*
X0367607Y0141502D01*
X0366609Y0142500D02*
X0372083Y0142500D01*
X0371085Y0143499D02*
X0365610Y0143499D01*
X0364612Y0144498D02*
X0370086Y0144498D01*
X0369088Y0145496D02*
X0363613Y0145496D01*
X0362615Y0146495D02*
X0368089Y0146495D01*
X0367091Y0147493D02*
X0361616Y0147493D01*
X0360323Y0146524D02*
X0380913Y0125933D01*
X0384642Y0127523D02*
X0387077Y0127523D01*
X0387077Y0128521D02*
X0384057Y0128521D01*
X0382845Y0129520D02*
X0387077Y0129520D01*
X0387077Y0130518D02*
X0378591Y0130518D01*
X0377592Y0131517D02*
X0387077Y0131517D01*
X0387077Y0132515D02*
X0383227Y0132515D01*
X0384226Y0133514D02*
X0387077Y0133514D01*
X0387077Y0134512D02*
X0384712Y0134512D01*
X0384966Y0135511D02*
X0387077Y0135511D01*
X0387077Y0136509D02*
X0384966Y0136509D01*
X0378600Y0132515D02*
X0376594Y0132515D01*
X0375595Y0133514D02*
X0377601Y0133514D01*
X0377115Y0134512D02*
X0374597Y0134512D01*
X0373598Y0135511D02*
X0376861Y0135511D01*
X0376861Y0136509D02*
X0372600Y0136509D01*
X0371601Y0137508D02*
X0377076Y0137508D01*
X0376077Y0138506D02*
X0370603Y0138506D01*
X0369604Y0139505D02*
X0375079Y0139505D01*
X0374080Y0140503D02*
X0368606Y0140503D01*
X0366077Y0138506D02*
X0360603Y0138506D01*
X0361601Y0137508D02*
X0367076Y0137508D01*
X0368074Y0136509D02*
X0362600Y0136509D01*
X0363598Y0135511D02*
X0369073Y0135511D01*
X0370071Y0134512D02*
X0364597Y0134512D01*
X0365595Y0133514D02*
X0371070Y0133514D01*
X0372068Y0132515D02*
X0366594Y0132515D01*
X0367592Y0131517D02*
X0373067Y0131517D01*
X0374066Y0130518D02*
X0368591Y0130518D01*
X0369589Y0129520D02*
X0375064Y0129520D01*
X0376063Y0128521D02*
X0370588Y0128521D01*
X0371587Y0127523D02*
X0377061Y0127523D01*
X0376861Y0126524D02*
X0372585Y0126524D01*
X0373584Y0125526D02*
X0376861Y0125526D01*
X0377109Y0124527D02*
X0374582Y0124527D01*
X0375581Y0123529D02*
X0377586Y0123529D01*
X0378585Y0122530D02*
X0376579Y0122530D01*
X0377578Y0121532D02*
X0387077Y0121532D01*
X0387077Y0122530D02*
X0383242Y0122530D01*
X0384240Y0123529D02*
X0387077Y0123529D01*
X0387077Y0124527D02*
X0384718Y0124527D01*
X0384966Y0125526D02*
X0387077Y0125526D01*
X0387077Y0126524D02*
X0384966Y0126524D01*
X0387077Y0120533D02*
X0378576Y0120533D01*
X0376048Y0118536D02*
X0370573Y0118536D01*
X0371572Y0117538D02*
X0377046Y0117538D01*
X0376861Y0116539D02*
X0372570Y0116539D01*
X0373569Y0115541D02*
X0376861Y0115541D01*
X0377103Y0114542D02*
X0374567Y0114542D01*
X0375566Y0113544D02*
X0377571Y0113544D01*
X0378570Y0112545D02*
X0376564Y0112545D01*
X0377563Y0111547D02*
X0387077Y0111547D01*
X0387077Y0112545D02*
X0383257Y0112545D01*
X0384255Y0113544D02*
X0387077Y0113544D01*
X0387077Y0114542D02*
X0384724Y0114542D01*
X0384966Y0115541D02*
X0387077Y0115541D01*
X0387077Y0116539D02*
X0384966Y0116539D01*
X0384635Y0117538D02*
X0387077Y0117538D01*
X0387077Y0118536D02*
X0384042Y0118536D01*
X0382809Y0119535D02*
X0387077Y0119535D01*
X0380913Y0115933D02*
X0354260Y0142587D01*
X0235283Y0142587D01*
X0236751Y0144498D02*
X0360086Y0144498D01*
X0361085Y0143499D02*
X0355610Y0143499D01*
X0356609Y0142500D02*
X0362083Y0142500D01*
X0363082Y0141502D02*
X0357607Y0141502D01*
X0358606Y0140503D02*
X0364080Y0140503D01*
X0365079Y0139505D02*
X0359604Y0139505D01*
X0357076Y0137508D02*
X0351601Y0137508D01*
X0350603Y0138506D02*
X0356077Y0138506D01*
X0355079Y0139505D02*
X0349604Y0139505D01*
X0348197Y0138650D02*
X0380913Y0105933D01*
X0384629Y0107553D02*
X0387077Y0107553D01*
X0387077Y0108551D02*
X0384027Y0108551D01*
X0382773Y0109550D02*
X0387077Y0109550D01*
X0387077Y0110548D02*
X0378561Y0110548D01*
X0376033Y0108551D02*
X0233431Y0108551D01*
X0233431Y0109550D02*
X0375034Y0109550D01*
X0374036Y0110548D02*
X0233431Y0110548D01*
X0233431Y0111547D02*
X0373037Y0111547D01*
X0372039Y0112545D02*
X0233431Y0112545D01*
X0233431Y0113544D02*
X0371040Y0113544D01*
X0370042Y0114542D02*
X0233431Y0114542D01*
X0233431Y0115541D02*
X0369043Y0115541D01*
X0368045Y0116539D02*
X0233431Y0116539D01*
X0233431Y0117538D02*
X0367046Y0117538D01*
X0366048Y0118536D02*
X0233431Y0118536D01*
X0233431Y0119535D02*
X0365049Y0119535D01*
X0364051Y0120533D02*
X0233431Y0120533D01*
X0233431Y0121532D02*
X0363052Y0121532D01*
X0362054Y0122530D02*
X0233431Y0122530D01*
X0233431Y0123529D02*
X0361055Y0123529D01*
X0360057Y0124527D02*
X0233431Y0124527D01*
X0233431Y0125526D02*
X0359058Y0125526D01*
X0358060Y0126524D02*
X0233431Y0126524D01*
X0233431Y0127523D02*
X0357061Y0127523D01*
X0356063Y0128521D02*
X0233431Y0128521D01*
X0233431Y0129520D02*
X0355064Y0129520D01*
X0354066Y0130518D02*
X0233431Y0130518D01*
X0233431Y0131517D02*
X0353067Y0131517D01*
X0352068Y0132515D02*
X0233431Y0132515D01*
X0233431Y0133514D02*
X0351070Y0133514D01*
X0350071Y0134512D02*
X0233431Y0134512D01*
X0233431Y0135511D02*
X0349073Y0135511D01*
X0348074Y0136509D02*
X0236522Y0136509D01*
X0235283Y0138650D02*
X0348197Y0138650D01*
X0352600Y0136509D02*
X0358074Y0136509D01*
X0359073Y0135511D02*
X0353598Y0135511D01*
X0354597Y0134512D02*
X0360071Y0134512D01*
X0361070Y0133514D02*
X0355595Y0133514D01*
X0356594Y0132515D02*
X0362068Y0132515D01*
X0363067Y0131517D02*
X0357592Y0131517D01*
X0358591Y0130518D02*
X0364066Y0130518D01*
X0365064Y0129520D02*
X0359589Y0129520D01*
X0360588Y0128521D02*
X0366063Y0128521D01*
X0367061Y0127523D02*
X0361587Y0127523D01*
X0362585Y0126524D02*
X0368060Y0126524D01*
X0369058Y0125526D02*
X0363584Y0125526D01*
X0364582Y0124527D02*
X0370057Y0124527D01*
X0371055Y0123529D02*
X0365581Y0123529D01*
X0366579Y0122530D02*
X0372054Y0122530D01*
X0373052Y0121532D02*
X0367578Y0121532D01*
X0368576Y0120533D02*
X0374051Y0120533D01*
X0375049Y0119535D02*
X0369575Y0119535D01*
X0377031Y0107553D02*
X0044795Y0107553D01*
X0043797Y0106554D02*
X0376861Y0106554D01*
X0376861Y0105556D02*
X0042798Y0105556D01*
X0041800Y0104557D02*
X0377097Y0104557D01*
X0377557Y0103559D02*
X0040801Y0103559D01*
X0039803Y0102560D02*
X0378555Y0102560D01*
X0383272Y0102560D02*
X0387077Y0102560D01*
X0387077Y0101562D02*
X0038804Y0101562D01*
X0037806Y0100563D02*
X0387077Y0100563D01*
X0387077Y0099565D02*
X0036807Y0099565D01*
X0035809Y0098566D02*
X0387077Y0098566D01*
X0387077Y0097567D02*
X0034810Y0097567D01*
X0033812Y0096569D02*
X0387077Y0096569D01*
X0387077Y0095570D02*
X0032813Y0095570D01*
X0031815Y0094572D02*
X0387077Y0094572D01*
X0383421Y0093573D02*
X0382421Y0093573D01*
X0382421Y0092575D02*
X0383421Y0092575D01*
X0383421Y0091576D02*
X0382421Y0091576D01*
X0382421Y0090578D02*
X0383421Y0090578D01*
X0383421Y0089579D02*
X0382421Y0089579D01*
X0382421Y0088581D02*
X0377531Y0088581D01*
X0377531Y0089579D02*
X0377681Y0089579D01*
X0377531Y0090225D02*
X0377429Y0090607D01*
X0377232Y0090949D01*
X0376953Y0091228D01*
X0376610Y0091425D01*
X0376229Y0091528D01*
X0373382Y0091528D01*
X0373382Y0086394D01*
X0372382Y0086394D01*
X0372382Y0091528D01*
X0369535Y0091528D01*
X0369153Y0091425D01*
X0368811Y0091228D01*
X0368532Y0090949D01*
X0368335Y0090607D01*
X0368232Y0090225D01*
X0368232Y0086394D01*
X0372382Y0086394D01*
X0372382Y0085394D01*
X0368232Y0085394D01*
X0368232Y0081563D01*
X0368335Y0081181D01*
X0368532Y0080839D01*
X0368694Y0080677D01*
X0368532Y0080516D01*
X0368335Y0080174D01*
X0368232Y0079792D01*
X0368232Y0078807D01*
X0368232Y0077822D01*
X0368335Y0077441D01*
X0368532Y0077099D01*
X0368632Y0076999D01*
X0368632Y0075005D01*
X0368669Y0074969D01*
X0368632Y0074932D01*
X0368632Y0072446D01*
X0368669Y0072410D01*
X0368632Y0072373D01*
X0368632Y0070471D01*
X0368304Y0070471D01*
X0366734Y0072041D01*
X0365742Y0072452D01*
X0364668Y0072452D01*
X0363702Y0072052D01*
X0360399Y0072052D01*
X0360399Y0073463D01*
X0359467Y0074395D01*
X0355195Y0074395D01*
X0354262Y0073463D01*
X0354262Y0066041D01*
X0355195Y0065109D01*
X0359467Y0065109D01*
X0360399Y0066041D01*
X0360399Y0067452D01*
X0363686Y0067452D01*
X0364856Y0066282D01*
X0365849Y0065871D01*
X0366923Y0065871D01*
X0367915Y0066282D01*
X0368304Y0066671D01*
X0368664Y0066671D01*
X0368532Y0066539D01*
X0368335Y0066197D01*
X0368232Y0065816D01*
X0368232Y0061984D01*
X0372382Y0061984D01*
X0372382Y0060984D01*
X0373382Y0060984D01*
X0373382Y0055851D01*
X0376229Y0055851D01*
X0376610Y0055953D01*
X0376953Y0056150D01*
X0377232Y0056430D01*
X0377429Y0056772D01*
X0377531Y0057153D01*
X0377531Y0060984D01*
X0373382Y0060984D01*
X0373382Y0061984D01*
X0377531Y0061984D01*
X0377531Y0065816D01*
X0377429Y0066197D01*
X0377232Y0066539D01*
X0376953Y0066819D01*
X0376610Y0067016D01*
X0376229Y0067118D01*
X0375937Y0067118D01*
X0376147Y0067328D01*
X0376147Y0069814D01*
X0376111Y0069851D01*
X0376147Y0069887D01*
X0376147Y0072373D01*
X0376111Y0072410D01*
X0376147Y0072446D01*
X0376147Y0074932D01*
X0376111Y0074969D01*
X0376147Y0075005D01*
X0376147Y0076999D01*
X0376248Y0077099D01*
X0376445Y0077441D01*
X0376547Y0077822D01*
X0376547Y0078807D01*
X0372390Y0078807D01*
X0372390Y0078807D01*
X0376547Y0078807D01*
X0376547Y0079792D01*
X0376445Y0080174D01*
X0376373Y0080299D01*
X0376610Y0080362D01*
X0376953Y0080560D01*
X0377232Y0080839D01*
X0377429Y0081181D01*
X0377531Y0081563D01*
X0377531Y0085394D01*
X0373382Y0085394D01*
X0373382Y0086394D01*
X0377531Y0086394D01*
X0377531Y0090225D01*
X0377437Y0090578D02*
X0377681Y0090578D01*
X0377681Y0091576D02*
X0028819Y0091576D01*
X0027821Y0090578D02*
X0368327Y0090578D01*
X0368232Y0089579D02*
X0026822Y0089579D01*
X0025824Y0088581D02*
X0368232Y0088581D01*
X0368232Y0087582D02*
X0024825Y0087582D01*
X0023827Y0086584D02*
X0368232Y0086584D01*
X0368232Y0084587D02*
X0021830Y0084587D01*
X0022828Y0085585D02*
X0372382Y0085585D01*
X0372382Y0085394D02*
X0373382Y0085394D01*
X0373382Y0081095D01*
X0372390Y0081095D01*
X0372390Y0078807D01*
X0368232Y0078807D01*
X0372390Y0078807D01*
X0372390Y0078807D01*
X0372390Y0078807D01*
X0372390Y0081095D01*
X0372382Y0081095D01*
X0372382Y0085394D01*
X0372382Y0084587D02*
X0373382Y0084587D01*
X0373382Y0085585D02*
X0377681Y0085585D01*
X0377681Y0086584D02*
X0377531Y0086584D01*
X0377531Y0087582D02*
X0377681Y0087582D01*
X0377767Y0084587D02*
X0377531Y0084587D01*
X0377531Y0083588D02*
X0378740Y0083588D01*
X0377745Y0082590D02*
X0377531Y0082590D01*
X0377531Y0081591D02*
X0377681Y0081591D01*
X0377681Y0080593D02*
X0376986Y0080593D01*
X0376547Y0079594D02*
X0377681Y0079594D01*
X0376547Y0078596D02*
X0382421Y0078596D01*
X0382421Y0078914D02*
X0382421Y0088150D01*
X0383421Y0088150D01*
X0383421Y0083606D01*
X0383421Y0078914D01*
X0382421Y0078914D01*
X0382421Y0079594D02*
X0383421Y0079594D01*
X0383421Y0080593D02*
X0382421Y0080593D01*
X0382421Y0081591D02*
X0383421Y0081591D01*
X0383421Y0082590D02*
X0382421Y0082590D01*
X0382421Y0083588D02*
X0383421Y0083588D01*
X0383421Y0084587D02*
X0382421Y0084587D01*
X0382421Y0085585D02*
X0383421Y0085585D01*
X0383421Y0086584D02*
X0382421Y0086584D01*
X0382421Y0087582D02*
X0383421Y0087582D01*
X0377731Y0092575D02*
X0029818Y0092575D01*
X0030816Y0093573D02*
X0378572Y0093573D01*
X0373382Y0090578D02*
X0372382Y0090578D01*
X0372382Y0089579D02*
X0373382Y0089579D01*
X0373382Y0088581D02*
X0372382Y0088581D01*
X0372382Y0087582D02*
X0373382Y0087582D01*
X0373382Y0086584D02*
X0372382Y0086584D01*
X0372382Y0083588D02*
X0373382Y0083588D01*
X0373382Y0082590D02*
X0372382Y0082590D01*
X0372382Y0081591D02*
X0373382Y0081591D01*
X0372390Y0080593D02*
X0372390Y0080593D01*
X0372390Y0079594D02*
X0372390Y0079594D01*
X0368609Y0080593D02*
X0017836Y0080593D01*
X0018834Y0081591D02*
X0368232Y0081591D01*
X0368232Y0082590D02*
X0019833Y0082590D01*
X0020831Y0083588D02*
X0368232Y0083588D01*
X0368232Y0079594D02*
X0016837Y0079594D01*
X0015839Y0078596D02*
X0368232Y0078596D01*
X0368293Y0077597D02*
X0014840Y0077597D01*
X0014966Y0076599D02*
X0368632Y0076599D01*
X0368632Y0075600D02*
X0014966Y0075600D01*
X0014749Y0074602D02*
X0368632Y0074602D01*
X0368632Y0073603D02*
X0360259Y0073603D01*
X0360399Y0072605D02*
X0368632Y0072605D01*
X0368632Y0071606D02*
X0367169Y0071606D01*
X0368168Y0070608D02*
X0368632Y0070608D01*
X0368606Y0066614D02*
X0368247Y0066614D01*
X0368232Y0065615D02*
X0359973Y0065615D01*
X0360399Y0066614D02*
X0364525Y0066614D01*
X0368232Y0064617D02*
X0338130Y0064617D01*
X0338130Y0064921D02*
X0341311Y0064921D01*
X0341311Y0066176D01*
X0341175Y0066682D01*
X0340913Y0067137D01*
X0340598Y0067452D01*
X0342451Y0067452D01*
X0342451Y0066041D01*
X0343384Y0065109D01*
X0347656Y0065109D01*
X0348588Y0066041D01*
X0348588Y0073463D01*
X0347656Y0074395D01*
X0343384Y0074395D01*
X0342451Y0073463D01*
X0342451Y0072052D01*
X0340911Y0072052D01*
X0340911Y0073266D01*
X0339978Y0074199D01*
X0335313Y0074199D01*
X0334544Y0073430D01*
X0331575Y0073430D01*
X0330400Y0072255D01*
X0327069Y0072255D01*
X0326077Y0071844D01*
X0325317Y0071085D01*
X0324917Y0070119D01*
X0324179Y0069380D01*
X0324179Y0071187D01*
X0323333Y0072033D01*
X0318888Y0072033D01*
X0318042Y0071187D01*
X0318042Y0067923D01*
X0318550Y0067415D01*
X0317687Y0067415D01*
X0317689Y0067423D01*
X0317689Y0068677D01*
X0314508Y0068677D01*
X0314508Y0069646D01*
X0313539Y0069646D01*
X0313539Y0068677D01*
X0310358Y0068677D01*
X0310358Y0067423D01*
X0310360Y0067415D01*
X0309424Y0067415D01*
X0305487Y0063478D01*
X0304550Y0062541D01*
X0304550Y0037593D01*
X0305487Y0036656D01*
X0342245Y0036656D01*
X0343183Y0037593D01*
X0343183Y0046499D01*
X0373357Y0046499D01*
X0373357Y0046299D01*
X0374232Y0045424D01*
X0377831Y0045424D01*
X0378706Y0046299D01*
X0378706Y0049898D01*
X0377831Y0050773D01*
X0374232Y0050773D01*
X0373357Y0049898D01*
X0373357Y0049699D01*
X0343183Y0049699D01*
X0343183Y0052698D01*
X0339246Y0056635D01*
X0338308Y0057573D01*
X0330434Y0057573D01*
X0328232Y0059775D01*
X0328552Y0059775D01*
X0328730Y0059597D01*
X0333175Y0059597D01*
X0334021Y0060443D01*
X0334021Y0062546D01*
X0334116Y0062192D01*
X0334378Y0061738D01*
X0334749Y0061367D01*
X0335204Y0061104D01*
X0335710Y0060969D01*
X0337161Y0060969D01*
X0337161Y0063953D01*
X0338130Y0063953D01*
X0338130Y0064921D01*
X0337161Y0064921D01*
X0337161Y0067906D01*
X0335710Y0067906D01*
X0335204Y0067770D01*
X0334749Y0067508D01*
X0334403Y0067161D01*
X0334296Y0067561D01*
X0334053Y0067981D01*
X0334021Y0068013D01*
X0334021Y0068830D01*
X0334544Y0068830D01*
X0335313Y0068062D01*
X0337461Y0068062D01*
X0338071Y0067452D01*
X0338130Y0067452D01*
X0338130Y0064921D01*
X0338130Y0065615D02*
X0337161Y0065615D01*
X0337161Y0066614D02*
X0338130Y0066614D01*
X0337911Y0067612D02*
X0337161Y0067612D01*
X0334930Y0067612D02*
X0334266Y0067612D01*
X0334021Y0068611D02*
X0334764Y0068611D01*
X0330750Y0072605D02*
X0316054Y0072605D01*
X0315959Y0072630D02*
X0314508Y0072630D01*
X0314508Y0069646D01*
X0317689Y0069646D01*
X0317689Y0070900D01*
X0317553Y0071407D01*
X0317291Y0071861D01*
X0316920Y0072232D01*
X0316466Y0072494D01*
X0315959Y0072630D01*
X0314508Y0072605D02*
X0313539Y0072605D01*
X0313539Y0072630D02*
X0312088Y0072630D01*
X0311581Y0072494D01*
X0311127Y0072232D01*
X0310756Y0071861D01*
X0310494Y0071407D01*
X0310358Y0070900D01*
X0310358Y0069646D01*
X0313539Y0069646D01*
X0313539Y0072630D01*
X0313539Y0071606D02*
X0314508Y0071606D01*
X0314508Y0070608D02*
X0313539Y0070608D01*
X0313539Y0069609D02*
X0013429Y0069609D01*
X0013247Y0069742D02*
X0012623Y0070060D01*
X0011956Y0070276D01*
X0011398Y0070365D01*
X0011398Y0066418D01*
X0010429Y0066418D01*
X0010429Y0070365D01*
X0009871Y0070276D01*
X0009204Y0070060D01*
X0008580Y0069742D01*
X0008013Y0069330D01*
X0007517Y0068834D01*
X0007105Y0068267D01*
X0006787Y0067642D01*
X0006570Y0066976D01*
X0006482Y0066417D01*
X0010429Y0066417D01*
X0010429Y0065449D01*
X0006482Y0065449D01*
X0006570Y0064891D01*
X0006787Y0064224D01*
X0007105Y0063599D01*
X0007517Y0063032D01*
X0008013Y0062537D01*
X0008580Y0062125D01*
X0009204Y0061807D01*
X0009871Y0061590D01*
X0010429Y0061502D01*
X0010429Y0065449D01*
X0011398Y0065449D01*
X0011398Y0066417D01*
X0015345Y0066417D01*
X0015256Y0066976D01*
X0015040Y0067642D01*
X0014722Y0068267D01*
X0014310Y0068834D01*
X0013814Y0069330D01*
X0013247Y0069742D01*
X0014472Y0068611D02*
X0310358Y0068611D01*
X0310358Y0067612D02*
X0015050Y0067612D01*
X0015314Y0066614D02*
X0022304Y0066614D01*
X0022211Y0066589D02*
X0021757Y0066327D01*
X0021386Y0065956D01*
X0021124Y0065501D01*
X0020988Y0064995D01*
X0020988Y0063740D01*
X0024169Y0063740D01*
X0024169Y0062772D01*
X0020988Y0062772D01*
X0020988Y0061517D01*
X0021124Y0061011D01*
X0021386Y0060556D01*
X0021757Y0060186D01*
X0022211Y0059923D01*
X0022718Y0059788D01*
X0024169Y0059788D01*
X0024169Y0062772D01*
X0025138Y0062772D01*
X0025138Y0063740D01*
X0028319Y0063740D01*
X0028319Y0064995D01*
X0028183Y0065501D01*
X0027921Y0065956D01*
X0027550Y0066327D01*
X0027096Y0066589D01*
X0026589Y0066725D01*
X0025138Y0066725D01*
X0025138Y0063740D01*
X0024169Y0063740D01*
X0024169Y0066725D01*
X0022718Y0066725D01*
X0022211Y0066589D01*
X0021190Y0065615D02*
X0011398Y0065615D01*
X0011398Y0065449D02*
X0015345Y0065449D01*
X0015256Y0064891D01*
X0015040Y0064224D01*
X0014722Y0063599D01*
X0014310Y0063032D01*
X0013814Y0062537D01*
X0013247Y0062125D01*
X0012623Y0061807D01*
X0011956Y0061590D01*
X0011398Y0061502D01*
X0011398Y0065449D01*
X0011398Y0064617D02*
X0010429Y0064617D01*
X0010429Y0065615D02*
X0004750Y0065615D01*
X0004750Y0064617D02*
X0006659Y0064617D01*
X0007096Y0063618D02*
X0004750Y0063618D01*
X0004750Y0062620D02*
X0007930Y0062620D01*
X0009775Y0061621D02*
X0004750Y0061621D01*
X0004750Y0060623D02*
X0021348Y0060623D01*
X0020988Y0061621D02*
X0012051Y0061621D01*
X0011398Y0061621D02*
X0010429Y0061621D01*
X0010429Y0062620D02*
X0011398Y0062620D01*
X0011398Y0063618D02*
X0010429Y0063618D01*
X0010429Y0066614D02*
X0011398Y0066614D01*
X0011398Y0067612D02*
X0010429Y0067612D01*
X0010429Y0068611D02*
X0011398Y0068611D01*
X0011398Y0069609D02*
X0010429Y0069609D01*
X0008397Y0069609D02*
X0004750Y0069609D01*
X0004750Y0068611D02*
X0007355Y0068611D01*
X0006777Y0067612D02*
X0004750Y0067612D01*
X0004750Y0066614D02*
X0006513Y0066614D01*
X0004750Y0070608D02*
X0310358Y0070608D01*
X0310609Y0071606D02*
X0004750Y0071606D01*
X0004750Y0072605D02*
X0008510Y0072605D01*
X0007512Y0073603D02*
X0004750Y0073603D01*
X0004750Y0074602D02*
X0007078Y0074602D01*
X0006861Y0075600D02*
X0004750Y0075600D01*
X0004750Y0076599D02*
X0006861Y0076599D01*
X0007216Y0077597D02*
X0004750Y0077597D01*
X0004750Y0078596D02*
X0007844Y0078596D01*
X0009162Y0079594D02*
X0004750Y0079594D01*
X0004750Y0080593D02*
X0013310Y0080593D01*
X0014309Y0081591D02*
X0004750Y0081591D01*
X0004750Y0082590D02*
X0008525Y0082590D01*
X0007527Y0083588D02*
X0004750Y0083588D01*
X0004750Y0084587D02*
X0007084Y0084587D01*
X0006861Y0085585D02*
X0004750Y0085585D01*
X0004750Y0086584D02*
X0006861Y0086584D01*
X0007210Y0087582D02*
X0004750Y0087582D01*
X0004750Y0088581D02*
X0007830Y0088581D01*
X0009126Y0089579D02*
X0004750Y0089579D01*
X0004750Y0090578D02*
X0013295Y0090578D01*
X0014294Y0091576D02*
X0004750Y0091576D01*
X0004750Y0092575D02*
X0008540Y0092575D01*
X0007542Y0093573D02*
X0004750Y0093573D01*
X0004750Y0094572D02*
X0007091Y0094572D01*
X0006861Y0095570D02*
X0004750Y0095570D01*
X0004750Y0096569D02*
X0006861Y0096569D01*
X0007204Y0097567D02*
X0004750Y0097567D01*
X0004750Y0098566D02*
X0007815Y0098566D01*
X0009090Y0099565D02*
X0004750Y0099565D01*
X0004750Y0100563D02*
X0013280Y0100563D01*
X0014279Y0101562D02*
X0004750Y0101562D01*
X0004750Y0102560D02*
X0008555Y0102560D01*
X0008618Y0102497D02*
X0010107Y0101880D01*
X0011720Y0101880D01*
X0013209Y0102497D01*
X0014349Y0103638D01*
X0014966Y0105127D01*
X0014966Y0106739D01*
X0014349Y0108229D01*
X0013209Y0109369D01*
X0011720Y0109986D01*
X0010107Y0109986D01*
X0008618Y0109369D01*
X0007478Y0108229D01*
X0006861Y0106739D01*
X0006861Y0105127D01*
X0007478Y0103638D01*
X0008618Y0102497D01*
X0007557Y0103559D02*
X0004750Y0103559D01*
X0004750Y0104557D02*
X0007097Y0104557D01*
X0006861Y0105556D02*
X0004750Y0105556D01*
X0004750Y0106554D02*
X0006861Y0106554D01*
X0007197Y0107553D02*
X0004750Y0107553D01*
X0004750Y0108551D02*
X0007800Y0108551D01*
X0009054Y0109550D02*
X0004750Y0109550D01*
X0004750Y0110548D02*
X0023266Y0110548D01*
X0024264Y0111547D02*
X0004750Y0111547D01*
X0004750Y0112545D02*
X0008570Y0112545D01*
X0008618Y0112497D02*
X0010107Y0111880D01*
X0011720Y0111880D01*
X0013209Y0112497D01*
X0014349Y0113638D01*
X0014966Y0115127D01*
X0014966Y0116739D01*
X0014349Y0118229D01*
X0013209Y0119369D01*
X0011720Y0119986D01*
X0010107Y0119986D01*
X0008618Y0119369D01*
X0007478Y0118229D01*
X0006861Y0116739D01*
X0006861Y0115127D01*
X0007478Y0113638D01*
X0008618Y0112497D01*
X0007571Y0113544D02*
X0004750Y0113544D01*
X0004750Y0114542D02*
X0007103Y0114542D01*
X0006861Y0115541D02*
X0004750Y0115541D01*
X0004750Y0116539D02*
X0006861Y0116539D01*
X0007191Y0117538D02*
X0004750Y0117538D01*
X0004750Y0118536D02*
X0007785Y0118536D01*
X0009018Y0119535D02*
X0004750Y0119535D01*
X0004750Y0120533D02*
X0033251Y0120533D01*
X0034249Y0121532D02*
X0004750Y0121532D01*
X0004750Y0122530D02*
X0008585Y0122530D01*
X0007586Y0123529D02*
X0004750Y0123529D01*
X0004750Y0124527D02*
X0007109Y0124527D01*
X0006861Y0125526D02*
X0004750Y0125526D01*
X0004750Y0126524D02*
X0006861Y0126524D01*
X0007185Y0127523D02*
X0004750Y0127523D01*
X0004750Y0128521D02*
X0007770Y0128521D01*
X0008982Y0129520D02*
X0004750Y0129520D01*
X0004750Y0130518D02*
X0013236Y0130518D01*
X0014234Y0131517D02*
X0004750Y0131517D01*
X0004750Y0132515D02*
X0008600Y0132515D01*
X0008618Y0132497D02*
X0010107Y0131880D01*
X0011720Y0131880D01*
X0013209Y0132497D01*
X0014349Y0133638D01*
X0014966Y0135127D01*
X0014966Y0136739D01*
X0014349Y0138229D01*
X0013209Y0139369D01*
X0011720Y0139986D01*
X0010107Y0139986D01*
X0008618Y0139369D01*
X0007478Y0138229D01*
X0006861Y0136739D01*
X0006861Y0135127D01*
X0007478Y0133638D01*
X0008618Y0132497D01*
X0007601Y0133514D02*
X0004750Y0133514D01*
X0004750Y0134512D02*
X0007115Y0134512D01*
X0006861Y0135511D02*
X0004750Y0135511D01*
X0004750Y0136509D02*
X0006861Y0136509D01*
X0007179Y0137508D02*
X0004750Y0137508D01*
X0004750Y0138506D02*
X0007755Y0138506D01*
X0008946Y0139505D02*
X0004750Y0139505D01*
X0004750Y0140503D02*
X0023221Y0140503D01*
X0022222Y0139505D02*
X0012881Y0139505D01*
X0014072Y0138506D02*
X0021224Y0138506D01*
X0020225Y0137508D02*
X0014648Y0137508D01*
X0014966Y0136509D02*
X0019227Y0136509D01*
X0018228Y0135511D02*
X0014966Y0135511D01*
X0014712Y0134512D02*
X0017230Y0134512D01*
X0016231Y0133514D02*
X0014226Y0133514D01*
X0013227Y0132515D02*
X0015233Y0132515D01*
X0017761Y0130518D02*
X0043236Y0130518D01*
X0042237Y0129520D02*
X0016763Y0129520D01*
X0015764Y0128521D02*
X0041239Y0128521D01*
X0040240Y0127523D02*
X0014766Y0127523D01*
X0014966Y0126524D02*
X0039242Y0126524D01*
X0038243Y0125526D02*
X0014966Y0125526D01*
X0014718Y0124527D02*
X0037245Y0124527D01*
X0036246Y0123529D02*
X0014240Y0123529D01*
X0013242Y0122530D02*
X0035248Y0122530D01*
X0037776Y0120533D02*
X0043251Y0120533D01*
X0044249Y0121532D02*
X0038775Y0121532D01*
X0039773Y0122530D02*
X0045248Y0122530D01*
X0046246Y0123529D02*
X0040772Y0123529D01*
X0041770Y0124527D02*
X0047245Y0124527D01*
X0048243Y0125526D02*
X0042769Y0125526D01*
X0043767Y0126524D02*
X0049242Y0126524D01*
X0050240Y0127523D02*
X0044766Y0127523D01*
X0045764Y0128521D02*
X0051239Y0128521D01*
X0052237Y0129520D02*
X0046763Y0129520D01*
X0047761Y0130518D02*
X0053236Y0130518D01*
X0054234Y0131517D02*
X0048760Y0131517D01*
X0049758Y0132515D02*
X0055233Y0132515D01*
X0056231Y0133514D02*
X0050757Y0133514D01*
X0051755Y0134512D02*
X0057230Y0134512D01*
X0058228Y0135511D02*
X0052754Y0135511D01*
X0053752Y0136509D02*
X0059227Y0136509D01*
X0060225Y0137508D02*
X0054751Y0137508D01*
X0055749Y0138506D02*
X0061224Y0138506D01*
X0062222Y0139505D02*
X0056748Y0139505D01*
X0057746Y0140503D02*
X0063221Y0140503D01*
X0064219Y0141502D02*
X0058745Y0141502D01*
X0059743Y0142500D02*
X0158396Y0142500D01*
X0158396Y0143499D02*
X0060742Y0143499D01*
X0060677Y0145697D02*
X0010913Y0095933D01*
X0014736Y0094572D02*
X0017289Y0094572D01*
X0016291Y0093573D02*
X0014285Y0093573D01*
X0013287Y0092575D02*
X0015292Y0092575D01*
X0014966Y0095570D02*
X0018288Y0095570D01*
X0019286Y0096569D02*
X0014966Y0096569D01*
X0014810Y0097567D02*
X0020285Y0097567D01*
X0021283Y0098566D02*
X0015809Y0098566D01*
X0016807Y0099565D02*
X0022282Y0099565D01*
X0023280Y0100563D02*
X0017806Y0100563D01*
X0018804Y0101562D02*
X0024279Y0101562D01*
X0025277Y0102560D02*
X0019803Y0102560D01*
X0020801Y0103559D02*
X0026276Y0103559D01*
X0027275Y0104557D02*
X0021800Y0104557D01*
X0022798Y0105556D02*
X0028273Y0105556D01*
X0029272Y0106554D02*
X0023797Y0106554D01*
X0024795Y0107553D02*
X0030270Y0107553D01*
X0031269Y0108551D02*
X0025794Y0108551D01*
X0026793Y0109550D02*
X0032267Y0109550D01*
X0033266Y0110548D02*
X0027791Y0110548D01*
X0028790Y0111547D02*
X0034264Y0111547D01*
X0035263Y0112545D02*
X0029788Y0112545D01*
X0030787Y0113544D02*
X0036261Y0113544D01*
X0037260Y0114542D02*
X0031785Y0114542D01*
X0032784Y0115541D02*
X0038258Y0115541D01*
X0039257Y0116539D02*
X0033782Y0116539D01*
X0034781Y0117538D02*
X0040255Y0117538D01*
X0041254Y0118536D02*
X0035779Y0118536D01*
X0036778Y0119535D02*
X0042252Y0119535D01*
X0044781Y0117538D02*
X0050255Y0117538D01*
X0051254Y0118536D02*
X0045779Y0118536D01*
X0046778Y0119535D02*
X0052252Y0119535D01*
X0053251Y0120533D02*
X0047776Y0120533D01*
X0048775Y0121532D02*
X0054249Y0121532D01*
X0055248Y0122530D02*
X0049773Y0122530D01*
X0050772Y0123529D02*
X0056246Y0123529D01*
X0057245Y0124527D02*
X0051770Y0124527D01*
X0052769Y0125526D02*
X0058243Y0125526D01*
X0059242Y0126524D02*
X0053767Y0126524D01*
X0054766Y0127523D02*
X0060240Y0127523D01*
X0061239Y0128521D02*
X0055764Y0128521D01*
X0056763Y0129520D02*
X0062237Y0129520D01*
X0063236Y0130518D02*
X0057761Y0130518D01*
X0058760Y0131517D02*
X0064234Y0131517D01*
X0065233Y0132515D02*
X0059758Y0132515D01*
X0060757Y0133514D02*
X0066231Y0133514D01*
X0067230Y0134512D02*
X0061755Y0134512D01*
X0062754Y0135511D02*
X0068228Y0135511D01*
X0069227Y0136509D02*
X0063752Y0136509D01*
X0064751Y0137508D02*
X0158396Y0137508D01*
X0158396Y0138506D02*
X0065749Y0138506D01*
X0065677Y0140697D02*
X0162449Y0140697D01*
X0166502Y0140503D02*
X0219356Y0140503D01*
X0220354Y0139505D02*
X0166502Y0139505D01*
X0166502Y0138506D02*
X0221353Y0138506D01*
X0222352Y0137508D02*
X0166502Y0137508D01*
X0166502Y0136509D02*
X0223350Y0136509D01*
X0224349Y0135511D02*
X0220942Y0135511D01*
X0220641Y0135813D02*
X0216186Y0135813D01*
X0215913Y0135540D01*
X0215641Y0135813D01*
X0211186Y0135813D01*
X0210913Y0135540D01*
X0210641Y0135813D01*
X0206186Y0135813D01*
X0205913Y0135540D01*
X0205641Y0135813D01*
X0201186Y0135813D01*
X0200913Y0135540D01*
X0200641Y0135813D01*
X0196186Y0135813D01*
X0195913Y0135540D01*
X0195641Y0135813D01*
X0191186Y0135813D01*
X0190913Y0135540D01*
X0190641Y0135813D01*
X0186186Y0135813D01*
X0185913Y0135540D01*
X0185641Y0135813D01*
X0181186Y0135813D01*
X0180913Y0135540D01*
X0180641Y0135813D01*
X0176206Y0135813D01*
X0176106Y0135913D01*
X0175764Y0136111D01*
X0175383Y0136213D01*
X0173799Y0136213D01*
X0173799Y0132146D01*
X0173028Y0132146D01*
X0173028Y0136213D01*
X0171444Y0136213D01*
X0171063Y0136111D01*
X0170721Y0135913D01*
X0170441Y0135634D01*
X0170244Y0135292D01*
X0170142Y0134910D01*
X0170142Y0132146D01*
X0173027Y0132146D01*
X0173027Y0131374D01*
X0170142Y0131374D01*
X0170142Y0128610D01*
X0170244Y0128228D01*
X0170441Y0127886D01*
X0170721Y0127607D01*
X0171063Y0127409D01*
X0171444Y0127307D01*
X0173028Y0127307D01*
X0173028Y0131374D01*
X0173799Y0131374D01*
X0173799Y0127307D01*
X0175383Y0127307D01*
X0175764Y0127409D01*
X0176106Y0127607D01*
X0176206Y0127707D01*
X0180641Y0127707D01*
X0180913Y0127980D01*
X0181186Y0127707D01*
X0185641Y0127707D01*
X0185913Y0127980D01*
X0186186Y0127707D01*
X0190641Y0127707D01*
X0190913Y0127980D01*
X0191186Y0127707D01*
X0195641Y0127707D01*
X0195913Y0127980D01*
X0196186Y0127707D01*
X0200641Y0127707D01*
X0200913Y0127980D01*
X0201186Y0127707D01*
X0205641Y0127707D01*
X0205913Y0127980D01*
X0206186Y0127707D01*
X0210641Y0127707D01*
X0210913Y0127980D01*
X0211186Y0127707D01*
X0215641Y0127707D01*
X0215913Y0127980D01*
X0216186Y0127707D01*
X0220641Y0127707D01*
X0221285Y0128352D01*
X0221285Y0135168D01*
X0220641Y0135813D01*
X0221285Y0134512D02*
X0225325Y0134512D01*
X0225325Y0133514D02*
X0221285Y0133514D01*
X0221285Y0132515D02*
X0225325Y0132515D01*
X0225325Y0131517D02*
X0221285Y0131517D01*
X0221285Y0130518D02*
X0225325Y0130518D01*
X0225325Y0129520D02*
X0221285Y0129520D01*
X0221285Y0128521D02*
X0225325Y0128521D01*
X0225325Y0127523D02*
X0175960Y0127523D01*
X0173799Y0127523D02*
X0173028Y0127523D01*
X0173028Y0128521D02*
X0173799Y0128521D01*
X0173799Y0129520D02*
X0173028Y0129520D01*
X0173028Y0130518D02*
X0173799Y0130518D01*
X0173027Y0131517D02*
X0166902Y0131517D01*
X0166902Y0132515D02*
X0170142Y0132515D01*
X0170142Y0133514D02*
X0166502Y0133514D01*
X0166502Y0134512D02*
X0170142Y0134512D01*
X0170371Y0135511D02*
X0166502Y0135511D01*
X0162449Y0135697D02*
X0091583Y0135697D01*
X0090677Y0135697D01*
X0070677Y0135697D01*
X0010913Y0075933D01*
X0014315Y0073603D02*
X0334718Y0073603D01*
X0340574Y0073603D02*
X0342592Y0073603D01*
X0342451Y0072605D02*
X0340911Y0072605D01*
X0341194Y0066614D02*
X0342451Y0066614D01*
X0342878Y0065615D02*
X0341311Y0065615D01*
X0341311Y0063953D02*
X0338130Y0063953D01*
X0338130Y0060969D01*
X0339581Y0060969D01*
X0340088Y0061104D01*
X0340542Y0061367D01*
X0340913Y0061738D01*
X0341175Y0062192D01*
X0341311Y0062698D01*
X0341311Y0063953D01*
X0341311Y0063618D02*
X0368232Y0063618D01*
X0368232Y0062620D02*
X0341290Y0062620D01*
X0340796Y0061621D02*
X0372382Y0061621D01*
X0372382Y0060984D02*
X0368232Y0060984D01*
X0368232Y0057153D01*
X0368335Y0056772D01*
X0368532Y0056430D01*
X0368811Y0056150D01*
X0369153Y0055953D01*
X0369535Y0055851D01*
X0372382Y0055851D01*
X0372382Y0060984D01*
X0372382Y0060623D02*
X0373382Y0060623D01*
X0373382Y0061621D02*
X0377681Y0061621D01*
X0377681Y0060623D02*
X0377531Y0060623D01*
X0377531Y0059624D02*
X0377681Y0059624D01*
X0377531Y0058626D02*
X0382421Y0058626D01*
X0382421Y0059229D02*
X0382421Y0068465D01*
X0383421Y0068465D01*
X0383421Y0063725D01*
X0383421Y0059229D01*
X0382421Y0059229D01*
X0382421Y0059624D02*
X0383421Y0059624D01*
X0383421Y0060623D02*
X0382421Y0060623D01*
X0382421Y0061621D02*
X0383421Y0061621D01*
X0383421Y0062620D02*
X0382421Y0062620D01*
X0382421Y0063618D02*
X0383421Y0063618D01*
X0383421Y0064617D02*
X0382421Y0064617D01*
X0382421Y0065615D02*
X0383421Y0065615D01*
X0383421Y0066614D02*
X0382421Y0066614D01*
X0382421Y0067612D02*
X0383421Y0067612D01*
X0382421Y0068611D02*
X0376147Y0068611D01*
X0376147Y0069609D02*
X0377681Y0069609D01*
X0377681Y0070608D02*
X0376147Y0070608D01*
X0376147Y0071606D02*
X0377681Y0071606D01*
X0377681Y0072605D02*
X0376147Y0072605D01*
X0376147Y0073603D02*
X0377968Y0073603D01*
X0377681Y0074602D02*
X0376147Y0074602D01*
X0376147Y0075600D02*
X0377681Y0075600D01*
X0377681Y0076599D02*
X0376147Y0076599D01*
X0376487Y0077597D02*
X0377681Y0077597D01*
X0382421Y0077597D02*
X0383421Y0077597D01*
X0383421Y0076599D02*
X0382421Y0076599D01*
X0382421Y0075600D02*
X0383421Y0075600D01*
X0383421Y0074602D02*
X0382421Y0074602D01*
X0382421Y0073603D02*
X0383421Y0073603D01*
X0383421Y0072605D02*
X0382421Y0072605D01*
X0382421Y0071606D02*
X0383421Y0071606D01*
X0383421Y0070608D02*
X0382421Y0070608D01*
X0382421Y0069609D02*
X0383421Y0069609D01*
X0377681Y0067612D02*
X0376147Y0067612D01*
X0377157Y0066614D02*
X0377681Y0066614D01*
X0377681Y0065615D02*
X0377531Y0065615D01*
X0377531Y0064617D02*
X0377800Y0064617D01*
X0377531Y0063618D02*
X0378513Y0063618D01*
X0377721Y0062620D02*
X0377531Y0062620D01*
X0373382Y0059624D02*
X0372382Y0059624D01*
X0372382Y0058626D02*
X0373382Y0058626D01*
X0373382Y0057627D02*
X0372382Y0057627D01*
X0372382Y0056629D02*
X0373382Y0056629D01*
X0377347Y0056629D02*
X0377681Y0056629D01*
X0377681Y0057627D02*
X0377531Y0057627D01*
X0377681Y0055630D02*
X0340251Y0055630D01*
X0341249Y0054631D02*
X0377777Y0054631D01*
X0382421Y0054631D02*
X0383421Y0054631D01*
X0383421Y0055630D02*
X0382421Y0055630D01*
X0382421Y0056629D02*
X0383421Y0056629D01*
X0383421Y0057627D02*
X0382421Y0057627D01*
X0387077Y0053633D02*
X0342248Y0053633D01*
X0343183Y0052634D02*
X0387077Y0052634D01*
X0387077Y0051636D02*
X0343183Y0051636D01*
X0343183Y0050637D02*
X0374096Y0050637D01*
X0376031Y0048099D02*
X0341583Y0048099D01*
X0341583Y0046130D01*
X0336386Y0046130D01*
X0336031Y0046484D01*
X0335531Y0046643D02*
X0311217Y0046643D01*
X0311217Y0046984D02*
X0315169Y0046984D01*
X0315169Y0051553D01*
X0315017Y0052122D01*
X0314722Y0052632D01*
X0314305Y0053049D01*
X0313795Y0053344D01*
X0313226Y0053496D01*
X0311216Y0053496D01*
X0311216Y0046984D01*
X0310217Y0046984D01*
X0310217Y0053496D01*
X0308207Y0053496D01*
X0307638Y0053344D01*
X0307128Y0053049D01*
X0306711Y0052632D01*
X0306416Y0052122D01*
X0306264Y0051553D01*
X0306264Y0046984D01*
X0310216Y0046984D01*
X0310216Y0045984D01*
X0306264Y0045984D01*
X0306264Y0041416D01*
X0306416Y0040847D01*
X0306711Y0040336D01*
X0307128Y0039920D01*
X0307638Y0039625D01*
X0308207Y0039473D01*
X0310217Y0039473D01*
X0310217Y0045984D01*
X0311216Y0045984D01*
X0311216Y0039473D01*
X0313226Y0039473D01*
X0313795Y0039625D01*
X0314305Y0039920D01*
X0314722Y0040336D01*
X0315017Y0040847D01*
X0315169Y0041416D01*
X0315169Y0045984D01*
X0311217Y0045984D01*
X0311217Y0046984D01*
X0311216Y0047642D02*
X0310217Y0047642D01*
X0310217Y0048640D02*
X0311216Y0048640D01*
X0311216Y0049639D02*
X0310217Y0049639D01*
X0310217Y0050637D02*
X0311216Y0050637D01*
X0311216Y0051636D02*
X0310217Y0051636D01*
X0310217Y0052634D02*
X0311216Y0052634D01*
X0314720Y0052634D02*
X0332028Y0052634D01*
X0332026Y0052632D02*
X0331731Y0052122D01*
X0331579Y0051553D01*
X0331579Y0046984D01*
X0335531Y0046984D01*
X0335531Y0045984D01*
X0331579Y0045984D01*
X0331579Y0041416D01*
X0331731Y0040847D01*
X0332026Y0040336D01*
X0332443Y0039920D01*
X0332953Y0039625D01*
X0333522Y0039473D01*
X0335532Y0039473D01*
X0335532Y0045984D01*
X0336531Y0045984D01*
X0336531Y0039473D01*
X0338541Y0039473D01*
X0339110Y0039625D01*
X0339620Y0039920D01*
X0340037Y0040336D01*
X0340332Y0040847D01*
X0340484Y0041416D01*
X0340484Y0045984D01*
X0336532Y0045984D01*
X0336532Y0046984D01*
X0340484Y0046984D01*
X0340484Y0051553D01*
X0340332Y0052122D01*
X0340037Y0052632D01*
X0339620Y0053049D01*
X0339110Y0053344D01*
X0338541Y0053496D01*
X0336531Y0053496D01*
X0336531Y0046984D01*
X0335532Y0046984D01*
X0335532Y0053496D01*
X0333522Y0053496D01*
X0332953Y0053344D01*
X0332443Y0053049D01*
X0332026Y0052632D01*
X0331601Y0051636D02*
X0315147Y0051636D01*
X0315169Y0050637D02*
X0331579Y0050637D01*
X0331579Y0049639D02*
X0315169Y0049639D01*
X0315169Y0048640D02*
X0331579Y0048640D01*
X0331579Y0047642D02*
X0315169Y0047642D01*
X0315169Y0045645D02*
X0331579Y0045645D01*
X0331579Y0044646D02*
X0315169Y0044646D01*
X0315169Y0043648D02*
X0331579Y0043648D01*
X0331579Y0042649D02*
X0315169Y0042649D01*
X0315169Y0041651D02*
X0331579Y0041651D01*
X0331844Y0040652D02*
X0314904Y0040652D01*
X0313845Y0039654D02*
X0332903Y0039654D01*
X0335532Y0039654D02*
X0336531Y0039654D01*
X0336531Y0040652D02*
X0335532Y0040652D01*
X0335532Y0041651D02*
X0336531Y0041651D01*
X0336531Y0042649D02*
X0335532Y0042649D01*
X0335532Y0043648D02*
X0336531Y0043648D01*
X0336531Y0044646D02*
X0335532Y0044646D01*
X0335532Y0045645D02*
X0336531Y0045645D01*
X0336532Y0046643D02*
X0341583Y0046643D01*
X0341583Y0045645D02*
X0340484Y0045645D01*
X0340484Y0044646D02*
X0341583Y0044646D01*
X0341583Y0043648D02*
X0340484Y0043648D01*
X0340484Y0042649D02*
X0341583Y0042649D01*
X0341583Y0041651D02*
X0340484Y0041651D01*
X0340219Y0040652D02*
X0341583Y0040652D01*
X0341583Y0039654D02*
X0339160Y0039654D01*
X0341583Y0038655D02*
X0306150Y0038655D01*
X0306150Y0038256D02*
X0306150Y0061878D01*
X0310087Y0065815D01*
X0311633Y0065815D01*
X0311581Y0065801D01*
X0311127Y0065539D01*
X0310756Y0065168D01*
X0310494Y0064714D01*
X0310358Y0064207D01*
X0310358Y0062953D01*
X0313539Y0062953D01*
X0313539Y0061984D01*
X0310358Y0061984D01*
X0310358Y0060730D01*
X0310494Y0060223D01*
X0310756Y0059769D01*
X0311127Y0059398D01*
X0311581Y0059136D01*
X0312088Y0059000D01*
X0313539Y0059000D01*
X0313539Y0061984D01*
X0314508Y0061984D01*
X0314508Y0059000D01*
X0315959Y0059000D01*
X0316466Y0059136D01*
X0316920Y0059398D01*
X0317291Y0059769D01*
X0317553Y0060223D01*
X0317675Y0060676D01*
X0317767Y0060330D01*
X0318010Y0059909D01*
X0318354Y0059566D01*
X0318774Y0059323D01*
X0319243Y0059197D01*
X0320921Y0059197D01*
X0320921Y0061886D01*
X0317689Y0061886D01*
X0317689Y0061984D01*
X0314508Y0061984D01*
X0314508Y0062953D01*
X0317642Y0062953D01*
X0317642Y0062264D01*
X0320921Y0062264D01*
X0320921Y0061886D01*
X0321299Y0061886D01*
X0321299Y0059197D01*
X0322977Y0059197D01*
X0323446Y0059323D01*
X0323867Y0059566D01*
X0324210Y0059909D01*
X0324453Y0060330D01*
X0324579Y0060799D01*
X0324579Y0061166D01*
X0329772Y0055973D01*
X0337646Y0055973D01*
X0341583Y0052036D01*
X0341583Y0038256D01*
X0306150Y0038256D01*
X0306150Y0039654D02*
X0307588Y0039654D01*
X0306529Y0040652D02*
X0306150Y0040652D01*
X0306150Y0041651D02*
X0306264Y0041651D01*
X0306264Y0042649D02*
X0306150Y0042649D01*
X0306150Y0043648D02*
X0306264Y0043648D01*
X0306264Y0044646D02*
X0306150Y0044646D01*
X0306150Y0045645D02*
X0306264Y0045645D01*
X0306150Y0046643D02*
X0310216Y0046643D01*
X0310217Y0045645D02*
X0311216Y0045645D01*
X0311216Y0044646D02*
X0310217Y0044646D01*
X0310217Y0043648D02*
X0311216Y0043648D01*
X0311216Y0042649D02*
X0310217Y0042649D01*
X0310217Y0041651D02*
X0311216Y0041651D01*
X0311216Y0040652D02*
X0310217Y0040652D01*
X0310217Y0039654D02*
X0311216Y0039654D01*
X0311216Y0036567D02*
X0313304Y0036567D01*
X0313746Y0036479D01*
X0314162Y0036307D01*
X0314537Y0036056D01*
X0314855Y0035738D01*
X0315106Y0035363D01*
X0315278Y0034947D01*
X0315366Y0034505D01*
X0315366Y0030055D01*
X0311217Y0030055D01*
X0311217Y0029055D01*
X0315366Y0029055D01*
X0315366Y0024606D01*
X0315278Y0024164D01*
X0315106Y0023747D01*
X0314855Y0023373D01*
X0314537Y0023054D01*
X0314162Y0022804D01*
X0313746Y0022631D01*
X0313304Y0022543D01*
X0311216Y0022543D01*
X0311216Y0029055D01*
X0310217Y0029055D01*
X0310217Y0022543D01*
X0308129Y0022543D01*
X0307687Y0022631D01*
X0307271Y0022804D01*
X0306896Y0023054D01*
X0306578Y0023373D01*
X0306327Y0023747D01*
X0306155Y0024164D01*
X0306067Y0024606D01*
X0306067Y0029055D01*
X0310216Y0029055D01*
X0310216Y0030055D01*
X0306067Y0030055D01*
X0306067Y0034505D01*
X0306155Y0034947D01*
X0306327Y0035363D01*
X0306578Y0035738D01*
X0306896Y0036056D01*
X0307271Y0036307D01*
X0307687Y0036479D01*
X0308129Y0036567D01*
X0310217Y0036567D01*
X0310217Y0030055D01*
X0311216Y0030055D01*
X0311216Y0036567D01*
X0311216Y0035660D02*
X0310217Y0035660D01*
X0310217Y0034661D02*
X0311216Y0034661D01*
X0311216Y0033663D02*
X0310217Y0033663D01*
X0310217Y0032664D02*
X0311216Y0032664D01*
X0311216Y0031666D02*
X0310217Y0031666D01*
X0310217Y0030667D02*
X0311216Y0030667D01*
X0311217Y0029669D02*
X0335531Y0029669D01*
X0335531Y0030055D02*
X0335531Y0029055D01*
X0331382Y0029055D01*
X0331382Y0024606D01*
X0331470Y0024164D01*
X0331642Y0023747D01*
X0331893Y0023373D01*
X0332211Y0023054D01*
X0332586Y0022804D01*
X0333002Y0022631D01*
X0333444Y0022543D01*
X0335532Y0022543D01*
X0335532Y0029055D01*
X0336531Y0029055D01*
X0336531Y0022543D01*
X0338619Y0022543D01*
X0339061Y0022631D01*
X0339477Y0022804D01*
X0339852Y0023054D01*
X0340170Y0023373D01*
X0340421Y0023747D01*
X0340593Y0024164D01*
X0340681Y0024606D01*
X0340681Y0029055D01*
X0336532Y0029055D01*
X0336532Y0030055D01*
X0340681Y0030055D01*
X0340681Y0034505D01*
X0340593Y0034947D01*
X0340421Y0035363D01*
X0340170Y0035738D01*
X0339852Y0036056D01*
X0339477Y0036307D01*
X0339061Y0036479D01*
X0338619Y0036567D01*
X0336531Y0036567D01*
X0336531Y0030055D01*
X0335532Y0030055D01*
X0335532Y0036567D01*
X0333444Y0036567D01*
X0333002Y0036479D01*
X0332586Y0036307D01*
X0332211Y0036056D01*
X0331893Y0035738D01*
X0331642Y0035363D01*
X0331470Y0034947D01*
X0331382Y0034505D01*
X0331382Y0030055D01*
X0335531Y0030055D01*
X0335532Y0030667D02*
X0336531Y0030667D01*
X0336532Y0029669D02*
X0372162Y0029669D01*
X0372598Y0030104D02*
X0370404Y0027910D01*
X0369217Y0025044D01*
X0369217Y0021941D01*
X0370404Y0019074D01*
X0372598Y0016880D01*
X0375464Y0015693D01*
X0378567Y0015693D01*
X0381434Y0016880D01*
X0383628Y0019074D01*
X0384815Y0021941D01*
X0384815Y0025044D01*
X0383628Y0027910D01*
X0381434Y0030104D01*
X0378567Y0031291D01*
X0375464Y0031291D01*
X0372598Y0030104D01*
X0373957Y0030667D02*
X0340681Y0030667D01*
X0340681Y0031666D02*
X0387077Y0031666D01*
X0387077Y0032664D02*
X0340681Y0032664D01*
X0340681Y0033663D02*
X0387077Y0033663D01*
X0387077Y0034661D02*
X0340650Y0034661D01*
X0340223Y0035660D02*
X0387077Y0035660D01*
X0387077Y0036658D02*
X0377746Y0036658D01*
X0377883Y0036695D02*
X0378337Y0036957D01*
X0378708Y0037328D01*
X0378971Y0037782D01*
X0379106Y0038289D01*
X0379106Y0039740D01*
X0376122Y0039740D01*
X0376122Y0036559D01*
X0377376Y0036559D01*
X0377883Y0036695D01*
X0378898Y0037657D02*
X0379497Y0037657D01*
X0379262Y0037892D02*
X0380195Y0036959D01*
X0384467Y0036959D01*
X0385399Y0037892D01*
X0385399Y0042557D01*
X0384467Y0043490D01*
X0383537Y0043490D01*
X0383537Y0045424D01*
X0383737Y0045424D01*
X0384612Y0046299D01*
X0384612Y0049898D01*
X0383737Y0050773D01*
X0380137Y0050773D01*
X0379262Y0049898D01*
X0379262Y0046299D01*
X0380137Y0045424D01*
X0380337Y0045424D01*
X0380337Y0043490D01*
X0380195Y0043490D01*
X0379262Y0042557D01*
X0379262Y0037892D01*
X0379262Y0038655D02*
X0379106Y0038655D01*
X0379106Y0039654D02*
X0379262Y0039654D01*
X0379262Y0040652D02*
X0376122Y0040652D01*
X0376122Y0040709D02*
X0379106Y0040709D01*
X0379106Y0042160D01*
X0378971Y0042667D01*
X0378708Y0043121D01*
X0378337Y0043492D01*
X0377883Y0043754D01*
X0377376Y0043890D01*
X0376122Y0043890D01*
X0376122Y0040709D01*
X0375154Y0040709D01*
X0375154Y0043890D01*
X0373899Y0043890D01*
X0373392Y0043754D01*
X0372938Y0043492D01*
X0372567Y0043121D01*
X0372305Y0042667D01*
X0372169Y0042160D01*
X0372169Y0040709D01*
X0375153Y0040709D01*
X0375153Y0039740D01*
X0372169Y0039740D01*
X0372169Y0038289D01*
X0372305Y0037782D01*
X0372567Y0037328D01*
X0372938Y0036957D01*
X0373392Y0036695D01*
X0373899Y0036559D01*
X0375154Y0036559D01*
X0375154Y0039740D01*
X0376122Y0039740D01*
X0376122Y0040709D01*
X0376122Y0041651D02*
X0375154Y0041651D01*
X0375154Y0042649D02*
X0376122Y0042649D01*
X0376122Y0043648D02*
X0375154Y0043648D01*
X0373208Y0043648D02*
X0343183Y0043648D01*
X0343183Y0044646D02*
X0380337Y0044646D01*
X0380337Y0043648D02*
X0378067Y0043648D01*
X0378975Y0042649D02*
X0379354Y0042649D01*
X0379262Y0041651D02*
X0379106Y0041651D01*
X0381937Y0040618D02*
X0382331Y0040225D01*
X0381937Y0040618D02*
X0381937Y0048099D01*
X0379262Y0047642D02*
X0378706Y0047642D01*
X0378706Y0048640D02*
X0379262Y0048640D01*
X0379262Y0049639D02*
X0378706Y0049639D01*
X0377967Y0050637D02*
X0380001Y0050637D01*
X0383873Y0050637D02*
X0387077Y0050637D01*
X0387077Y0049639D02*
X0384612Y0049639D01*
X0384612Y0048640D02*
X0387077Y0048640D01*
X0387077Y0047642D02*
X0384612Y0047642D01*
X0384612Y0046643D02*
X0387077Y0046643D01*
X0387077Y0045645D02*
X0383958Y0045645D01*
X0383537Y0044646D02*
X0387077Y0044646D01*
X0387077Y0043648D02*
X0383537Y0043648D01*
X0385307Y0042649D02*
X0387077Y0042649D01*
X0387077Y0041651D02*
X0385399Y0041651D01*
X0385399Y0040652D02*
X0387077Y0040652D01*
X0387077Y0039654D02*
X0385399Y0039654D01*
X0385399Y0038655D02*
X0387077Y0038655D01*
X0387077Y0037657D02*
X0385164Y0037657D01*
X0387077Y0030667D02*
X0380074Y0030667D01*
X0381869Y0029669D02*
X0387077Y0029669D01*
X0387077Y0028670D02*
X0382868Y0028670D01*
X0383726Y0027672D02*
X0387077Y0027672D01*
X0387077Y0026673D02*
X0384140Y0026673D01*
X0384554Y0025675D02*
X0387077Y0025675D01*
X0387077Y0024676D02*
X0384815Y0024676D01*
X0384815Y0023678D02*
X0387077Y0023678D01*
X0387077Y0022679D02*
X0384815Y0022679D01*
X0384707Y0021681D02*
X0387077Y0021681D01*
X0387077Y0020682D02*
X0384294Y0020682D01*
X0383880Y0019684D02*
X0387077Y0019684D01*
X0387077Y0018685D02*
X0383238Y0018685D01*
X0382240Y0017687D02*
X0387077Y0017687D01*
X0387077Y0016688D02*
X0380969Y0016688D01*
X0387077Y0015690D02*
X0004750Y0015690D01*
X0004750Y0016688D02*
X0010857Y0016688D01*
X0010393Y0016880D02*
X0013260Y0015693D01*
X0016362Y0015693D01*
X0019229Y0016880D01*
X0021423Y0019074D01*
X0022610Y0021941D01*
X0022610Y0025044D01*
X0021423Y0027910D01*
X0019229Y0030104D01*
X0016362Y0031291D01*
X0013260Y0031291D01*
X0010393Y0030104D01*
X0008199Y0027910D01*
X0007012Y0025044D01*
X0007012Y0021941D01*
X0008199Y0019074D01*
X0010393Y0016880D01*
X0009587Y0017687D02*
X0004750Y0017687D01*
X0004750Y0018685D02*
X0008588Y0018685D01*
X0007947Y0019684D02*
X0004750Y0019684D01*
X0004750Y0020682D02*
X0007533Y0020682D01*
X0007120Y0021681D02*
X0004750Y0021681D01*
X0004750Y0022679D02*
X0007012Y0022679D01*
X0007012Y0023678D02*
X0004750Y0023678D01*
X0004750Y0024676D02*
X0007012Y0024676D01*
X0007273Y0025675D02*
X0004750Y0025675D01*
X0004750Y0026673D02*
X0007687Y0026673D01*
X0008100Y0027672D02*
X0004750Y0027672D01*
X0004750Y0028670D02*
X0008959Y0028670D01*
X0009958Y0029669D02*
X0004750Y0029669D01*
X0004750Y0030667D02*
X0011753Y0030667D01*
X0004750Y0031666D02*
X0306067Y0031666D01*
X0306067Y0032664D02*
X0004750Y0032664D01*
X0004750Y0033663D02*
X0306067Y0033663D01*
X0306098Y0034661D02*
X0004750Y0034661D01*
X0004750Y0035660D02*
X0306525Y0035660D01*
X0305485Y0036658D02*
X0004750Y0036658D01*
X0004750Y0037657D02*
X0304550Y0037657D01*
X0304550Y0038655D02*
X0004750Y0038655D01*
X0004750Y0039654D02*
X0304550Y0039654D01*
X0304550Y0040652D02*
X0004750Y0040652D01*
X0004750Y0041651D02*
X0304550Y0041651D01*
X0304550Y0042649D02*
X0004750Y0042649D01*
X0004750Y0043648D02*
X0304550Y0043648D01*
X0304550Y0044646D02*
X0004750Y0044646D01*
X0004750Y0045645D02*
X0304550Y0045645D01*
X0304550Y0046643D02*
X0004750Y0046643D01*
X0004750Y0047642D02*
X0304550Y0047642D01*
X0304550Y0048640D02*
X0004750Y0048640D01*
X0004750Y0049639D02*
X0304550Y0049639D01*
X0304550Y0050637D02*
X0004750Y0050637D01*
X0004750Y0051636D02*
X0304550Y0051636D01*
X0304550Y0052634D02*
X0013346Y0052634D01*
X0013209Y0052497D02*
X0014345Y0053633D01*
X0022182Y0053633D01*
X0022321Y0053495D01*
X0026986Y0053495D01*
X0027755Y0054263D01*
X0028890Y0054263D01*
X0029570Y0053584D01*
X0031549Y0053584D01*
X0032948Y0054983D01*
X0032948Y0056962D01*
X0031549Y0058362D01*
X0031423Y0058362D01*
X0030921Y0058863D01*
X0027755Y0058863D01*
X0026986Y0059632D01*
X0022321Y0059632D01*
X0021388Y0058699D01*
X0021388Y0058233D01*
X0014345Y0058233D01*
X0013209Y0059369D01*
X0011720Y0059986D01*
X0010107Y0059986D01*
X0008618Y0059369D01*
X0007478Y0058229D01*
X0006861Y0056739D01*
X0006861Y0055127D01*
X0007478Y0053638D01*
X0008618Y0052497D01*
X0010107Y0051880D01*
X0011720Y0051880D01*
X0013209Y0052497D01*
X0014345Y0053633D02*
X0022182Y0053633D01*
X0027125Y0053633D02*
X0029520Y0053633D01*
X0031598Y0053633D02*
X0304550Y0053633D01*
X0304550Y0054631D02*
X0032596Y0054631D01*
X0032948Y0055630D02*
X0304550Y0055630D01*
X0304550Y0056629D02*
X0032948Y0056629D01*
X0032283Y0057627D02*
X0304550Y0057627D01*
X0304550Y0058626D02*
X0031159Y0058626D01*
X0027921Y0060556D02*
X0028183Y0061011D01*
X0028319Y0061517D01*
X0028319Y0062772D01*
X0025138Y0062772D01*
X0025138Y0059788D01*
X0026589Y0059788D01*
X0027096Y0059923D01*
X0027550Y0060186D01*
X0027921Y0060556D01*
X0027959Y0060623D02*
X0304550Y0060623D01*
X0304550Y0061621D02*
X0028319Y0061621D01*
X0028319Y0062620D02*
X0304628Y0062620D01*
X0305627Y0063618D02*
X0025138Y0063618D01*
X0024169Y0063618D02*
X0014731Y0063618D01*
X0015167Y0064617D02*
X0020988Y0064617D01*
X0020988Y0062620D02*
X0013897Y0062620D01*
X0012593Y0059624D02*
X0022313Y0059624D01*
X0021388Y0058626D02*
X0013953Y0058626D01*
X0009234Y0059624D02*
X0004750Y0059624D01*
X0004750Y0058626D02*
X0007874Y0058626D01*
X0007228Y0057627D02*
X0004750Y0057627D01*
X0004750Y0056629D02*
X0006861Y0056629D01*
X0006861Y0055630D02*
X0004750Y0055630D01*
X0004750Y0054631D02*
X0007066Y0054631D01*
X0007482Y0053633D02*
X0004750Y0053633D01*
X0004750Y0052634D02*
X0008481Y0052634D01*
X0024169Y0060623D02*
X0025138Y0060623D01*
X0025138Y0061621D02*
X0024169Y0061621D01*
X0024169Y0062620D02*
X0025138Y0062620D01*
X0025138Y0064617D02*
X0024169Y0064617D01*
X0024169Y0065615D02*
X0025138Y0065615D01*
X0025138Y0066614D02*
X0024169Y0066614D01*
X0027003Y0066614D02*
X0308622Y0066614D01*
X0307624Y0065615D02*
X0028117Y0065615D01*
X0028319Y0064617D02*
X0306625Y0064617D01*
X0307890Y0063618D02*
X0310358Y0063618D01*
X0310468Y0064617D02*
X0308888Y0064617D01*
X0309887Y0065615D02*
X0311259Y0065615D01*
X0313539Y0062620D02*
X0306891Y0062620D01*
X0306150Y0061621D02*
X0310358Y0061621D01*
X0310387Y0060623D02*
X0306150Y0060623D01*
X0306150Y0059624D02*
X0310901Y0059624D01*
X0313539Y0059624D02*
X0314508Y0059624D01*
X0314508Y0060623D02*
X0313539Y0060623D01*
X0313539Y0061621D02*
X0314508Y0061621D01*
X0314508Y0062620D02*
X0317642Y0062620D01*
X0317660Y0060623D02*
X0317689Y0060623D01*
X0317146Y0059624D02*
X0318295Y0059624D01*
X0320921Y0059624D02*
X0321299Y0059624D01*
X0321299Y0060623D02*
X0320921Y0060623D01*
X0320921Y0061621D02*
X0321299Y0061621D01*
X0323925Y0059624D02*
X0326120Y0059624D01*
X0325122Y0060623D02*
X0324532Y0060623D01*
X0327119Y0058626D02*
X0306150Y0058626D01*
X0306150Y0057627D02*
X0328117Y0057627D01*
X0329116Y0056629D02*
X0306150Y0056629D01*
X0306150Y0055630D02*
X0337988Y0055630D01*
X0338987Y0054631D02*
X0306150Y0054631D01*
X0306150Y0053633D02*
X0339985Y0053633D01*
X0340035Y0052634D02*
X0340984Y0052634D01*
X0340462Y0051636D02*
X0341583Y0051636D01*
X0341583Y0050637D02*
X0340484Y0050637D01*
X0340484Y0049639D02*
X0341583Y0049639D01*
X0341583Y0048640D02*
X0340484Y0048640D01*
X0340484Y0047642D02*
X0341583Y0047642D01*
X0343183Y0045645D02*
X0374011Y0045645D01*
X0372300Y0042649D02*
X0343183Y0042649D01*
X0343183Y0041651D02*
X0372169Y0041651D01*
X0372169Y0039654D02*
X0343183Y0039654D01*
X0343183Y0040652D02*
X0375153Y0040652D01*
X0375154Y0039654D02*
X0376122Y0039654D01*
X0376122Y0038655D02*
X0375154Y0038655D01*
X0375154Y0037657D02*
X0376122Y0037657D01*
X0376122Y0036658D02*
X0375154Y0036658D01*
X0373529Y0036658D02*
X0342248Y0036658D01*
X0343183Y0037657D02*
X0372378Y0037657D01*
X0372169Y0038655D02*
X0343183Y0038655D01*
X0336531Y0035660D02*
X0335532Y0035660D01*
X0335532Y0034661D02*
X0336531Y0034661D01*
X0336531Y0033663D02*
X0335532Y0033663D01*
X0335532Y0032664D02*
X0336531Y0032664D01*
X0336531Y0031666D02*
X0335532Y0031666D01*
X0335532Y0028670D02*
X0336531Y0028670D01*
X0336531Y0027672D02*
X0335532Y0027672D01*
X0335532Y0026673D02*
X0336531Y0026673D01*
X0336531Y0025675D02*
X0335532Y0025675D01*
X0335532Y0024676D02*
X0336531Y0024676D01*
X0336531Y0023678D02*
X0335532Y0023678D01*
X0335532Y0022679D02*
X0336531Y0022679D01*
X0339176Y0022679D02*
X0369217Y0022679D01*
X0369217Y0023678D02*
X0340374Y0023678D01*
X0340681Y0024676D02*
X0369217Y0024676D01*
X0369478Y0025675D02*
X0340681Y0025675D01*
X0340681Y0026673D02*
X0369892Y0026673D01*
X0370305Y0027672D02*
X0340681Y0027672D01*
X0340681Y0028670D02*
X0371164Y0028670D01*
X0369324Y0021681D02*
X0022502Y0021681D01*
X0022610Y0022679D02*
X0307572Y0022679D01*
X0306374Y0023678D02*
X0022610Y0023678D01*
X0022610Y0024676D02*
X0306067Y0024676D01*
X0306067Y0025675D02*
X0022349Y0025675D01*
X0021935Y0026673D02*
X0306067Y0026673D01*
X0306067Y0027672D02*
X0021522Y0027672D01*
X0020663Y0028670D02*
X0306067Y0028670D01*
X0306067Y0030667D02*
X0017869Y0030667D01*
X0019664Y0029669D02*
X0310216Y0029669D01*
X0310217Y0028670D02*
X0311216Y0028670D01*
X0311216Y0027672D02*
X0310217Y0027672D01*
X0310217Y0026673D02*
X0311216Y0026673D01*
X0311216Y0025675D02*
X0310217Y0025675D01*
X0310217Y0024676D02*
X0311216Y0024676D01*
X0311216Y0023678D02*
X0310217Y0023678D01*
X0310217Y0022679D02*
X0311216Y0022679D01*
X0313861Y0022679D02*
X0332887Y0022679D01*
X0331689Y0023678D02*
X0315059Y0023678D01*
X0315366Y0024676D02*
X0331382Y0024676D01*
X0331382Y0025675D02*
X0315366Y0025675D01*
X0315366Y0026673D02*
X0331382Y0026673D01*
X0331382Y0027672D02*
X0315366Y0027672D01*
X0315366Y0028670D02*
X0331382Y0028670D01*
X0331382Y0030667D02*
X0315366Y0030667D01*
X0315366Y0031666D02*
X0331382Y0031666D01*
X0331382Y0032664D02*
X0315366Y0032664D01*
X0315366Y0033663D02*
X0331382Y0033663D01*
X0331413Y0034661D02*
X0315335Y0034661D01*
X0314908Y0035660D02*
X0331840Y0035660D01*
X0335532Y0047642D02*
X0336531Y0047642D01*
X0336531Y0048640D02*
X0335532Y0048640D01*
X0335532Y0049639D02*
X0336531Y0049639D01*
X0336531Y0050637D02*
X0335532Y0050637D01*
X0335532Y0051636D02*
X0336531Y0051636D01*
X0336531Y0052634D02*
X0335532Y0052634D01*
X0339252Y0056629D02*
X0368417Y0056629D01*
X0368232Y0057627D02*
X0330380Y0057627D01*
X0329381Y0058626D02*
X0368232Y0058626D01*
X0368232Y0059624D02*
X0333202Y0059624D01*
X0334021Y0060623D02*
X0368232Y0060623D01*
X0354689Y0065615D02*
X0348162Y0065615D01*
X0348588Y0066614D02*
X0354262Y0066614D01*
X0354262Y0067612D02*
X0348588Y0067612D01*
X0348588Y0068611D02*
X0354262Y0068611D01*
X0354262Y0069609D02*
X0348588Y0069609D01*
X0348588Y0070608D02*
X0354262Y0070608D01*
X0354262Y0071606D02*
X0348588Y0071606D01*
X0348588Y0072605D02*
X0354262Y0072605D01*
X0354403Y0073603D02*
X0348448Y0073603D01*
X0338130Y0063618D02*
X0337161Y0063618D01*
X0337161Y0062620D02*
X0338130Y0062620D01*
X0338130Y0061621D02*
X0337161Y0061621D01*
X0334495Y0061621D02*
X0334021Y0061621D01*
X0328703Y0059624D02*
X0328383Y0059624D01*
X0324408Y0069609D02*
X0324179Y0069609D01*
X0324179Y0070608D02*
X0325120Y0070608D01*
X0325839Y0071606D02*
X0323760Y0071606D01*
X0318461Y0071606D02*
X0317438Y0071606D01*
X0317689Y0070608D02*
X0318042Y0070608D01*
X0318042Y0069609D02*
X0314508Y0069609D01*
X0317689Y0068611D02*
X0318042Y0068611D01*
X0318353Y0067612D02*
X0317689Y0067612D01*
X0311993Y0072605D02*
X0013316Y0072605D01*
X0013301Y0082590D02*
X0015307Y0082590D01*
X0016306Y0083588D02*
X0014300Y0083588D01*
X0014742Y0084587D02*
X0017304Y0084587D01*
X0018303Y0085585D02*
X0014966Y0085585D01*
X0014966Y0086584D02*
X0019301Y0086584D01*
X0020300Y0087582D02*
X0014825Y0087582D01*
X0015824Y0088581D02*
X0021298Y0088581D01*
X0022297Y0089579D02*
X0016822Y0089579D01*
X0017821Y0090578D02*
X0023295Y0090578D01*
X0024294Y0091576D02*
X0018819Y0091576D01*
X0019818Y0092575D02*
X0025292Y0092575D01*
X0026291Y0093573D02*
X0020816Y0093573D01*
X0021815Y0094572D02*
X0027289Y0094572D01*
X0028288Y0095570D02*
X0022813Y0095570D01*
X0023812Y0096569D02*
X0029286Y0096569D01*
X0030285Y0097567D02*
X0024810Y0097567D01*
X0025809Y0098566D02*
X0031283Y0098566D01*
X0032282Y0099565D02*
X0026807Y0099565D01*
X0027806Y0100563D02*
X0033280Y0100563D01*
X0034279Y0101562D02*
X0028804Y0101562D01*
X0029803Y0102560D02*
X0035277Y0102560D01*
X0036276Y0103559D02*
X0030801Y0103559D01*
X0031800Y0104557D02*
X0037275Y0104557D01*
X0038273Y0105556D02*
X0032798Y0105556D01*
X0033797Y0106554D02*
X0039272Y0106554D01*
X0040270Y0107553D02*
X0034795Y0107553D01*
X0035794Y0108551D02*
X0041269Y0108551D01*
X0042267Y0109550D02*
X0036793Y0109550D01*
X0037791Y0110548D02*
X0043266Y0110548D01*
X0044264Y0111547D02*
X0038790Y0111547D01*
X0039788Y0112545D02*
X0045263Y0112545D01*
X0046261Y0113544D02*
X0040787Y0113544D01*
X0041785Y0114542D02*
X0047260Y0114542D01*
X0048258Y0115541D02*
X0042784Y0115541D01*
X0043782Y0116539D02*
X0049257Y0116539D01*
X0051785Y0114542D02*
X0158396Y0114542D01*
X0158396Y0113544D02*
X0050787Y0113544D01*
X0049788Y0112545D02*
X0158396Y0112545D01*
X0158396Y0111547D02*
X0048790Y0111547D01*
X0047791Y0110548D02*
X0158396Y0110548D01*
X0158396Y0109550D02*
X0046793Y0109550D01*
X0045794Y0108551D02*
X0158396Y0108551D01*
X0158396Y0115541D02*
X0052784Y0115541D01*
X0053782Y0116539D02*
X0158396Y0116539D01*
X0158396Y0117538D02*
X0054781Y0117538D01*
X0055779Y0118536D02*
X0158396Y0118536D01*
X0158396Y0119535D02*
X0056778Y0119535D01*
X0057776Y0120533D02*
X0158396Y0120533D01*
X0158396Y0121532D02*
X0058775Y0121532D01*
X0059773Y0122530D02*
X0158396Y0122530D01*
X0158396Y0123529D02*
X0060772Y0123529D01*
X0061770Y0124527D02*
X0158396Y0124527D01*
X0158396Y0125526D02*
X0062769Y0125526D01*
X0063767Y0126524D02*
X0158396Y0126524D01*
X0158396Y0127523D02*
X0064766Y0127523D01*
X0065764Y0128521D02*
X0158051Y0128521D01*
X0157996Y0129520D02*
X0066763Y0129520D01*
X0067761Y0130518D02*
X0162063Y0130518D01*
X0162835Y0130518D02*
X0170142Y0130518D01*
X0170142Y0129520D02*
X0166902Y0129520D01*
X0166846Y0128521D02*
X0170165Y0128521D01*
X0170866Y0127523D02*
X0166502Y0127523D01*
X0166502Y0126524D02*
X0225325Y0126524D01*
X0225325Y0125526D02*
X0166502Y0125526D01*
X0166502Y0124527D02*
X0225325Y0124527D01*
X0225325Y0123529D02*
X0166502Y0123529D01*
X0166502Y0122530D02*
X0225325Y0122530D01*
X0225325Y0121532D02*
X0166502Y0121532D01*
X0166502Y0120533D02*
X0225325Y0120533D01*
X0225325Y0119535D02*
X0166502Y0119535D01*
X0166502Y0118536D02*
X0225325Y0118536D01*
X0225325Y0117538D02*
X0166502Y0117538D01*
X0166502Y0116539D02*
X0225325Y0116539D01*
X0225325Y0115541D02*
X0166502Y0115541D01*
X0166502Y0114542D02*
X0225325Y0114542D01*
X0225325Y0113544D02*
X0166502Y0113544D01*
X0166502Y0112545D02*
X0225325Y0112545D01*
X0225325Y0111547D02*
X0166502Y0111547D01*
X0166502Y0110548D02*
X0225325Y0110548D01*
X0225325Y0109550D02*
X0166502Y0109550D01*
X0166502Y0108551D02*
X0225325Y0108551D01*
X0226425Y0135697D02*
X0219535Y0142587D01*
X0219535Y0191799D01*
X0223472Y0195736D01*
X0221776Y0197419D02*
X0166502Y0197419D01*
X0166502Y0196420D02*
X0221083Y0196420D01*
X0220895Y0195422D02*
X0166502Y0195422D01*
X0166502Y0194423D02*
X0219896Y0194423D01*
X0218898Y0193425D02*
X0166456Y0193425D01*
X0166502Y0192426D02*
X0217935Y0192426D01*
X0217935Y0191428D02*
X0166502Y0191428D01*
X0166502Y0190429D02*
X0217935Y0190429D01*
X0217935Y0189431D02*
X0166502Y0189431D01*
X0166464Y0188432D02*
X0217935Y0188432D01*
X0217935Y0187434D02*
X0166502Y0187434D01*
X0166502Y0186435D02*
X0217935Y0186435D01*
X0217935Y0185436D02*
X0166502Y0185436D01*
X0166502Y0184438D02*
X0217935Y0184438D01*
X0217935Y0183439D02*
X0166471Y0183439D01*
X0166502Y0182441D02*
X0217935Y0182441D01*
X0217935Y0181442D02*
X0166502Y0181442D01*
X0166502Y0180444D02*
X0184183Y0180444D01*
X0184065Y0180326D02*
X0184065Y0163273D01*
X0184710Y0162628D01*
X0196152Y0162628D01*
X0196252Y0162528D01*
X0196594Y0162331D01*
X0196976Y0162228D01*
X0198740Y0162228D01*
X0198740Y0162628D01*
X0199740Y0162628D01*
X0199740Y0162228D01*
X0201505Y0162228D01*
X0201886Y0162331D01*
X0202228Y0162528D01*
X0202507Y0162807D01*
X0202705Y0163150D01*
X0202807Y0163531D01*
X0202807Y0165295D01*
X0202407Y0165295D01*
X0202407Y0166295D01*
X0202807Y0166295D01*
X0202807Y0168060D01*
X0202705Y0168441D01*
X0202507Y0168783D01*
X0202407Y0168884D01*
X0202407Y0180326D01*
X0201763Y0180970D01*
X0184710Y0180970D01*
X0184065Y0180326D01*
X0184065Y0179445D02*
X0166502Y0179445D01*
X0166479Y0178447D02*
X0184065Y0178447D01*
X0184065Y0177448D02*
X0166502Y0177448D01*
X0166502Y0176450D02*
X0184065Y0176450D01*
X0184065Y0175451D02*
X0166502Y0175451D01*
X0166502Y0174453D02*
X0184065Y0174453D01*
X0184065Y0173454D02*
X0166486Y0173454D01*
X0166502Y0172456D02*
X0184065Y0172456D01*
X0184065Y0171457D02*
X0170421Y0171457D01*
X0171420Y0170459D02*
X0184065Y0170459D01*
X0184065Y0169460D02*
X0172418Y0169460D01*
X0173417Y0168462D02*
X0184065Y0168462D01*
X0184065Y0167463D02*
X0174415Y0167463D01*
X0175414Y0166465D02*
X0184065Y0166465D01*
X0184065Y0165466D02*
X0176412Y0165466D01*
X0177411Y0164468D02*
X0184065Y0164468D01*
X0184065Y0163469D02*
X0178409Y0163469D01*
X0179408Y0162471D02*
X0196352Y0162471D01*
X0198740Y0162471D02*
X0199740Y0162471D01*
X0202129Y0162471D02*
X0217935Y0162471D01*
X0217935Y0163469D02*
X0202791Y0163469D01*
X0202807Y0164468D02*
X0217935Y0164468D01*
X0217935Y0165466D02*
X0202407Y0165466D01*
X0202807Y0166465D02*
X0217935Y0166465D01*
X0217935Y0167463D02*
X0202807Y0167463D01*
X0202693Y0168462D02*
X0217935Y0168462D01*
X0217935Y0169460D02*
X0202407Y0169460D01*
X0202409Y0168768D02*
X0205756Y0172114D01*
X0202407Y0172456D02*
X0217935Y0172456D01*
X0217935Y0173454D02*
X0202407Y0173454D01*
X0202407Y0174453D02*
X0217935Y0174453D01*
X0217935Y0175451D02*
X0202407Y0175451D01*
X0202407Y0176450D02*
X0217935Y0176450D01*
X0217935Y0177448D02*
X0202407Y0177448D01*
X0202407Y0178447D02*
X0217935Y0178447D01*
X0217935Y0179445D02*
X0202407Y0179445D01*
X0202289Y0180444D02*
X0217935Y0180444D01*
X0221135Y0180444D02*
X0225325Y0180444D01*
X0225325Y0181442D02*
X0221135Y0181442D01*
X0221135Y0182441D02*
X0225325Y0182441D01*
X0225325Y0182924D02*
X0225325Y0178470D01*
X0225598Y0178197D01*
X0225325Y0177924D01*
X0225325Y0173470D01*
X0225598Y0173197D01*
X0225325Y0172924D01*
X0225325Y0168470D01*
X0225598Y0168197D01*
X0225325Y0167924D01*
X0225325Y0163470D01*
X0225598Y0163197D01*
X0225325Y0162924D01*
X0225325Y0161903D01*
X0224778Y0161903D01*
X0222810Y0159935D01*
X0221872Y0158998D01*
X0221872Y0142512D01*
X0221135Y0143249D01*
X0221135Y0191137D01*
X0223346Y0193347D01*
X0224462Y0193347D01*
X0225325Y0194211D01*
X0225325Y0193470D01*
X0225598Y0193197D01*
X0225325Y0192924D01*
X0225325Y0188470D01*
X0225598Y0188197D01*
X0225325Y0187924D01*
X0225325Y0183470D01*
X0225598Y0183197D01*
X0225325Y0182924D01*
X0225355Y0183439D02*
X0221135Y0183439D01*
X0221135Y0184438D02*
X0225325Y0184438D01*
X0225325Y0185436D02*
X0221135Y0185436D01*
X0221135Y0186435D02*
X0225325Y0186435D01*
X0225325Y0187434D02*
X0221135Y0187434D01*
X0221135Y0188432D02*
X0225363Y0188432D01*
X0225325Y0189431D02*
X0221135Y0189431D01*
X0221135Y0190429D02*
X0225325Y0190429D01*
X0225325Y0191428D02*
X0221426Y0191428D01*
X0222425Y0192426D02*
X0225325Y0192426D01*
X0225370Y0193425D02*
X0224539Y0193425D01*
X0225169Y0197419D02*
X0225325Y0197419D01*
X0225008Y0198417D02*
X0166818Y0198417D01*
X0166902Y0199416D02*
X0224925Y0199416D01*
X0224925Y0201413D02*
X0166902Y0201413D01*
X0166902Y0202411D02*
X0224925Y0202411D01*
X0228992Y0200414D02*
X0162835Y0200414D01*
X0162063Y0200414D02*
X0154303Y0200414D01*
X0154303Y0200567D02*
X0151122Y0200567D01*
X0151122Y0197997D01*
X0151024Y0197997D01*
X0150454Y0197427D01*
X0149641Y0197427D01*
X0149485Y0197583D01*
X0150154Y0197583D01*
X0150154Y0200567D01*
X0151122Y0200567D01*
X0151122Y0201536D01*
X0154303Y0201536D01*
X0154303Y0202790D01*
X0154167Y0203297D01*
X0154148Y0203330D01*
X0154368Y0203110D01*
X0158135Y0203110D01*
X0158098Y0203048D01*
X0157996Y0202666D01*
X0157996Y0201083D01*
X0162063Y0201083D01*
X0162063Y0200311D01*
X0157996Y0200311D01*
X0157996Y0198728D01*
X0158098Y0198346D01*
X0158296Y0198004D01*
X0158303Y0197997D01*
X0153550Y0197997D01*
X0153905Y0198352D01*
X0154167Y0198806D01*
X0154303Y0199313D01*
X0154303Y0200567D01*
X0154303Y0199416D02*
X0157996Y0199416D01*
X0158079Y0198417D02*
X0153943Y0198417D01*
X0151122Y0198417D02*
X0150154Y0198417D01*
X0150154Y0199416D02*
X0151122Y0199416D01*
X0151122Y0200414D02*
X0150154Y0200414D01*
X0150153Y0201413D02*
X0146029Y0201413D01*
X0146029Y0202411D02*
X0146972Y0202411D01*
X0147173Y0203410D02*
X0145807Y0203410D01*
X0145064Y0204408D02*
X0148286Y0204408D01*
X0150154Y0204408D02*
X0151122Y0204408D01*
X0151122Y0203410D02*
X0150154Y0203410D01*
X0150154Y0202411D02*
X0151122Y0202411D01*
X0151122Y0201413D02*
X0157996Y0201413D01*
X0157996Y0202411D02*
X0154303Y0202411D01*
X0154075Y0204408D02*
X0152990Y0204408D01*
X0154075Y0205407D02*
X0145064Y0205407D01*
X0145064Y0206405D02*
X0154075Y0206405D01*
X0154075Y0207404D02*
X0145064Y0207404D01*
X0145064Y0208402D02*
X0154075Y0208402D01*
X0154075Y0209401D02*
X0145153Y0209401D01*
X0145153Y0210399D02*
X0154075Y0210399D01*
X0154075Y0211398D02*
X0144260Y0211398D01*
X0141267Y0211398D02*
X0018349Y0211398D01*
X0019229Y0211762D02*
X0021423Y0213956D01*
X0022610Y0216823D01*
X0022610Y0219926D01*
X0021423Y0222792D01*
X0019229Y0224986D01*
X0016362Y0226173D01*
X0013260Y0226173D01*
X0010393Y0224986D01*
X0008199Y0222792D01*
X0007012Y0219926D01*
X0007012Y0216823D01*
X0008199Y0213956D01*
X0010393Y0211762D01*
X0013260Y0210575D01*
X0016362Y0210575D01*
X0019229Y0211762D01*
X0019863Y0212396D02*
X0154075Y0212396D01*
X0154075Y0213395D02*
X0020861Y0213395D01*
X0021604Y0214393D02*
X0154075Y0214393D01*
X0154075Y0215392D02*
X0022017Y0215392D01*
X0022431Y0216390D02*
X0154075Y0216390D01*
X0154075Y0217389D02*
X0022610Y0217389D01*
X0022610Y0218387D02*
X0108044Y0218387D01*
X0108174Y0218256D02*
X0108629Y0217994D01*
X0109135Y0217858D01*
X0111965Y0217858D01*
X0111965Y0220843D01*
X0112933Y0220843D01*
X0112933Y0221811D01*
X0117492Y0221811D01*
X0117492Y0223066D01*
X0117356Y0223572D01*
X0117094Y0224026D01*
X0116723Y0224397D01*
X0116269Y0224660D01*
X0115762Y0224795D01*
X0112933Y0224795D01*
X0112933Y0221811D01*
X0111965Y0221811D01*
X0111965Y0224795D01*
X0109135Y0224795D01*
X0108629Y0224660D01*
X0108174Y0224397D01*
X0107804Y0224026D01*
X0107541Y0223572D01*
X0107406Y0223066D01*
X0107406Y0221811D01*
X0111964Y0221811D01*
X0111964Y0220843D01*
X0107406Y0220843D01*
X0107406Y0219588D01*
X0107541Y0219082D01*
X0107804Y0218627D01*
X0108174Y0218256D01*
X0107460Y0219386D02*
X0022610Y0219386D01*
X0022420Y0220384D02*
X0107406Y0220384D01*
X0107406Y0222381D02*
X0021593Y0222381D01*
X0022007Y0221383D02*
X0111964Y0221383D01*
X0112933Y0221383D02*
X0133224Y0221383D01*
X0133224Y0221811D02*
X0133224Y0220843D01*
X0128665Y0220843D01*
X0128665Y0219588D01*
X0128801Y0219082D01*
X0129063Y0218627D01*
X0129434Y0218256D01*
X0129889Y0217994D01*
X0130395Y0217858D01*
X0133224Y0217858D01*
X0133224Y0220843D01*
X0134193Y0220843D01*
X0134193Y0221811D01*
X0138752Y0221811D01*
X0138752Y0223066D01*
X0138616Y0223572D01*
X0138354Y0224026D01*
X0137983Y0224397D01*
X0137529Y0224660D01*
X0137022Y0224795D01*
X0134193Y0224795D01*
X0134193Y0221811D01*
X0133224Y0221811D01*
X0128665Y0221811D01*
X0128665Y0223066D01*
X0128801Y0223572D01*
X0129063Y0224026D01*
X0129434Y0224397D01*
X0129889Y0224660D01*
X0130395Y0224795D01*
X0133224Y0224795D01*
X0133224Y0221811D01*
X0133224Y0222381D02*
X0134193Y0222381D01*
X0134193Y0221383D02*
X0154075Y0221383D01*
X0154075Y0222381D02*
X0138752Y0222381D01*
X0138668Y0223380D02*
X0154075Y0223380D01*
X0154075Y0224378D02*
X0138002Y0224378D01*
X0138752Y0220843D02*
X0134193Y0220843D01*
X0134193Y0217858D01*
X0137022Y0217858D01*
X0137529Y0217994D01*
X0137983Y0218256D01*
X0138354Y0218627D01*
X0138616Y0219082D01*
X0138752Y0219588D01*
X0138752Y0220843D01*
X0138752Y0220384D02*
X0154075Y0220384D01*
X0154075Y0219386D02*
X0138698Y0219386D01*
X0138114Y0218387D02*
X0154075Y0218387D01*
X0154075Y0225377D02*
X0018285Y0225377D01*
X0019837Y0224378D02*
X0108155Y0224378D01*
X0107490Y0223380D02*
X0020835Y0223380D01*
X0011337Y0225377D02*
X0004750Y0225377D01*
X0004750Y0226375D02*
X0154075Y0226375D01*
X0154075Y0227374D02*
X0004750Y0227374D01*
X0004750Y0228372D02*
X0154075Y0228372D01*
X0154075Y0229371D02*
X0004750Y0229371D01*
X0004750Y0224378D02*
X0009786Y0224378D01*
X0008787Y0223380D02*
X0004750Y0223380D01*
X0004750Y0222381D02*
X0008029Y0222381D01*
X0007615Y0221383D02*
X0004750Y0221383D01*
X0004750Y0220384D02*
X0007202Y0220384D01*
X0007012Y0219386D02*
X0004750Y0219386D01*
X0004750Y0218387D02*
X0007012Y0218387D01*
X0007012Y0217389D02*
X0004750Y0217389D01*
X0004750Y0216390D02*
X0007191Y0216390D01*
X0007605Y0215392D02*
X0004750Y0215392D01*
X0004750Y0214393D02*
X0008018Y0214393D01*
X0008761Y0213395D02*
X0004750Y0213395D01*
X0004750Y0212396D02*
X0009759Y0212396D01*
X0011273Y0211398D02*
X0004750Y0211398D01*
X0004750Y0210399D02*
X0140375Y0210399D01*
X0140375Y0209401D02*
X0004750Y0209401D01*
X0004750Y0208402D02*
X0108493Y0208402D01*
X0107806Y0207404D02*
X0004750Y0207404D01*
X0004750Y0206405D02*
X0107806Y0206405D01*
X0107806Y0205407D02*
X0004750Y0205407D01*
X0004750Y0204408D02*
X0107806Y0204408D01*
X0107839Y0203410D02*
X0004750Y0203410D01*
X0004750Y0202411D02*
X0133190Y0202411D01*
X0133305Y0201413D02*
X0004750Y0201413D01*
X0004750Y0200414D02*
X0134304Y0200414D01*
X0135302Y0199416D02*
X0004750Y0199416D01*
X0004750Y0198417D02*
X0136301Y0198417D01*
X0137299Y0197419D02*
X0004750Y0197419D01*
X0004750Y0196420D02*
X0138298Y0196420D01*
X0139296Y0195422D02*
X0004750Y0195422D01*
X0004750Y0194423D02*
X0139498Y0194423D01*
X0139498Y0193425D02*
X0004750Y0193425D01*
X0004750Y0192426D02*
X0139498Y0192426D01*
X0139550Y0191428D02*
X0004750Y0191428D01*
X0004750Y0190429D02*
X0139498Y0190429D01*
X0139498Y0189431D02*
X0013060Y0189431D01*
X0014146Y0188432D02*
X0139498Y0188432D01*
X0139498Y0187434D02*
X0014679Y0187434D01*
X0014966Y0186435D02*
X0140168Y0186435D01*
X0140322Y0185880D02*
X0139867Y0185618D01*
X0139496Y0185247D01*
X0139234Y0184793D01*
X0139098Y0184286D01*
X0139098Y0183032D01*
X0142279Y0183032D01*
X0142279Y0182063D01*
X0139098Y0182063D01*
X0139098Y0180809D01*
X0139234Y0180302D01*
X0139496Y0179848D01*
X0139867Y0179477D01*
X0140322Y0179215D01*
X0140828Y0179079D01*
X0142280Y0179079D01*
X0142280Y0182063D01*
X0143248Y0182063D01*
X0143248Y0179079D01*
X0144699Y0179079D01*
X0145206Y0179215D01*
X0145660Y0179477D01*
X0146031Y0179848D01*
X0146293Y0180302D01*
X0146429Y0180809D01*
X0146429Y0182063D01*
X0143248Y0182063D01*
X0143248Y0183032D01*
X0142280Y0183032D01*
X0142280Y0186016D01*
X0140828Y0186016D01*
X0140322Y0185880D01*
X0139686Y0185436D02*
X0014966Y0185436D01*
X0014681Y0184438D02*
X0139139Y0184438D01*
X0139098Y0183439D02*
X0015670Y0183439D01*
X0016668Y0182441D02*
X0142279Y0182441D01*
X0143248Y0182441D02*
X0158396Y0182441D01*
X0158396Y0181442D02*
X0146429Y0181442D01*
X0146331Y0180444D02*
X0158396Y0180444D01*
X0158396Y0179445D02*
X0145606Y0179445D01*
X0143248Y0179445D02*
X0142280Y0179445D01*
X0142280Y0180444D02*
X0143248Y0180444D01*
X0143248Y0181442D02*
X0142280Y0181442D01*
X0143248Y0183032D02*
X0146429Y0183032D01*
X0146429Y0184286D01*
X0146293Y0184793D01*
X0146031Y0185247D01*
X0145660Y0185618D01*
X0145206Y0185880D01*
X0144699Y0186016D01*
X0143248Y0186016D01*
X0143248Y0183032D01*
X0143248Y0183439D02*
X0142280Y0183439D01*
X0142280Y0184438D02*
X0143248Y0184438D01*
X0143248Y0185436D02*
X0142280Y0185436D01*
X0145360Y0186435D02*
X0158396Y0186435D01*
X0158396Y0187434D02*
X0146029Y0187434D01*
X0146029Y0188432D02*
X0158434Y0188432D01*
X0158396Y0185436D02*
X0145842Y0185436D01*
X0146388Y0184438D02*
X0158396Y0184438D01*
X0158426Y0183439D02*
X0146429Y0183439D01*
X0139922Y0179445D02*
X0019664Y0179445D01*
X0020662Y0178447D02*
X0158419Y0178447D01*
X0158396Y0177448D02*
X0021661Y0177448D01*
X0021150Y0175697D02*
X0010913Y0185933D01*
X0007146Y0184438D02*
X0004750Y0184438D01*
X0004750Y0185436D02*
X0006861Y0185436D01*
X0006861Y0186435D02*
X0004750Y0186435D01*
X0004750Y0187434D02*
X0007148Y0187434D01*
X0007681Y0188432D02*
X0004750Y0188432D01*
X0004750Y0189431D02*
X0008766Y0189431D01*
X0007676Y0183439D02*
X0004750Y0183439D01*
X0004750Y0182441D02*
X0008754Y0182441D01*
X0008802Y0179445D02*
X0004750Y0179445D01*
X0004750Y0178447D02*
X0007696Y0178447D01*
X0007154Y0177448D02*
X0004750Y0177448D01*
X0004750Y0176450D02*
X0006861Y0176450D01*
X0006861Y0175451D02*
X0004750Y0175451D01*
X0004750Y0174453D02*
X0007140Y0174453D01*
X0007661Y0173454D02*
X0004750Y0173454D01*
X0004750Y0172456D02*
X0008718Y0172456D01*
X0008838Y0169460D02*
X0004750Y0169460D01*
X0004750Y0168462D02*
X0007710Y0168462D01*
X0007160Y0167463D02*
X0004750Y0167463D01*
X0004750Y0166465D02*
X0006861Y0166465D01*
X0006861Y0165466D02*
X0004750Y0165466D01*
X0004750Y0164468D02*
X0007134Y0164468D01*
X0007646Y0163469D02*
X0004750Y0163469D01*
X0004750Y0162471D02*
X0008682Y0162471D01*
X0004750Y0161472D02*
X0014190Y0161472D01*
X0013191Y0160474D02*
X0004750Y0160474D01*
X0004750Y0159475D02*
X0008874Y0159475D01*
X0007725Y0158477D02*
X0004750Y0158477D01*
X0004750Y0157478D02*
X0007167Y0157478D01*
X0006861Y0156480D02*
X0004750Y0156480D01*
X0004750Y0155481D02*
X0006861Y0155481D01*
X0007128Y0154483D02*
X0004750Y0154483D01*
X0004750Y0153484D02*
X0007631Y0153484D01*
X0008646Y0152486D02*
X0004750Y0152486D01*
X0004750Y0151487D02*
X0014205Y0151487D01*
X0015203Y0152486D02*
X0013180Y0152486D01*
X0014196Y0153484D02*
X0016202Y0153484D01*
X0017200Y0154483D02*
X0014699Y0154483D01*
X0014966Y0155481D02*
X0018199Y0155481D01*
X0019197Y0156480D02*
X0014966Y0156480D01*
X0014721Y0157478D02*
X0158396Y0157478D01*
X0158396Y0158477D02*
X0015720Y0158477D01*
X0015677Y0160697D02*
X0010913Y0155933D01*
X0013206Y0150489D02*
X0004750Y0150489D01*
X0004750Y0149490D02*
X0008910Y0149490D01*
X0007740Y0148492D02*
X0004750Y0148492D01*
X0004750Y0147493D02*
X0007173Y0147493D01*
X0006861Y0146495D02*
X0004750Y0146495D01*
X0004750Y0145496D02*
X0006861Y0145496D01*
X0007121Y0144498D02*
X0004750Y0144498D01*
X0004750Y0143499D02*
X0007616Y0143499D01*
X0008615Y0142500D02*
X0004750Y0142500D01*
X0004750Y0141502D02*
X0024219Y0141502D01*
X0025218Y0142500D02*
X0013212Y0142500D01*
X0014211Y0143499D02*
X0026216Y0143499D01*
X0027215Y0144498D02*
X0014705Y0144498D01*
X0014966Y0145496D02*
X0028213Y0145496D01*
X0029212Y0146495D02*
X0014966Y0146495D01*
X0014736Y0147493D02*
X0030210Y0147493D01*
X0031209Y0148492D02*
X0015734Y0148492D01*
X0016733Y0149490D02*
X0032208Y0149490D01*
X0033206Y0150489D02*
X0017731Y0150489D01*
X0018730Y0151487D02*
X0034205Y0151487D01*
X0035677Y0150697D02*
X0010913Y0125933D01*
X0012809Y0119535D02*
X0032252Y0119535D01*
X0031254Y0118536D02*
X0014042Y0118536D01*
X0014635Y0117538D02*
X0030255Y0117538D01*
X0029257Y0116539D02*
X0014966Y0116539D01*
X0014966Y0115541D02*
X0028258Y0115541D01*
X0027260Y0114542D02*
X0014724Y0114542D01*
X0014255Y0113544D02*
X0026261Y0113544D01*
X0025263Y0112545D02*
X0013257Y0112545D01*
X0012773Y0109550D02*
X0022267Y0109550D01*
X0021269Y0108551D02*
X0014027Y0108551D01*
X0014629Y0107553D02*
X0020270Y0107553D01*
X0019272Y0106554D02*
X0014966Y0106554D01*
X0014966Y0105556D02*
X0018273Y0105556D01*
X0017275Y0104557D02*
X0014730Y0104557D01*
X0014270Y0103559D02*
X0016276Y0103559D01*
X0015277Y0102560D02*
X0013272Y0102560D01*
X0010913Y0085933D02*
X0065677Y0140697D01*
X0060677Y0145697D02*
X0162449Y0145697D01*
X0166502Y0145496D02*
X0184836Y0145496D01*
X0185834Y0144498D02*
X0166502Y0144498D01*
X0166502Y0143499D02*
X0186833Y0143499D01*
X0187831Y0142500D02*
X0166502Y0142500D01*
X0166502Y0141502D02*
X0188830Y0141502D01*
X0190428Y0142166D02*
X0176898Y0155697D01*
X0162449Y0155697D01*
X0020677Y0155697D01*
X0010913Y0145933D01*
X0019728Y0152486D02*
X0158396Y0152486D01*
X0158396Y0153484D02*
X0020727Y0153484D01*
X0015677Y0160697D02*
X0035677Y0160697D01*
X0036465Y0160697D01*
X0162449Y0160697D01*
X0166502Y0160474D02*
X0173501Y0160474D01*
X0172502Y0161472D02*
X0166502Y0161472D01*
X0166502Y0162471D02*
X0171504Y0162471D01*
X0170505Y0163469D02*
X0166501Y0163469D01*
X0166502Y0163470D02*
X0166502Y0164097D01*
X0169878Y0164097D01*
X0176678Y0157297D01*
X0166502Y0157297D01*
X0166502Y0157924D01*
X0166229Y0158197D01*
X0166502Y0158470D01*
X0166502Y0162924D01*
X0166229Y0163197D01*
X0166502Y0163470D01*
X0170540Y0165697D02*
X0162449Y0165697D01*
X0011150Y0165697D01*
X0010913Y0165933D01*
X0014666Y0167463D02*
X0158396Y0167463D01*
X0158404Y0168462D02*
X0014116Y0168462D01*
X0015124Y0169460D02*
X0012989Y0169460D01*
X0014125Y0170459D02*
X0004750Y0170459D01*
X0004750Y0171457D02*
X0013127Y0171457D01*
X0016150Y0170697D02*
X0010913Y0175933D01*
X0014672Y0177448D02*
X0017135Y0177448D01*
X0016137Y0178447D02*
X0014131Y0178447D01*
X0015138Y0179445D02*
X0013025Y0179445D01*
X0014140Y0180444D02*
X0004750Y0180444D01*
X0004750Y0181442D02*
X0013141Y0181442D01*
X0017667Y0181442D02*
X0139098Y0181442D01*
X0139196Y0180444D02*
X0018665Y0180444D01*
X0018134Y0176450D02*
X0014966Y0176450D01*
X0014966Y0175451D02*
X0019132Y0175451D01*
X0020131Y0174453D02*
X0014687Y0174453D01*
X0015655Y0173454D02*
X0158411Y0173454D01*
X0158396Y0172456D02*
X0016653Y0172456D01*
X0016150Y0170697D02*
X0162449Y0170697D01*
X0168919Y0170697D01*
X0192534Y0147082D01*
X0192389Y0149490D02*
X0201398Y0149490D01*
X0201427Y0150489D02*
X0191390Y0150489D01*
X0190392Y0151487D02*
X0202425Y0151487D01*
X0203787Y0149471D02*
X0198302Y0143986D01*
X0198302Y0143566D01*
X0196903Y0142166D01*
X0190428Y0142166D01*
X0191682Y0144555D02*
X0170540Y0165697D01*
X0174499Y0159475D02*
X0166502Y0159475D01*
X0166502Y0158477D02*
X0175498Y0158477D01*
X0176496Y0157478D02*
X0166502Y0157478D01*
X0166502Y0153484D02*
X0176848Y0153484D01*
X0177846Y0152486D02*
X0166502Y0152486D01*
X0166502Y0151487D02*
X0178845Y0151487D01*
X0179843Y0150489D02*
X0166502Y0150489D01*
X0166502Y0149490D02*
X0180842Y0149490D01*
X0181840Y0148492D02*
X0166502Y0148492D01*
X0166502Y0147493D02*
X0182839Y0147493D01*
X0183837Y0146495D02*
X0166502Y0146495D01*
X0162449Y0150697D02*
X0046307Y0150697D01*
X0045677Y0150697D01*
X0035677Y0150697D01*
X0035734Y0148492D02*
X0158396Y0148492D01*
X0158396Y0147493D02*
X0034736Y0147493D01*
X0033737Y0146495D02*
X0059212Y0146495D01*
X0058213Y0145496D02*
X0032739Y0145496D01*
X0031740Y0144498D02*
X0057215Y0144498D01*
X0056216Y0143499D02*
X0030742Y0143499D01*
X0029743Y0142500D02*
X0055218Y0142500D01*
X0054219Y0141502D02*
X0028745Y0141502D01*
X0027746Y0140503D02*
X0053221Y0140503D01*
X0052222Y0139505D02*
X0026748Y0139505D01*
X0025749Y0138506D02*
X0051224Y0138506D01*
X0050225Y0137508D02*
X0024751Y0137508D01*
X0023752Y0136509D02*
X0049227Y0136509D01*
X0048228Y0135511D02*
X0022754Y0135511D01*
X0021755Y0134512D02*
X0047230Y0134512D01*
X0046231Y0133514D02*
X0020757Y0133514D01*
X0019758Y0132515D02*
X0045233Y0132515D01*
X0044234Y0131517D02*
X0018760Y0131517D01*
X0013145Y0162471D02*
X0158396Y0162471D01*
X0158397Y0163469D02*
X0014181Y0163469D01*
X0021150Y0175697D02*
X0162449Y0175697D01*
X0180406Y0161472D02*
X0217935Y0161472D01*
X0217935Y0160474D02*
X0181405Y0160474D01*
X0182403Y0159475D02*
X0217935Y0159475D01*
X0217935Y0158477D02*
X0183402Y0158477D01*
X0184401Y0157478D02*
X0217935Y0157478D01*
X0217935Y0156480D02*
X0185399Y0156480D01*
X0186398Y0155481D02*
X0217935Y0155481D01*
X0217935Y0154483D02*
X0187396Y0154483D01*
X0188395Y0153484D02*
X0217935Y0153484D01*
X0217935Y0152486D02*
X0189393Y0152486D01*
X0194503Y0148492D02*
X0200546Y0148492D01*
X0199547Y0147493D02*
X0194923Y0147493D01*
X0197353Y0146495D02*
X0198549Y0146495D01*
X0201077Y0144498D02*
X0217935Y0144498D01*
X0217935Y0145496D02*
X0202076Y0145496D01*
X0203074Y0146495D02*
X0217935Y0146495D01*
X0217935Y0147493D02*
X0205188Y0147493D01*
X0206176Y0148492D02*
X0217935Y0148492D01*
X0217935Y0149490D02*
X0206176Y0149490D01*
X0206148Y0150489D02*
X0217935Y0150489D01*
X0217935Y0151487D02*
X0205149Y0151487D01*
X0200078Y0143499D02*
X0217935Y0143499D01*
X0217935Y0142500D02*
X0199500Y0142500D01*
X0198503Y0141504D02*
X0198503Y0141504D01*
X0198501Y0141502D02*
X0218357Y0141502D01*
X0221135Y0143499D02*
X0221872Y0143499D01*
X0221872Y0144498D02*
X0221135Y0144498D01*
X0221135Y0145496D02*
X0221872Y0145496D01*
X0221872Y0146495D02*
X0221135Y0146495D01*
X0221135Y0147493D02*
X0221872Y0147493D01*
X0221872Y0148492D02*
X0221135Y0148492D01*
X0221135Y0149490D02*
X0221872Y0149490D01*
X0221872Y0150489D02*
X0221135Y0150489D01*
X0221135Y0151487D02*
X0221872Y0151487D01*
X0221872Y0152486D02*
X0221135Y0152486D01*
X0221135Y0153484D02*
X0221872Y0153484D01*
X0221872Y0154483D02*
X0221135Y0154483D01*
X0221135Y0155481D02*
X0221872Y0155481D01*
X0221872Y0156480D02*
X0221135Y0156480D01*
X0221135Y0157478D02*
X0221872Y0157478D01*
X0221872Y0158477D02*
X0221135Y0158477D01*
X0221135Y0159475D02*
X0222350Y0159475D01*
X0223349Y0160474D02*
X0221135Y0160474D01*
X0221135Y0161472D02*
X0224347Y0161472D01*
X0225325Y0162471D02*
X0221135Y0162471D01*
X0221135Y0163469D02*
X0225326Y0163469D01*
X0225325Y0164468D02*
X0221135Y0164468D01*
X0221135Y0165466D02*
X0225325Y0165466D01*
X0225325Y0166465D02*
X0221135Y0166465D01*
X0221135Y0167463D02*
X0225325Y0167463D01*
X0225333Y0168462D02*
X0221135Y0168462D01*
X0221135Y0169460D02*
X0225325Y0169460D01*
X0225325Y0170459D02*
X0221135Y0170459D01*
X0221135Y0171457D02*
X0225325Y0171457D01*
X0225325Y0172456D02*
X0221135Y0172456D01*
X0221135Y0173454D02*
X0225341Y0173454D01*
X0225325Y0174453D02*
X0221135Y0174453D01*
X0221135Y0175451D02*
X0225325Y0175451D01*
X0225325Y0176450D02*
X0221135Y0176450D01*
X0221135Y0177448D02*
X0225325Y0177448D01*
X0225348Y0178447D02*
X0221135Y0178447D01*
X0221135Y0179445D02*
X0225325Y0179445D01*
X0233408Y0178447D02*
X0334432Y0178447D01*
X0335431Y0179445D02*
X0304074Y0179445D01*
X0305072Y0180444D02*
X0377386Y0180444D01*
X0377386Y0179701D02*
X0381929Y0179701D01*
X0381929Y0183063D01*
X0379201Y0183063D01*
X0378669Y0182921D01*
X0378193Y0182645D01*
X0377804Y0182256D01*
X0377528Y0181780D01*
X0377386Y0181248D01*
X0377386Y0179701D01*
X0377386Y0178447D02*
X0343418Y0178447D01*
X0342420Y0179445D02*
X0381929Y0179445D01*
X0381929Y0178447D02*
X0382929Y0178447D01*
X0382929Y0177448D02*
X0381929Y0177448D01*
X0381929Y0176450D02*
X0382929Y0176450D01*
X0382929Y0175451D02*
X0381929Y0175451D01*
X0378781Y0175451D02*
X0371324Y0175451D01*
X0371324Y0174453D02*
X0387077Y0174453D01*
X0387077Y0175451D02*
X0386077Y0175451D01*
X0387077Y0173454D02*
X0371324Y0173454D01*
X0371161Y0172456D02*
X0387077Y0172456D01*
X0387077Y0171457D02*
X0371324Y0171457D01*
X0371324Y0170459D02*
X0387077Y0170459D01*
X0387077Y0169460D02*
X0371324Y0169460D01*
X0371104Y0168462D02*
X0387077Y0168462D01*
X0387077Y0167463D02*
X0371324Y0167463D01*
X0371324Y0166465D02*
X0387077Y0166465D01*
X0387077Y0165466D02*
X0371324Y0165466D01*
X0371158Y0164468D02*
X0387077Y0164468D01*
X0377628Y0176450D02*
X0345415Y0176450D01*
X0344417Y0177448D02*
X0377386Y0177448D01*
X0381929Y0180444D02*
X0382929Y0180444D01*
X0382929Y0181442D02*
X0381929Y0181442D01*
X0381929Y0182441D02*
X0382929Y0182441D01*
X0386870Y0182441D02*
X0387077Y0182441D01*
X0387077Y0183439D02*
X0308068Y0183439D01*
X0307069Y0182441D02*
X0377988Y0182441D01*
X0377438Y0181442D02*
X0306071Y0181442D01*
X0303260Y0183439D02*
X0233400Y0183439D01*
X0233431Y0182441D02*
X0302261Y0182441D01*
X0302413Y0184438D02*
X0304258Y0184438D01*
X0303411Y0185436D02*
X0305257Y0185436D01*
X0304410Y0186435D02*
X0306255Y0186435D01*
X0305408Y0187434D02*
X0307254Y0187434D01*
X0306407Y0188432D02*
X0308252Y0188432D01*
X0307405Y0189431D02*
X0309251Y0189431D01*
X0308404Y0190429D02*
X0310249Y0190429D01*
X0309402Y0191428D02*
X0311248Y0191428D01*
X0310401Y0192426D02*
X0312246Y0192426D01*
X0311399Y0193425D02*
X0313245Y0193425D01*
X0312398Y0194423D02*
X0314243Y0194423D01*
X0313396Y0195422D02*
X0315242Y0195422D01*
X0314395Y0196420D02*
X0316240Y0196420D01*
X0315393Y0197419D02*
X0317239Y0197419D01*
X0316392Y0198417D02*
X0318237Y0198417D01*
X0317391Y0199416D02*
X0319236Y0199416D01*
X0318389Y0200414D02*
X0320234Y0200414D01*
X0319388Y0201413D02*
X0321233Y0201413D01*
X0320386Y0202411D02*
X0322231Y0202411D01*
X0321385Y0203410D02*
X0323230Y0203410D01*
X0322383Y0204408D02*
X0324228Y0204408D01*
X0323382Y0205407D02*
X0325227Y0205407D01*
X0324380Y0206405D02*
X0326225Y0206405D01*
X0325379Y0207404D02*
X0327224Y0207404D01*
X0327383Y0208402D02*
X0326377Y0208402D01*
X0327376Y0209401D02*
X0328246Y0209401D01*
X0328374Y0210399D02*
X0387077Y0210399D01*
X0387077Y0209401D02*
X0331297Y0209401D01*
X0332161Y0208402D02*
X0387077Y0208402D01*
X0387077Y0207404D02*
X0332161Y0207404D01*
X0332008Y0206405D02*
X0387077Y0206405D01*
X0387077Y0205407D02*
X0331009Y0205407D01*
X0329037Y0204408D02*
X0387077Y0204408D01*
X0387077Y0203410D02*
X0328038Y0203410D01*
X0327040Y0202411D02*
X0387077Y0202411D01*
X0387077Y0201413D02*
X0326041Y0201413D01*
X0325043Y0200414D02*
X0387077Y0200414D01*
X0387077Y0199416D02*
X0324044Y0199416D01*
X0323046Y0198417D02*
X0387077Y0198417D01*
X0387077Y0197419D02*
X0322047Y0197419D01*
X0321049Y0196420D02*
X0387077Y0196420D01*
X0387077Y0195422D02*
X0320050Y0195422D01*
X0319052Y0194423D02*
X0387077Y0194423D01*
X0387077Y0193425D02*
X0318053Y0193425D01*
X0317054Y0192426D02*
X0387077Y0192426D01*
X0387077Y0191428D02*
X0316056Y0191428D01*
X0315057Y0190429D02*
X0387077Y0190429D01*
X0387077Y0189431D02*
X0314059Y0189431D01*
X0313060Y0188432D02*
X0387077Y0188432D01*
X0387077Y0187434D02*
X0312062Y0187434D01*
X0311063Y0186435D02*
X0387077Y0186435D01*
X0387077Y0185436D02*
X0310065Y0185436D01*
X0309066Y0184438D02*
X0387077Y0184438D01*
X0367173Y0174083D02*
X0345520Y0174083D01*
X0341583Y0178020D01*
X0336268Y0178020D01*
X0331740Y0173492D01*
X0239811Y0173492D01*
X0239220Y0174083D01*
X0240256Y0175451D02*
X0328475Y0175451D01*
X0329297Y0176450D02*
X0239258Y0176450D01*
X0238259Y0177448D02*
X0333434Y0177448D01*
X0339614Y0173492D02*
X0342961Y0170146D01*
X0367173Y0170146D01*
X0351425Y0166209D02*
X0350835Y0166799D01*
X0339614Y0166799D01*
X0331740Y0166799D01*
X0328475Y0166465D02*
X0237944Y0166465D01*
X0238942Y0167463D02*
X0328475Y0167463D01*
X0328475Y0168462D02*
X0239941Y0168462D01*
X0239220Y0170146D02*
X0336268Y0170146D01*
X0339614Y0173492D01*
X0328475Y0171892D02*
X0328475Y0171746D01*
X0240025Y0171746D01*
X0239925Y0171846D01*
X0238516Y0171846D01*
X0234067Y0167397D01*
X0233431Y0167397D01*
X0233431Y0167924D01*
X0233158Y0168197D01*
X0233431Y0168470D01*
X0233431Y0172924D01*
X0233158Y0173197D01*
X0233431Y0173470D01*
X0233431Y0174351D01*
X0236548Y0174351D01*
X0238516Y0172383D01*
X0238658Y0172383D01*
X0239148Y0171892D01*
X0328475Y0171892D01*
X0328475Y0165466D02*
X0236945Y0165466D01*
X0235947Y0164468D02*
X0328671Y0164468D01*
X0334810Y0164468D02*
X0336545Y0164468D01*
X0342684Y0164468D02*
X0349788Y0164468D01*
X0353665Y0157478D02*
X0233431Y0157478D01*
X0233431Y0156480D02*
X0353917Y0156480D01*
X0355305Y0155481D02*
X0233431Y0155481D01*
X0228984Y0160303D02*
X0225441Y0160303D01*
X0223472Y0158335D01*
X0223472Y0142028D01*
X0224177Y0141323D01*
X0226425Y0135697D02*
X0229378Y0135697D01*
X0233431Y0136509D02*
X0234045Y0136509D01*
X0236808Y0140503D02*
X0354080Y0140503D01*
X0360323Y0146524D02*
X0235283Y0146524D01*
X0236694Y0148492D02*
X0366092Y0148492D01*
X0384966Y0106554D02*
X0387077Y0106554D01*
X0387077Y0105556D02*
X0384966Y0105556D01*
X0384730Y0104557D02*
X0387077Y0104557D01*
X0387077Y0103559D02*
X0384270Y0103559D01*
X0304550Y0059624D02*
X0026994Y0059624D01*
X0022089Y0020682D02*
X0369738Y0020682D01*
X0370152Y0019684D02*
X0021675Y0019684D01*
X0021034Y0018685D02*
X0370793Y0018685D01*
X0371792Y0017687D02*
X0020035Y0017687D01*
X0018765Y0016688D02*
X0373062Y0016688D01*
X0387077Y0014691D02*
X0004750Y0014691D01*
X0004750Y0013693D02*
X0387077Y0013693D01*
X0387077Y0012694D02*
X0004750Y0012694D01*
X0068760Y0131517D02*
X0157996Y0131517D01*
X0157996Y0132515D02*
X0069758Y0132515D01*
X0070757Y0133514D02*
X0158396Y0133514D01*
X0173028Y0133514D02*
X0173799Y0133514D01*
X0173799Y0134512D02*
X0173028Y0134512D01*
X0173028Y0135511D02*
X0173799Y0135511D01*
X0173799Y0132515D02*
X0173028Y0132515D01*
X0191682Y0144555D02*
X0195913Y0144555D01*
X0196268Y0165795D02*
X0196248Y0165815D01*
X0199299Y0168768D02*
X0202409Y0168768D01*
X0202407Y0170459D02*
X0217935Y0170459D01*
X0217935Y0171457D02*
X0202407Y0171457D01*
X0200539Y0174772D02*
X0199299Y0174772D01*
X0228984Y0160303D02*
X0229378Y0160697D01*
X0233431Y0167463D02*
X0234134Y0167463D01*
X0233423Y0168462D02*
X0235132Y0168462D01*
X0236131Y0169460D02*
X0233431Y0169460D01*
X0233431Y0170459D02*
X0237129Y0170459D01*
X0238128Y0171457D02*
X0233431Y0171457D01*
X0233431Y0172456D02*
X0238443Y0172456D01*
X0237445Y0173454D02*
X0233415Y0173454D01*
X0233431Y0187594D02*
X0233431Y0187924D01*
X0233158Y0188197D01*
X0233431Y0188470D01*
X0233431Y0192924D01*
X0233158Y0193197D01*
X0233431Y0193470D01*
X0233431Y0194211D01*
X0234294Y0193347D01*
X0236273Y0193347D01*
X0236962Y0194036D01*
X0248980Y0194036D01*
X0249976Y0195032D01*
X0249976Y0195174D01*
X0257312Y0202510D01*
X0261829Y0202510D01*
X0262761Y0203443D01*
X0262761Y0203979D01*
X0274735Y0203979D01*
X0274735Y0203443D01*
X0275667Y0202510D01*
X0283089Y0202510D01*
X0284021Y0203443D01*
X0284021Y0207715D01*
X0283089Y0208647D01*
X0275667Y0208647D01*
X0274735Y0207715D01*
X0274735Y0207179D01*
X0262761Y0207179D01*
X0262761Y0207715D01*
X0261829Y0208647D01*
X0254407Y0208647D01*
X0253475Y0207715D01*
X0253475Y0203443D01*
X0253597Y0203321D01*
X0247713Y0197436D01*
X0236962Y0197436D01*
X0236273Y0198125D01*
X0234294Y0198125D01*
X0233431Y0197262D01*
X0233431Y0197904D01*
X0233531Y0198004D01*
X0233728Y0198346D01*
X0233831Y0198728D01*
X0233831Y0200311D01*
X0229764Y0200311D01*
X0229764Y0201083D01*
X0233831Y0201083D01*
X0233831Y0202666D01*
X0233728Y0203048D01*
X0233692Y0203110D01*
X0237459Y0203110D01*
X0237752Y0203403D01*
X0237752Y0229669D01*
X0296125Y0229669D01*
X0295937Y0229343D01*
X0295835Y0228961D01*
X0295835Y0225748D01*
X0300350Y0225748D01*
X0300350Y0224780D01*
X0295835Y0224780D01*
X0295835Y0221566D01*
X0295937Y0221185D01*
X0296134Y0220843D01*
X0296414Y0220564D01*
X0296756Y0220366D01*
X0297137Y0220264D01*
X0300350Y0220264D01*
X0300350Y0224780D01*
X0301319Y0224780D01*
X0301319Y0225748D01*
X0305835Y0225748D01*
X0305835Y0228961D01*
X0305732Y0229343D01*
X0305544Y0229669D01*
X0309450Y0229669D01*
X0308229Y0229164D01*
X0306935Y0227870D01*
X0306235Y0226179D01*
X0306235Y0224349D01*
X0306935Y0222658D01*
X0308229Y0221364D01*
X0309920Y0220664D01*
X0311750Y0220664D01*
X0313440Y0221364D01*
X0314734Y0222658D01*
X0315435Y0224349D01*
X0315435Y0226179D01*
X0314734Y0227870D01*
X0313440Y0229164D01*
X0312219Y0229669D01*
X0319450Y0229669D01*
X0318229Y0229164D01*
X0316935Y0227870D01*
X0316235Y0226179D01*
X0316235Y0224349D01*
X0316935Y0222658D01*
X0318229Y0221364D01*
X0319920Y0220664D01*
X0321750Y0220664D01*
X0323440Y0221364D01*
X0324734Y0222658D01*
X0325435Y0224349D01*
X0325435Y0226179D01*
X0324734Y0227870D01*
X0323440Y0229164D01*
X0322219Y0229669D01*
X0329450Y0229669D01*
X0328229Y0229164D01*
X0326935Y0227870D01*
X0326235Y0226179D01*
X0326235Y0224349D01*
X0326935Y0222658D01*
X0328229Y0221364D01*
X0329920Y0220664D01*
X0331750Y0220664D01*
X0333440Y0221364D01*
X0334734Y0222658D01*
X0335435Y0224349D01*
X0335435Y0226179D01*
X0334734Y0227870D01*
X0333440Y0229164D01*
X0332219Y0229669D01*
X0339450Y0229669D01*
X0338229Y0229164D01*
X0336935Y0227870D01*
X0336235Y0226179D01*
X0336235Y0224349D01*
X0336610Y0223443D01*
X0300760Y0187594D01*
X0233431Y0187594D01*
X0233393Y0188432D02*
X0301599Y0188432D01*
X0302597Y0189431D02*
X0233431Y0189431D01*
X0233431Y0190429D02*
X0303596Y0190429D01*
X0304594Y0191428D02*
X0233431Y0191428D01*
X0233431Y0192426D02*
X0305593Y0192426D01*
X0306591Y0193425D02*
X0236350Y0193425D01*
X0234217Y0193425D02*
X0233386Y0193425D01*
X0233431Y0197419D02*
X0233587Y0197419D01*
X0233747Y0198417D02*
X0248694Y0198417D01*
X0249692Y0199416D02*
X0233831Y0199416D01*
X0233831Y0201413D02*
X0251689Y0201413D01*
X0252688Y0202411D02*
X0233831Y0202411D01*
X0237752Y0203410D02*
X0253508Y0203410D01*
X0253475Y0204408D02*
X0237752Y0204408D01*
X0237752Y0205407D02*
X0253475Y0205407D01*
X0253475Y0206405D02*
X0237752Y0206405D01*
X0237752Y0207404D02*
X0253475Y0207404D01*
X0254162Y0208402D02*
X0237752Y0208402D01*
X0237752Y0209401D02*
X0322567Y0209401D01*
X0321569Y0208402D02*
X0283334Y0208402D01*
X0284021Y0207404D02*
X0320570Y0207404D01*
X0319572Y0206405D02*
X0284021Y0206405D01*
X0284021Y0205407D02*
X0318573Y0205407D01*
X0317575Y0204408D02*
X0284021Y0204408D01*
X0283988Y0203410D02*
X0316576Y0203410D01*
X0315578Y0202411D02*
X0257213Y0202411D01*
X0256215Y0201413D02*
X0314579Y0201413D01*
X0313581Y0200414D02*
X0255216Y0200414D01*
X0254218Y0199416D02*
X0312582Y0199416D01*
X0311584Y0198417D02*
X0253219Y0198417D01*
X0252221Y0197419D02*
X0310585Y0197419D01*
X0309587Y0196420D02*
X0251222Y0196420D01*
X0250224Y0195422D02*
X0308588Y0195422D01*
X0307590Y0194423D02*
X0249366Y0194423D01*
X0248276Y0195736D02*
X0258118Y0205579D01*
X0279378Y0205579D01*
X0275422Y0208402D02*
X0262074Y0208402D01*
X0262761Y0207404D02*
X0274735Y0207404D01*
X0274768Y0203410D02*
X0262728Y0203410D01*
X0250691Y0200414D02*
X0229764Y0200414D01*
X0237752Y0210399D02*
X0323566Y0210399D01*
X0324564Y0211398D02*
X0237752Y0211398D01*
X0237752Y0212396D02*
X0325563Y0212396D01*
X0326561Y0213395D02*
X0237752Y0213395D01*
X0237752Y0214393D02*
X0327560Y0214393D01*
X0328558Y0215392D02*
X0237752Y0215392D01*
X0237752Y0216390D02*
X0329557Y0216390D01*
X0330555Y0217389D02*
X0237752Y0217389D01*
X0237752Y0218387D02*
X0253713Y0218387D01*
X0253844Y0218256D02*
X0254298Y0217994D01*
X0254805Y0217858D01*
X0257634Y0217858D01*
X0257634Y0220843D01*
X0253075Y0220843D01*
X0253075Y0219588D01*
X0253211Y0219082D01*
X0253473Y0218627D01*
X0253844Y0218256D01*
X0253129Y0219386D02*
X0237752Y0219386D01*
X0237752Y0220384D02*
X0253075Y0220384D01*
X0253075Y0221811D02*
X0257634Y0221811D01*
X0257634Y0220843D01*
X0258602Y0220843D01*
X0258602Y0217858D01*
X0261432Y0217858D01*
X0261938Y0217994D01*
X0262392Y0218256D01*
X0262763Y0218627D01*
X0263026Y0219082D01*
X0263161Y0219588D01*
X0263161Y0220843D01*
X0258602Y0220843D01*
X0258602Y0221811D01*
X0257634Y0221811D01*
X0257634Y0224795D01*
X0254805Y0224795D01*
X0254298Y0224660D01*
X0253844Y0224397D01*
X0253473Y0224026D01*
X0253211Y0223572D01*
X0253075Y0223066D01*
X0253075Y0221811D01*
X0253075Y0222381D02*
X0237752Y0222381D01*
X0237752Y0221383D02*
X0257634Y0221383D01*
X0258602Y0221383D02*
X0278894Y0221383D01*
X0278894Y0221811D02*
X0278894Y0220843D01*
X0274335Y0220843D01*
X0274335Y0219588D01*
X0274470Y0219082D01*
X0274733Y0218627D01*
X0275104Y0218256D01*
X0275558Y0217994D01*
X0276064Y0217858D01*
X0278894Y0217858D01*
X0278894Y0220843D01*
X0279862Y0220843D01*
X0279862Y0221811D01*
X0278894Y0221811D01*
X0278894Y0224795D01*
X0276064Y0224795D01*
X0275558Y0224660D01*
X0275104Y0224397D01*
X0274733Y0224026D01*
X0274470Y0223572D01*
X0274335Y0223066D01*
X0274335Y0221811D01*
X0278894Y0221811D01*
X0278894Y0222381D02*
X0279862Y0222381D01*
X0279862Y0221811D02*
X0279862Y0224795D01*
X0282691Y0224795D01*
X0283198Y0224660D01*
X0283652Y0224397D01*
X0284023Y0224026D01*
X0284285Y0223572D01*
X0284421Y0223066D01*
X0284421Y0221811D01*
X0279862Y0221811D01*
X0279862Y0221383D02*
X0295884Y0221383D01*
X0295835Y0222381D02*
X0284421Y0222381D01*
X0284337Y0223380D02*
X0295835Y0223380D01*
X0295835Y0224378D02*
X0283671Y0224378D01*
X0284421Y0220843D02*
X0279862Y0220843D01*
X0279862Y0217858D01*
X0282691Y0217858D01*
X0283198Y0217994D01*
X0283652Y0218256D01*
X0284023Y0218627D01*
X0284285Y0219082D01*
X0284421Y0219588D01*
X0284421Y0220843D01*
X0284421Y0220384D02*
X0296724Y0220384D01*
X0300350Y0220384D02*
X0301319Y0220384D01*
X0301319Y0220264D02*
X0304532Y0220264D01*
X0304914Y0220366D01*
X0305256Y0220564D01*
X0305535Y0220843D01*
X0305732Y0221185D01*
X0305835Y0221566D01*
X0305835Y0224780D01*
X0301319Y0224780D01*
X0301319Y0220264D01*
X0301319Y0221383D02*
X0300350Y0221383D01*
X0300350Y0222381D02*
X0301319Y0222381D01*
X0301319Y0223380D02*
X0300350Y0223380D01*
X0300350Y0224378D02*
X0301319Y0224378D01*
X0301319Y0225377D02*
X0306235Y0225377D01*
X0306235Y0224378D02*
X0305835Y0224378D01*
X0305835Y0223380D02*
X0306636Y0223380D01*
X0307212Y0222381D02*
X0305835Y0222381D01*
X0305785Y0221383D02*
X0308210Y0221383D01*
X0304945Y0220384D02*
X0333551Y0220384D01*
X0333459Y0221383D02*
X0334549Y0221383D01*
X0334457Y0222381D02*
X0335548Y0222381D01*
X0335033Y0223380D02*
X0336546Y0223380D01*
X0336235Y0224378D02*
X0335435Y0224378D01*
X0335435Y0225377D02*
X0336235Y0225377D01*
X0336316Y0226375D02*
X0335353Y0226375D01*
X0334940Y0227374D02*
X0336730Y0227374D01*
X0337438Y0228372D02*
X0334231Y0228372D01*
X0332940Y0229371D02*
X0338730Y0229371D01*
X0342940Y0229371D02*
X0348730Y0229371D01*
X0347438Y0228372D02*
X0344231Y0228372D01*
X0344940Y0227374D02*
X0346730Y0227374D01*
X0346316Y0226375D02*
X0345353Y0226375D01*
X0345435Y0225377D02*
X0346235Y0225377D01*
X0346235Y0224378D02*
X0345435Y0224378D01*
X0345033Y0223380D02*
X0346636Y0223380D01*
X0347212Y0222381D02*
X0344457Y0222381D01*
X0343459Y0221383D02*
X0348210Y0221383D01*
X0353459Y0221383D02*
X0369820Y0221383D01*
X0370234Y0222381D02*
X0354457Y0222381D01*
X0355033Y0223380D02*
X0370992Y0223380D01*
X0370404Y0222792D02*
X0369217Y0219926D01*
X0369217Y0216823D01*
X0370404Y0213956D01*
X0372598Y0211762D01*
X0375464Y0210575D01*
X0378567Y0210575D01*
X0381434Y0211762D01*
X0383628Y0213956D01*
X0384815Y0216823D01*
X0384815Y0219926D01*
X0383628Y0222792D01*
X0381434Y0224986D01*
X0378567Y0226173D01*
X0375464Y0226173D01*
X0372598Y0224986D01*
X0370404Y0222792D01*
X0371990Y0224378D02*
X0355435Y0224378D01*
X0355435Y0225377D02*
X0373542Y0225377D01*
X0369407Y0220384D02*
X0338359Y0220384D01*
X0337361Y0219386D02*
X0369217Y0219386D01*
X0369217Y0218387D02*
X0336362Y0218387D01*
X0335364Y0217389D02*
X0369217Y0217389D01*
X0369396Y0216390D02*
X0334365Y0216390D01*
X0333367Y0215392D02*
X0369809Y0215392D01*
X0370223Y0214393D02*
X0332368Y0214393D01*
X0331370Y0213395D02*
X0370965Y0213395D01*
X0371964Y0212396D02*
X0330371Y0212396D01*
X0329373Y0211398D02*
X0373478Y0211398D01*
X0380554Y0211398D02*
X0387077Y0211398D01*
X0387077Y0212396D02*
X0382068Y0212396D01*
X0383066Y0213395D02*
X0387077Y0213395D01*
X0387077Y0214393D02*
X0383809Y0214393D01*
X0384222Y0215392D02*
X0387077Y0215392D01*
X0387077Y0216390D02*
X0384636Y0216390D01*
X0384815Y0217389D02*
X0387077Y0217389D01*
X0387077Y0218387D02*
X0384815Y0218387D01*
X0384815Y0219386D02*
X0387077Y0219386D01*
X0387077Y0220384D02*
X0384625Y0220384D01*
X0384211Y0221383D02*
X0387077Y0221383D01*
X0387077Y0222381D02*
X0383798Y0222381D01*
X0383040Y0223380D02*
X0387077Y0223380D01*
X0387077Y0224378D02*
X0382041Y0224378D01*
X0380490Y0225377D02*
X0387077Y0225377D01*
X0387077Y0226375D02*
X0355353Y0226375D01*
X0354940Y0227374D02*
X0387077Y0227374D01*
X0387077Y0228372D02*
X0354231Y0228372D01*
X0352940Y0229371D02*
X0387077Y0229371D01*
X0332552Y0219386D02*
X0284367Y0219386D01*
X0283783Y0218387D02*
X0331554Y0218387D01*
X0328210Y0221383D02*
X0323459Y0221383D01*
X0324457Y0222381D02*
X0327212Y0222381D01*
X0326636Y0223380D02*
X0325033Y0223380D01*
X0325435Y0224378D02*
X0326235Y0224378D01*
X0326235Y0225377D02*
X0325435Y0225377D01*
X0325353Y0226375D02*
X0326316Y0226375D01*
X0326730Y0227374D02*
X0324940Y0227374D01*
X0324231Y0228372D02*
X0327438Y0228372D01*
X0328730Y0229371D02*
X0322940Y0229371D01*
X0318730Y0229371D02*
X0312940Y0229371D01*
X0314231Y0228372D02*
X0317438Y0228372D01*
X0316730Y0227374D02*
X0314940Y0227374D01*
X0315353Y0226375D02*
X0316316Y0226375D01*
X0316235Y0225377D02*
X0315435Y0225377D01*
X0315435Y0224378D02*
X0316235Y0224378D01*
X0316636Y0223380D02*
X0315033Y0223380D01*
X0314457Y0222381D02*
X0317212Y0222381D01*
X0318210Y0221383D02*
X0313459Y0221383D01*
X0306316Y0226375D02*
X0305835Y0226375D01*
X0305835Y0227374D02*
X0306730Y0227374D01*
X0307438Y0228372D02*
X0305835Y0228372D01*
X0305716Y0229371D02*
X0308730Y0229371D01*
X0300350Y0225377D02*
X0237752Y0225377D01*
X0237752Y0226375D02*
X0295835Y0226375D01*
X0295835Y0227374D02*
X0237752Y0227374D01*
X0237752Y0228372D02*
X0295835Y0228372D01*
X0295953Y0229371D02*
X0237752Y0229371D01*
X0237752Y0224378D02*
X0253825Y0224378D01*
X0253159Y0223380D02*
X0237752Y0223380D01*
X0257634Y0223380D02*
X0258602Y0223380D01*
X0258602Y0224378D02*
X0257634Y0224378D01*
X0258602Y0224795D02*
X0258602Y0221811D01*
X0263161Y0221811D01*
X0263161Y0223066D01*
X0263026Y0223572D01*
X0262763Y0224026D01*
X0262392Y0224397D01*
X0261938Y0224660D01*
X0261432Y0224795D01*
X0258602Y0224795D01*
X0258602Y0222381D02*
X0257634Y0222381D01*
X0257634Y0220384D02*
X0258602Y0220384D01*
X0258602Y0219386D02*
X0257634Y0219386D01*
X0257634Y0218387D02*
X0258602Y0218387D01*
X0262523Y0218387D02*
X0274973Y0218387D01*
X0274389Y0219386D02*
X0263107Y0219386D01*
X0263161Y0220384D02*
X0274335Y0220384D01*
X0274335Y0222381D02*
X0263161Y0222381D01*
X0263077Y0223380D02*
X0274419Y0223380D01*
X0275085Y0224378D02*
X0262411Y0224378D01*
X0278894Y0224378D02*
X0279862Y0224378D01*
X0279862Y0223380D02*
X0278894Y0223380D01*
X0278894Y0220384D02*
X0279862Y0220384D01*
X0279862Y0219386D02*
X0278894Y0219386D01*
X0278894Y0218387D02*
X0279862Y0218387D01*
X0146972Y0200414D02*
X0146654Y0200414D01*
X0140464Y0204408D02*
X0138352Y0204408D01*
X0138352Y0205407D02*
X0140464Y0205407D01*
X0140464Y0206405D02*
X0138352Y0206405D01*
X0138352Y0207404D02*
X0140464Y0207404D01*
X0140464Y0208402D02*
X0137664Y0208402D01*
X0138319Y0203410D02*
X0139721Y0203410D01*
X0139498Y0202411D02*
X0137115Y0202411D01*
X0138114Y0201413D02*
X0139498Y0201413D01*
X0139498Y0200414D02*
X0139112Y0200414D01*
X0129099Y0203410D02*
X0117059Y0203410D01*
X0117092Y0207404D02*
X0129065Y0207404D01*
X0129753Y0208402D02*
X0116405Y0208402D01*
X0115762Y0217858D02*
X0116269Y0217994D01*
X0116723Y0218256D01*
X0117094Y0218627D01*
X0117356Y0219082D01*
X0117492Y0219588D01*
X0117492Y0220843D01*
X0112933Y0220843D01*
X0112933Y0217858D01*
X0115762Y0217858D01*
X0116854Y0218387D02*
X0129303Y0218387D01*
X0128720Y0219386D02*
X0117438Y0219386D01*
X0117492Y0220384D02*
X0128665Y0220384D01*
X0128665Y0222381D02*
X0117492Y0222381D01*
X0117408Y0223380D02*
X0128750Y0223380D01*
X0129415Y0224378D02*
X0116742Y0224378D01*
X0112933Y0224378D02*
X0111965Y0224378D01*
X0111965Y0223380D02*
X0112933Y0223380D01*
X0112933Y0222381D02*
X0111965Y0222381D01*
X0111965Y0220384D02*
X0112933Y0220384D01*
X0112933Y0219386D02*
X0111965Y0219386D01*
X0111965Y0218387D02*
X0112933Y0218387D01*
X0133224Y0218387D02*
X0134193Y0218387D01*
X0134193Y0219386D02*
X0133224Y0219386D01*
X0133224Y0220384D02*
X0134193Y0220384D01*
X0134193Y0223380D02*
X0133224Y0223380D01*
X0133224Y0224378D02*
X0134193Y0224378D01*
X0306150Y0052634D02*
X0306713Y0052634D01*
X0306286Y0051636D02*
X0306150Y0051636D01*
X0306150Y0050637D02*
X0306264Y0050637D01*
X0306264Y0049639D02*
X0306150Y0049639D01*
X0306150Y0048640D02*
X0306264Y0048640D01*
X0306264Y0047642D02*
X0306150Y0047642D01*
X0378052Y0045645D02*
X0379916Y0045645D01*
X0379262Y0046643D02*
X0378706Y0046643D01*
D32*
X0343551Y0030382D03*
X0329772Y0030382D03*
X0317961Y0028414D03*
X0312055Y0020540D03*
X0304181Y0030382D03*
X0335677Y0020540D03*
X0323866Y0052036D03*
X0323866Y0055973D03*
X0319929Y0055973D03*
X0315992Y0055973D03*
X0312055Y0055973D03*
X0308118Y0057941D03*
X0315992Y0052036D03*
X0319929Y0052036D03*
X0337646Y0059910D03*
X0343551Y0063847D03*
X0361268Y0075658D03*
X0365205Y0075658D03*
X0365205Y0079595D03*
X0365205Y0083532D03*
X0361268Y0083532D03*
X0361268Y0079595D03*
X0314024Y0075658D03*
X0306150Y0069752D03*
X0235283Y0138650D03*
X0235283Y0142587D03*
X0235283Y0146524D03*
X0235283Y0150461D03*
X0224177Y0141323D03*
X0203787Y0149471D03*
X0195913Y0144555D03*
X0192534Y0147082D03*
X0188039Y0160303D03*
X0197882Y0160303D03*
X0205756Y0166209D03*
X0205756Y0172114D03*
X0205756Y0179988D03*
X0197882Y0183925D03*
X0190008Y0183925D03*
X0182134Y0176051D03*
X0182134Y0168177D03*
X0168354Y0160303D03*
X0168354Y0130776D03*
X0174260Y0124870D03*
X0156543Y0130776D03*
X0223472Y0174083D03*
X0235283Y0172114D03*
X0235283Y0195736D03*
X0237252Y0199673D03*
X0223472Y0195736D03*
X0251031Y0221327D03*
X0286465Y0221327D03*
X0329772Y0207547D03*
X0377016Y0179988D03*
X0351425Y0166209D03*
X0351425Y0160303D03*
X0357331Y0154398D03*
X0377016Y0156366D03*
X0168354Y0199673D03*
X0156543Y0201642D03*
X0150638Y0205579D03*
X0142764Y0209516D03*
X0030559Y0055973D03*
D33*
X0196248Y0181270D02*
X0201887Y0181270D01*
X0203169Y0179988D01*
X0205756Y0179988D01*
X0351425Y0166209D02*
X0356740Y0166209D01*
X0367173Y0166209D01*
X0357331Y0165618D02*
X0356740Y0166209D01*
X0337646Y0071130D02*
X0339024Y0069752D01*
X0332528Y0071130D02*
X0330953Y0069555D01*
X0330953Y0065815D02*
X0331915Y0064853D01*
X0333299Y0064853D01*
X0333715Y0064437D01*
X0337646Y0064437D01*
X0366386Y0068571D02*
X0372390Y0068571D01*
D34*
X0205756Y0179988D02*
X0200539Y0174772D01*
X0196248Y0177626D02*
X0197882Y0179260D01*
X0197882Y0183925D01*
X0190008Y0183925D02*
X0190008Y0178059D01*
X0190244Y0177823D01*
X0187291Y0174772D02*
X0186012Y0176051D01*
X0182134Y0176051D01*
X0190244Y0171819D02*
X0196248Y0171819D01*
X0196268Y0165795D02*
X0199240Y0165795D01*
X0190244Y0165815D02*
X0188039Y0163610D01*
X0188039Y0160303D01*
X0187291Y0168768D02*
X0182724Y0168768D01*
X0182134Y0168177D01*
D35*
X0327606Y0069555D02*
X0330953Y0069555D01*
X0365205Y0069752D02*
X0366386Y0068571D01*
D36*
X0365205Y0069752D02*
X0357331Y0069752D01*
X0345520Y0069752D02*
X0339024Y0069752D01*
X0337646Y0071130D02*
X0332528Y0071130D01*
X0327606Y0069555D02*
X0325835Y0067784D01*
X0325835Y0063847D01*
X0327606Y0062075D01*
X0330953Y0062075D01*
X0323866Y0055973D02*
X0321110Y0058728D01*
X0321110Y0062075D01*
X0315992Y0056957D01*
X0315992Y0055973D01*
X0315992Y0060500D01*
X0314024Y0062469D01*
X0309496Y0057941D01*
X0308118Y0057941D01*
X0314024Y0062469D02*
X0314417Y0062075D01*
X0321110Y0062075D01*
X0321110Y0058728D02*
X0321110Y0057154D01*
X0319929Y0055973D01*
X0151976Y0195697D02*
X0150638Y0194358D01*
X0149457Y0194358D01*
X0142764Y0201051D01*
X0142764Y0209516D01*
X0151976Y0195697D02*
X0162449Y0195697D01*
X0029969Y0056563D02*
X0024654Y0056563D01*
X0024024Y0055933D01*
X0010913Y0055933D01*
X0029969Y0056563D02*
X0030559Y0055973D01*
D37*
X0142764Y0189240D02*
X0142764Y0194358D01*
X0134890Y0202232D01*
X0134890Y0203610D01*
X0133709Y0204791D01*
X0133709Y0205579D01*
X0112449Y0205579D01*
X0142764Y0189240D02*
X0144220Y0190697D01*
X0162449Y0190697D01*
X0229378Y0185697D02*
X0229575Y0185894D01*
X0301465Y0185894D01*
X0340835Y0225264D01*
X0329772Y0207547D02*
X0302921Y0180697D01*
X0229378Y0180697D01*
X0229732Y0176051D02*
X0229378Y0175697D01*
X0229732Y0176051D02*
X0237252Y0176051D01*
X0239220Y0174083D01*
X0239220Y0170146D02*
X0234772Y0165697D01*
X0229378Y0165697D01*
X0235283Y0195736D02*
X0248276Y0195736D01*
M02*
