%
M48
M72
T01C0.01181
T02C0.01378
T03C0.03937
T04C0.12598
%
T01
X190244Y165815
X187291Y168768
X190244Y171819
X187291Y174772
X190244Y177823
X193197Y174772
X196248Y177626
X199299Y174772
X196248Y171819
X193197Y168768
X196248Y165815
X199299Y168768
T02
X30559Y55973
X156543Y130776
X168354Y130776
X174260Y124870
X195913Y144555
X192534Y147082
X203787Y149471
X197882Y160303
X205756Y166209
X205756Y172114
X205756Y179988
X197882Y183925
X190008Y183925
X182134Y176051
X182134Y168177
X188039Y160303
X168354Y160303
X223472Y174083
X235283Y172114
X235283Y150461
X235283Y146524
X235283Y142587
X235283Y138650
X224177Y141323
X223472Y195736
X235283Y195736
X237252Y199673
X251031Y221327
X286465Y221327
X329772Y207547
X377016Y179988
X351425Y166209
X351425Y160303
X357331Y154398
X377016Y156366
X365205Y83532
X361268Y83532
X361268Y79595
X365205Y79595
X365205Y75658
X361268Y75658
X343551Y63847
X337646Y59910
X323866Y55973
X319929Y55973
X315992Y55973
X312055Y55973
X308118Y57941
X315992Y52036
X319929Y52036
X323866Y52036
X306150Y69752
X314024Y75658
X304181Y30382
X317961Y28414
X312055Y20540
X329772Y30382
X343551Y30382
X335677Y20540
X168354Y199673
X156543Y201642
X150638Y205579
X142764Y209516
T03
X10913Y55933
X10913Y65933
X10913Y75933
X10913Y85933
X10913Y95933
X10913Y105933
X10913Y115933
X10913Y125933
X10913Y135933
X10913Y145933
X10913Y155933
X10913Y165933
X10913Y175933
X10913Y185933
X300835Y225264
X310835Y225264
X320835Y225264
X330835Y225264
X340835Y225264
X350835Y225264
X380913Y135933
X380913Y125933
X380913Y115933
X380913Y105933
T04
X14811Y23492
X14811Y218374
X377016Y218374
X377016Y23492
M30
