G75*
%MOIN*%
%OFA0B0*%
%FSLAX25Y25*%
%IPPOS*%
%LPD*%
%AMOC8*
5,1,8,0,0,1.08239X$1,22.5*
%
%ADD10C,0.00000*%
%ADD11C,0.01575*%
%ADD12C,0.01476*%
%ADD13C,0.00984*%
%ADD14C,0.00787*%
%ADD15C,0.00500*%
%ADD16R,0.05906X0.03543*%
%ADD17R,0.03543X0.05906*%
%ADD18R,0.04134X0.04134*%
%ADD19R,0.04094X0.04094*%
%ADD20R,0.04094X0.04134*%
%ADD21R,0.04134X0.04094*%
%ADD22C,0.00689*%
%ADD23R,0.05315X0.01575*%
%ADD24R,0.06299X0.08268*%
%ADD25R,0.07480X0.07087*%
%ADD26R,0.07480X0.07480*%
%ADD27C,0.01181*%
%ADD28C,0.00591*%
D10*
X0003000Y0010697D02*
X0003000Y0231169D01*
X0388827Y0231169D01*
X0388827Y0010697D01*
X0003000Y0010697D01*
X0008512Y0023492D02*
X0008514Y0023650D01*
X0008520Y0023808D01*
X0008530Y0023966D01*
X0008544Y0024124D01*
X0008562Y0024281D01*
X0008583Y0024438D01*
X0008609Y0024594D01*
X0008639Y0024750D01*
X0008672Y0024905D01*
X0008710Y0025058D01*
X0008751Y0025211D01*
X0008796Y0025363D01*
X0008845Y0025514D01*
X0008898Y0025663D01*
X0008954Y0025811D01*
X0009014Y0025957D01*
X0009078Y0026102D01*
X0009146Y0026245D01*
X0009217Y0026387D01*
X0009291Y0026527D01*
X0009369Y0026664D01*
X0009451Y0026800D01*
X0009535Y0026934D01*
X0009624Y0027065D01*
X0009715Y0027194D01*
X0009810Y0027321D01*
X0009907Y0027446D01*
X0010008Y0027568D01*
X0010112Y0027687D01*
X0010219Y0027804D01*
X0010329Y0027918D01*
X0010442Y0028029D01*
X0010557Y0028138D01*
X0010675Y0028243D01*
X0010796Y0028345D01*
X0010919Y0028445D01*
X0011045Y0028541D01*
X0011173Y0028634D01*
X0011303Y0028724D01*
X0011436Y0028810D01*
X0011571Y0028894D01*
X0011707Y0028973D01*
X0011846Y0029050D01*
X0011987Y0029122D01*
X0012129Y0029192D01*
X0012273Y0029257D01*
X0012419Y0029319D01*
X0012566Y0029377D01*
X0012715Y0029432D01*
X0012865Y0029483D01*
X0013016Y0029530D01*
X0013168Y0029573D01*
X0013321Y0029612D01*
X0013476Y0029648D01*
X0013631Y0029679D01*
X0013787Y0029707D01*
X0013943Y0029731D01*
X0014100Y0029751D01*
X0014258Y0029767D01*
X0014415Y0029779D01*
X0014574Y0029787D01*
X0014732Y0029791D01*
X0014890Y0029791D01*
X0015048Y0029787D01*
X0015207Y0029779D01*
X0015364Y0029767D01*
X0015522Y0029751D01*
X0015679Y0029731D01*
X0015835Y0029707D01*
X0015991Y0029679D01*
X0016146Y0029648D01*
X0016301Y0029612D01*
X0016454Y0029573D01*
X0016606Y0029530D01*
X0016757Y0029483D01*
X0016907Y0029432D01*
X0017056Y0029377D01*
X0017203Y0029319D01*
X0017349Y0029257D01*
X0017493Y0029192D01*
X0017635Y0029122D01*
X0017776Y0029050D01*
X0017915Y0028973D01*
X0018051Y0028894D01*
X0018186Y0028810D01*
X0018319Y0028724D01*
X0018449Y0028634D01*
X0018577Y0028541D01*
X0018703Y0028445D01*
X0018826Y0028345D01*
X0018947Y0028243D01*
X0019065Y0028138D01*
X0019180Y0028029D01*
X0019293Y0027918D01*
X0019403Y0027804D01*
X0019510Y0027687D01*
X0019614Y0027568D01*
X0019715Y0027446D01*
X0019812Y0027321D01*
X0019907Y0027194D01*
X0019998Y0027065D01*
X0020087Y0026934D01*
X0020171Y0026800D01*
X0020253Y0026664D01*
X0020331Y0026527D01*
X0020405Y0026387D01*
X0020476Y0026245D01*
X0020544Y0026102D01*
X0020608Y0025957D01*
X0020668Y0025811D01*
X0020724Y0025663D01*
X0020777Y0025514D01*
X0020826Y0025363D01*
X0020871Y0025211D01*
X0020912Y0025058D01*
X0020950Y0024905D01*
X0020983Y0024750D01*
X0021013Y0024594D01*
X0021039Y0024438D01*
X0021060Y0024281D01*
X0021078Y0024124D01*
X0021092Y0023966D01*
X0021102Y0023808D01*
X0021108Y0023650D01*
X0021110Y0023492D01*
X0021108Y0023334D01*
X0021102Y0023176D01*
X0021092Y0023018D01*
X0021078Y0022860D01*
X0021060Y0022703D01*
X0021039Y0022546D01*
X0021013Y0022390D01*
X0020983Y0022234D01*
X0020950Y0022079D01*
X0020912Y0021926D01*
X0020871Y0021773D01*
X0020826Y0021621D01*
X0020777Y0021470D01*
X0020724Y0021321D01*
X0020668Y0021173D01*
X0020608Y0021027D01*
X0020544Y0020882D01*
X0020476Y0020739D01*
X0020405Y0020597D01*
X0020331Y0020457D01*
X0020253Y0020320D01*
X0020171Y0020184D01*
X0020087Y0020050D01*
X0019998Y0019919D01*
X0019907Y0019790D01*
X0019812Y0019663D01*
X0019715Y0019538D01*
X0019614Y0019416D01*
X0019510Y0019297D01*
X0019403Y0019180D01*
X0019293Y0019066D01*
X0019180Y0018955D01*
X0019065Y0018846D01*
X0018947Y0018741D01*
X0018826Y0018639D01*
X0018703Y0018539D01*
X0018577Y0018443D01*
X0018449Y0018350D01*
X0018319Y0018260D01*
X0018186Y0018174D01*
X0018051Y0018090D01*
X0017915Y0018011D01*
X0017776Y0017934D01*
X0017635Y0017862D01*
X0017493Y0017792D01*
X0017349Y0017727D01*
X0017203Y0017665D01*
X0017056Y0017607D01*
X0016907Y0017552D01*
X0016757Y0017501D01*
X0016606Y0017454D01*
X0016454Y0017411D01*
X0016301Y0017372D01*
X0016146Y0017336D01*
X0015991Y0017305D01*
X0015835Y0017277D01*
X0015679Y0017253D01*
X0015522Y0017233D01*
X0015364Y0017217D01*
X0015207Y0017205D01*
X0015048Y0017197D01*
X0014890Y0017193D01*
X0014732Y0017193D01*
X0014574Y0017197D01*
X0014415Y0017205D01*
X0014258Y0017217D01*
X0014100Y0017233D01*
X0013943Y0017253D01*
X0013787Y0017277D01*
X0013631Y0017305D01*
X0013476Y0017336D01*
X0013321Y0017372D01*
X0013168Y0017411D01*
X0013016Y0017454D01*
X0012865Y0017501D01*
X0012715Y0017552D01*
X0012566Y0017607D01*
X0012419Y0017665D01*
X0012273Y0017727D01*
X0012129Y0017792D01*
X0011987Y0017862D01*
X0011846Y0017934D01*
X0011707Y0018011D01*
X0011571Y0018090D01*
X0011436Y0018174D01*
X0011303Y0018260D01*
X0011173Y0018350D01*
X0011045Y0018443D01*
X0010919Y0018539D01*
X0010796Y0018639D01*
X0010675Y0018741D01*
X0010557Y0018846D01*
X0010442Y0018955D01*
X0010329Y0019066D01*
X0010219Y0019180D01*
X0010112Y0019297D01*
X0010008Y0019416D01*
X0009907Y0019538D01*
X0009810Y0019663D01*
X0009715Y0019790D01*
X0009624Y0019919D01*
X0009535Y0020050D01*
X0009451Y0020184D01*
X0009369Y0020320D01*
X0009291Y0020457D01*
X0009217Y0020597D01*
X0009146Y0020739D01*
X0009078Y0020882D01*
X0009014Y0021027D01*
X0008954Y0021173D01*
X0008898Y0021321D01*
X0008845Y0021470D01*
X0008796Y0021621D01*
X0008751Y0021773D01*
X0008710Y0021926D01*
X0008672Y0022079D01*
X0008639Y0022234D01*
X0008609Y0022390D01*
X0008583Y0022546D01*
X0008562Y0022703D01*
X0008544Y0022860D01*
X0008530Y0023018D01*
X0008520Y0023176D01*
X0008514Y0023334D01*
X0008512Y0023492D01*
X0008512Y0218374D02*
X0008514Y0218532D01*
X0008520Y0218690D01*
X0008530Y0218848D01*
X0008544Y0219006D01*
X0008562Y0219163D01*
X0008583Y0219320D01*
X0008609Y0219476D01*
X0008639Y0219632D01*
X0008672Y0219787D01*
X0008710Y0219940D01*
X0008751Y0220093D01*
X0008796Y0220245D01*
X0008845Y0220396D01*
X0008898Y0220545D01*
X0008954Y0220693D01*
X0009014Y0220839D01*
X0009078Y0220984D01*
X0009146Y0221127D01*
X0009217Y0221269D01*
X0009291Y0221409D01*
X0009369Y0221546D01*
X0009451Y0221682D01*
X0009535Y0221816D01*
X0009624Y0221947D01*
X0009715Y0222076D01*
X0009810Y0222203D01*
X0009907Y0222328D01*
X0010008Y0222450D01*
X0010112Y0222569D01*
X0010219Y0222686D01*
X0010329Y0222800D01*
X0010442Y0222911D01*
X0010557Y0223020D01*
X0010675Y0223125D01*
X0010796Y0223227D01*
X0010919Y0223327D01*
X0011045Y0223423D01*
X0011173Y0223516D01*
X0011303Y0223606D01*
X0011436Y0223692D01*
X0011571Y0223776D01*
X0011707Y0223855D01*
X0011846Y0223932D01*
X0011987Y0224004D01*
X0012129Y0224074D01*
X0012273Y0224139D01*
X0012419Y0224201D01*
X0012566Y0224259D01*
X0012715Y0224314D01*
X0012865Y0224365D01*
X0013016Y0224412D01*
X0013168Y0224455D01*
X0013321Y0224494D01*
X0013476Y0224530D01*
X0013631Y0224561D01*
X0013787Y0224589D01*
X0013943Y0224613D01*
X0014100Y0224633D01*
X0014258Y0224649D01*
X0014415Y0224661D01*
X0014574Y0224669D01*
X0014732Y0224673D01*
X0014890Y0224673D01*
X0015048Y0224669D01*
X0015207Y0224661D01*
X0015364Y0224649D01*
X0015522Y0224633D01*
X0015679Y0224613D01*
X0015835Y0224589D01*
X0015991Y0224561D01*
X0016146Y0224530D01*
X0016301Y0224494D01*
X0016454Y0224455D01*
X0016606Y0224412D01*
X0016757Y0224365D01*
X0016907Y0224314D01*
X0017056Y0224259D01*
X0017203Y0224201D01*
X0017349Y0224139D01*
X0017493Y0224074D01*
X0017635Y0224004D01*
X0017776Y0223932D01*
X0017915Y0223855D01*
X0018051Y0223776D01*
X0018186Y0223692D01*
X0018319Y0223606D01*
X0018449Y0223516D01*
X0018577Y0223423D01*
X0018703Y0223327D01*
X0018826Y0223227D01*
X0018947Y0223125D01*
X0019065Y0223020D01*
X0019180Y0222911D01*
X0019293Y0222800D01*
X0019403Y0222686D01*
X0019510Y0222569D01*
X0019614Y0222450D01*
X0019715Y0222328D01*
X0019812Y0222203D01*
X0019907Y0222076D01*
X0019998Y0221947D01*
X0020087Y0221816D01*
X0020171Y0221682D01*
X0020253Y0221546D01*
X0020331Y0221409D01*
X0020405Y0221269D01*
X0020476Y0221127D01*
X0020544Y0220984D01*
X0020608Y0220839D01*
X0020668Y0220693D01*
X0020724Y0220545D01*
X0020777Y0220396D01*
X0020826Y0220245D01*
X0020871Y0220093D01*
X0020912Y0219940D01*
X0020950Y0219787D01*
X0020983Y0219632D01*
X0021013Y0219476D01*
X0021039Y0219320D01*
X0021060Y0219163D01*
X0021078Y0219006D01*
X0021092Y0218848D01*
X0021102Y0218690D01*
X0021108Y0218532D01*
X0021110Y0218374D01*
X0021108Y0218216D01*
X0021102Y0218058D01*
X0021092Y0217900D01*
X0021078Y0217742D01*
X0021060Y0217585D01*
X0021039Y0217428D01*
X0021013Y0217272D01*
X0020983Y0217116D01*
X0020950Y0216961D01*
X0020912Y0216808D01*
X0020871Y0216655D01*
X0020826Y0216503D01*
X0020777Y0216352D01*
X0020724Y0216203D01*
X0020668Y0216055D01*
X0020608Y0215909D01*
X0020544Y0215764D01*
X0020476Y0215621D01*
X0020405Y0215479D01*
X0020331Y0215339D01*
X0020253Y0215202D01*
X0020171Y0215066D01*
X0020087Y0214932D01*
X0019998Y0214801D01*
X0019907Y0214672D01*
X0019812Y0214545D01*
X0019715Y0214420D01*
X0019614Y0214298D01*
X0019510Y0214179D01*
X0019403Y0214062D01*
X0019293Y0213948D01*
X0019180Y0213837D01*
X0019065Y0213728D01*
X0018947Y0213623D01*
X0018826Y0213521D01*
X0018703Y0213421D01*
X0018577Y0213325D01*
X0018449Y0213232D01*
X0018319Y0213142D01*
X0018186Y0213056D01*
X0018051Y0212972D01*
X0017915Y0212893D01*
X0017776Y0212816D01*
X0017635Y0212744D01*
X0017493Y0212674D01*
X0017349Y0212609D01*
X0017203Y0212547D01*
X0017056Y0212489D01*
X0016907Y0212434D01*
X0016757Y0212383D01*
X0016606Y0212336D01*
X0016454Y0212293D01*
X0016301Y0212254D01*
X0016146Y0212218D01*
X0015991Y0212187D01*
X0015835Y0212159D01*
X0015679Y0212135D01*
X0015522Y0212115D01*
X0015364Y0212099D01*
X0015207Y0212087D01*
X0015048Y0212079D01*
X0014890Y0212075D01*
X0014732Y0212075D01*
X0014574Y0212079D01*
X0014415Y0212087D01*
X0014258Y0212099D01*
X0014100Y0212115D01*
X0013943Y0212135D01*
X0013787Y0212159D01*
X0013631Y0212187D01*
X0013476Y0212218D01*
X0013321Y0212254D01*
X0013168Y0212293D01*
X0013016Y0212336D01*
X0012865Y0212383D01*
X0012715Y0212434D01*
X0012566Y0212489D01*
X0012419Y0212547D01*
X0012273Y0212609D01*
X0012129Y0212674D01*
X0011987Y0212744D01*
X0011846Y0212816D01*
X0011707Y0212893D01*
X0011571Y0212972D01*
X0011436Y0213056D01*
X0011303Y0213142D01*
X0011173Y0213232D01*
X0011045Y0213325D01*
X0010919Y0213421D01*
X0010796Y0213521D01*
X0010675Y0213623D01*
X0010557Y0213728D01*
X0010442Y0213837D01*
X0010329Y0213948D01*
X0010219Y0214062D01*
X0010112Y0214179D01*
X0010008Y0214298D01*
X0009907Y0214420D01*
X0009810Y0214545D01*
X0009715Y0214672D01*
X0009624Y0214801D01*
X0009535Y0214932D01*
X0009451Y0215066D01*
X0009369Y0215202D01*
X0009291Y0215339D01*
X0009217Y0215479D01*
X0009146Y0215621D01*
X0009078Y0215764D01*
X0009014Y0215909D01*
X0008954Y0216055D01*
X0008898Y0216203D01*
X0008845Y0216352D01*
X0008796Y0216503D01*
X0008751Y0216655D01*
X0008710Y0216808D01*
X0008672Y0216961D01*
X0008639Y0217116D01*
X0008609Y0217272D01*
X0008583Y0217428D01*
X0008562Y0217585D01*
X0008544Y0217742D01*
X0008530Y0217900D01*
X0008520Y0218058D01*
X0008514Y0218216D01*
X0008512Y0218374D01*
X0370717Y0218374D02*
X0370719Y0218532D01*
X0370725Y0218690D01*
X0370735Y0218848D01*
X0370749Y0219006D01*
X0370767Y0219163D01*
X0370788Y0219320D01*
X0370814Y0219476D01*
X0370844Y0219632D01*
X0370877Y0219787D01*
X0370915Y0219940D01*
X0370956Y0220093D01*
X0371001Y0220245D01*
X0371050Y0220396D01*
X0371103Y0220545D01*
X0371159Y0220693D01*
X0371219Y0220839D01*
X0371283Y0220984D01*
X0371351Y0221127D01*
X0371422Y0221269D01*
X0371496Y0221409D01*
X0371574Y0221546D01*
X0371656Y0221682D01*
X0371740Y0221816D01*
X0371829Y0221947D01*
X0371920Y0222076D01*
X0372015Y0222203D01*
X0372112Y0222328D01*
X0372213Y0222450D01*
X0372317Y0222569D01*
X0372424Y0222686D01*
X0372534Y0222800D01*
X0372647Y0222911D01*
X0372762Y0223020D01*
X0372880Y0223125D01*
X0373001Y0223227D01*
X0373124Y0223327D01*
X0373250Y0223423D01*
X0373378Y0223516D01*
X0373508Y0223606D01*
X0373641Y0223692D01*
X0373776Y0223776D01*
X0373912Y0223855D01*
X0374051Y0223932D01*
X0374192Y0224004D01*
X0374334Y0224074D01*
X0374478Y0224139D01*
X0374624Y0224201D01*
X0374771Y0224259D01*
X0374920Y0224314D01*
X0375070Y0224365D01*
X0375221Y0224412D01*
X0375373Y0224455D01*
X0375526Y0224494D01*
X0375681Y0224530D01*
X0375836Y0224561D01*
X0375992Y0224589D01*
X0376148Y0224613D01*
X0376305Y0224633D01*
X0376463Y0224649D01*
X0376620Y0224661D01*
X0376779Y0224669D01*
X0376937Y0224673D01*
X0377095Y0224673D01*
X0377253Y0224669D01*
X0377412Y0224661D01*
X0377569Y0224649D01*
X0377727Y0224633D01*
X0377884Y0224613D01*
X0378040Y0224589D01*
X0378196Y0224561D01*
X0378351Y0224530D01*
X0378506Y0224494D01*
X0378659Y0224455D01*
X0378811Y0224412D01*
X0378962Y0224365D01*
X0379112Y0224314D01*
X0379261Y0224259D01*
X0379408Y0224201D01*
X0379554Y0224139D01*
X0379698Y0224074D01*
X0379840Y0224004D01*
X0379981Y0223932D01*
X0380120Y0223855D01*
X0380256Y0223776D01*
X0380391Y0223692D01*
X0380524Y0223606D01*
X0380654Y0223516D01*
X0380782Y0223423D01*
X0380908Y0223327D01*
X0381031Y0223227D01*
X0381152Y0223125D01*
X0381270Y0223020D01*
X0381385Y0222911D01*
X0381498Y0222800D01*
X0381608Y0222686D01*
X0381715Y0222569D01*
X0381819Y0222450D01*
X0381920Y0222328D01*
X0382017Y0222203D01*
X0382112Y0222076D01*
X0382203Y0221947D01*
X0382292Y0221816D01*
X0382376Y0221682D01*
X0382458Y0221546D01*
X0382536Y0221409D01*
X0382610Y0221269D01*
X0382681Y0221127D01*
X0382749Y0220984D01*
X0382813Y0220839D01*
X0382873Y0220693D01*
X0382929Y0220545D01*
X0382982Y0220396D01*
X0383031Y0220245D01*
X0383076Y0220093D01*
X0383117Y0219940D01*
X0383155Y0219787D01*
X0383188Y0219632D01*
X0383218Y0219476D01*
X0383244Y0219320D01*
X0383265Y0219163D01*
X0383283Y0219006D01*
X0383297Y0218848D01*
X0383307Y0218690D01*
X0383313Y0218532D01*
X0383315Y0218374D01*
X0383313Y0218216D01*
X0383307Y0218058D01*
X0383297Y0217900D01*
X0383283Y0217742D01*
X0383265Y0217585D01*
X0383244Y0217428D01*
X0383218Y0217272D01*
X0383188Y0217116D01*
X0383155Y0216961D01*
X0383117Y0216808D01*
X0383076Y0216655D01*
X0383031Y0216503D01*
X0382982Y0216352D01*
X0382929Y0216203D01*
X0382873Y0216055D01*
X0382813Y0215909D01*
X0382749Y0215764D01*
X0382681Y0215621D01*
X0382610Y0215479D01*
X0382536Y0215339D01*
X0382458Y0215202D01*
X0382376Y0215066D01*
X0382292Y0214932D01*
X0382203Y0214801D01*
X0382112Y0214672D01*
X0382017Y0214545D01*
X0381920Y0214420D01*
X0381819Y0214298D01*
X0381715Y0214179D01*
X0381608Y0214062D01*
X0381498Y0213948D01*
X0381385Y0213837D01*
X0381270Y0213728D01*
X0381152Y0213623D01*
X0381031Y0213521D01*
X0380908Y0213421D01*
X0380782Y0213325D01*
X0380654Y0213232D01*
X0380524Y0213142D01*
X0380391Y0213056D01*
X0380256Y0212972D01*
X0380120Y0212893D01*
X0379981Y0212816D01*
X0379840Y0212744D01*
X0379698Y0212674D01*
X0379554Y0212609D01*
X0379408Y0212547D01*
X0379261Y0212489D01*
X0379112Y0212434D01*
X0378962Y0212383D01*
X0378811Y0212336D01*
X0378659Y0212293D01*
X0378506Y0212254D01*
X0378351Y0212218D01*
X0378196Y0212187D01*
X0378040Y0212159D01*
X0377884Y0212135D01*
X0377727Y0212115D01*
X0377569Y0212099D01*
X0377412Y0212087D01*
X0377253Y0212079D01*
X0377095Y0212075D01*
X0376937Y0212075D01*
X0376779Y0212079D01*
X0376620Y0212087D01*
X0376463Y0212099D01*
X0376305Y0212115D01*
X0376148Y0212135D01*
X0375992Y0212159D01*
X0375836Y0212187D01*
X0375681Y0212218D01*
X0375526Y0212254D01*
X0375373Y0212293D01*
X0375221Y0212336D01*
X0375070Y0212383D01*
X0374920Y0212434D01*
X0374771Y0212489D01*
X0374624Y0212547D01*
X0374478Y0212609D01*
X0374334Y0212674D01*
X0374192Y0212744D01*
X0374051Y0212816D01*
X0373912Y0212893D01*
X0373776Y0212972D01*
X0373641Y0213056D01*
X0373508Y0213142D01*
X0373378Y0213232D01*
X0373250Y0213325D01*
X0373124Y0213421D01*
X0373001Y0213521D01*
X0372880Y0213623D01*
X0372762Y0213728D01*
X0372647Y0213837D01*
X0372534Y0213948D01*
X0372424Y0214062D01*
X0372317Y0214179D01*
X0372213Y0214298D01*
X0372112Y0214420D01*
X0372015Y0214545D01*
X0371920Y0214672D01*
X0371829Y0214801D01*
X0371740Y0214932D01*
X0371656Y0215066D01*
X0371574Y0215202D01*
X0371496Y0215339D01*
X0371422Y0215479D01*
X0371351Y0215621D01*
X0371283Y0215764D01*
X0371219Y0215909D01*
X0371159Y0216055D01*
X0371103Y0216203D01*
X0371050Y0216352D01*
X0371001Y0216503D01*
X0370956Y0216655D01*
X0370915Y0216808D01*
X0370877Y0216961D01*
X0370844Y0217116D01*
X0370814Y0217272D01*
X0370788Y0217428D01*
X0370767Y0217585D01*
X0370749Y0217742D01*
X0370735Y0217900D01*
X0370725Y0218058D01*
X0370719Y0218216D01*
X0370717Y0218374D01*
X0370717Y0023492D02*
X0370719Y0023650D01*
X0370725Y0023808D01*
X0370735Y0023966D01*
X0370749Y0024124D01*
X0370767Y0024281D01*
X0370788Y0024438D01*
X0370814Y0024594D01*
X0370844Y0024750D01*
X0370877Y0024905D01*
X0370915Y0025058D01*
X0370956Y0025211D01*
X0371001Y0025363D01*
X0371050Y0025514D01*
X0371103Y0025663D01*
X0371159Y0025811D01*
X0371219Y0025957D01*
X0371283Y0026102D01*
X0371351Y0026245D01*
X0371422Y0026387D01*
X0371496Y0026527D01*
X0371574Y0026664D01*
X0371656Y0026800D01*
X0371740Y0026934D01*
X0371829Y0027065D01*
X0371920Y0027194D01*
X0372015Y0027321D01*
X0372112Y0027446D01*
X0372213Y0027568D01*
X0372317Y0027687D01*
X0372424Y0027804D01*
X0372534Y0027918D01*
X0372647Y0028029D01*
X0372762Y0028138D01*
X0372880Y0028243D01*
X0373001Y0028345D01*
X0373124Y0028445D01*
X0373250Y0028541D01*
X0373378Y0028634D01*
X0373508Y0028724D01*
X0373641Y0028810D01*
X0373776Y0028894D01*
X0373912Y0028973D01*
X0374051Y0029050D01*
X0374192Y0029122D01*
X0374334Y0029192D01*
X0374478Y0029257D01*
X0374624Y0029319D01*
X0374771Y0029377D01*
X0374920Y0029432D01*
X0375070Y0029483D01*
X0375221Y0029530D01*
X0375373Y0029573D01*
X0375526Y0029612D01*
X0375681Y0029648D01*
X0375836Y0029679D01*
X0375992Y0029707D01*
X0376148Y0029731D01*
X0376305Y0029751D01*
X0376463Y0029767D01*
X0376620Y0029779D01*
X0376779Y0029787D01*
X0376937Y0029791D01*
X0377095Y0029791D01*
X0377253Y0029787D01*
X0377412Y0029779D01*
X0377569Y0029767D01*
X0377727Y0029751D01*
X0377884Y0029731D01*
X0378040Y0029707D01*
X0378196Y0029679D01*
X0378351Y0029648D01*
X0378506Y0029612D01*
X0378659Y0029573D01*
X0378811Y0029530D01*
X0378962Y0029483D01*
X0379112Y0029432D01*
X0379261Y0029377D01*
X0379408Y0029319D01*
X0379554Y0029257D01*
X0379698Y0029192D01*
X0379840Y0029122D01*
X0379981Y0029050D01*
X0380120Y0028973D01*
X0380256Y0028894D01*
X0380391Y0028810D01*
X0380524Y0028724D01*
X0380654Y0028634D01*
X0380782Y0028541D01*
X0380908Y0028445D01*
X0381031Y0028345D01*
X0381152Y0028243D01*
X0381270Y0028138D01*
X0381385Y0028029D01*
X0381498Y0027918D01*
X0381608Y0027804D01*
X0381715Y0027687D01*
X0381819Y0027568D01*
X0381920Y0027446D01*
X0382017Y0027321D01*
X0382112Y0027194D01*
X0382203Y0027065D01*
X0382292Y0026934D01*
X0382376Y0026800D01*
X0382458Y0026664D01*
X0382536Y0026527D01*
X0382610Y0026387D01*
X0382681Y0026245D01*
X0382749Y0026102D01*
X0382813Y0025957D01*
X0382873Y0025811D01*
X0382929Y0025663D01*
X0382982Y0025514D01*
X0383031Y0025363D01*
X0383076Y0025211D01*
X0383117Y0025058D01*
X0383155Y0024905D01*
X0383188Y0024750D01*
X0383218Y0024594D01*
X0383244Y0024438D01*
X0383265Y0024281D01*
X0383283Y0024124D01*
X0383297Y0023966D01*
X0383307Y0023808D01*
X0383313Y0023650D01*
X0383315Y0023492D01*
X0383313Y0023334D01*
X0383307Y0023176D01*
X0383297Y0023018D01*
X0383283Y0022860D01*
X0383265Y0022703D01*
X0383244Y0022546D01*
X0383218Y0022390D01*
X0383188Y0022234D01*
X0383155Y0022079D01*
X0383117Y0021926D01*
X0383076Y0021773D01*
X0383031Y0021621D01*
X0382982Y0021470D01*
X0382929Y0021321D01*
X0382873Y0021173D01*
X0382813Y0021027D01*
X0382749Y0020882D01*
X0382681Y0020739D01*
X0382610Y0020597D01*
X0382536Y0020457D01*
X0382458Y0020320D01*
X0382376Y0020184D01*
X0382292Y0020050D01*
X0382203Y0019919D01*
X0382112Y0019790D01*
X0382017Y0019663D01*
X0381920Y0019538D01*
X0381819Y0019416D01*
X0381715Y0019297D01*
X0381608Y0019180D01*
X0381498Y0019066D01*
X0381385Y0018955D01*
X0381270Y0018846D01*
X0381152Y0018741D01*
X0381031Y0018639D01*
X0380908Y0018539D01*
X0380782Y0018443D01*
X0380654Y0018350D01*
X0380524Y0018260D01*
X0380391Y0018174D01*
X0380256Y0018090D01*
X0380120Y0018011D01*
X0379981Y0017934D01*
X0379840Y0017862D01*
X0379698Y0017792D01*
X0379554Y0017727D01*
X0379408Y0017665D01*
X0379261Y0017607D01*
X0379112Y0017552D01*
X0378962Y0017501D01*
X0378811Y0017454D01*
X0378659Y0017411D01*
X0378506Y0017372D01*
X0378351Y0017336D01*
X0378196Y0017305D01*
X0378040Y0017277D01*
X0377884Y0017253D01*
X0377727Y0017233D01*
X0377569Y0017217D01*
X0377412Y0017205D01*
X0377253Y0017197D01*
X0377095Y0017193D01*
X0376937Y0017193D01*
X0376779Y0017197D01*
X0376620Y0017205D01*
X0376463Y0017217D01*
X0376305Y0017233D01*
X0376148Y0017253D01*
X0375992Y0017277D01*
X0375836Y0017305D01*
X0375681Y0017336D01*
X0375526Y0017372D01*
X0375373Y0017411D01*
X0375221Y0017454D01*
X0375070Y0017501D01*
X0374920Y0017552D01*
X0374771Y0017607D01*
X0374624Y0017665D01*
X0374478Y0017727D01*
X0374334Y0017792D01*
X0374192Y0017862D01*
X0374051Y0017934D01*
X0373912Y0018011D01*
X0373776Y0018090D01*
X0373641Y0018174D01*
X0373508Y0018260D01*
X0373378Y0018350D01*
X0373250Y0018443D01*
X0373124Y0018539D01*
X0373001Y0018639D01*
X0372880Y0018741D01*
X0372762Y0018846D01*
X0372647Y0018955D01*
X0372534Y0019066D01*
X0372424Y0019180D01*
X0372317Y0019297D01*
X0372213Y0019416D01*
X0372112Y0019538D01*
X0372015Y0019663D01*
X0371920Y0019790D01*
X0371829Y0019919D01*
X0371740Y0020050D01*
X0371656Y0020184D01*
X0371574Y0020320D01*
X0371496Y0020457D01*
X0371422Y0020597D01*
X0371351Y0020739D01*
X0371283Y0020882D01*
X0371219Y0021027D01*
X0371159Y0021173D01*
X0371103Y0021321D01*
X0371050Y0021470D01*
X0371001Y0021621D01*
X0370956Y0021773D01*
X0370915Y0021926D01*
X0370877Y0022079D01*
X0370844Y0022234D01*
X0370814Y0022390D01*
X0370788Y0022546D01*
X0370767Y0022703D01*
X0370749Y0022860D01*
X0370735Y0023018D01*
X0370725Y0023176D01*
X0370719Y0023334D01*
X0370717Y0023492D01*
D11*
X0338393Y0024830D02*
X0333669Y0024830D01*
X0333669Y0034280D01*
X0338393Y0034280D01*
X0338393Y0024830D01*
X0338393Y0026326D02*
X0333669Y0026326D01*
X0333669Y0027822D02*
X0338393Y0027822D01*
X0338393Y0029318D02*
X0333669Y0029318D01*
X0333669Y0030814D02*
X0338393Y0030814D01*
X0338393Y0032310D02*
X0333669Y0032310D01*
X0333669Y0033806D02*
X0338393Y0033806D01*
X0313079Y0024830D02*
X0308355Y0024830D01*
X0308355Y0034280D01*
X0313079Y0034280D01*
X0313079Y0024830D01*
X0313079Y0026326D02*
X0308355Y0026326D01*
X0308355Y0027822D02*
X0313079Y0027822D01*
X0313079Y0029318D02*
X0308355Y0029318D01*
X0308355Y0030814D02*
X0313079Y0030814D01*
X0313079Y0032310D02*
X0308355Y0032310D01*
X0308355Y0033806D02*
X0313079Y0033806D01*
D12*
X0312932Y0041710D02*
X0308502Y0041710D01*
X0308502Y0051258D01*
X0312932Y0051258D01*
X0312932Y0041710D01*
X0312932Y0043112D02*
X0308502Y0043112D01*
X0308502Y0044514D02*
X0312932Y0044514D01*
X0312932Y0045916D02*
X0308502Y0045916D01*
X0308502Y0047318D02*
X0312932Y0047318D01*
X0312932Y0048720D02*
X0308502Y0048720D01*
X0308502Y0050122D02*
X0312932Y0050122D01*
X0333816Y0041710D02*
X0338246Y0041710D01*
X0333816Y0041710D02*
X0333816Y0051258D01*
X0338246Y0051258D01*
X0338246Y0041710D01*
X0338246Y0043112D02*
X0333816Y0043112D01*
X0333816Y0044514D02*
X0338246Y0044514D01*
X0338246Y0045916D02*
X0333816Y0045916D01*
X0333816Y0047318D02*
X0338246Y0047318D01*
X0338246Y0048720D02*
X0333816Y0048720D01*
X0333816Y0050122D02*
X0338246Y0050122D01*
D13*
X0335973Y0062961D02*
X0335973Y0065913D01*
X0339319Y0065913D01*
X0339319Y0062961D01*
X0335973Y0062961D01*
X0335973Y0063896D02*
X0339319Y0063896D01*
X0339319Y0064831D02*
X0335973Y0064831D01*
X0335973Y0065766D02*
X0339319Y0065766D01*
X0335973Y0069654D02*
X0335973Y0072606D01*
X0339319Y0072606D01*
X0339319Y0069654D01*
X0335973Y0069654D01*
X0335973Y0070589D02*
X0339319Y0070589D01*
X0339319Y0071524D02*
X0335973Y0071524D01*
X0335973Y0072459D02*
X0339319Y0072459D01*
X0344044Y0066701D02*
X0346996Y0066701D01*
X0344044Y0066701D02*
X0344044Y0072803D01*
X0346996Y0072803D01*
X0346996Y0066701D01*
X0346996Y0067636D02*
X0344044Y0067636D01*
X0344044Y0068571D02*
X0346996Y0068571D01*
X0346996Y0069506D02*
X0344044Y0069506D01*
X0344044Y0070441D02*
X0346996Y0070441D01*
X0346996Y0071376D02*
X0344044Y0071376D01*
X0344044Y0072311D02*
X0346996Y0072311D01*
X0355855Y0066701D02*
X0358807Y0066701D01*
X0355855Y0066701D02*
X0355855Y0072803D01*
X0358807Y0072803D01*
X0358807Y0066701D01*
X0358807Y0067636D02*
X0355855Y0067636D01*
X0355855Y0068571D02*
X0358807Y0068571D01*
X0358807Y0069506D02*
X0355855Y0069506D01*
X0355855Y0070441D02*
X0358807Y0070441D01*
X0358807Y0071376D02*
X0355855Y0071376D01*
X0355855Y0072311D02*
X0358807Y0072311D01*
X0315697Y0070638D02*
X0315697Y0067686D01*
X0312351Y0067686D01*
X0312351Y0070638D01*
X0315697Y0070638D01*
X0315697Y0068621D02*
X0312351Y0068621D01*
X0312351Y0069556D02*
X0315697Y0069556D01*
X0315697Y0070491D02*
X0312351Y0070491D01*
X0315697Y0063945D02*
X0315697Y0060993D01*
X0312351Y0060993D01*
X0312351Y0063945D01*
X0315697Y0063945D01*
X0315697Y0061928D02*
X0312351Y0061928D01*
X0312351Y0062863D02*
X0315697Y0062863D01*
X0315697Y0063798D02*
X0312351Y0063798D01*
X0374162Y0038552D02*
X0377114Y0038552D01*
X0374162Y0038552D02*
X0374162Y0041898D01*
X0377114Y0041898D01*
X0377114Y0038552D01*
X0377114Y0039487D02*
X0374162Y0039487D01*
X0374162Y0040422D02*
X0377114Y0040422D01*
X0377114Y0041357D02*
X0374162Y0041357D01*
X0380855Y0038552D02*
X0383807Y0038552D01*
X0380855Y0038552D02*
X0380855Y0041898D01*
X0383807Y0041898D01*
X0383807Y0038552D01*
X0383807Y0039487D02*
X0380855Y0039487D01*
X0380855Y0040422D02*
X0383807Y0040422D01*
X0383807Y0041357D02*
X0380855Y0041357D01*
X0355658Y0157449D02*
X0355658Y0160401D01*
X0359004Y0160401D01*
X0359004Y0157449D01*
X0355658Y0157449D01*
X0355658Y0158384D02*
X0359004Y0158384D01*
X0359004Y0159319D02*
X0355658Y0159319D01*
X0355658Y0160254D02*
X0359004Y0160254D01*
X0355658Y0164142D02*
X0355658Y0167094D01*
X0359004Y0167094D01*
X0359004Y0164142D01*
X0355658Y0164142D01*
X0355658Y0165077D02*
X0359004Y0165077D01*
X0359004Y0166012D02*
X0355658Y0166012D01*
X0355658Y0166947D02*
X0359004Y0166947D01*
X0337941Y0168275D02*
X0337941Y0165323D01*
X0337941Y0168275D02*
X0341287Y0168275D01*
X0341287Y0165323D01*
X0337941Y0165323D01*
X0337941Y0166258D02*
X0341287Y0166258D01*
X0341287Y0167193D02*
X0337941Y0167193D01*
X0337941Y0168128D02*
X0341287Y0168128D01*
X0337941Y0172016D02*
X0337941Y0174968D01*
X0341287Y0174968D01*
X0341287Y0172016D01*
X0337941Y0172016D01*
X0337941Y0172951D02*
X0341287Y0172951D01*
X0341287Y0173886D02*
X0337941Y0173886D01*
X0337941Y0174821D02*
X0341287Y0174821D01*
X0330067Y0174968D02*
X0330067Y0172016D01*
X0330067Y0174968D02*
X0333413Y0174968D01*
X0333413Y0172016D01*
X0330067Y0172016D01*
X0330067Y0172951D02*
X0333413Y0172951D01*
X0333413Y0173886D02*
X0330067Y0173886D01*
X0330067Y0174821D02*
X0333413Y0174821D01*
X0330067Y0168275D02*
X0330067Y0165323D01*
X0330067Y0168275D02*
X0333413Y0168275D01*
X0333413Y0165323D01*
X0330067Y0165323D01*
X0330067Y0166258D02*
X0333413Y0166258D01*
X0333413Y0167193D02*
X0330067Y0167193D01*
X0330067Y0168128D02*
X0333413Y0168128D01*
X0282429Y0207055D02*
X0276327Y0207055D01*
X0282429Y0207055D02*
X0282429Y0204103D01*
X0276327Y0204103D01*
X0276327Y0207055D01*
X0276327Y0205038D02*
X0282429Y0205038D01*
X0282429Y0205973D02*
X0276327Y0205973D01*
X0276327Y0206908D02*
X0282429Y0206908D01*
X0282429Y0222803D02*
X0276327Y0222803D01*
X0282429Y0222803D02*
X0282429Y0219851D01*
X0276327Y0219851D01*
X0276327Y0222803D01*
X0276327Y0220786D02*
X0282429Y0220786D01*
X0282429Y0221721D02*
X0276327Y0221721D01*
X0276327Y0222656D02*
X0282429Y0222656D01*
X0261169Y0222803D02*
X0255067Y0222803D01*
X0261169Y0222803D02*
X0261169Y0219851D01*
X0255067Y0219851D01*
X0255067Y0222803D01*
X0255067Y0220786D02*
X0261169Y0220786D01*
X0261169Y0221721D02*
X0255067Y0221721D01*
X0255067Y0222656D02*
X0261169Y0222656D01*
X0261169Y0207055D02*
X0255067Y0207055D01*
X0261169Y0207055D02*
X0261169Y0204103D01*
X0255067Y0204103D01*
X0255067Y0207055D01*
X0255067Y0205038D02*
X0261169Y0205038D01*
X0261169Y0205973D02*
X0255067Y0205973D01*
X0255067Y0206908D02*
X0261169Y0206908D01*
X0152311Y0202527D02*
X0152311Y0199575D01*
X0148965Y0199575D01*
X0148965Y0202527D01*
X0152311Y0202527D01*
X0152311Y0200510D02*
X0148965Y0200510D01*
X0148965Y0201445D02*
X0152311Y0201445D01*
X0152311Y0202380D02*
X0148965Y0202380D01*
X0144437Y0202527D02*
X0144437Y0199575D01*
X0141091Y0199575D01*
X0141091Y0202527D01*
X0144437Y0202527D01*
X0144437Y0200510D02*
X0141091Y0200510D01*
X0141091Y0201445D02*
X0144437Y0201445D01*
X0144437Y0202380D02*
X0141091Y0202380D01*
X0136760Y0204103D02*
X0130658Y0204103D01*
X0130658Y0207055D01*
X0136760Y0207055D01*
X0136760Y0204103D01*
X0136760Y0205038D02*
X0130658Y0205038D01*
X0130658Y0205973D02*
X0136760Y0205973D01*
X0136760Y0206908D02*
X0130658Y0206908D01*
X0115500Y0204103D02*
X0109398Y0204103D01*
X0109398Y0207055D01*
X0115500Y0207055D01*
X0115500Y0204103D01*
X0115500Y0205038D02*
X0109398Y0205038D01*
X0109398Y0205973D02*
X0115500Y0205973D01*
X0115500Y0206908D02*
X0109398Y0206908D01*
X0109398Y0219851D02*
X0115500Y0219851D01*
X0109398Y0219851D02*
X0109398Y0222803D01*
X0115500Y0222803D01*
X0115500Y0219851D01*
X0115500Y0220786D02*
X0109398Y0220786D01*
X0109398Y0221721D02*
X0115500Y0221721D01*
X0115500Y0222656D02*
X0109398Y0222656D01*
X0130658Y0219851D02*
X0136760Y0219851D01*
X0130658Y0219851D02*
X0130658Y0222803D01*
X0136760Y0222803D01*
X0136760Y0219851D01*
X0136760Y0220786D02*
X0130658Y0220786D01*
X0130658Y0221721D02*
X0136760Y0221721D01*
X0136760Y0222656D02*
X0130658Y0222656D01*
X0144437Y0195834D02*
X0144437Y0192882D01*
X0141091Y0192882D01*
X0141091Y0195834D01*
X0144437Y0195834D01*
X0144437Y0193817D02*
X0141091Y0193817D01*
X0141091Y0194752D02*
X0144437Y0194752D01*
X0144437Y0195687D02*
X0141091Y0195687D01*
X0152311Y0195834D02*
X0152311Y0192882D01*
X0148965Y0192882D01*
X0148965Y0195834D01*
X0152311Y0195834D01*
X0152311Y0193817D02*
X0148965Y0193817D01*
X0148965Y0194752D02*
X0152311Y0194752D01*
X0152311Y0195687D02*
X0148965Y0195687D01*
X0141091Y0190716D02*
X0141091Y0187764D01*
X0141091Y0190716D02*
X0144437Y0190716D01*
X0144437Y0187764D01*
X0141091Y0187764D01*
X0141091Y0188699D02*
X0144437Y0188699D01*
X0144437Y0189634D02*
X0141091Y0189634D01*
X0141091Y0190569D02*
X0144437Y0190569D01*
X0141091Y0184023D02*
X0141091Y0181071D01*
X0141091Y0184023D02*
X0144437Y0184023D01*
X0144437Y0181071D01*
X0141091Y0181071D01*
X0141091Y0182006D02*
X0144437Y0182006D01*
X0144437Y0182941D02*
X0141091Y0182941D01*
X0141091Y0183876D02*
X0144437Y0183876D01*
X0026327Y0064732D02*
X0026327Y0061780D01*
X0022981Y0061780D01*
X0022981Y0064732D01*
X0026327Y0064732D01*
X0026327Y0062715D02*
X0022981Y0062715D01*
X0022981Y0063650D02*
X0026327Y0063650D01*
X0026327Y0064585D02*
X0022981Y0064585D01*
X0026327Y0058039D02*
X0026327Y0055087D01*
X0022981Y0055087D01*
X0022981Y0058039D01*
X0026327Y0058039D01*
X0026327Y0056022D02*
X0022981Y0056022D01*
X0022981Y0056957D02*
X0026327Y0056957D01*
X0026327Y0057892D02*
X0022981Y0057892D01*
D14*
X0374849Y0046917D02*
X0377213Y0046917D01*
X0374849Y0046917D02*
X0374849Y0049281D01*
X0377213Y0049281D01*
X0377213Y0046917D01*
X0377213Y0047665D02*
X0374849Y0047665D01*
X0374849Y0048413D02*
X0377213Y0048413D01*
X0377213Y0049161D02*
X0374849Y0049161D01*
X0380755Y0046917D02*
X0383119Y0046917D01*
X0380755Y0046917D02*
X0380755Y0049281D01*
X0383119Y0049281D01*
X0383119Y0046917D01*
X0383119Y0047665D02*
X0380755Y0047665D01*
X0380755Y0048413D02*
X0383119Y0048413D01*
X0383119Y0049161D02*
X0380755Y0049161D01*
D15*
X0003000Y0010028D02*
X0003000Y0231839D01*
X0388827Y0231839D01*
X0388827Y0010028D01*
X0003000Y0010028D01*
D16*
X0162449Y0110697D03*
X0162449Y0115697D03*
X0162449Y0120697D03*
X0162449Y0125697D03*
X0162449Y0130697D03*
X0162449Y0135697D03*
X0162449Y0140697D03*
X0162449Y0145697D03*
X0162449Y0150697D03*
X0162449Y0155697D03*
X0162449Y0160697D03*
X0162449Y0165697D03*
X0162449Y0170697D03*
X0162449Y0175697D03*
X0162449Y0180697D03*
X0162449Y0185697D03*
X0162449Y0190697D03*
X0162449Y0195697D03*
X0162449Y0200697D03*
X0229378Y0200697D03*
X0229378Y0195697D03*
X0229378Y0190697D03*
X0229378Y0185697D03*
X0229378Y0180697D03*
X0229378Y0175697D03*
X0229378Y0170697D03*
X0229378Y0165697D03*
X0229378Y0160697D03*
X0229378Y0155697D03*
X0229378Y0150697D03*
X0229378Y0145697D03*
X0229378Y0140697D03*
X0229378Y0135697D03*
X0229378Y0130697D03*
X0229378Y0125697D03*
X0229378Y0120697D03*
X0229378Y0115697D03*
X0229378Y0110697D03*
D17*
X0218413Y0131760D03*
X0213413Y0131760D03*
X0208413Y0131760D03*
X0203413Y0131760D03*
X0198413Y0131760D03*
X0193413Y0131760D03*
X0188413Y0131760D03*
X0183413Y0131760D03*
X0178413Y0131760D03*
X0173413Y0131760D03*
D18*
X0199240Y0165795D03*
X0187232Y0171780D03*
D19*
X0187213Y0177823D03*
D20*
X0193236Y0177803D03*
X0199220Y0177803D03*
X0193236Y0171780D03*
X0193236Y0165795D03*
D21*
X0187232Y0165776D03*
X0199240Y0171799D03*
D22*
X0322734Y0070589D02*
X0322734Y0068521D01*
X0319486Y0068521D01*
X0319486Y0070589D01*
X0322734Y0070589D01*
X0322734Y0069176D02*
X0319486Y0069176D01*
X0319486Y0069831D02*
X0322734Y0069831D01*
X0322734Y0070486D02*
X0319486Y0070486D01*
X0332577Y0070589D02*
X0332577Y0068521D01*
X0329329Y0068521D01*
X0329329Y0070589D01*
X0332577Y0070589D01*
X0332577Y0069176D02*
X0329329Y0069176D01*
X0329329Y0069831D02*
X0332577Y0069831D01*
X0332577Y0070486D02*
X0329329Y0070486D01*
X0332577Y0066849D02*
X0332577Y0064781D01*
X0329329Y0064781D01*
X0329329Y0066849D01*
X0332577Y0066849D01*
X0332577Y0065436D02*
X0329329Y0065436D01*
X0329329Y0066091D02*
X0332577Y0066091D01*
X0332577Y0066746D02*
X0329329Y0066746D01*
X0332577Y0063109D02*
X0332577Y0061041D01*
X0329329Y0061041D01*
X0329329Y0063109D01*
X0332577Y0063109D01*
X0332577Y0061696D02*
X0329329Y0061696D01*
X0329329Y0062351D02*
X0332577Y0062351D01*
X0332577Y0063006D02*
X0329329Y0063006D01*
X0322734Y0063109D02*
X0322734Y0061041D01*
X0319486Y0061041D01*
X0319486Y0063109D01*
X0322734Y0063109D01*
X0322734Y0061696D02*
X0319486Y0061696D01*
X0319486Y0062351D02*
X0322734Y0062351D01*
X0322734Y0063006D02*
X0319486Y0063006D01*
D23*
X0372390Y0068571D03*
X0372390Y0071130D03*
X0372390Y0073689D03*
X0372390Y0076248D03*
X0372390Y0078807D03*
D24*
X0372882Y0085894D03*
X0372882Y0061484D03*
D25*
X0382921Y0058728D03*
X0382921Y0088650D03*
D26*
X0382921Y0078414D03*
X0382921Y0068965D03*
D27*
X0379476Y0155382D02*
X0379476Y0158926D01*
X0385382Y0158926D01*
X0385382Y0155382D01*
X0379476Y0155382D01*
X0379476Y0156504D02*
X0385382Y0156504D01*
X0385382Y0157626D02*
X0379476Y0157626D01*
X0379476Y0158748D02*
X0385382Y0158748D01*
X0379476Y0177429D02*
X0379476Y0180973D01*
X0385382Y0180973D01*
X0385382Y0177429D01*
X0379476Y0177429D01*
X0379476Y0178551D02*
X0385382Y0178551D01*
X0385382Y0179673D02*
X0379476Y0179673D01*
X0379476Y0180795D02*
X0385382Y0180795D01*
D28*
X0364417Y0174969D02*
X0364417Y0173197D01*
X0364417Y0174969D02*
X0369929Y0174969D01*
X0369929Y0173197D01*
X0364417Y0173197D01*
X0364417Y0173758D02*
X0369929Y0173758D01*
X0369929Y0174319D02*
X0364417Y0174319D01*
X0364417Y0174880D02*
X0369929Y0174880D01*
X0364417Y0171032D02*
X0364417Y0169260D01*
X0364417Y0171032D02*
X0369929Y0171032D01*
X0369929Y0169260D01*
X0364417Y0169260D01*
X0364417Y0169821D02*
X0369929Y0169821D01*
X0369929Y0170382D02*
X0364417Y0170382D01*
X0364417Y0170943D02*
X0369929Y0170943D01*
X0364417Y0167095D02*
X0364417Y0165323D01*
X0364417Y0167095D02*
X0369929Y0167095D01*
X0369929Y0165323D01*
X0364417Y0165323D01*
X0364417Y0165884D02*
X0369929Y0165884D01*
X0369929Y0166445D02*
X0364417Y0166445D01*
X0364417Y0167006D02*
X0369929Y0167006D01*
X0364417Y0163158D02*
X0364417Y0161386D01*
X0364417Y0163158D02*
X0369929Y0163158D01*
X0369929Y0161386D01*
X0364417Y0161386D01*
X0364417Y0161947D02*
X0369929Y0161947D01*
X0369929Y0162508D02*
X0364417Y0162508D01*
X0364417Y0163069D02*
X0369929Y0163069D01*
M02*
