G75*
%MOIN*%
%OFA0B0*%
%FSLAX25Y25*%
%IPPOS*%
%LPD*%
%AMOC8*
5,1,8,0,0,1.08239X$1,22.5*
%
%ADD10C,0.00000*%
%ADD11C,0.05906*%
%ADD12C,0.00500*%
%ADD13C,0.01772*%
%ADD14R,0.07000X0.07000*%
%ADD15C,0.07000*%
%ADD16C,0.02578*%
%ADD17C,0.00800*%
%ADD18C,0.10000*%
%ADD19C,0.01600*%
%ADD20C,0.02400*%
%ADD21C,0.01200*%
%ADD22C,0.01000*%
D10*
X0003000Y0010697D02*
X0003000Y0231169D01*
X0388827Y0231169D01*
X0388827Y0010697D01*
X0003000Y0010697D01*
X0008512Y0023492D02*
X0008514Y0023650D01*
X0008520Y0023808D01*
X0008530Y0023966D01*
X0008544Y0024124D01*
X0008562Y0024281D01*
X0008583Y0024438D01*
X0008609Y0024594D01*
X0008639Y0024750D01*
X0008672Y0024905D01*
X0008710Y0025058D01*
X0008751Y0025211D01*
X0008796Y0025363D01*
X0008845Y0025514D01*
X0008898Y0025663D01*
X0008954Y0025811D01*
X0009014Y0025957D01*
X0009078Y0026102D01*
X0009146Y0026245D01*
X0009217Y0026387D01*
X0009291Y0026527D01*
X0009369Y0026664D01*
X0009451Y0026800D01*
X0009535Y0026934D01*
X0009624Y0027065D01*
X0009715Y0027194D01*
X0009810Y0027321D01*
X0009907Y0027446D01*
X0010008Y0027568D01*
X0010112Y0027687D01*
X0010219Y0027804D01*
X0010329Y0027918D01*
X0010442Y0028029D01*
X0010557Y0028138D01*
X0010675Y0028243D01*
X0010796Y0028345D01*
X0010919Y0028445D01*
X0011045Y0028541D01*
X0011173Y0028634D01*
X0011303Y0028724D01*
X0011436Y0028810D01*
X0011571Y0028894D01*
X0011707Y0028973D01*
X0011846Y0029050D01*
X0011987Y0029122D01*
X0012129Y0029192D01*
X0012273Y0029257D01*
X0012419Y0029319D01*
X0012566Y0029377D01*
X0012715Y0029432D01*
X0012865Y0029483D01*
X0013016Y0029530D01*
X0013168Y0029573D01*
X0013321Y0029612D01*
X0013476Y0029648D01*
X0013631Y0029679D01*
X0013787Y0029707D01*
X0013943Y0029731D01*
X0014100Y0029751D01*
X0014258Y0029767D01*
X0014415Y0029779D01*
X0014574Y0029787D01*
X0014732Y0029791D01*
X0014890Y0029791D01*
X0015048Y0029787D01*
X0015207Y0029779D01*
X0015364Y0029767D01*
X0015522Y0029751D01*
X0015679Y0029731D01*
X0015835Y0029707D01*
X0015991Y0029679D01*
X0016146Y0029648D01*
X0016301Y0029612D01*
X0016454Y0029573D01*
X0016606Y0029530D01*
X0016757Y0029483D01*
X0016907Y0029432D01*
X0017056Y0029377D01*
X0017203Y0029319D01*
X0017349Y0029257D01*
X0017493Y0029192D01*
X0017635Y0029122D01*
X0017776Y0029050D01*
X0017915Y0028973D01*
X0018051Y0028894D01*
X0018186Y0028810D01*
X0018319Y0028724D01*
X0018449Y0028634D01*
X0018577Y0028541D01*
X0018703Y0028445D01*
X0018826Y0028345D01*
X0018947Y0028243D01*
X0019065Y0028138D01*
X0019180Y0028029D01*
X0019293Y0027918D01*
X0019403Y0027804D01*
X0019510Y0027687D01*
X0019614Y0027568D01*
X0019715Y0027446D01*
X0019812Y0027321D01*
X0019907Y0027194D01*
X0019998Y0027065D01*
X0020087Y0026934D01*
X0020171Y0026800D01*
X0020253Y0026664D01*
X0020331Y0026527D01*
X0020405Y0026387D01*
X0020476Y0026245D01*
X0020544Y0026102D01*
X0020608Y0025957D01*
X0020668Y0025811D01*
X0020724Y0025663D01*
X0020777Y0025514D01*
X0020826Y0025363D01*
X0020871Y0025211D01*
X0020912Y0025058D01*
X0020950Y0024905D01*
X0020983Y0024750D01*
X0021013Y0024594D01*
X0021039Y0024438D01*
X0021060Y0024281D01*
X0021078Y0024124D01*
X0021092Y0023966D01*
X0021102Y0023808D01*
X0021108Y0023650D01*
X0021110Y0023492D01*
X0021108Y0023334D01*
X0021102Y0023176D01*
X0021092Y0023018D01*
X0021078Y0022860D01*
X0021060Y0022703D01*
X0021039Y0022546D01*
X0021013Y0022390D01*
X0020983Y0022234D01*
X0020950Y0022079D01*
X0020912Y0021926D01*
X0020871Y0021773D01*
X0020826Y0021621D01*
X0020777Y0021470D01*
X0020724Y0021321D01*
X0020668Y0021173D01*
X0020608Y0021027D01*
X0020544Y0020882D01*
X0020476Y0020739D01*
X0020405Y0020597D01*
X0020331Y0020457D01*
X0020253Y0020320D01*
X0020171Y0020184D01*
X0020087Y0020050D01*
X0019998Y0019919D01*
X0019907Y0019790D01*
X0019812Y0019663D01*
X0019715Y0019538D01*
X0019614Y0019416D01*
X0019510Y0019297D01*
X0019403Y0019180D01*
X0019293Y0019066D01*
X0019180Y0018955D01*
X0019065Y0018846D01*
X0018947Y0018741D01*
X0018826Y0018639D01*
X0018703Y0018539D01*
X0018577Y0018443D01*
X0018449Y0018350D01*
X0018319Y0018260D01*
X0018186Y0018174D01*
X0018051Y0018090D01*
X0017915Y0018011D01*
X0017776Y0017934D01*
X0017635Y0017862D01*
X0017493Y0017792D01*
X0017349Y0017727D01*
X0017203Y0017665D01*
X0017056Y0017607D01*
X0016907Y0017552D01*
X0016757Y0017501D01*
X0016606Y0017454D01*
X0016454Y0017411D01*
X0016301Y0017372D01*
X0016146Y0017336D01*
X0015991Y0017305D01*
X0015835Y0017277D01*
X0015679Y0017253D01*
X0015522Y0017233D01*
X0015364Y0017217D01*
X0015207Y0017205D01*
X0015048Y0017197D01*
X0014890Y0017193D01*
X0014732Y0017193D01*
X0014574Y0017197D01*
X0014415Y0017205D01*
X0014258Y0017217D01*
X0014100Y0017233D01*
X0013943Y0017253D01*
X0013787Y0017277D01*
X0013631Y0017305D01*
X0013476Y0017336D01*
X0013321Y0017372D01*
X0013168Y0017411D01*
X0013016Y0017454D01*
X0012865Y0017501D01*
X0012715Y0017552D01*
X0012566Y0017607D01*
X0012419Y0017665D01*
X0012273Y0017727D01*
X0012129Y0017792D01*
X0011987Y0017862D01*
X0011846Y0017934D01*
X0011707Y0018011D01*
X0011571Y0018090D01*
X0011436Y0018174D01*
X0011303Y0018260D01*
X0011173Y0018350D01*
X0011045Y0018443D01*
X0010919Y0018539D01*
X0010796Y0018639D01*
X0010675Y0018741D01*
X0010557Y0018846D01*
X0010442Y0018955D01*
X0010329Y0019066D01*
X0010219Y0019180D01*
X0010112Y0019297D01*
X0010008Y0019416D01*
X0009907Y0019538D01*
X0009810Y0019663D01*
X0009715Y0019790D01*
X0009624Y0019919D01*
X0009535Y0020050D01*
X0009451Y0020184D01*
X0009369Y0020320D01*
X0009291Y0020457D01*
X0009217Y0020597D01*
X0009146Y0020739D01*
X0009078Y0020882D01*
X0009014Y0021027D01*
X0008954Y0021173D01*
X0008898Y0021321D01*
X0008845Y0021470D01*
X0008796Y0021621D01*
X0008751Y0021773D01*
X0008710Y0021926D01*
X0008672Y0022079D01*
X0008639Y0022234D01*
X0008609Y0022390D01*
X0008583Y0022546D01*
X0008562Y0022703D01*
X0008544Y0022860D01*
X0008530Y0023018D01*
X0008520Y0023176D01*
X0008514Y0023334D01*
X0008512Y0023492D01*
X0008512Y0218374D02*
X0008514Y0218532D01*
X0008520Y0218690D01*
X0008530Y0218848D01*
X0008544Y0219006D01*
X0008562Y0219163D01*
X0008583Y0219320D01*
X0008609Y0219476D01*
X0008639Y0219632D01*
X0008672Y0219787D01*
X0008710Y0219940D01*
X0008751Y0220093D01*
X0008796Y0220245D01*
X0008845Y0220396D01*
X0008898Y0220545D01*
X0008954Y0220693D01*
X0009014Y0220839D01*
X0009078Y0220984D01*
X0009146Y0221127D01*
X0009217Y0221269D01*
X0009291Y0221409D01*
X0009369Y0221546D01*
X0009451Y0221682D01*
X0009535Y0221816D01*
X0009624Y0221947D01*
X0009715Y0222076D01*
X0009810Y0222203D01*
X0009907Y0222328D01*
X0010008Y0222450D01*
X0010112Y0222569D01*
X0010219Y0222686D01*
X0010329Y0222800D01*
X0010442Y0222911D01*
X0010557Y0223020D01*
X0010675Y0223125D01*
X0010796Y0223227D01*
X0010919Y0223327D01*
X0011045Y0223423D01*
X0011173Y0223516D01*
X0011303Y0223606D01*
X0011436Y0223692D01*
X0011571Y0223776D01*
X0011707Y0223855D01*
X0011846Y0223932D01*
X0011987Y0224004D01*
X0012129Y0224074D01*
X0012273Y0224139D01*
X0012419Y0224201D01*
X0012566Y0224259D01*
X0012715Y0224314D01*
X0012865Y0224365D01*
X0013016Y0224412D01*
X0013168Y0224455D01*
X0013321Y0224494D01*
X0013476Y0224530D01*
X0013631Y0224561D01*
X0013787Y0224589D01*
X0013943Y0224613D01*
X0014100Y0224633D01*
X0014258Y0224649D01*
X0014415Y0224661D01*
X0014574Y0224669D01*
X0014732Y0224673D01*
X0014890Y0224673D01*
X0015048Y0224669D01*
X0015207Y0224661D01*
X0015364Y0224649D01*
X0015522Y0224633D01*
X0015679Y0224613D01*
X0015835Y0224589D01*
X0015991Y0224561D01*
X0016146Y0224530D01*
X0016301Y0224494D01*
X0016454Y0224455D01*
X0016606Y0224412D01*
X0016757Y0224365D01*
X0016907Y0224314D01*
X0017056Y0224259D01*
X0017203Y0224201D01*
X0017349Y0224139D01*
X0017493Y0224074D01*
X0017635Y0224004D01*
X0017776Y0223932D01*
X0017915Y0223855D01*
X0018051Y0223776D01*
X0018186Y0223692D01*
X0018319Y0223606D01*
X0018449Y0223516D01*
X0018577Y0223423D01*
X0018703Y0223327D01*
X0018826Y0223227D01*
X0018947Y0223125D01*
X0019065Y0223020D01*
X0019180Y0222911D01*
X0019293Y0222800D01*
X0019403Y0222686D01*
X0019510Y0222569D01*
X0019614Y0222450D01*
X0019715Y0222328D01*
X0019812Y0222203D01*
X0019907Y0222076D01*
X0019998Y0221947D01*
X0020087Y0221816D01*
X0020171Y0221682D01*
X0020253Y0221546D01*
X0020331Y0221409D01*
X0020405Y0221269D01*
X0020476Y0221127D01*
X0020544Y0220984D01*
X0020608Y0220839D01*
X0020668Y0220693D01*
X0020724Y0220545D01*
X0020777Y0220396D01*
X0020826Y0220245D01*
X0020871Y0220093D01*
X0020912Y0219940D01*
X0020950Y0219787D01*
X0020983Y0219632D01*
X0021013Y0219476D01*
X0021039Y0219320D01*
X0021060Y0219163D01*
X0021078Y0219006D01*
X0021092Y0218848D01*
X0021102Y0218690D01*
X0021108Y0218532D01*
X0021110Y0218374D01*
X0021108Y0218216D01*
X0021102Y0218058D01*
X0021092Y0217900D01*
X0021078Y0217742D01*
X0021060Y0217585D01*
X0021039Y0217428D01*
X0021013Y0217272D01*
X0020983Y0217116D01*
X0020950Y0216961D01*
X0020912Y0216808D01*
X0020871Y0216655D01*
X0020826Y0216503D01*
X0020777Y0216352D01*
X0020724Y0216203D01*
X0020668Y0216055D01*
X0020608Y0215909D01*
X0020544Y0215764D01*
X0020476Y0215621D01*
X0020405Y0215479D01*
X0020331Y0215339D01*
X0020253Y0215202D01*
X0020171Y0215066D01*
X0020087Y0214932D01*
X0019998Y0214801D01*
X0019907Y0214672D01*
X0019812Y0214545D01*
X0019715Y0214420D01*
X0019614Y0214298D01*
X0019510Y0214179D01*
X0019403Y0214062D01*
X0019293Y0213948D01*
X0019180Y0213837D01*
X0019065Y0213728D01*
X0018947Y0213623D01*
X0018826Y0213521D01*
X0018703Y0213421D01*
X0018577Y0213325D01*
X0018449Y0213232D01*
X0018319Y0213142D01*
X0018186Y0213056D01*
X0018051Y0212972D01*
X0017915Y0212893D01*
X0017776Y0212816D01*
X0017635Y0212744D01*
X0017493Y0212674D01*
X0017349Y0212609D01*
X0017203Y0212547D01*
X0017056Y0212489D01*
X0016907Y0212434D01*
X0016757Y0212383D01*
X0016606Y0212336D01*
X0016454Y0212293D01*
X0016301Y0212254D01*
X0016146Y0212218D01*
X0015991Y0212187D01*
X0015835Y0212159D01*
X0015679Y0212135D01*
X0015522Y0212115D01*
X0015364Y0212099D01*
X0015207Y0212087D01*
X0015048Y0212079D01*
X0014890Y0212075D01*
X0014732Y0212075D01*
X0014574Y0212079D01*
X0014415Y0212087D01*
X0014258Y0212099D01*
X0014100Y0212115D01*
X0013943Y0212135D01*
X0013787Y0212159D01*
X0013631Y0212187D01*
X0013476Y0212218D01*
X0013321Y0212254D01*
X0013168Y0212293D01*
X0013016Y0212336D01*
X0012865Y0212383D01*
X0012715Y0212434D01*
X0012566Y0212489D01*
X0012419Y0212547D01*
X0012273Y0212609D01*
X0012129Y0212674D01*
X0011987Y0212744D01*
X0011846Y0212816D01*
X0011707Y0212893D01*
X0011571Y0212972D01*
X0011436Y0213056D01*
X0011303Y0213142D01*
X0011173Y0213232D01*
X0011045Y0213325D01*
X0010919Y0213421D01*
X0010796Y0213521D01*
X0010675Y0213623D01*
X0010557Y0213728D01*
X0010442Y0213837D01*
X0010329Y0213948D01*
X0010219Y0214062D01*
X0010112Y0214179D01*
X0010008Y0214298D01*
X0009907Y0214420D01*
X0009810Y0214545D01*
X0009715Y0214672D01*
X0009624Y0214801D01*
X0009535Y0214932D01*
X0009451Y0215066D01*
X0009369Y0215202D01*
X0009291Y0215339D01*
X0009217Y0215479D01*
X0009146Y0215621D01*
X0009078Y0215764D01*
X0009014Y0215909D01*
X0008954Y0216055D01*
X0008898Y0216203D01*
X0008845Y0216352D01*
X0008796Y0216503D01*
X0008751Y0216655D01*
X0008710Y0216808D01*
X0008672Y0216961D01*
X0008639Y0217116D01*
X0008609Y0217272D01*
X0008583Y0217428D01*
X0008562Y0217585D01*
X0008544Y0217742D01*
X0008530Y0217900D01*
X0008520Y0218058D01*
X0008514Y0218216D01*
X0008512Y0218374D01*
X0370717Y0218374D02*
X0370719Y0218532D01*
X0370725Y0218690D01*
X0370735Y0218848D01*
X0370749Y0219006D01*
X0370767Y0219163D01*
X0370788Y0219320D01*
X0370814Y0219476D01*
X0370844Y0219632D01*
X0370877Y0219787D01*
X0370915Y0219940D01*
X0370956Y0220093D01*
X0371001Y0220245D01*
X0371050Y0220396D01*
X0371103Y0220545D01*
X0371159Y0220693D01*
X0371219Y0220839D01*
X0371283Y0220984D01*
X0371351Y0221127D01*
X0371422Y0221269D01*
X0371496Y0221409D01*
X0371574Y0221546D01*
X0371656Y0221682D01*
X0371740Y0221816D01*
X0371829Y0221947D01*
X0371920Y0222076D01*
X0372015Y0222203D01*
X0372112Y0222328D01*
X0372213Y0222450D01*
X0372317Y0222569D01*
X0372424Y0222686D01*
X0372534Y0222800D01*
X0372647Y0222911D01*
X0372762Y0223020D01*
X0372880Y0223125D01*
X0373001Y0223227D01*
X0373124Y0223327D01*
X0373250Y0223423D01*
X0373378Y0223516D01*
X0373508Y0223606D01*
X0373641Y0223692D01*
X0373776Y0223776D01*
X0373912Y0223855D01*
X0374051Y0223932D01*
X0374192Y0224004D01*
X0374334Y0224074D01*
X0374478Y0224139D01*
X0374624Y0224201D01*
X0374771Y0224259D01*
X0374920Y0224314D01*
X0375070Y0224365D01*
X0375221Y0224412D01*
X0375373Y0224455D01*
X0375526Y0224494D01*
X0375681Y0224530D01*
X0375836Y0224561D01*
X0375992Y0224589D01*
X0376148Y0224613D01*
X0376305Y0224633D01*
X0376463Y0224649D01*
X0376620Y0224661D01*
X0376779Y0224669D01*
X0376937Y0224673D01*
X0377095Y0224673D01*
X0377253Y0224669D01*
X0377412Y0224661D01*
X0377569Y0224649D01*
X0377727Y0224633D01*
X0377884Y0224613D01*
X0378040Y0224589D01*
X0378196Y0224561D01*
X0378351Y0224530D01*
X0378506Y0224494D01*
X0378659Y0224455D01*
X0378811Y0224412D01*
X0378962Y0224365D01*
X0379112Y0224314D01*
X0379261Y0224259D01*
X0379408Y0224201D01*
X0379554Y0224139D01*
X0379698Y0224074D01*
X0379840Y0224004D01*
X0379981Y0223932D01*
X0380120Y0223855D01*
X0380256Y0223776D01*
X0380391Y0223692D01*
X0380524Y0223606D01*
X0380654Y0223516D01*
X0380782Y0223423D01*
X0380908Y0223327D01*
X0381031Y0223227D01*
X0381152Y0223125D01*
X0381270Y0223020D01*
X0381385Y0222911D01*
X0381498Y0222800D01*
X0381608Y0222686D01*
X0381715Y0222569D01*
X0381819Y0222450D01*
X0381920Y0222328D01*
X0382017Y0222203D01*
X0382112Y0222076D01*
X0382203Y0221947D01*
X0382292Y0221816D01*
X0382376Y0221682D01*
X0382458Y0221546D01*
X0382536Y0221409D01*
X0382610Y0221269D01*
X0382681Y0221127D01*
X0382749Y0220984D01*
X0382813Y0220839D01*
X0382873Y0220693D01*
X0382929Y0220545D01*
X0382982Y0220396D01*
X0383031Y0220245D01*
X0383076Y0220093D01*
X0383117Y0219940D01*
X0383155Y0219787D01*
X0383188Y0219632D01*
X0383218Y0219476D01*
X0383244Y0219320D01*
X0383265Y0219163D01*
X0383283Y0219006D01*
X0383297Y0218848D01*
X0383307Y0218690D01*
X0383313Y0218532D01*
X0383315Y0218374D01*
X0383313Y0218216D01*
X0383307Y0218058D01*
X0383297Y0217900D01*
X0383283Y0217742D01*
X0383265Y0217585D01*
X0383244Y0217428D01*
X0383218Y0217272D01*
X0383188Y0217116D01*
X0383155Y0216961D01*
X0383117Y0216808D01*
X0383076Y0216655D01*
X0383031Y0216503D01*
X0382982Y0216352D01*
X0382929Y0216203D01*
X0382873Y0216055D01*
X0382813Y0215909D01*
X0382749Y0215764D01*
X0382681Y0215621D01*
X0382610Y0215479D01*
X0382536Y0215339D01*
X0382458Y0215202D01*
X0382376Y0215066D01*
X0382292Y0214932D01*
X0382203Y0214801D01*
X0382112Y0214672D01*
X0382017Y0214545D01*
X0381920Y0214420D01*
X0381819Y0214298D01*
X0381715Y0214179D01*
X0381608Y0214062D01*
X0381498Y0213948D01*
X0381385Y0213837D01*
X0381270Y0213728D01*
X0381152Y0213623D01*
X0381031Y0213521D01*
X0380908Y0213421D01*
X0380782Y0213325D01*
X0380654Y0213232D01*
X0380524Y0213142D01*
X0380391Y0213056D01*
X0380256Y0212972D01*
X0380120Y0212893D01*
X0379981Y0212816D01*
X0379840Y0212744D01*
X0379698Y0212674D01*
X0379554Y0212609D01*
X0379408Y0212547D01*
X0379261Y0212489D01*
X0379112Y0212434D01*
X0378962Y0212383D01*
X0378811Y0212336D01*
X0378659Y0212293D01*
X0378506Y0212254D01*
X0378351Y0212218D01*
X0378196Y0212187D01*
X0378040Y0212159D01*
X0377884Y0212135D01*
X0377727Y0212115D01*
X0377569Y0212099D01*
X0377412Y0212087D01*
X0377253Y0212079D01*
X0377095Y0212075D01*
X0376937Y0212075D01*
X0376779Y0212079D01*
X0376620Y0212087D01*
X0376463Y0212099D01*
X0376305Y0212115D01*
X0376148Y0212135D01*
X0375992Y0212159D01*
X0375836Y0212187D01*
X0375681Y0212218D01*
X0375526Y0212254D01*
X0375373Y0212293D01*
X0375221Y0212336D01*
X0375070Y0212383D01*
X0374920Y0212434D01*
X0374771Y0212489D01*
X0374624Y0212547D01*
X0374478Y0212609D01*
X0374334Y0212674D01*
X0374192Y0212744D01*
X0374051Y0212816D01*
X0373912Y0212893D01*
X0373776Y0212972D01*
X0373641Y0213056D01*
X0373508Y0213142D01*
X0373378Y0213232D01*
X0373250Y0213325D01*
X0373124Y0213421D01*
X0373001Y0213521D01*
X0372880Y0213623D01*
X0372762Y0213728D01*
X0372647Y0213837D01*
X0372534Y0213948D01*
X0372424Y0214062D01*
X0372317Y0214179D01*
X0372213Y0214298D01*
X0372112Y0214420D01*
X0372015Y0214545D01*
X0371920Y0214672D01*
X0371829Y0214801D01*
X0371740Y0214932D01*
X0371656Y0215066D01*
X0371574Y0215202D01*
X0371496Y0215339D01*
X0371422Y0215479D01*
X0371351Y0215621D01*
X0371283Y0215764D01*
X0371219Y0215909D01*
X0371159Y0216055D01*
X0371103Y0216203D01*
X0371050Y0216352D01*
X0371001Y0216503D01*
X0370956Y0216655D01*
X0370915Y0216808D01*
X0370877Y0216961D01*
X0370844Y0217116D01*
X0370814Y0217272D01*
X0370788Y0217428D01*
X0370767Y0217585D01*
X0370749Y0217742D01*
X0370735Y0217900D01*
X0370725Y0218058D01*
X0370719Y0218216D01*
X0370717Y0218374D01*
X0370717Y0023492D02*
X0370719Y0023650D01*
X0370725Y0023808D01*
X0370735Y0023966D01*
X0370749Y0024124D01*
X0370767Y0024281D01*
X0370788Y0024438D01*
X0370814Y0024594D01*
X0370844Y0024750D01*
X0370877Y0024905D01*
X0370915Y0025058D01*
X0370956Y0025211D01*
X0371001Y0025363D01*
X0371050Y0025514D01*
X0371103Y0025663D01*
X0371159Y0025811D01*
X0371219Y0025957D01*
X0371283Y0026102D01*
X0371351Y0026245D01*
X0371422Y0026387D01*
X0371496Y0026527D01*
X0371574Y0026664D01*
X0371656Y0026800D01*
X0371740Y0026934D01*
X0371829Y0027065D01*
X0371920Y0027194D01*
X0372015Y0027321D01*
X0372112Y0027446D01*
X0372213Y0027568D01*
X0372317Y0027687D01*
X0372424Y0027804D01*
X0372534Y0027918D01*
X0372647Y0028029D01*
X0372762Y0028138D01*
X0372880Y0028243D01*
X0373001Y0028345D01*
X0373124Y0028445D01*
X0373250Y0028541D01*
X0373378Y0028634D01*
X0373508Y0028724D01*
X0373641Y0028810D01*
X0373776Y0028894D01*
X0373912Y0028973D01*
X0374051Y0029050D01*
X0374192Y0029122D01*
X0374334Y0029192D01*
X0374478Y0029257D01*
X0374624Y0029319D01*
X0374771Y0029377D01*
X0374920Y0029432D01*
X0375070Y0029483D01*
X0375221Y0029530D01*
X0375373Y0029573D01*
X0375526Y0029612D01*
X0375681Y0029648D01*
X0375836Y0029679D01*
X0375992Y0029707D01*
X0376148Y0029731D01*
X0376305Y0029751D01*
X0376463Y0029767D01*
X0376620Y0029779D01*
X0376779Y0029787D01*
X0376937Y0029791D01*
X0377095Y0029791D01*
X0377253Y0029787D01*
X0377412Y0029779D01*
X0377569Y0029767D01*
X0377727Y0029751D01*
X0377884Y0029731D01*
X0378040Y0029707D01*
X0378196Y0029679D01*
X0378351Y0029648D01*
X0378506Y0029612D01*
X0378659Y0029573D01*
X0378811Y0029530D01*
X0378962Y0029483D01*
X0379112Y0029432D01*
X0379261Y0029377D01*
X0379408Y0029319D01*
X0379554Y0029257D01*
X0379698Y0029192D01*
X0379840Y0029122D01*
X0379981Y0029050D01*
X0380120Y0028973D01*
X0380256Y0028894D01*
X0380391Y0028810D01*
X0380524Y0028724D01*
X0380654Y0028634D01*
X0380782Y0028541D01*
X0380908Y0028445D01*
X0381031Y0028345D01*
X0381152Y0028243D01*
X0381270Y0028138D01*
X0381385Y0028029D01*
X0381498Y0027918D01*
X0381608Y0027804D01*
X0381715Y0027687D01*
X0381819Y0027568D01*
X0381920Y0027446D01*
X0382017Y0027321D01*
X0382112Y0027194D01*
X0382203Y0027065D01*
X0382292Y0026934D01*
X0382376Y0026800D01*
X0382458Y0026664D01*
X0382536Y0026527D01*
X0382610Y0026387D01*
X0382681Y0026245D01*
X0382749Y0026102D01*
X0382813Y0025957D01*
X0382873Y0025811D01*
X0382929Y0025663D01*
X0382982Y0025514D01*
X0383031Y0025363D01*
X0383076Y0025211D01*
X0383117Y0025058D01*
X0383155Y0024905D01*
X0383188Y0024750D01*
X0383218Y0024594D01*
X0383244Y0024438D01*
X0383265Y0024281D01*
X0383283Y0024124D01*
X0383297Y0023966D01*
X0383307Y0023808D01*
X0383313Y0023650D01*
X0383315Y0023492D01*
X0383313Y0023334D01*
X0383307Y0023176D01*
X0383297Y0023018D01*
X0383283Y0022860D01*
X0383265Y0022703D01*
X0383244Y0022546D01*
X0383218Y0022390D01*
X0383188Y0022234D01*
X0383155Y0022079D01*
X0383117Y0021926D01*
X0383076Y0021773D01*
X0383031Y0021621D01*
X0382982Y0021470D01*
X0382929Y0021321D01*
X0382873Y0021173D01*
X0382813Y0021027D01*
X0382749Y0020882D01*
X0382681Y0020739D01*
X0382610Y0020597D01*
X0382536Y0020457D01*
X0382458Y0020320D01*
X0382376Y0020184D01*
X0382292Y0020050D01*
X0382203Y0019919D01*
X0382112Y0019790D01*
X0382017Y0019663D01*
X0381920Y0019538D01*
X0381819Y0019416D01*
X0381715Y0019297D01*
X0381608Y0019180D01*
X0381498Y0019066D01*
X0381385Y0018955D01*
X0381270Y0018846D01*
X0381152Y0018741D01*
X0381031Y0018639D01*
X0380908Y0018539D01*
X0380782Y0018443D01*
X0380654Y0018350D01*
X0380524Y0018260D01*
X0380391Y0018174D01*
X0380256Y0018090D01*
X0380120Y0018011D01*
X0379981Y0017934D01*
X0379840Y0017862D01*
X0379698Y0017792D01*
X0379554Y0017727D01*
X0379408Y0017665D01*
X0379261Y0017607D01*
X0379112Y0017552D01*
X0378962Y0017501D01*
X0378811Y0017454D01*
X0378659Y0017411D01*
X0378506Y0017372D01*
X0378351Y0017336D01*
X0378196Y0017305D01*
X0378040Y0017277D01*
X0377884Y0017253D01*
X0377727Y0017233D01*
X0377569Y0017217D01*
X0377412Y0017205D01*
X0377253Y0017197D01*
X0377095Y0017193D01*
X0376937Y0017193D01*
X0376779Y0017197D01*
X0376620Y0017205D01*
X0376463Y0017217D01*
X0376305Y0017233D01*
X0376148Y0017253D01*
X0375992Y0017277D01*
X0375836Y0017305D01*
X0375681Y0017336D01*
X0375526Y0017372D01*
X0375373Y0017411D01*
X0375221Y0017454D01*
X0375070Y0017501D01*
X0374920Y0017552D01*
X0374771Y0017607D01*
X0374624Y0017665D01*
X0374478Y0017727D01*
X0374334Y0017792D01*
X0374192Y0017862D01*
X0374051Y0017934D01*
X0373912Y0018011D01*
X0373776Y0018090D01*
X0373641Y0018174D01*
X0373508Y0018260D01*
X0373378Y0018350D01*
X0373250Y0018443D01*
X0373124Y0018539D01*
X0373001Y0018639D01*
X0372880Y0018741D01*
X0372762Y0018846D01*
X0372647Y0018955D01*
X0372534Y0019066D01*
X0372424Y0019180D01*
X0372317Y0019297D01*
X0372213Y0019416D01*
X0372112Y0019538D01*
X0372015Y0019663D01*
X0371920Y0019790D01*
X0371829Y0019919D01*
X0371740Y0020050D01*
X0371656Y0020184D01*
X0371574Y0020320D01*
X0371496Y0020457D01*
X0371422Y0020597D01*
X0371351Y0020739D01*
X0371283Y0020882D01*
X0371219Y0021027D01*
X0371159Y0021173D01*
X0371103Y0021321D01*
X0371050Y0021470D01*
X0371001Y0021621D01*
X0370956Y0021773D01*
X0370915Y0021926D01*
X0370877Y0022079D01*
X0370844Y0022234D01*
X0370814Y0022390D01*
X0370788Y0022546D01*
X0370767Y0022703D01*
X0370749Y0022860D01*
X0370735Y0023018D01*
X0370725Y0023176D01*
X0370719Y0023334D01*
X0370717Y0023492D01*
D11*
X0380913Y0105933D03*
X0380913Y0115933D03*
X0380913Y0125933D03*
X0380913Y0135933D03*
X0010913Y0135933D03*
X0010913Y0145933D03*
X0010913Y0155933D03*
X0010913Y0165933D03*
X0010913Y0175933D03*
X0010913Y0185933D03*
X0010913Y0125933D03*
X0010913Y0115933D03*
X0010913Y0105933D03*
X0010913Y0095933D03*
X0010913Y0085933D03*
X0010913Y0075933D03*
X0010913Y0065933D03*
X0010913Y0055933D03*
D12*
X0003000Y0010028D02*
X0003000Y0231839D01*
X0388827Y0231839D01*
X0388827Y0010028D01*
X0003000Y0010028D01*
D13*
X0190244Y0165815D03*
X0187291Y0168768D03*
X0190244Y0171819D03*
X0187291Y0174772D03*
X0190244Y0177823D03*
X0193197Y0174772D03*
X0196248Y0177626D03*
X0199299Y0174772D03*
X0196248Y0171819D03*
X0193197Y0168768D03*
X0196248Y0165815D03*
X0199299Y0168768D03*
D14*
X0300835Y0225264D03*
D15*
X0310835Y0225264D03*
X0320835Y0225264D03*
X0330835Y0225264D03*
X0340835Y0225264D03*
X0350835Y0225264D03*
D16*
X0329772Y0207547D03*
X0286465Y0221327D03*
X0251031Y0221327D03*
X0237252Y0199673D03*
X0235283Y0195736D03*
X0223472Y0195736D03*
X0205756Y0179988D03*
X0197882Y0183925D03*
X0190008Y0183925D03*
X0182134Y0176051D03*
X0182134Y0168177D03*
X0188039Y0160303D03*
X0197882Y0160303D03*
X0205756Y0166209D03*
X0205756Y0172114D03*
X0223472Y0174083D03*
X0235283Y0172114D03*
X0235283Y0150461D03*
X0235283Y0146524D03*
X0235283Y0142587D03*
X0235283Y0138650D03*
X0224177Y0141323D03*
X0203787Y0149471D03*
X0195913Y0144555D03*
X0192534Y0147082D03*
X0168354Y0160303D03*
X0168354Y0130776D03*
X0174260Y0124870D03*
X0156543Y0130776D03*
X0168354Y0199673D03*
X0156543Y0201642D03*
X0150638Y0205579D03*
X0142764Y0209516D03*
X0314024Y0075658D03*
X0306150Y0069752D03*
X0308118Y0057941D03*
X0312055Y0055973D03*
X0315992Y0055973D03*
X0319929Y0055973D03*
X0323866Y0055973D03*
X0323866Y0052036D03*
X0319929Y0052036D03*
X0315992Y0052036D03*
X0337646Y0059910D03*
X0343551Y0063847D03*
X0361268Y0075658D03*
X0365205Y0075658D03*
X0365205Y0079595D03*
X0365205Y0083532D03*
X0361268Y0083532D03*
X0361268Y0079595D03*
X0343551Y0030382D03*
X0329772Y0030382D03*
X0317961Y0028414D03*
X0312055Y0020540D03*
X0304181Y0030382D03*
X0335677Y0020540D03*
X0357331Y0154398D03*
X0351425Y0160303D03*
X0351425Y0166209D03*
X0377016Y0156366D03*
X0377016Y0179988D03*
X0030559Y0055973D03*
D17*
X0028270Y0056212D02*
X0014866Y0056212D01*
X0014866Y0056719D02*
X0014264Y0058172D01*
X0013152Y0059284D01*
X0011700Y0059886D01*
X0010127Y0059886D01*
X0008674Y0059284D01*
X0007562Y0058172D01*
X0006961Y0056719D01*
X0006961Y0055147D01*
X0007562Y0053694D01*
X0008674Y0052582D01*
X0010127Y0051980D01*
X0011700Y0051980D01*
X0013152Y0052582D01*
X0014264Y0053694D01*
X0014866Y0055147D01*
X0014866Y0056719D01*
X0014746Y0057011D02*
X0028359Y0057011D01*
X0028359Y0057010D02*
X0028270Y0056921D01*
X0028270Y0055024D01*
X0029611Y0053684D01*
X0031507Y0053684D01*
X0031596Y0053773D01*
X0302381Y0053773D01*
X0302381Y0047353D01*
X0303436Y0046299D01*
X0328549Y0046299D01*
X0329603Y0047353D01*
X0329603Y0054173D01*
X0362013Y0054173D01*
X0375793Y0067952D01*
X0376847Y0069007D01*
X0376847Y0143332D01*
X0353714Y0166465D01*
X0353714Y0167157D01*
X0352373Y0168498D01*
X0350477Y0168498D01*
X0349136Y0167157D01*
X0349136Y0165261D01*
X0350477Y0163920D01*
X0351169Y0163920D01*
X0373247Y0141841D01*
X0373247Y0070498D01*
X0360522Y0057773D01*
X0329603Y0057773D01*
X0329603Y0060655D01*
X0328549Y0061710D01*
X0303436Y0061710D01*
X0302381Y0060655D01*
X0302381Y0058173D01*
X0032759Y0058173D01*
X0032759Y0190888D01*
X0049187Y0207316D01*
X0141727Y0207316D01*
X0141816Y0207227D01*
X0143712Y0207227D01*
X0145053Y0208568D01*
X0145053Y0210464D01*
X0143712Y0211805D01*
X0141816Y0211805D01*
X0141727Y0211716D01*
X0047364Y0211716D01*
X0028359Y0192711D01*
X0028359Y0057010D01*
X0028359Y0057809D02*
X0014415Y0057809D01*
X0013829Y0058608D02*
X0028359Y0058608D01*
X0028359Y0059406D02*
X0012858Y0059406D01*
X0011933Y0061688D02*
X0012584Y0061899D01*
X0013195Y0062210D01*
X0013749Y0062613D01*
X0014233Y0063098D01*
X0014636Y0063652D01*
X0014947Y0064262D01*
X0015159Y0064914D01*
X0015257Y0065533D01*
X0011313Y0065533D01*
X0011313Y0061590D01*
X0011933Y0061688D01*
X0012284Y0061802D02*
X0028359Y0061802D01*
X0028359Y0062600D02*
X0013731Y0062600D01*
X0014452Y0063399D02*
X0028359Y0063399D01*
X0028359Y0064197D02*
X0014914Y0064197D01*
X0015172Y0064996D02*
X0028359Y0064996D01*
X0028359Y0065794D02*
X0011313Y0065794D01*
X0011313Y0065533D02*
X0011313Y0066333D01*
X0010513Y0066333D01*
X0010513Y0065533D01*
X0006570Y0065533D01*
X0006668Y0064914D01*
X0006880Y0064262D01*
X0007191Y0063652D01*
X0007593Y0063098D01*
X0008078Y0062613D01*
X0008632Y0062210D01*
X0009242Y0061899D01*
X0009894Y0061688D01*
X0010513Y0061590D01*
X0010513Y0065533D01*
X0011313Y0065533D01*
X0011313Y0064996D02*
X0010513Y0064996D01*
X0010513Y0065794D02*
X0004650Y0065794D01*
X0004650Y0064996D02*
X0006655Y0064996D01*
X0006913Y0064197D02*
X0004650Y0064197D01*
X0004650Y0063399D02*
X0007374Y0063399D01*
X0008095Y0062600D02*
X0004650Y0062600D01*
X0004650Y0061802D02*
X0009543Y0061802D01*
X0010513Y0061802D02*
X0011313Y0061802D01*
X0011313Y0062600D02*
X0010513Y0062600D01*
X0010513Y0063399D02*
X0011313Y0063399D01*
X0011313Y0064197D02*
X0010513Y0064197D01*
X0010513Y0066333D02*
X0006570Y0066333D01*
X0006668Y0066952D01*
X0006880Y0067604D01*
X0007191Y0068215D01*
X0007593Y0068769D01*
X0008078Y0069253D01*
X0008632Y0069656D01*
X0009242Y0069967D01*
X0009894Y0070179D01*
X0010513Y0070277D01*
X0010513Y0066333D01*
X0010513Y0066593D02*
X0011313Y0066593D01*
X0011313Y0066333D02*
X0011313Y0070277D01*
X0011933Y0070179D01*
X0012584Y0069967D01*
X0013195Y0069656D01*
X0013749Y0069253D01*
X0014233Y0068769D01*
X0014636Y0068215D01*
X0014947Y0067604D01*
X0015159Y0066952D01*
X0015257Y0066333D01*
X0011313Y0066333D01*
X0011313Y0067391D02*
X0010513Y0067391D01*
X0010513Y0068190D02*
X0011313Y0068190D01*
X0011313Y0068988D02*
X0010513Y0068988D01*
X0010513Y0069787D02*
X0011313Y0069787D01*
X0012938Y0069787D02*
X0028359Y0069787D01*
X0028359Y0070585D02*
X0004650Y0070585D01*
X0004650Y0069787D02*
X0008889Y0069787D01*
X0007813Y0068988D02*
X0004650Y0068988D01*
X0004650Y0068190D02*
X0007178Y0068190D01*
X0006810Y0067391D02*
X0004650Y0067391D01*
X0004650Y0066593D02*
X0006611Y0066593D01*
X0004650Y0071384D02*
X0028359Y0071384D01*
X0028359Y0072182D02*
X0012187Y0072182D01*
X0011700Y0071980D02*
X0013152Y0072582D01*
X0014264Y0073694D01*
X0014866Y0075147D01*
X0014866Y0076719D01*
X0014264Y0078172D01*
X0013152Y0079284D01*
X0011700Y0079886D01*
X0010127Y0079886D01*
X0008674Y0079284D01*
X0007562Y0078172D01*
X0006961Y0076719D01*
X0006961Y0075147D01*
X0007562Y0073694D01*
X0008674Y0072582D01*
X0010127Y0071980D01*
X0011700Y0071980D01*
X0009640Y0072182D02*
X0004650Y0072182D01*
X0004650Y0072981D02*
X0008276Y0072981D01*
X0007527Y0073779D02*
X0004650Y0073779D01*
X0004650Y0074578D02*
X0007196Y0074578D01*
X0006961Y0075376D02*
X0004650Y0075376D01*
X0004650Y0076175D02*
X0006961Y0076175D01*
X0007066Y0076973D02*
X0004650Y0076973D01*
X0004650Y0077772D02*
X0007397Y0077772D01*
X0007961Y0078570D02*
X0004650Y0078570D01*
X0004650Y0079369D02*
X0008879Y0079369D01*
X0010127Y0081980D02*
X0011700Y0081980D01*
X0013152Y0082582D01*
X0014264Y0083694D01*
X0014866Y0085147D01*
X0014866Y0086719D01*
X0014264Y0088172D01*
X0013152Y0089284D01*
X0011700Y0089886D01*
X0010127Y0089886D01*
X0008674Y0089284D01*
X0007562Y0088172D01*
X0006961Y0086719D01*
X0006961Y0085147D01*
X0007562Y0083694D01*
X0008674Y0082582D01*
X0010127Y0081980D01*
X0008721Y0082563D02*
X0004650Y0082563D01*
X0004650Y0081765D02*
X0028359Y0081765D01*
X0028359Y0082563D02*
X0013106Y0082563D01*
X0013932Y0083362D02*
X0028359Y0083362D01*
X0028359Y0084160D02*
X0014457Y0084160D01*
X0014788Y0084959D02*
X0028359Y0084959D01*
X0028359Y0085757D02*
X0014866Y0085757D01*
X0014866Y0086556D02*
X0028359Y0086556D01*
X0028359Y0087354D02*
X0014603Y0087354D01*
X0014273Y0088153D02*
X0028359Y0088153D01*
X0028359Y0088951D02*
X0013486Y0088951D01*
X0012029Y0089750D02*
X0028359Y0089750D01*
X0028359Y0090548D02*
X0004650Y0090548D01*
X0004650Y0089750D02*
X0009798Y0089750D01*
X0008341Y0088951D02*
X0004650Y0088951D01*
X0004650Y0088153D02*
X0007554Y0088153D01*
X0007223Y0087354D02*
X0004650Y0087354D01*
X0004650Y0086556D02*
X0006961Y0086556D01*
X0006961Y0085757D02*
X0004650Y0085757D01*
X0004650Y0084959D02*
X0007039Y0084959D01*
X0007369Y0084160D02*
X0004650Y0084160D01*
X0004650Y0083362D02*
X0007895Y0083362D01*
X0004650Y0080966D02*
X0028359Y0080966D01*
X0028359Y0080167D02*
X0004650Y0080167D01*
X0012948Y0079369D02*
X0028359Y0079369D01*
X0028359Y0078570D02*
X0013866Y0078570D01*
X0014430Y0077772D02*
X0028359Y0077772D01*
X0028359Y0076973D02*
X0014761Y0076973D01*
X0014866Y0076175D02*
X0028359Y0076175D01*
X0028359Y0075376D02*
X0014866Y0075376D01*
X0014630Y0074578D02*
X0028359Y0074578D01*
X0028359Y0073779D02*
X0014300Y0073779D01*
X0013551Y0072981D02*
X0028359Y0072981D01*
X0028359Y0068988D02*
X0014014Y0068988D01*
X0014649Y0068190D02*
X0028359Y0068190D01*
X0028359Y0067391D02*
X0015016Y0067391D01*
X0015216Y0066593D02*
X0028359Y0066593D01*
X0032759Y0066593D02*
X0369342Y0066593D01*
X0368544Y0065794D02*
X0032759Y0065794D01*
X0032759Y0064996D02*
X0367745Y0064996D01*
X0366947Y0064197D02*
X0032759Y0064197D01*
X0032759Y0063399D02*
X0366148Y0063399D01*
X0365350Y0062600D02*
X0032759Y0062600D01*
X0032759Y0061802D02*
X0364551Y0061802D01*
X0363753Y0061003D02*
X0329255Y0061003D01*
X0329603Y0060205D02*
X0362954Y0060205D01*
X0362156Y0059406D02*
X0329603Y0059406D01*
X0329603Y0058608D02*
X0361357Y0058608D01*
X0360559Y0057809D02*
X0329603Y0057809D01*
X0329603Y0053817D02*
X0387177Y0053817D01*
X0387177Y0054615D02*
X0362456Y0054615D01*
X0363254Y0055414D02*
X0387177Y0055414D01*
X0387177Y0056212D02*
X0364053Y0056212D01*
X0364851Y0057011D02*
X0387177Y0057011D01*
X0387177Y0057809D02*
X0365650Y0057809D01*
X0366448Y0058608D02*
X0387177Y0058608D01*
X0387177Y0059406D02*
X0367247Y0059406D01*
X0368045Y0060205D02*
X0387177Y0060205D01*
X0387177Y0061003D02*
X0368844Y0061003D01*
X0369642Y0061802D02*
X0387177Y0061802D01*
X0387177Y0062600D02*
X0370441Y0062600D01*
X0371239Y0063399D02*
X0387177Y0063399D01*
X0387177Y0064197D02*
X0372038Y0064197D01*
X0372836Y0064996D02*
X0387177Y0064996D01*
X0387177Y0065794D02*
X0373635Y0065794D01*
X0374434Y0066593D02*
X0387177Y0066593D01*
X0387177Y0067391D02*
X0375232Y0067391D01*
X0376031Y0068190D02*
X0387177Y0068190D01*
X0387177Y0068988D02*
X0376829Y0068988D01*
X0376847Y0069787D02*
X0387177Y0069787D01*
X0387177Y0070585D02*
X0376847Y0070585D01*
X0376847Y0071384D02*
X0387177Y0071384D01*
X0387177Y0072182D02*
X0376847Y0072182D01*
X0376847Y0072981D02*
X0387177Y0072981D01*
X0387177Y0073779D02*
X0376847Y0073779D01*
X0376847Y0074578D02*
X0387177Y0074578D01*
X0387177Y0075376D02*
X0376847Y0075376D01*
X0376847Y0076175D02*
X0387177Y0076175D01*
X0387177Y0076973D02*
X0376847Y0076973D01*
X0376847Y0077772D02*
X0387177Y0077772D01*
X0387177Y0078570D02*
X0376847Y0078570D01*
X0376847Y0079369D02*
X0387177Y0079369D01*
X0387177Y0080167D02*
X0376847Y0080167D01*
X0376847Y0080966D02*
X0387177Y0080966D01*
X0387177Y0081765D02*
X0376847Y0081765D01*
X0376847Y0082563D02*
X0387177Y0082563D01*
X0387177Y0083362D02*
X0376847Y0083362D01*
X0376847Y0084160D02*
X0387177Y0084160D01*
X0387177Y0084959D02*
X0376847Y0084959D01*
X0376847Y0085757D02*
X0387177Y0085757D01*
X0387177Y0086556D02*
X0376847Y0086556D01*
X0376847Y0087354D02*
X0387177Y0087354D01*
X0387177Y0088153D02*
X0376847Y0088153D01*
X0376847Y0088951D02*
X0387177Y0088951D01*
X0387177Y0089750D02*
X0376847Y0089750D01*
X0376847Y0090548D02*
X0387177Y0090548D01*
X0387177Y0091347D02*
X0376847Y0091347D01*
X0376847Y0092145D02*
X0387177Y0092145D01*
X0387177Y0092944D02*
X0376847Y0092944D01*
X0376847Y0093742D02*
X0387177Y0093742D01*
X0387177Y0094541D02*
X0376847Y0094541D01*
X0376847Y0095339D02*
X0387177Y0095339D01*
X0387177Y0096138D02*
X0376847Y0096138D01*
X0376847Y0096936D02*
X0387177Y0096936D01*
X0387177Y0097735D02*
X0376847Y0097735D01*
X0376847Y0098533D02*
X0387177Y0098533D01*
X0387177Y0099332D02*
X0376847Y0099332D01*
X0376847Y0100130D02*
X0387177Y0100130D01*
X0387177Y0100929D02*
X0376847Y0100929D01*
X0376847Y0101727D02*
X0387177Y0101727D01*
X0387177Y0102526D02*
X0383016Y0102526D01*
X0383152Y0102582D02*
X0384264Y0103694D01*
X0384866Y0105147D01*
X0384866Y0106719D01*
X0384264Y0108172D01*
X0383152Y0109284D01*
X0381700Y0109886D01*
X0380127Y0109886D01*
X0378674Y0109284D01*
X0377562Y0108172D01*
X0376961Y0106719D01*
X0376961Y0105147D01*
X0377562Y0103694D01*
X0378674Y0102582D01*
X0380127Y0101980D01*
X0381700Y0101980D01*
X0383152Y0102582D01*
X0383895Y0103324D02*
X0387177Y0103324D01*
X0387177Y0104123D02*
X0384442Y0104123D01*
X0384773Y0104921D02*
X0387177Y0104921D01*
X0387177Y0105720D02*
X0384866Y0105720D01*
X0384866Y0106518D02*
X0387177Y0106518D01*
X0387177Y0107317D02*
X0384619Y0107317D01*
X0384288Y0108115D02*
X0387177Y0108115D01*
X0387177Y0108914D02*
X0383523Y0108914D01*
X0382119Y0109712D02*
X0387177Y0109712D01*
X0387177Y0110511D02*
X0376847Y0110511D01*
X0376847Y0111309D02*
X0387177Y0111309D01*
X0387177Y0112108D02*
X0382007Y0112108D01*
X0381700Y0111980D02*
X0383152Y0112582D01*
X0384264Y0113694D01*
X0384866Y0115147D01*
X0384866Y0116719D01*
X0384264Y0118172D01*
X0383152Y0119284D01*
X0381700Y0119886D01*
X0380127Y0119886D01*
X0378674Y0119284D01*
X0377562Y0118172D01*
X0376961Y0116719D01*
X0376961Y0115147D01*
X0377562Y0113694D01*
X0378674Y0112582D01*
X0380127Y0111980D01*
X0381700Y0111980D01*
X0379819Y0112108D02*
X0376847Y0112108D01*
X0376847Y0112906D02*
X0378350Y0112906D01*
X0377558Y0113705D02*
X0376847Y0113705D01*
X0376847Y0114503D02*
X0377227Y0114503D01*
X0376961Y0115302D02*
X0376847Y0115302D01*
X0376847Y0116100D02*
X0376961Y0116100D01*
X0377035Y0116899D02*
X0376847Y0116899D01*
X0376847Y0117698D02*
X0377366Y0117698D01*
X0376847Y0118496D02*
X0377886Y0118496D01*
X0378699Y0119295D02*
X0376847Y0119295D01*
X0376847Y0120093D02*
X0387177Y0120093D01*
X0387177Y0119295D02*
X0383127Y0119295D01*
X0383941Y0118496D02*
X0387177Y0118496D01*
X0387177Y0117698D02*
X0384461Y0117698D01*
X0384792Y0116899D02*
X0387177Y0116899D01*
X0387177Y0116100D02*
X0384866Y0116100D01*
X0384866Y0115302D02*
X0387177Y0115302D01*
X0387177Y0114503D02*
X0384600Y0114503D01*
X0384269Y0113705D02*
X0387177Y0113705D01*
X0387177Y0112906D02*
X0383477Y0112906D01*
X0379708Y0109712D02*
X0376847Y0109712D01*
X0376847Y0108914D02*
X0378304Y0108914D01*
X0377539Y0108115D02*
X0376847Y0108115D01*
X0376847Y0107317D02*
X0377208Y0107317D01*
X0376961Y0106518D02*
X0376847Y0106518D01*
X0376847Y0105720D02*
X0376961Y0105720D01*
X0377054Y0104921D02*
X0376847Y0104921D01*
X0376847Y0104123D02*
X0377385Y0104123D01*
X0376847Y0103324D02*
X0377932Y0103324D01*
X0378811Y0102526D02*
X0376847Y0102526D01*
X0373247Y0102526D02*
X0032759Y0102526D01*
X0032759Y0103324D02*
X0373247Y0103324D01*
X0373247Y0104123D02*
X0032759Y0104123D01*
X0032759Y0104921D02*
X0373247Y0104921D01*
X0373247Y0105720D02*
X0032759Y0105720D01*
X0032759Y0106518D02*
X0373247Y0106518D01*
X0373247Y0107317D02*
X0032759Y0107317D01*
X0032759Y0108115D02*
X0373247Y0108115D01*
X0373247Y0108914D02*
X0032759Y0108914D01*
X0032759Y0109712D02*
X0373247Y0109712D01*
X0373247Y0110511D02*
X0032759Y0110511D01*
X0032759Y0111309D02*
X0373247Y0111309D01*
X0373247Y0112108D02*
X0032759Y0112108D01*
X0032759Y0112906D02*
X0373247Y0112906D01*
X0373247Y0113705D02*
X0032759Y0113705D01*
X0032759Y0114503D02*
X0373247Y0114503D01*
X0373247Y0115302D02*
X0032759Y0115302D01*
X0032759Y0116100D02*
X0373247Y0116100D01*
X0373247Y0116899D02*
X0032759Y0116899D01*
X0032759Y0117698D02*
X0373247Y0117698D01*
X0373247Y0118496D02*
X0032759Y0118496D01*
X0032759Y0119295D02*
X0373247Y0119295D01*
X0373247Y0120093D02*
X0032759Y0120093D01*
X0032759Y0120892D02*
X0373247Y0120892D01*
X0373247Y0121690D02*
X0032759Y0121690D01*
X0032759Y0122489D02*
X0373247Y0122489D01*
X0373247Y0123287D02*
X0032759Y0123287D01*
X0032759Y0124086D02*
X0373247Y0124086D01*
X0373247Y0124884D02*
X0032759Y0124884D01*
X0032759Y0125683D02*
X0373247Y0125683D01*
X0373247Y0126481D02*
X0032759Y0126481D01*
X0032759Y0127280D02*
X0373247Y0127280D01*
X0373247Y0128078D02*
X0032759Y0128078D01*
X0032759Y0128877D02*
X0373247Y0128877D01*
X0373247Y0129675D02*
X0032759Y0129675D01*
X0032759Y0130474D02*
X0373247Y0130474D01*
X0373247Y0131272D02*
X0032759Y0131272D01*
X0032759Y0132071D02*
X0373247Y0132071D01*
X0373247Y0132869D02*
X0032759Y0132869D01*
X0032759Y0133668D02*
X0373247Y0133668D01*
X0373247Y0134466D02*
X0032759Y0134466D01*
X0032759Y0135265D02*
X0373247Y0135265D01*
X0373247Y0136063D02*
X0032759Y0136063D01*
X0032759Y0136862D02*
X0233834Y0136862D01*
X0234335Y0136361D02*
X0236232Y0136361D01*
X0237572Y0137702D01*
X0237572Y0139598D01*
X0236552Y0140618D01*
X0237572Y0141639D01*
X0237572Y0143535D01*
X0236552Y0144555D01*
X0237572Y0145576D01*
X0237572Y0147472D01*
X0236552Y0148492D01*
X0237572Y0149513D01*
X0237572Y0151409D01*
X0236232Y0152750D01*
X0234335Y0152750D01*
X0232994Y0151409D01*
X0232994Y0150971D01*
X0205524Y0150971D01*
X0204736Y0151760D01*
X0202839Y0151760D01*
X0201498Y0150419D01*
X0201498Y0148582D01*
X0194271Y0148582D01*
X0193482Y0149371D01*
X0191586Y0149371D01*
X0190245Y0148030D01*
X0190245Y0146134D01*
X0191586Y0144793D01*
X0193482Y0144793D01*
X0193624Y0144935D01*
X0193624Y0143607D01*
X0194965Y0142266D01*
X0196862Y0142266D01*
X0197650Y0143055D01*
X0222672Y0143055D01*
X0221888Y0142271D01*
X0221888Y0140375D01*
X0223229Y0139034D01*
X0225126Y0139034D01*
X0225915Y0139823D01*
X0231989Y0139823D01*
X0232994Y0138817D01*
X0232994Y0137702D01*
X0234335Y0136361D01*
X0233036Y0137660D02*
X0032759Y0137660D01*
X0032759Y0138459D02*
X0232994Y0138459D01*
X0232555Y0139257D02*
X0225349Y0139257D01*
X0223006Y0139257D02*
X0032759Y0139257D01*
X0032759Y0140056D02*
X0222208Y0140056D01*
X0221888Y0140854D02*
X0032759Y0140854D01*
X0032759Y0141653D02*
X0221888Y0141653D01*
X0222068Y0142451D02*
X0197047Y0142451D01*
X0194780Y0142451D02*
X0032759Y0142451D01*
X0032759Y0143250D02*
X0193982Y0143250D01*
X0193624Y0144048D02*
X0032759Y0144048D01*
X0032759Y0144847D02*
X0191532Y0144847D01*
X0190733Y0145645D02*
X0032759Y0145645D01*
X0032759Y0146444D02*
X0190245Y0146444D01*
X0190245Y0147242D02*
X0032759Y0147242D01*
X0032759Y0148041D02*
X0190256Y0148041D01*
X0191055Y0148839D02*
X0032759Y0148839D01*
X0032759Y0149638D02*
X0201498Y0149638D01*
X0201498Y0148839D02*
X0194014Y0148839D01*
X0193624Y0144847D02*
X0193537Y0144847D01*
X0201516Y0150436D02*
X0032759Y0150436D01*
X0032759Y0151235D02*
X0202315Y0151235D01*
X0205260Y0151235D02*
X0232994Y0151235D01*
X0233619Y0152034D02*
X0032759Y0152034D01*
X0032759Y0152832D02*
X0362256Y0152832D01*
X0361458Y0153631D02*
X0032759Y0153631D01*
X0032759Y0154429D02*
X0360659Y0154429D01*
X0359861Y0155228D02*
X0032759Y0155228D01*
X0032759Y0156026D02*
X0359062Y0156026D01*
X0358264Y0156825D02*
X0032759Y0156825D01*
X0032759Y0157623D02*
X0357465Y0157623D01*
X0356667Y0158422D02*
X0032759Y0158422D01*
X0032759Y0159220D02*
X0355868Y0159220D01*
X0355070Y0160019D02*
X0032759Y0160019D01*
X0032759Y0160817D02*
X0354271Y0160817D01*
X0353473Y0161616D02*
X0032759Y0161616D01*
X0032759Y0162414D02*
X0352674Y0162414D01*
X0351876Y0163213D02*
X0032759Y0163213D01*
X0032759Y0164011D02*
X0188829Y0164011D01*
X0188787Y0164040D02*
X0189161Y0163789D01*
X0189577Y0163617D01*
X0190019Y0163529D01*
X0190244Y0163529D01*
X0190244Y0165815D01*
X0190244Y0165815D01*
X0187958Y0165815D01*
X0187958Y0165590D01*
X0188046Y0165148D01*
X0188218Y0164732D01*
X0188469Y0164358D01*
X0188787Y0164040D01*
X0188186Y0164810D02*
X0032759Y0164810D01*
X0032759Y0165608D02*
X0187958Y0165608D01*
X0187958Y0165815D02*
X0190244Y0165815D01*
X0190244Y0165815D01*
X0190244Y0163529D01*
X0190469Y0163529D01*
X0190911Y0163617D01*
X0191327Y0163789D01*
X0191701Y0164040D01*
X0192020Y0164358D01*
X0192270Y0164732D01*
X0192442Y0165148D01*
X0192530Y0165590D01*
X0192530Y0165815D01*
X0190244Y0165815D01*
X0190244Y0165815D01*
X0190244Y0168101D01*
X0190019Y0168101D01*
X0189577Y0168013D01*
X0189427Y0167951D01*
X0189489Y0168101D01*
X0189577Y0168543D01*
X0189577Y0168768D01*
X0189577Y0168993D01*
X0189489Y0169435D01*
X0189378Y0169704D01*
X0189577Y0169621D01*
X0190019Y0169533D01*
X0190244Y0169533D01*
X0190244Y0171819D01*
X0187958Y0171819D01*
X0187958Y0171594D01*
X0188046Y0171152D01*
X0188158Y0170883D01*
X0187958Y0170966D01*
X0187516Y0171054D01*
X0187291Y0171054D01*
X0187066Y0171054D01*
X0186625Y0170966D01*
X0186209Y0170794D01*
X0185834Y0170543D01*
X0185516Y0170225D01*
X0185266Y0169851D01*
X0185093Y0169435D01*
X0185006Y0168993D01*
X0185005Y0168768D01*
X0187291Y0168768D01*
X0187291Y0168768D01*
X0187291Y0171054D01*
X0187291Y0168768D01*
X0187291Y0168768D01*
X0185006Y0168768D01*
X0185006Y0168543D01*
X0185093Y0168101D01*
X0185266Y0167685D01*
X0185516Y0167311D01*
X0185834Y0166992D01*
X0186209Y0166742D01*
X0186625Y0166570D01*
X0187066Y0166482D01*
X0187291Y0166482D01*
X0187291Y0168768D01*
X0187291Y0168768D01*
X0187291Y0166482D01*
X0187516Y0166482D01*
X0187958Y0166570D01*
X0188108Y0166632D01*
X0188046Y0166482D01*
X0187958Y0166040D01*
X0187958Y0165815D01*
X0188031Y0166407D02*
X0032759Y0166407D01*
X0032759Y0167205D02*
X0185621Y0167205D01*
X0185134Y0168004D02*
X0032759Y0168004D01*
X0032759Y0168802D02*
X0185006Y0168802D01*
X0185162Y0169601D02*
X0032759Y0169601D01*
X0032759Y0170399D02*
X0185690Y0170399D01*
X0187291Y0170399D02*
X0187291Y0170399D01*
X0187291Y0169601D02*
X0187291Y0169601D01*
X0187291Y0168802D02*
X0187291Y0168802D01*
X0187291Y0168768D02*
X0189577Y0168768D01*
X0187291Y0168768D01*
X0187291Y0168768D01*
X0187291Y0168004D02*
X0187291Y0168004D01*
X0187291Y0167205D02*
X0187291Y0167205D01*
X0189449Y0168004D02*
X0189555Y0168004D01*
X0190244Y0168004D02*
X0190244Y0168004D01*
X0190244Y0168101D02*
X0190244Y0165815D01*
X0190244Y0165815D01*
X0192530Y0165815D01*
X0192530Y0166040D01*
X0192442Y0166482D01*
X0192380Y0166632D01*
X0192530Y0166570D01*
X0192972Y0166482D01*
X0193197Y0166482D01*
X0193422Y0166482D01*
X0193864Y0166570D01*
X0194133Y0166681D01*
X0194050Y0166482D01*
X0193962Y0166040D01*
X0193962Y0165815D01*
X0193962Y0165590D01*
X0194050Y0165148D01*
X0194222Y0164732D01*
X0194473Y0164358D01*
X0194791Y0164040D01*
X0195165Y0163789D01*
X0195581Y0163617D01*
X0196023Y0163529D01*
X0196248Y0163529D01*
X0196248Y0165815D01*
X0196248Y0165815D01*
X0196248Y0163529D01*
X0196473Y0163529D01*
X0196915Y0163617D01*
X0197331Y0163789D01*
X0197705Y0164040D01*
X0198024Y0164358D01*
X0198274Y0164732D01*
X0198446Y0165148D01*
X0198534Y0165590D01*
X0198534Y0165815D01*
X0196248Y0165815D01*
X0193962Y0165815D01*
X0196248Y0165815D01*
X0196248Y0165815D01*
X0196248Y0165815D01*
X0198534Y0165815D01*
X0198534Y0166040D01*
X0198446Y0166482D01*
X0198363Y0166681D01*
X0198632Y0166570D01*
X0199074Y0166482D01*
X0199299Y0166482D01*
X0199299Y0168768D01*
X0199299Y0168768D01*
X0197013Y0168768D01*
X0197013Y0168993D01*
X0197101Y0169435D01*
X0197233Y0169753D01*
X0196915Y0169621D01*
X0196473Y0169533D01*
X0196248Y0169533D01*
X0196248Y0171819D01*
X0196248Y0171819D01*
X0193962Y0171819D01*
X0196248Y0171819D01*
X0196248Y0171819D01*
X0196248Y0169533D01*
X0196023Y0169533D01*
X0195581Y0169621D01*
X0195263Y0169753D01*
X0195395Y0169435D01*
X0195483Y0168993D01*
X0195483Y0168768D01*
X0193197Y0168768D01*
X0193197Y0168768D01*
X0193197Y0168768D01*
X0193197Y0171054D01*
X0193422Y0171054D01*
X0193864Y0170966D01*
X0194182Y0170834D01*
X0194050Y0171152D01*
X0193962Y0171594D01*
X0193962Y0171819D01*
X0193962Y0172044D01*
X0194050Y0172486D01*
X0194133Y0172685D01*
X0193864Y0172574D01*
X0193422Y0172486D01*
X0193197Y0172486D01*
X0193197Y0174772D01*
X0193197Y0174772D01*
X0193197Y0177058D01*
X0193422Y0177058D01*
X0193864Y0176970D01*
X0194083Y0176879D01*
X0194050Y0176959D01*
X0193962Y0177401D01*
X0193962Y0177626D01*
X0196248Y0177626D01*
X0196248Y0177626D01*
X0196248Y0175340D01*
X0196473Y0175340D01*
X0196915Y0175428D01*
X0197135Y0175519D01*
X0197101Y0175439D01*
X0197013Y0174997D01*
X0197013Y0174772D01*
X0199299Y0174772D01*
X0199299Y0177058D01*
X0199074Y0177058D01*
X0198632Y0176970D01*
X0198413Y0176879D01*
X0198446Y0176959D01*
X0198534Y0177401D01*
X0198534Y0177626D01*
X0196248Y0177626D01*
X0196248Y0175340D01*
X0196023Y0175340D01*
X0195581Y0175428D01*
X0195361Y0175519D01*
X0195395Y0175439D01*
X0195483Y0174997D01*
X0195483Y0174772D01*
X0193197Y0174772D01*
X0193197Y0174772D01*
X0193197Y0177058D01*
X0192972Y0177058D01*
X0192530Y0176970D01*
X0192331Y0176887D01*
X0192442Y0177156D01*
X0192530Y0177598D01*
X0192530Y0177823D01*
X0192530Y0178048D01*
X0192442Y0178490D01*
X0192270Y0178906D01*
X0192020Y0179280D01*
X0191701Y0179598D01*
X0191327Y0179849D01*
X0190911Y0180021D01*
X0190469Y0180109D01*
X0190244Y0180109D01*
X0190019Y0180109D01*
X0189577Y0180021D01*
X0189161Y0179849D01*
X0188787Y0179598D01*
X0188469Y0179280D01*
X0188218Y0178906D01*
X0188046Y0178490D01*
X0187958Y0178048D01*
X0187958Y0177823D01*
X0190244Y0177823D01*
X0190244Y0177823D01*
X0187958Y0177823D01*
X0187958Y0177598D01*
X0188046Y0177156D01*
X0188158Y0176887D01*
X0187958Y0176970D01*
X0187516Y0177058D01*
X0187291Y0177058D01*
X0187066Y0177058D01*
X0186625Y0176970D01*
X0186209Y0176797D01*
X0185834Y0176547D01*
X0185516Y0176229D01*
X0185266Y0175855D01*
X0185093Y0175439D01*
X0185006Y0174997D01*
X0185005Y0174772D01*
X0187291Y0174772D01*
X0187291Y0174772D01*
X0187291Y0177058D01*
X0187291Y0174772D01*
X0187291Y0174772D01*
X0185006Y0174772D01*
X0185006Y0174547D01*
X0185093Y0174105D01*
X0185266Y0173689D01*
X0185516Y0173315D01*
X0185834Y0172996D01*
X0186209Y0172746D01*
X0186625Y0172574D01*
X0187066Y0172486D01*
X0187291Y0172486D01*
X0187291Y0174772D01*
X0187291Y0174772D01*
X0189577Y0174772D01*
X0189577Y0174997D01*
X0189489Y0175439D01*
X0189378Y0175708D01*
X0189577Y0175625D01*
X0190019Y0175537D01*
X0190244Y0175537D01*
X0190244Y0177823D01*
X0190244Y0180109D01*
X0190244Y0177823D01*
X0190244Y0177823D01*
X0190244Y0177823D01*
X0190244Y0175537D01*
X0190469Y0175537D01*
X0190911Y0175625D01*
X0191110Y0175708D01*
X0190999Y0175439D01*
X0190911Y0174997D01*
X0190911Y0174772D01*
X0193197Y0174772D01*
X0195483Y0174772D01*
X0195483Y0174547D01*
X0195395Y0174105D01*
X0195312Y0173906D01*
X0195581Y0174017D01*
X0196023Y0174105D01*
X0196248Y0174105D01*
X0196248Y0171819D01*
X0196248Y0171819D01*
X0198534Y0171819D01*
X0198534Y0171594D01*
X0198446Y0171152D01*
X0198314Y0170834D01*
X0198632Y0170966D01*
X0199074Y0171054D01*
X0199299Y0171054D01*
X0199299Y0168768D01*
X0199299Y0168768D01*
X0197013Y0168768D01*
X0197013Y0168543D01*
X0197101Y0168101D01*
X0197184Y0167902D01*
X0196915Y0168013D01*
X0196473Y0168101D01*
X0196248Y0168101D01*
X0196248Y0165815D01*
X0196248Y0165815D01*
X0196248Y0168101D01*
X0196023Y0168101D01*
X0195581Y0168013D01*
X0195312Y0167902D01*
X0195395Y0168101D01*
X0195483Y0168543D01*
X0195483Y0168768D01*
X0193197Y0168768D01*
X0193197Y0171054D01*
X0192972Y0171054D01*
X0192530Y0170966D01*
X0192331Y0170883D01*
X0192442Y0171152D01*
X0192530Y0171594D01*
X0192530Y0171819D01*
X0190244Y0171819D01*
X0190244Y0171819D01*
X0190244Y0171819D01*
X0187958Y0171819D01*
X0187958Y0172044D01*
X0188046Y0172486D01*
X0188108Y0172636D01*
X0187958Y0172574D01*
X0187516Y0172486D01*
X0187291Y0172486D01*
X0187291Y0174772D01*
X0187291Y0174772D01*
X0189577Y0174772D01*
X0189577Y0174547D01*
X0189489Y0174105D01*
X0189427Y0173955D01*
X0189577Y0174017D01*
X0190019Y0174105D01*
X0190244Y0174105D01*
X0190244Y0171819D01*
X0190244Y0169533D01*
X0190469Y0169533D01*
X0190911Y0169621D01*
X0191110Y0169704D01*
X0190999Y0169435D01*
X0190911Y0168993D01*
X0190911Y0168768D01*
X0193197Y0168768D01*
X0193197Y0166482D01*
X0193197Y0168768D01*
X0193197Y0168768D01*
X0193197Y0168768D01*
X0190911Y0168768D01*
X0190911Y0168543D01*
X0190999Y0168101D01*
X0191061Y0167951D01*
X0190911Y0168013D01*
X0190469Y0168101D01*
X0190244Y0168101D01*
X0190933Y0168004D02*
X0191039Y0168004D01*
X0190911Y0168802D02*
X0189577Y0168802D01*
X0189679Y0169601D02*
X0189420Y0169601D01*
X0190244Y0169601D02*
X0190244Y0169601D01*
X0190809Y0169601D02*
X0191068Y0169601D01*
X0190244Y0170399D02*
X0190244Y0170399D01*
X0190244Y0171198D02*
X0190244Y0171198D01*
X0190244Y0171819D02*
X0190244Y0171819D01*
X0190244Y0171819D01*
X0190244Y0174105D01*
X0190469Y0174105D01*
X0190911Y0174017D01*
X0191061Y0173955D01*
X0190999Y0174105D01*
X0190911Y0174547D01*
X0190911Y0174772D01*
X0193197Y0174772D01*
X0193197Y0174772D01*
X0193197Y0174772D01*
X0193197Y0172486D01*
X0192972Y0172486D01*
X0192530Y0172574D01*
X0192380Y0172636D01*
X0192442Y0172486D01*
X0192530Y0172044D01*
X0192530Y0171819D01*
X0190244Y0171819D01*
X0190244Y0171996D02*
X0190244Y0171996D01*
X0190244Y0172795D02*
X0190244Y0172795D01*
X0190244Y0173593D02*
X0190244Y0173593D01*
X0189546Y0174392D02*
X0190942Y0174392D01*
X0190949Y0175190D02*
X0189539Y0175190D01*
X0190244Y0175989D02*
X0190244Y0175989D01*
X0190244Y0176787D02*
X0190244Y0176787D01*
X0190244Y0177586D02*
X0190244Y0177586D01*
X0190244Y0177823D02*
X0190244Y0177823D01*
X0192530Y0177823D01*
X0190244Y0177823D01*
X0190244Y0178384D02*
X0190244Y0178384D01*
X0190244Y0179183D02*
X0190244Y0179183D01*
X0190244Y0179981D02*
X0190244Y0179981D01*
X0189482Y0179981D02*
X0032759Y0179981D01*
X0032759Y0179183D02*
X0188404Y0179183D01*
X0188025Y0178384D02*
X0032759Y0178384D01*
X0032759Y0177586D02*
X0187961Y0177586D01*
X0187291Y0176787D02*
X0187291Y0176787D01*
X0187291Y0175989D02*
X0187291Y0175989D01*
X0187291Y0175190D02*
X0187291Y0175190D01*
X0187291Y0174392D02*
X0187291Y0174392D01*
X0187291Y0173593D02*
X0187291Y0173593D01*
X0187291Y0172795D02*
X0187291Y0172795D01*
X0187958Y0171996D02*
X0032759Y0171996D01*
X0032759Y0171198D02*
X0188037Y0171198D01*
X0186136Y0172795D02*
X0032759Y0172795D01*
X0032759Y0173593D02*
X0185330Y0173593D01*
X0185036Y0174392D02*
X0032759Y0174392D01*
X0032759Y0175190D02*
X0185044Y0175190D01*
X0185355Y0175989D02*
X0032759Y0175989D01*
X0032759Y0176787D02*
X0186193Y0176787D01*
X0191006Y0179981D02*
X0387177Y0179981D01*
X0387177Y0179183D02*
X0197924Y0179183D01*
X0198024Y0179083D02*
X0197705Y0179402D01*
X0197331Y0179652D01*
X0196915Y0179824D01*
X0196473Y0179912D01*
X0196248Y0179912D01*
X0196023Y0179912D01*
X0195581Y0179824D01*
X0195165Y0179652D01*
X0194791Y0179402D01*
X0194473Y0179083D01*
X0194222Y0178709D01*
X0194050Y0178293D01*
X0193962Y0177851D01*
X0193962Y0177626D01*
X0196248Y0177626D01*
X0196248Y0177626D01*
X0196248Y0177626D01*
X0198534Y0177626D01*
X0198534Y0177851D01*
X0198446Y0178293D01*
X0198274Y0178709D01*
X0198024Y0179083D01*
X0198408Y0178384D02*
X0387177Y0178384D01*
X0387177Y0177586D02*
X0198534Y0177586D01*
X0199299Y0177058D02*
X0199299Y0174772D01*
X0199299Y0174772D01*
X0199299Y0174772D01*
X0197013Y0174772D01*
X0197013Y0174547D01*
X0197101Y0174105D01*
X0197184Y0173906D01*
X0196915Y0174017D01*
X0196473Y0174105D01*
X0196248Y0174105D01*
X0196248Y0171819D01*
X0196248Y0171819D01*
X0198534Y0171819D01*
X0198534Y0172044D01*
X0198446Y0172486D01*
X0198363Y0172685D01*
X0198632Y0172574D01*
X0199074Y0172486D01*
X0199299Y0172486D01*
X0199299Y0174772D01*
X0201585Y0174772D01*
X0201585Y0174997D01*
X0201497Y0175439D01*
X0201325Y0175855D01*
X0201075Y0176229D01*
X0200756Y0176547D01*
X0200382Y0176797D01*
X0199966Y0176970D01*
X0199524Y0177058D01*
X0199299Y0177058D01*
X0199299Y0176787D02*
X0199299Y0176787D01*
X0199299Y0175989D02*
X0199299Y0175989D01*
X0199299Y0175190D02*
X0199299Y0175190D01*
X0199299Y0174772D02*
X0199299Y0174772D01*
X0199299Y0174772D01*
X0201585Y0174772D01*
X0201585Y0174547D01*
X0201497Y0174105D01*
X0201325Y0173689D01*
X0201075Y0173315D01*
X0200756Y0172996D01*
X0200382Y0172746D01*
X0199966Y0172574D01*
X0199524Y0172486D01*
X0199299Y0172486D01*
X0199299Y0174772D01*
X0199299Y0174392D02*
X0199299Y0174392D01*
X0199299Y0173593D02*
X0199299Y0173593D01*
X0199299Y0172795D02*
X0199299Y0172795D01*
X0198534Y0171996D02*
X0387177Y0171996D01*
X0387177Y0171198D02*
X0198455Y0171198D01*
X0199299Y0171054D02*
X0199299Y0168768D01*
X0199299Y0168768D01*
X0201585Y0168768D01*
X0201585Y0168993D01*
X0201497Y0169435D01*
X0201325Y0169851D01*
X0201075Y0170225D01*
X0200756Y0170543D01*
X0200382Y0170794D01*
X0199966Y0170966D01*
X0199524Y0171054D01*
X0199299Y0171054D01*
X0199299Y0170399D02*
X0199299Y0170399D01*
X0199299Y0169601D02*
X0199299Y0169601D01*
X0199299Y0168802D02*
X0199299Y0168802D01*
X0199299Y0168768D02*
X0199299Y0168768D01*
X0199299Y0166482D01*
X0199524Y0166482D01*
X0199966Y0166570D01*
X0200382Y0166742D01*
X0200756Y0166992D01*
X0201075Y0167311D01*
X0201325Y0167685D01*
X0201497Y0168101D01*
X0201585Y0168543D01*
X0201585Y0168768D01*
X0199299Y0168768D01*
X0199299Y0168004D02*
X0199299Y0168004D01*
X0199299Y0167205D02*
X0199299Y0167205D01*
X0198461Y0166407D02*
X0349136Y0166407D01*
X0349136Y0165608D02*
X0198534Y0165608D01*
X0198306Y0164810D02*
X0349587Y0164810D01*
X0350386Y0164011D02*
X0197663Y0164011D01*
X0196248Y0164011D02*
X0196248Y0164011D01*
X0196248Y0164810D02*
X0196248Y0164810D01*
X0196248Y0165608D02*
X0196248Y0165608D01*
X0196248Y0166407D02*
X0196248Y0166407D01*
X0196248Y0167205D02*
X0196248Y0167205D01*
X0196248Y0168004D02*
X0196248Y0168004D01*
X0195559Y0168004D02*
X0195354Y0168004D01*
X0195483Y0168802D02*
X0197013Y0168802D01*
X0196937Y0168004D02*
X0197142Y0168004D01*
X0197170Y0169601D02*
X0196813Y0169601D01*
X0196248Y0169601D02*
X0196248Y0169601D01*
X0195683Y0169601D02*
X0195326Y0169601D01*
X0196248Y0170399D02*
X0196248Y0170399D01*
X0196248Y0171198D02*
X0196248Y0171198D01*
X0196248Y0171996D02*
X0196248Y0171996D01*
X0196248Y0172795D02*
X0196248Y0172795D01*
X0196248Y0173593D02*
X0196248Y0173593D01*
X0195452Y0174392D02*
X0197044Y0174392D01*
X0197052Y0175190D02*
X0195444Y0175190D01*
X0196248Y0175989D02*
X0196248Y0175989D01*
X0196248Y0176787D02*
X0196248Y0176787D01*
X0196248Y0177586D02*
X0196248Y0177586D01*
X0196248Y0177626D02*
X0196248Y0179912D01*
X0196248Y0177626D01*
X0196248Y0177626D01*
X0196248Y0178384D02*
X0196248Y0178384D01*
X0196248Y0179183D02*
X0196248Y0179183D01*
X0194572Y0179183D02*
X0192085Y0179183D01*
X0192463Y0178384D02*
X0194088Y0178384D01*
X0193962Y0177586D02*
X0192528Y0177586D01*
X0193197Y0176787D02*
X0193197Y0176787D01*
X0193197Y0175989D02*
X0193197Y0175989D01*
X0193197Y0175190D02*
X0193197Y0175190D01*
X0193197Y0174392D02*
X0193197Y0174392D01*
X0193197Y0173593D02*
X0193197Y0173593D01*
X0193197Y0172795D02*
X0193197Y0172795D01*
X0192530Y0171996D02*
X0193962Y0171996D01*
X0194041Y0171198D02*
X0192451Y0171198D01*
X0193197Y0170399D02*
X0193197Y0170399D01*
X0193197Y0169601D02*
X0193197Y0169601D01*
X0193197Y0168802D02*
X0193197Y0168802D01*
X0193197Y0168004D02*
X0193197Y0168004D01*
X0193197Y0167205D02*
X0193197Y0167205D01*
X0192457Y0166407D02*
X0194035Y0166407D01*
X0193962Y0165608D02*
X0192530Y0165608D01*
X0192302Y0164810D02*
X0194190Y0164810D01*
X0194833Y0164011D02*
X0191659Y0164011D01*
X0190244Y0164011D02*
X0190244Y0164011D01*
X0190244Y0164810D02*
X0190244Y0164810D01*
X0190244Y0165608D02*
X0190244Y0165608D01*
X0190244Y0166407D02*
X0190244Y0166407D01*
X0190244Y0167205D02*
X0190244Y0167205D01*
X0200969Y0167205D02*
X0349185Y0167205D01*
X0349983Y0168004D02*
X0201457Y0168004D01*
X0201585Y0168802D02*
X0387177Y0168802D01*
X0387177Y0168004D02*
X0352867Y0168004D01*
X0353666Y0167205D02*
X0387177Y0167205D01*
X0387177Y0166407D02*
X0353773Y0166407D01*
X0354571Y0165608D02*
X0387177Y0165608D01*
X0387177Y0164810D02*
X0355370Y0164810D01*
X0356168Y0164011D02*
X0387177Y0164011D01*
X0387177Y0163213D02*
X0356967Y0163213D01*
X0357765Y0162414D02*
X0387177Y0162414D01*
X0387177Y0161616D02*
X0358564Y0161616D01*
X0359362Y0160817D02*
X0387177Y0160817D01*
X0387177Y0160019D02*
X0360161Y0160019D01*
X0360959Y0159220D02*
X0387177Y0159220D01*
X0387177Y0158422D02*
X0361758Y0158422D01*
X0362556Y0157623D02*
X0387177Y0157623D01*
X0387177Y0156825D02*
X0363355Y0156825D01*
X0364154Y0156026D02*
X0387177Y0156026D01*
X0387177Y0155228D02*
X0364952Y0155228D01*
X0365751Y0154429D02*
X0387177Y0154429D01*
X0387177Y0153631D02*
X0366549Y0153631D01*
X0367348Y0152832D02*
X0387177Y0152832D01*
X0387177Y0152034D02*
X0368146Y0152034D01*
X0368945Y0151235D02*
X0387177Y0151235D01*
X0387177Y0150436D02*
X0369743Y0150436D01*
X0370542Y0149638D02*
X0387177Y0149638D01*
X0387177Y0148839D02*
X0371340Y0148839D01*
X0372139Y0148041D02*
X0387177Y0148041D01*
X0387177Y0147242D02*
X0372937Y0147242D01*
X0373736Y0146444D02*
X0387177Y0146444D01*
X0387177Y0145645D02*
X0374534Y0145645D01*
X0375333Y0144847D02*
X0387177Y0144847D01*
X0387177Y0144048D02*
X0376131Y0144048D01*
X0376847Y0143250D02*
X0387177Y0143250D01*
X0387177Y0142451D02*
X0376847Y0142451D01*
X0376847Y0141653D02*
X0387177Y0141653D01*
X0387177Y0140854D02*
X0376847Y0140854D01*
X0376847Y0140056D02*
X0387177Y0140056D01*
X0387177Y0139257D02*
X0383179Y0139257D01*
X0383152Y0139284D02*
X0381700Y0139886D01*
X0380127Y0139886D01*
X0378674Y0139284D01*
X0377562Y0138172D01*
X0376961Y0136719D01*
X0376961Y0135147D01*
X0377562Y0133694D01*
X0378674Y0132582D01*
X0380127Y0131980D01*
X0381700Y0131980D01*
X0383152Y0132582D01*
X0384264Y0133694D01*
X0384866Y0135147D01*
X0384866Y0136719D01*
X0384264Y0138172D01*
X0383152Y0139284D01*
X0383978Y0138459D02*
X0387177Y0138459D01*
X0387177Y0137660D02*
X0384476Y0137660D01*
X0384807Y0136862D02*
X0387177Y0136862D01*
X0387177Y0136063D02*
X0384866Y0136063D01*
X0384866Y0135265D02*
X0387177Y0135265D01*
X0387177Y0134466D02*
X0384584Y0134466D01*
X0384238Y0133668D02*
X0387177Y0133668D01*
X0387177Y0132869D02*
X0383439Y0132869D01*
X0381918Y0132071D02*
X0387177Y0132071D01*
X0387177Y0131272D02*
X0376847Y0131272D01*
X0376847Y0130474D02*
X0387177Y0130474D01*
X0387177Y0129675D02*
X0382209Y0129675D01*
X0381700Y0129886D02*
X0380127Y0129886D01*
X0378674Y0129284D01*
X0377562Y0128172D01*
X0376961Y0126719D01*
X0376961Y0125147D01*
X0377562Y0123694D01*
X0378674Y0122582D01*
X0380127Y0121980D01*
X0381700Y0121980D01*
X0383152Y0122582D01*
X0384264Y0123694D01*
X0384866Y0125147D01*
X0384866Y0126719D01*
X0384264Y0128172D01*
X0383152Y0129284D01*
X0381700Y0129886D01*
X0379618Y0129675D02*
X0376847Y0129675D01*
X0376847Y0128877D02*
X0378267Y0128877D01*
X0377523Y0128078D02*
X0376847Y0128078D01*
X0376847Y0127280D02*
X0377193Y0127280D01*
X0376961Y0126481D02*
X0376847Y0126481D01*
X0376847Y0125683D02*
X0376961Y0125683D01*
X0377070Y0124884D02*
X0376847Y0124884D01*
X0376847Y0124086D02*
X0377400Y0124086D01*
X0376847Y0123287D02*
X0377969Y0123287D01*
X0378900Y0122489D02*
X0376847Y0122489D01*
X0376847Y0121690D02*
X0387177Y0121690D01*
X0387177Y0120892D02*
X0376847Y0120892D01*
X0382926Y0122489D02*
X0387177Y0122489D01*
X0387177Y0123287D02*
X0383857Y0123287D01*
X0384427Y0124086D02*
X0387177Y0124086D01*
X0387177Y0124884D02*
X0384757Y0124884D01*
X0384866Y0125683D02*
X0387177Y0125683D01*
X0387177Y0126481D02*
X0384866Y0126481D01*
X0384634Y0127280D02*
X0387177Y0127280D01*
X0387177Y0128078D02*
X0384303Y0128078D01*
X0383560Y0128877D02*
X0387177Y0128877D01*
X0379909Y0132071D02*
X0376847Y0132071D01*
X0376847Y0132869D02*
X0378387Y0132869D01*
X0377589Y0133668D02*
X0376847Y0133668D01*
X0376847Y0134466D02*
X0377243Y0134466D01*
X0376961Y0135265D02*
X0376847Y0135265D01*
X0376847Y0136063D02*
X0376961Y0136063D01*
X0377020Y0136862D02*
X0376847Y0136862D01*
X0376847Y0137660D02*
X0377350Y0137660D01*
X0377849Y0138459D02*
X0376847Y0138459D01*
X0376847Y0139257D02*
X0378647Y0139257D01*
X0373247Y0139257D02*
X0237572Y0139257D01*
X0237572Y0138459D02*
X0373247Y0138459D01*
X0373247Y0137660D02*
X0237531Y0137660D01*
X0236733Y0136862D02*
X0373247Y0136862D01*
X0373247Y0140056D02*
X0237114Y0140056D01*
X0236788Y0140854D02*
X0373247Y0140854D01*
X0373247Y0141653D02*
X0237572Y0141653D01*
X0237572Y0142451D02*
X0372637Y0142451D01*
X0371839Y0143250D02*
X0237572Y0143250D01*
X0237059Y0144048D02*
X0371040Y0144048D01*
X0370242Y0144847D02*
X0236844Y0144847D01*
X0237572Y0145645D02*
X0369443Y0145645D01*
X0368644Y0146444D02*
X0237572Y0146444D01*
X0237572Y0147242D02*
X0367846Y0147242D01*
X0367047Y0148041D02*
X0237003Y0148041D01*
X0236899Y0148839D02*
X0366249Y0148839D01*
X0365450Y0149638D02*
X0237572Y0149638D01*
X0237572Y0150436D02*
X0364652Y0150436D01*
X0363853Y0151235D02*
X0237572Y0151235D01*
X0236948Y0152034D02*
X0363055Y0152034D01*
X0387177Y0169601D02*
X0201428Y0169601D01*
X0200900Y0170399D02*
X0387177Y0170399D01*
X0387177Y0172795D02*
X0200455Y0172795D01*
X0201261Y0173593D02*
X0387177Y0173593D01*
X0387177Y0174392D02*
X0201554Y0174392D01*
X0201547Y0175190D02*
X0387177Y0175190D01*
X0387177Y0175989D02*
X0201235Y0175989D01*
X0200397Y0176787D02*
X0387177Y0176787D01*
X0387177Y0180780D02*
X0032759Y0180780D01*
X0032759Y0181578D02*
X0387177Y0181578D01*
X0387177Y0182377D02*
X0032759Y0182377D01*
X0032759Y0183175D02*
X0387177Y0183175D01*
X0387177Y0183974D02*
X0032759Y0183974D01*
X0032759Y0184772D02*
X0387177Y0184772D01*
X0387177Y0185571D02*
X0032759Y0185571D01*
X0032759Y0186369D02*
X0387177Y0186369D01*
X0387177Y0187168D02*
X0032759Y0187168D01*
X0032759Y0187967D02*
X0387177Y0187967D01*
X0387177Y0188765D02*
X0032759Y0188765D01*
X0032759Y0189564D02*
X0387177Y0189564D01*
X0387177Y0190362D02*
X0032759Y0190362D01*
X0033032Y0191161D02*
X0387177Y0191161D01*
X0387177Y0191959D02*
X0033830Y0191959D01*
X0034629Y0192758D02*
X0387177Y0192758D01*
X0387177Y0193556D02*
X0236340Y0193556D01*
X0236232Y0193447D02*
X0237572Y0194788D01*
X0237572Y0196684D01*
X0236232Y0198025D01*
X0234335Y0198025D01*
X0233546Y0197236D01*
X0225210Y0197236D01*
X0224421Y0198025D01*
X0222524Y0198025D01*
X0221183Y0196684D01*
X0221183Y0194788D01*
X0222524Y0193447D01*
X0224421Y0193447D01*
X0225210Y0194236D01*
X0233546Y0194236D01*
X0234335Y0193447D01*
X0236232Y0193447D01*
X0237139Y0194355D02*
X0387177Y0194355D01*
X0387177Y0195153D02*
X0237572Y0195153D01*
X0237572Y0195952D02*
X0387177Y0195952D01*
X0387177Y0196750D02*
X0237507Y0196750D01*
X0236708Y0197549D02*
X0387177Y0197549D01*
X0387177Y0198347D02*
X0040218Y0198347D01*
X0039420Y0197549D02*
X0222048Y0197549D01*
X0221249Y0196750D02*
X0038621Y0196750D01*
X0037823Y0195952D02*
X0221183Y0195952D01*
X0221183Y0195153D02*
X0037024Y0195153D01*
X0036226Y0194355D02*
X0221617Y0194355D01*
X0222416Y0193556D02*
X0035427Y0193556D01*
X0032399Y0196750D02*
X0004650Y0196750D01*
X0004650Y0195952D02*
X0031600Y0195952D01*
X0030802Y0195153D02*
X0004650Y0195153D01*
X0004650Y0194355D02*
X0030003Y0194355D01*
X0029205Y0193556D02*
X0004650Y0193556D01*
X0004650Y0192758D02*
X0028406Y0192758D01*
X0028359Y0191959D02*
X0004650Y0191959D01*
X0004650Y0191161D02*
X0028359Y0191161D01*
X0028359Y0190362D02*
X0004650Y0190362D01*
X0004650Y0189564D02*
X0009349Y0189564D01*
X0008674Y0189284D02*
X0010127Y0189886D01*
X0011700Y0189886D01*
X0013152Y0189284D01*
X0014264Y0188172D01*
X0014866Y0186719D01*
X0014866Y0185147D01*
X0014264Y0183694D01*
X0013152Y0182582D01*
X0011700Y0181980D01*
X0010127Y0181980D01*
X0008674Y0182582D01*
X0007562Y0183694D01*
X0006961Y0185147D01*
X0006961Y0186719D01*
X0007562Y0188172D01*
X0008674Y0189284D01*
X0008155Y0188765D02*
X0004650Y0188765D01*
X0004650Y0187967D02*
X0007477Y0187967D01*
X0007146Y0187168D02*
X0004650Y0187168D01*
X0004650Y0186369D02*
X0006961Y0186369D01*
X0006961Y0185571D02*
X0004650Y0185571D01*
X0004650Y0184772D02*
X0007116Y0184772D01*
X0007446Y0183974D02*
X0004650Y0183974D01*
X0004650Y0183175D02*
X0008081Y0183175D01*
X0009170Y0182377D02*
X0004650Y0182377D01*
X0004650Y0181578D02*
X0028359Y0181578D01*
X0028359Y0180780D02*
X0004650Y0180780D01*
X0004650Y0179981D02*
X0028359Y0179981D01*
X0028359Y0179183D02*
X0013254Y0179183D01*
X0013152Y0179284D02*
X0011700Y0179886D01*
X0010127Y0179886D01*
X0008674Y0179284D01*
X0007562Y0178172D01*
X0006961Y0176719D01*
X0006961Y0175147D01*
X0007267Y0174408D01*
X0006239Y0173380D01*
X0005361Y0172502D01*
X0005361Y0163633D01*
X0005406Y0163588D01*
X0005406Y0158279D01*
X0005361Y0158233D01*
X0005361Y0143633D01*
X0005437Y0143557D01*
X0005437Y0139288D01*
X0006316Y0138410D01*
X0007267Y0137459D01*
X0006961Y0136719D01*
X0006961Y0135147D01*
X0007562Y0133694D01*
X0008674Y0132582D01*
X0010127Y0131980D01*
X0011700Y0131980D01*
X0013152Y0132582D01*
X0013466Y0132896D01*
X0013466Y0128970D01*
X0013152Y0129284D01*
X0011700Y0129886D01*
X0010127Y0129886D01*
X0008674Y0129284D01*
X0007562Y0128172D01*
X0006961Y0126719D01*
X0006961Y0125147D01*
X0007562Y0123694D01*
X0008674Y0122582D01*
X0010127Y0121980D01*
X0011700Y0121980D01*
X0013152Y0122582D01*
X0013466Y0122896D01*
X0013466Y0120607D01*
X0012439Y0119580D01*
X0011700Y0119886D01*
X0010127Y0119886D01*
X0008674Y0119284D01*
X0007562Y0118172D01*
X0006961Y0116719D01*
X0006961Y0115147D01*
X0007562Y0113694D01*
X0008674Y0112582D01*
X0010127Y0111980D01*
X0011700Y0111980D01*
X0013152Y0112582D01*
X0014264Y0113694D01*
X0014866Y0115147D01*
X0014866Y0116719D01*
X0014560Y0117459D01*
X0015280Y0118178D01*
X0015280Y0112421D01*
X0012439Y0109580D01*
X0011700Y0109886D01*
X0010127Y0109886D01*
X0008674Y0109284D01*
X0007562Y0108172D01*
X0006961Y0106719D01*
X0006961Y0105147D01*
X0007562Y0103694D01*
X0008674Y0102582D01*
X0010127Y0101980D01*
X0011700Y0101980D01*
X0013152Y0102582D01*
X0014264Y0103694D01*
X0014866Y0105147D01*
X0014866Y0106719D01*
X0014560Y0107459D01*
X0017401Y0110299D01*
X0018280Y0111178D01*
X0018280Y0160688D01*
X0017401Y0161567D01*
X0014560Y0164408D01*
X0014866Y0165147D01*
X0014866Y0166719D01*
X0014264Y0168172D01*
X0013152Y0169284D01*
X0011700Y0169886D01*
X0010127Y0169886D01*
X0008674Y0169284D01*
X0008361Y0168970D01*
X0008361Y0171259D01*
X0009388Y0172287D01*
X0010127Y0171980D01*
X0011700Y0171980D01*
X0013152Y0172582D01*
X0014264Y0173694D01*
X0014866Y0175147D01*
X0014866Y0176719D01*
X0014264Y0178172D01*
X0013152Y0179284D01*
X0014052Y0178384D02*
X0028359Y0178384D01*
X0028359Y0177586D02*
X0014507Y0177586D01*
X0014838Y0176787D02*
X0028359Y0176787D01*
X0028359Y0175989D02*
X0014866Y0175989D01*
X0014866Y0175190D02*
X0028359Y0175190D01*
X0028359Y0174392D02*
X0014553Y0174392D01*
X0014164Y0173593D02*
X0028359Y0173593D01*
X0028359Y0172795D02*
X0013365Y0172795D01*
X0011738Y0171996D02*
X0028359Y0171996D01*
X0028359Y0171198D02*
X0008361Y0171198D01*
X0008361Y0170399D02*
X0028359Y0170399D01*
X0028359Y0169601D02*
X0012388Y0169601D01*
X0013634Y0168802D02*
X0028359Y0168802D01*
X0028359Y0168004D02*
X0014334Y0168004D01*
X0014665Y0167205D02*
X0028359Y0167205D01*
X0028359Y0166407D02*
X0014866Y0166407D01*
X0014866Y0165608D02*
X0028359Y0165608D01*
X0028359Y0164810D02*
X0014726Y0164810D01*
X0014957Y0164011D02*
X0028359Y0164011D01*
X0028359Y0163213D02*
X0015755Y0163213D01*
X0016554Y0162414D02*
X0028359Y0162414D01*
X0028359Y0161616D02*
X0017352Y0161616D01*
X0018151Y0160817D02*
X0028359Y0160817D01*
X0028359Y0160019D02*
X0018280Y0160019D01*
X0018280Y0159220D02*
X0028359Y0159220D01*
X0028359Y0158422D02*
X0018280Y0158422D01*
X0018280Y0157623D02*
X0028359Y0157623D01*
X0028359Y0156825D02*
X0018280Y0156825D01*
X0018280Y0156026D02*
X0028359Y0156026D01*
X0028359Y0155228D02*
X0018280Y0155228D01*
X0018280Y0154429D02*
X0028359Y0154429D01*
X0028359Y0153631D02*
X0018280Y0153631D01*
X0018280Y0152832D02*
X0028359Y0152832D01*
X0028359Y0152034D02*
X0018280Y0152034D01*
X0018280Y0151235D02*
X0028359Y0151235D01*
X0028359Y0150436D02*
X0018280Y0150436D01*
X0018280Y0149638D02*
X0028359Y0149638D01*
X0028359Y0148839D02*
X0018280Y0148839D01*
X0018280Y0148041D02*
X0028359Y0148041D01*
X0028359Y0147242D02*
X0018280Y0147242D01*
X0018280Y0146444D02*
X0028359Y0146444D01*
X0028359Y0145645D02*
X0018280Y0145645D01*
X0018280Y0144847D02*
X0028359Y0144847D01*
X0028359Y0144048D02*
X0018280Y0144048D01*
X0018280Y0143250D02*
X0028359Y0143250D01*
X0028359Y0142451D02*
X0018280Y0142451D01*
X0018280Y0141653D02*
X0028359Y0141653D01*
X0028359Y0140854D02*
X0018280Y0140854D01*
X0018280Y0140056D02*
X0028359Y0140056D01*
X0028359Y0139257D02*
X0018280Y0139257D01*
X0018280Y0138459D02*
X0028359Y0138459D01*
X0028359Y0137660D02*
X0018280Y0137660D01*
X0018280Y0136862D02*
X0028359Y0136862D01*
X0028359Y0136063D02*
X0018280Y0136063D01*
X0018280Y0135265D02*
X0028359Y0135265D01*
X0028359Y0134466D02*
X0018280Y0134466D01*
X0018280Y0133668D02*
X0028359Y0133668D01*
X0028359Y0132869D02*
X0018280Y0132869D01*
X0018280Y0132071D02*
X0028359Y0132071D01*
X0028359Y0131272D02*
X0018280Y0131272D01*
X0018280Y0130474D02*
X0028359Y0130474D01*
X0028359Y0129675D02*
X0018280Y0129675D01*
X0018280Y0128877D02*
X0028359Y0128877D01*
X0028359Y0128078D02*
X0018280Y0128078D01*
X0018280Y0127280D02*
X0028359Y0127280D01*
X0028359Y0126481D02*
X0018280Y0126481D01*
X0018280Y0125683D02*
X0028359Y0125683D01*
X0028359Y0124884D02*
X0018280Y0124884D01*
X0018280Y0124086D02*
X0028359Y0124086D01*
X0028359Y0123287D02*
X0018280Y0123287D01*
X0018280Y0122489D02*
X0028359Y0122489D01*
X0028359Y0121690D02*
X0018280Y0121690D01*
X0018280Y0120892D02*
X0028359Y0120892D01*
X0028359Y0120093D02*
X0018280Y0120093D01*
X0018280Y0119295D02*
X0028359Y0119295D01*
X0028359Y0118496D02*
X0018280Y0118496D01*
X0018280Y0117698D02*
X0028359Y0117698D01*
X0028359Y0116899D02*
X0018280Y0116899D01*
X0018280Y0116100D02*
X0028359Y0116100D01*
X0028359Y0115302D02*
X0018280Y0115302D01*
X0018280Y0114503D02*
X0028359Y0114503D01*
X0028359Y0113705D02*
X0018280Y0113705D01*
X0018280Y0112906D02*
X0028359Y0112906D01*
X0028359Y0112108D02*
X0018280Y0112108D01*
X0018280Y0111309D02*
X0028359Y0111309D01*
X0028359Y0110511D02*
X0017612Y0110511D01*
X0016814Y0109712D02*
X0028359Y0109712D01*
X0028359Y0108914D02*
X0016015Y0108914D01*
X0015217Y0108115D02*
X0028359Y0108115D01*
X0028359Y0107317D02*
X0014619Y0107317D01*
X0014866Y0106518D02*
X0028359Y0106518D01*
X0028359Y0105720D02*
X0014866Y0105720D01*
X0014773Y0104921D02*
X0028359Y0104921D01*
X0028359Y0104123D02*
X0014442Y0104123D01*
X0013895Y0103324D02*
X0028359Y0103324D01*
X0028359Y0102526D02*
X0013016Y0102526D01*
X0011700Y0099886D02*
X0010127Y0099886D01*
X0008674Y0099284D01*
X0007562Y0098172D01*
X0006961Y0096719D01*
X0006961Y0095147D01*
X0007562Y0093694D01*
X0008674Y0092582D01*
X0010127Y0091980D01*
X0011700Y0091980D01*
X0013152Y0092582D01*
X0014264Y0093694D01*
X0014866Y0095147D01*
X0014866Y0096719D01*
X0014264Y0098172D01*
X0013152Y0099284D01*
X0011700Y0099886D01*
X0013038Y0099332D02*
X0028359Y0099332D01*
X0028359Y0100130D02*
X0004650Y0100130D01*
X0004650Y0099332D02*
X0008789Y0099332D01*
X0007923Y0098533D02*
X0004650Y0098533D01*
X0004650Y0097735D02*
X0007381Y0097735D01*
X0007050Y0096936D02*
X0004650Y0096936D01*
X0004650Y0096138D02*
X0006961Y0096138D01*
X0006961Y0095339D02*
X0004650Y0095339D01*
X0004650Y0094541D02*
X0007212Y0094541D01*
X0007543Y0093742D02*
X0004650Y0093742D01*
X0004650Y0092944D02*
X0008313Y0092944D01*
X0009730Y0092145D02*
X0004650Y0092145D01*
X0004650Y0091347D02*
X0028359Y0091347D01*
X0028359Y0092145D02*
X0012097Y0092145D01*
X0013514Y0092944D02*
X0028359Y0092944D01*
X0028359Y0093742D02*
X0014284Y0093742D01*
X0014615Y0094541D02*
X0028359Y0094541D01*
X0028359Y0095339D02*
X0014866Y0095339D01*
X0014866Y0096138D02*
X0028359Y0096138D01*
X0028359Y0096936D02*
X0014776Y0096936D01*
X0014446Y0097735D02*
X0028359Y0097735D01*
X0028359Y0098533D02*
X0013903Y0098533D01*
X0008811Y0102526D02*
X0004650Y0102526D01*
X0004650Y0103324D02*
X0007932Y0103324D01*
X0007385Y0104123D02*
X0004650Y0104123D01*
X0004650Y0104921D02*
X0007054Y0104921D01*
X0006961Y0105720D02*
X0004650Y0105720D01*
X0004650Y0106518D02*
X0006961Y0106518D01*
X0007208Y0107317D02*
X0004650Y0107317D01*
X0004650Y0108115D02*
X0007539Y0108115D01*
X0008304Y0108914D02*
X0004650Y0108914D01*
X0004650Y0109712D02*
X0009708Y0109712D01*
X0009819Y0112108D02*
X0004650Y0112108D01*
X0004650Y0112906D02*
X0008350Y0112906D01*
X0007558Y0113705D02*
X0004650Y0113705D01*
X0004650Y0114503D02*
X0007227Y0114503D01*
X0006961Y0115302D02*
X0004650Y0115302D01*
X0004650Y0116100D02*
X0006961Y0116100D01*
X0007035Y0116899D02*
X0004650Y0116899D01*
X0004650Y0117698D02*
X0007366Y0117698D01*
X0007886Y0118496D02*
X0004650Y0118496D01*
X0004650Y0119295D02*
X0008699Y0119295D01*
X0008900Y0122489D02*
X0004650Y0122489D01*
X0004650Y0123287D02*
X0007969Y0123287D01*
X0007400Y0124086D02*
X0004650Y0124086D01*
X0004650Y0124884D02*
X0007070Y0124884D01*
X0006961Y0125683D02*
X0004650Y0125683D01*
X0004650Y0126481D02*
X0006961Y0126481D01*
X0007193Y0127280D02*
X0004650Y0127280D01*
X0004650Y0128078D02*
X0007523Y0128078D01*
X0008267Y0128877D02*
X0004650Y0128877D01*
X0004650Y0129675D02*
X0009618Y0129675D01*
X0009909Y0132071D02*
X0004650Y0132071D01*
X0004650Y0132869D02*
X0008387Y0132869D01*
X0007589Y0133668D02*
X0004650Y0133668D01*
X0004650Y0134466D02*
X0007243Y0134466D01*
X0006961Y0135265D02*
X0004650Y0135265D01*
X0004650Y0136063D02*
X0006961Y0136063D01*
X0007020Y0136862D02*
X0004650Y0136862D01*
X0004650Y0137660D02*
X0007065Y0137660D01*
X0006266Y0138459D02*
X0004650Y0138459D01*
X0004650Y0139257D02*
X0005468Y0139257D01*
X0005437Y0140056D02*
X0004650Y0140056D01*
X0004650Y0140854D02*
X0005437Y0140854D01*
X0005437Y0141653D02*
X0004650Y0141653D01*
X0004650Y0142451D02*
X0005437Y0142451D01*
X0005437Y0143250D02*
X0004650Y0143250D01*
X0004650Y0144048D02*
X0005361Y0144048D01*
X0005361Y0144847D02*
X0004650Y0144847D01*
X0004650Y0145645D02*
X0005361Y0145645D01*
X0005361Y0146444D02*
X0004650Y0146444D01*
X0004650Y0147242D02*
X0005361Y0147242D01*
X0005361Y0148041D02*
X0004650Y0148041D01*
X0004650Y0148839D02*
X0005361Y0148839D01*
X0005361Y0149638D02*
X0004650Y0149638D01*
X0004650Y0150436D02*
X0005361Y0150436D01*
X0005361Y0151235D02*
X0004650Y0151235D01*
X0004650Y0152034D02*
X0005361Y0152034D01*
X0005361Y0152832D02*
X0004650Y0152832D01*
X0004650Y0153631D02*
X0005361Y0153631D01*
X0005361Y0154429D02*
X0004650Y0154429D01*
X0004650Y0155228D02*
X0005361Y0155228D01*
X0005361Y0156026D02*
X0004650Y0156026D01*
X0004650Y0156825D02*
X0005361Y0156825D01*
X0005361Y0157623D02*
X0004650Y0157623D01*
X0004650Y0158422D02*
X0005406Y0158422D01*
X0005406Y0159220D02*
X0004650Y0159220D01*
X0004650Y0160019D02*
X0005406Y0160019D01*
X0005406Y0160817D02*
X0004650Y0160817D01*
X0004650Y0161616D02*
X0005406Y0161616D01*
X0005406Y0162414D02*
X0004650Y0162414D01*
X0004650Y0163213D02*
X0005406Y0163213D01*
X0005361Y0164011D02*
X0004650Y0164011D01*
X0004650Y0164810D02*
X0005361Y0164810D01*
X0005361Y0165608D02*
X0004650Y0165608D01*
X0004650Y0166407D02*
X0005361Y0166407D01*
X0005361Y0167205D02*
X0004650Y0167205D01*
X0004650Y0168004D02*
X0005361Y0168004D01*
X0005361Y0168802D02*
X0004650Y0168802D01*
X0004650Y0169601D02*
X0005361Y0169601D01*
X0005361Y0170399D02*
X0004650Y0170399D01*
X0004650Y0171198D02*
X0005361Y0171198D01*
X0005361Y0171996D02*
X0004650Y0171996D01*
X0004650Y0172795D02*
X0005654Y0172795D01*
X0006452Y0173593D02*
X0004650Y0173593D01*
X0004650Y0174392D02*
X0007251Y0174392D01*
X0006961Y0175190D02*
X0004650Y0175190D01*
X0004650Y0175989D02*
X0006961Y0175989D01*
X0006989Y0176787D02*
X0004650Y0176787D01*
X0004650Y0177586D02*
X0007320Y0177586D01*
X0007775Y0178384D02*
X0004650Y0178384D01*
X0004650Y0179183D02*
X0008573Y0179183D01*
X0012657Y0182377D02*
X0028359Y0182377D01*
X0028359Y0183175D02*
X0013746Y0183175D01*
X0014380Y0183974D02*
X0028359Y0183974D01*
X0028359Y0184772D02*
X0014711Y0184772D01*
X0014866Y0185571D02*
X0028359Y0185571D01*
X0028359Y0186369D02*
X0014866Y0186369D01*
X0014680Y0187168D02*
X0028359Y0187168D01*
X0028359Y0187967D02*
X0014350Y0187967D01*
X0013672Y0188765D02*
X0028359Y0188765D01*
X0028359Y0189564D02*
X0012478Y0189564D01*
X0004650Y0197549D02*
X0033197Y0197549D01*
X0033996Y0198347D02*
X0004650Y0198347D01*
X0004650Y0199146D02*
X0034794Y0199146D01*
X0035593Y0199944D02*
X0004650Y0199944D01*
X0004650Y0200743D02*
X0036391Y0200743D01*
X0037190Y0201541D02*
X0004650Y0201541D01*
X0004650Y0202340D02*
X0037988Y0202340D01*
X0038787Y0203138D02*
X0004650Y0203138D01*
X0004650Y0203937D02*
X0039585Y0203937D01*
X0040384Y0204735D02*
X0004650Y0204735D01*
X0004650Y0205534D02*
X0041182Y0205534D01*
X0041981Y0206332D02*
X0004650Y0206332D01*
X0004650Y0207131D02*
X0042779Y0207131D01*
X0043578Y0207929D02*
X0004650Y0207929D01*
X0004650Y0208728D02*
X0044376Y0208728D01*
X0045175Y0209526D02*
X0004650Y0209526D01*
X0004650Y0210325D02*
X0045973Y0210325D01*
X0046772Y0211123D02*
X0017425Y0211123D01*
X0016342Y0210675D02*
X0019172Y0211847D01*
X0021338Y0214013D01*
X0022510Y0216843D01*
X0022510Y0219906D01*
X0021338Y0222735D01*
X0019172Y0224901D01*
X0016342Y0226073D01*
X0013280Y0226073D01*
X0010450Y0224901D01*
X0008284Y0222735D01*
X0007112Y0219906D01*
X0007112Y0216843D01*
X0008284Y0214013D01*
X0010450Y0211847D01*
X0013280Y0210675D01*
X0016342Y0210675D01*
X0019247Y0211922D02*
X0154175Y0211922D01*
X0154175Y0212720D02*
X0020046Y0212720D01*
X0020844Y0213519D02*
X0154175Y0213519D01*
X0154175Y0214317D02*
X0021464Y0214317D01*
X0021795Y0215116D02*
X0154175Y0215116D01*
X0154175Y0215914D02*
X0022126Y0215914D01*
X0022456Y0216713D02*
X0154175Y0216713D01*
X0154175Y0217511D02*
X0022510Y0217511D01*
X0022510Y0218310D02*
X0154175Y0218310D01*
X0154175Y0219108D02*
X0022510Y0219108D01*
X0022510Y0219907D02*
X0154175Y0219907D01*
X0154175Y0220705D02*
X0022179Y0220705D01*
X0021848Y0221504D02*
X0154175Y0221504D01*
X0154175Y0222302D02*
X0021517Y0222302D01*
X0020972Y0223101D02*
X0154175Y0223101D01*
X0154175Y0223900D02*
X0020174Y0223900D01*
X0019375Y0224698D02*
X0154175Y0224698D01*
X0154175Y0225497D02*
X0017735Y0225497D01*
X0011887Y0225497D02*
X0004650Y0225497D01*
X0004650Y0226295D02*
X0154175Y0226295D01*
X0154175Y0227094D02*
X0004650Y0227094D01*
X0004650Y0227892D02*
X0154175Y0227892D01*
X0154175Y0228691D02*
X0004650Y0228691D01*
X0004650Y0229489D02*
X0154175Y0229489D01*
X0154175Y0229769D02*
X0154175Y0203445D01*
X0154409Y0203210D01*
X0237418Y0203210D01*
X0237652Y0203445D01*
X0237652Y0229769D01*
X0296360Y0229769D01*
X0296214Y0229624D01*
X0296030Y0229304D01*
X0295935Y0228948D01*
X0295935Y0225664D01*
X0300435Y0225664D01*
X0300435Y0224864D01*
X0301235Y0224864D01*
X0301235Y0225664D01*
X0305735Y0225664D01*
X0305735Y0228948D01*
X0305639Y0229304D01*
X0305455Y0229624D01*
X0305309Y0229769D01*
X0387177Y0229769D01*
X0387177Y0012097D01*
X0004650Y0012097D01*
X0004650Y0229769D01*
X0154175Y0229769D01*
X0154175Y0211123D02*
X0144393Y0211123D01*
X0145053Y0210325D02*
X0154175Y0210325D01*
X0154175Y0209526D02*
X0145053Y0209526D01*
X0145053Y0208728D02*
X0154175Y0208728D01*
X0154175Y0207929D02*
X0144414Y0207929D01*
X0154175Y0207131D02*
X0049002Y0207131D01*
X0048203Y0206332D02*
X0154175Y0206332D01*
X0154175Y0205534D02*
X0047405Y0205534D01*
X0046606Y0204735D02*
X0154175Y0204735D01*
X0154175Y0203937D02*
X0045808Y0203937D01*
X0045009Y0203138D02*
X0387177Y0203138D01*
X0387177Y0202340D02*
X0044211Y0202340D01*
X0043412Y0201541D02*
X0387177Y0201541D01*
X0387177Y0200743D02*
X0042614Y0200743D01*
X0041815Y0199944D02*
X0387177Y0199944D01*
X0387177Y0199146D02*
X0041017Y0199146D01*
X0012197Y0211123D02*
X0004650Y0211123D01*
X0004650Y0211922D02*
X0010375Y0211922D01*
X0009576Y0212720D02*
X0004650Y0212720D01*
X0004650Y0213519D02*
X0008778Y0213519D01*
X0008158Y0214317D02*
X0004650Y0214317D01*
X0004650Y0215116D02*
X0007827Y0215116D01*
X0007496Y0215914D02*
X0004650Y0215914D01*
X0004650Y0216713D02*
X0007166Y0216713D01*
X0007112Y0217511D02*
X0004650Y0217511D01*
X0004650Y0218310D02*
X0007112Y0218310D01*
X0007112Y0219108D02*
X0004650Y0219108D01*
X0004650Y0219907D02*
X0007112Y0219907D01*
X0007443Y0220705D02*
X0004650Y0220705D01*
X0004650Y0221504D02*
X0007774Y0221504D01*
X0008105Y0222302D02*
X0004650Y0222302D01*
X0004650Y0223101D02*
X0008650Y0223101D01*
X0009448Y0223900D02*
X0004650Y0223900D01*
X0004650Y0224698D02*
X0010247Y0224698D01*
X0010089Y0171996D02*
X0009098Y0171996D01*
X0009439Y0169601D02*
X0008361Y0169601D01*
X0013439Y0132869D02*
X0013466Y0132869D01*
X0013466Y0132071D02*
X0011918Y0132071D01*
X0013466Y0131272D02*
X0004650Y0131272D01*
X0004650Y0130474D02*
X0013466Y0130474D01*
X0013466Y0129675D02*
X0012209Y0129675D01*
X0012926Y0122489D02*
X0013466Y0122489D01*
X0013466Y0121690D02*
X0004650Y0121690D01*
X0004650Y0120892D02*
X0013466Y0120892D01*
X0012952Y0120093D02*
X0004650Y0120093D01*
X0014799Y0117698D02*
X0015280Y0117698D01*
X0015280Y0116899D02*
X0014792Y0116899D01*
X0014866Y0116100D02*
X0015280Y0116100D01*
X0015280Y0115302D02*
X0014866Y0115302D01*
X0014600Y0114503D02*
X0015280Y0114503D01*
X0015280Y0113705D02*
X0014269Y0113705D01*
X0013477Y0112906D02*
X0015280Y0112906D01*
X0014967Y0112108D02*
X0012007Y0112108D01*
X0013370Y0110511D02*
X0004650Y0110511D01*
X0004650Y0111309D02*
X0014168Y0111309D01*
X0012571Y0109712D02*
X0012119Y0109712D01*
X0004650Y0101727D02*
X0028359Y0101727D01*
X0028359Y0100929D02*
X0004650Y0100929D01*
X0032759Y0100929D02*
X0373247Y0100929D01*
X0373247Y0101727D02*
X0032759Y0101727D01*
X0032759Y0100130D02*
X0373247Y0100130D01*
X0373247Y0099332D02*
X0032759Y0099332D01*
X0032759Y0098533D02*
X0373247Y0098533D01*
X0373247Y0097735D02*
X0032759Y0097735D01*
X0032759Y0096936D02*
X0373247Y0096936D01*
X0373247Y0096138D02*
X0032759Y0096138D01*
X0032759Y0095339D02*
X0373247Y0095339D01*
X0373247Y0094541D02*
X0032759Y0094541D01*
X0032759Y0093742D02*
X0373247Y0093742D01*
X0373247Y0092944D02*
X0032759Y0092944D01*
X0032759Y0092145D02*
X0373247Y0092145D01*
X0373247Y0091347D02*
X0032759Y0091347D01*
X0032759Y0090548D02*
X0373247Y0090548D01*
X0373247Y0089750D02*
X0032759Y0089750D01*
X0032759Y0088951D02*
X0373247Y0088951D01*
X0373247Y0088153D02*
X0032759Y0088153D01*
X0032759Y0087354D02*
X0373247Y0087354D01*
X0373247Y0086556D02*
X0032759Y0086556D01*
X0032759Y0085757D02*
X0373247Y0085757D01*
X0373247Y0084959D02*
X0032759Y0084959D01*
X0032759Y0084160D02*
X0373247Y0084160D01*
X0373247Y0083362D02*
X0032759Y0083362D01*
X0032759Y0082563D02*
X0373247Y0082563D01*
X0373247Y0081765D02*
X0032759Y0081765D01*
X0032759Y0080966D02*
X0373247Y0080966D01*
X0373247Y0080167D02*
X0032759Y0080167D01*
X0032759Y0079369D02*
X0373247Y0079369D01*
X0373247Y0078570D02*
X0032759Y0078570D01*
X0032759Y0077772D02*
X0373247Y0077772D01*
X0373247Y0076973D02*
X0032759Y0076973D01*
X0032759Y0076175D02*
X0373247Y0076175D01*
X0373247Y0075376D02*
X0032759Y0075376D01*
X0032759Y0074578D02*
X0373247Y0074578D01*
X0373247Y0073779D02*
X0032759Y0073779D01*
X0032759Y0072981D02*
X0373247Y0072981D01*
X0373247Y0072182D02*
X0032759Y0072182D01*
X0032759Y0071384D02*
X0373247Y0071384D01*
X0373247Y0070585D02*
X0032759Y0070585D01*
X0032759Y0069787D02*
X0372536Y0069787D01*
X0371738Y0068988D02*
X0032759Y0068988D01*
X0032759Y0068190D02*
X0370939Y0068190D01*
X0370141Y0067391D02*
X0032759Y0067391D01*
X0032759Y0061003D02*
X0302729Y0061003D01*
X0302381Y0060205D02*
X0032759Y0060205D01*
X0032759Y0059406D02*
X0302381Y0059406D01*
X0302381Y0058608D02*
X0032759Y0058608D01*
X0028359Y0060205D02*
X0004650Y0060205D01*
X0004650Y0061003D02*
X0028359Y0061003D01*
X0028270Y0055414D02*
X0014866Y0055414D01*
X0014646Y0054615D02*
X0028679Y0054615D01*
X0029478Y0053817D02*
X0014315Y0053817D01*
X0013588Y0053018D02*
X0302381Y0053018D01*
X0302381Y0052220D02*
X0012277Y0052220D01*
X0009550Y0052220D02*
X0004650Y0052220D01*
X0004650Y0053018D02*
X0008238Y0053018D01*
X0007512Y0053817D02*
X0004650Y0053817D01*
X0004650Y0054615D02*
X0007181Y0054615D01*
X0006961Y0055414D02*
X0004650Y0055414D01*
X0004650Y0056212D02*
X0006961Y0056212D01*
X0007081Y0057011D02*
X0004650Y0057011D01*
X0004650Y0057809D02*
X0007412Y0057809D01*
X0007998Y0058608D02*
X0004650Y0058608D01*
X0004650Y0059406D02*
X0008969Y0059406D01*
X0004650Y0051421D02*
X0302381Y0051421D01*
X0302381Y0050623D02*
X0004650Y0050623D01*
X0004650Y0049824D02*
X0302381Y0049824D01*
X0302381Y0049026D02*
X0004650Y0049026D01*
X0004650Y0048227D02*
X0302381Y0048227D01*
X0302381Y0047429D02*
X0004650Y0047429D01*
X0004650Y0046630D02*
X0303104Y0046630D01*
X0328880Y0046630D02*
X0387177Y0046630D01*
X0387177Y0045831D02*
X0004650Y0045831D01*
X0004650Y0045033D02*
X0387177Y0045033D01*
X0387177Y0044234D02*
X0004650Y0044234D01*
X0004650Y0043436D02*
X0387177Y0043436D01*
X0387177Y0042637D02*
X0004650Y0042637D01*
X0004650Y0041839D02*
X0387177Y0041839D01*
X0387177Y0041040D02*
X0004650Y0041040D01*
X0004650Y0040242D02*
X0387177Y0040242D01*
X0387177Y0039443D02*
X0004650Y0039443D01*
X0004650Y0038645D02*
X0387177Y0038645D01*
X0387177Y0037846D02*
X0004650Y0037846D01*
X0004650Y0037048D02*
X0387177Y0037048D01*
X0387177Y0036249D02*
X0004650Y0036249D01*
X0004650Y0035451D02*
X0387177Y0035451D01*
X0387177Y0034652D02*
X0004650Y0034652D01*
X0004650Y0033854D02*
X0387177Y0033854D01*
X0387177Y0033055D02*
X0004650Y0033055D01*
X0004650Y0032257D02*
X0387177Y0032257D01*
X0387177Y0031458D02*
X0004650Y0031458D01*
X0004650Y0030660D02*
X0011996Y0030660D01*
X0013280Y0031191D02*
X0010450Y0030019D01*
X0008284Y0027854D01*
X0007112Y0025024D01*
X0007112Y0021961D01*
X0008284Y0019131D01*
X0010450Y0016965D01*
X0013280Y0015793D01*
X0016342Y0015793D01*
X0019172Y0016965D01*
X0021338Y0019131D01*
X0022510Y0021961D01*
X0022510Y0025024D01*
X0021338Y0027854D01*
X0019172Y0030019D01*
X0016342Y0031191D01*
X0013280Y0031191D01*
X0010292Y0029861D02*
X0004650Y0029861D01*
X0004650Y0029063D02*
X0009493Y0029063D01*
X0008695Y0028264D02*
X0004650Y0028264D01*
X0004650Y0027466D02*
X0008123Y0027466D01*
X0007793Y0026667D02*
X0004650Y0026667D01*
X0004650Y0025869D02*
X0007462Y0025869D01*
X0007131Y0025070D02*
X0004650Y0025070D01*
X0004650Y0024272D02*
X0007112Y0024272D01*
X0007112Y0023473D02*
X0004650Y0023473D01*
X0004650Y0022675D02*
X0007112Y0022675D01*
X0007147Y0021876D02*
X0004650Y0021876D01*
X0004650Y0021078D02*
X0007478Y0021078D01*
X0007808Y0020279D02*
X0004650Y0020279D01*
X0004650Y0019481D02*
X0008139Y0019481D01*
X0008733Y0018682D02*
X0004650Y0018682D01*
X0004650Y0017884D02*
X0009531Y0017884D01*
X0010330Y0017085D02*
X0004650Y0017085D01*
X0004650Y0016287D02*
X0012088Y0016287D01*
X0017534Y0016287D02*
X0374293Y0016287D01*
X0375484Y0015793D02*
X0372654Y0016965D01*
X0370489Y0019131D01*
X0369317Y0021961D01*
X0369317Y0025024D01*
X0370489Y0027854D01*
X0372654Y0030019D01*
X0375484Y0031191D01*
X0378547Y0031191D01*
X0381377Y0030019D01*
X0383543Y0027854D01*
X0384715Y0025024D01*
X0384715Y0021961D01*
X0383543Y0019131D01*
X0381377Y0016965D01*
X0378547Y0015793D01*
X0375484Y0015793D01*
X0372535Y0017085D02*
X0019292Y0017085D01*
X0020091Y0017884D02*
X0371736Y0017884D01*
X0370938Y0018682D02*
X0020889Y0018682D01*
X0021483Y0019481D02*
X0370344Y0019481D01*
X0370013Y0020279D02*
X0021814Y0020279D01*
X0022144Y0021078D02*
X0369682Y0021078D01*
X0369352Y0021876D02*
X0022475Y0021876D01*
X0022510Y0022675D02*
X0369317Y0022675D01*
X0369317Y0023473D02*
X0022510Y0023473D01*
X0022510Y0024272D02*
X0369317Y0024272D01*
X0369336Y0025070D02*
X0022491Y0025070D01*
X0022160Y0025869D02*
X0369667Y0025869D01*
X0369997Y0026667D02*
X0021829Y0026667D01*
X0021499Y0027466D02*
X0370328Y0027466D01*
X0370899Y0028264D02*
X0020927Y0028264D01*
X0020129Y0029063D02*
X0371698Y0029063D01*
X0372496Y0029861D02*
X0019330Y0029861D01*
X0017626Y0030660D02*
X0374201Y0030660D01*
X0379831Y0030660D02*
X0387177Y0030660D01*
X0387177Y0029861D02*
X0381535Y0029861D01*
X0382334Y0029063D02*
X0387177Y0029063D01*
X0387177Y0028264D02*
X0383132Y0028264D01*
X0383703Y0027466D02*
X0387177Y0027466D01*
X0387177Y0026667D02*
X0384034Y0026667D01*
X0384365Y0025869D02*
X0387177Y0025869D01*
X0387177Y0025070D02*
X0384696Y0025070D01*
X0384715Y0024272D02*
X0387177Y0024272D01*
X0387177Y0023473D02*
X0384715Y0023473D01*
X0384715Y0022675D02*
X0387177Y0022675D01*
X0387177Y0021876D02*
X0384680Y0021876D01*
X0384349Y0021078D02*
X0387177Y0021078D01*
X0387177Y0020279D02*
X0384018Y0020279D01*
X0383688Y0019481D02*
X0387177Y0019481D01*
X0387177Y0018682D02*
X0383094Y0018682D01*
X0382295Y0017884D02*
X0387177Y0017884D01*
X0387177Y0017085D02*
X0381497Y0017085D01*
X0379739Y0016287D02*
X0387177Y0016287D01*
X0387177Y0015488D02*
X0004650Y0015488D01*
X0004650Y0014690D02*
X0387177Y0014690D01*
X0387177Y0013891D02*
X0004650Y0013891D01*
X0004650Y0013093D02*
X0387177Y0013093D01*
X0387177Y0012294D02*
X0004650Y0012294D01*
X0224529Y0193556D02*
X0234227Y0193556D01*
X0233859Y0197549D02*
X0224897Y0197549D01*
X0237652Y0203937D02*
X0387177Y0203937D01*
X0387177Y0204735D02*
X0237652Y0204735D01*
X0237652Y0205534D02*
X0328548Y0205534D01*
X0328824Y0205258D02*
X0330720Y0205258D01*
X0332061Y0206599D01*
X0332061Y0207574D01*
X0332435Y0207948D01*
X0332435Y0221056D01*
X0333384Y0221449D01*
X0334650Y0222715D01*
X0335335Y0224369D01*
X0335335Y0226159D01*
X0334650Y0227813D01*
X0333384Y0229079D01*
X0331730Y0229764D01*
X0329940Y0229764D01*
X0328286Y0229079D01*
X0327020Y0227813D01*
X0326335Y0226159D01*
X0326335Y0224369D01*
X0327020Y0222715D01*
X0328286Y0221449D01*
X0329235Y0221056D01*
X0329235Y0209836D01*
X0328824Y0209836D01*
X0327483Y0208496D01*
X0327483Y0206599D01*
X0328824Y0205258D01*
X0327750Y0206332D02*
X0237652Y0206332D01*
X0237652Y0207131D02*
X0327483Y0207131D01*
X0327483Y0207929D02*
X0237652Y0207929D01*
X0237652Y0208728D02*
X0327715Y0208728D01*
X0328513Y0209526D02*
X0237652Y0209526D01*
X0237652Y0210325D02*
X0329235Y0210325D01*
X0329235Y0211123D02*
X0237652Y0211123D01*
X0237652Y0211922D02*
X0329235Y0211922D01*
X0329235Y0212720D02*
X0237652Y0212720D01*
X0237652Y0213519D02*
X0329235Y0213519D01*
X0329235Y0214317D02*
X0237652Y0214317D01*
X0237652Y0215116D02*
X0329235Y0215116D01*
X0329235Y0215914D02*
X0237652Y0215914D01*
X0237652Y0216713D02*
X0329235Y0216713D01*
X0329235Y0217511D02*
X0237652Y0217511D01*
X0237652Y0218310D02*
X0329235Y0218310D01*
X0329235Y0219108D02*
X0237652Y0219108D01*
X0237652Y0219907D02*
X0329235Y0219907D01*
X0329235Y0220705D02*
X0305256Y0220705D01*
X0305194Y0220644D02*
X0305455Y0220904D01*
X0305639Y0221224D01*
X0305735Y0221580D01*
X0305735Y0224864D01*
X0301235Y0224864D01*
X0301235Y0220364D01*
X0304519Y0220364D01*
X0304875Y0220459D01*
X0305194Y0220644D01*
X0305714Y0221504D02*
X0308231Y0221504D01*
X0308286Y0221449D02*
X0309940Y0220764D01*
X0311730Y0220764D01*
X0313384Y0221449D01*
X0314650Y0222715D01*
X0315335Y0224369D01*
X0315335Y0226159D01*
X0314650Y0227813D01*
X0313384Y0229079D01*
X0311730Y0229764D01*
X0309940Y0229764D01*
X0308286Y0229079D01*
X0307020Y0227813D01*
X0306335Y0226159D01*
X0306335Y0224369D01*
X0307020Y0222715D01*
X0308286Y0221449D01*
X0307432Y0222302D02*
X0305735Y0222302D01*
X0305735Y0223101D02*
X0306860Y0223101D01*
X0306529Y0223900D02*
X0305735Y0223900D01*
X0305735Y0224698D02*
X0306335Y0224698D01*
X0306335Y0225497D02*
X0301235Y0225497D01*
X0301235Y0224698D02*
X0300435Y0224698D01*
X0300435Y0224864D02*
X0300435Y0220364D01*
X0297150Y0220364D01*
X0296794Y0220459D01*
X0296475Y0220644D01*
X0296214Y0220904D01*
X0296030Y0221224D01*
X0295935Y0221580D01*
X0295935Y0224864D01*
X0300435Y0224864D01*
X0300435Y0225497D02*
X0237652Y0225497D01*
X0237652Y0226295D02*
X0295935Y0226295D01*
X0295935Y0227094D02*
X0237652Y0227094D01*
X0237652Y0227892D02*
X0295935Y0227892D01*
X0295935Y0228691D02*
X0237652Y0228691D01*
X0237652Y0229489D02*
X0296137Y0229489D01*
X0295935Y0224698D02*
X0237652Y0224698D01*
X0237652Y0223900D02*
X0295935Y0223900D01*
X0295935Y0223101D02*
X0237652Y0223101D01*
X0237652Y0222302D02*
X0295935Y0222302D01*
X0295955Y0221504D02*
X0237652Y0221504D01*
X0237652Y0220705D02*
X0296413Y0220705D01*
X0300435Y0220705D02*
X0301235Y0220705D01*
X0301235Y0221504D02*
X0300435Y0221504D01*
X0300435Y0222302D02*
X0301235Y0222302D01*
X0301235Y0223101D02*
X0300435Y0223101D01*
X0300435Y0223900D02*
X0301235Y0223900D01*
X0305735Y0226295D02*
X0306391Y0226295D01*
X0306722Y0227094D02*
X0305735Y0227094D01*
X0305735Y0227892D02*
X0307099Y0227892D01*
X0307897Y0228691D02*
X0305735Y0228691D01*
X0305533Y0229489D02*
X0309276Y0229489D01*
X0312393Y0229489D02*
X0319276Y0229489D01*
X0319940Y0229764D02*
X0318286Y0229079D01*
X0317020Y0227813D01*
X0316335Y0226159D01*
X0316335Y0224369D01*
X0317020Y0222715D01*
X0318286Y0221449D01*
X0319940Y0220764D01*
X0321730Y0220764D01*
X0323384Y0221449D01*
X0324650Y0222715D01*
X0325335Y0224369D01*
X0325335Y0226159D01*
X0324650Y0227813D01*
X0323384Y0229079D01*
X0321730Y0229764D01*
X0319940Y0229764D01*
X0317897Y0228691D02*
X0313772Y0228691D01*
X0314570Y0227892D02*
X0317099Y0227892D01*
X0316722Y0227094D02*
X0314948Y0227094D01*
X0315278Y0226295D02*
X0316391Y0226295D01*
X0316335Y0225497D02*
X0315335Y0225497D01*
X0315335Y0224698D02*
X0316335Y0224698D01*
X0316529Y0223900D02*
X0315140Y0223900D01*
X0314809Y0223101D02*
X0316860Y0223101D01*
X0317432Y0222302D02*
X0314237Y0222302D01*
X0313439Y0221504D02*
X0318231Y0221504D01*
X0323439Y0221504D02*
X0328231Y0221504D01*
X0327432Y0222302D02*
X0324237Y0222302D01*
X0324809Y0223101D02*
X0326860Y0223101D01*
X0326529Y0223900D02*
X0325140Y0223900D01*
X0325335Y0224698D02*
X0326335Y0224698D01*
X0326335Y0225497D02*
X0325335Y0225497D01*
X0325278Y0226295D02*
X0326391Y0226295D01*
X0326722Y0227094D02*
X0324948Y0227094D01*
X0324570Y0227892D02*
X0327099Y0227892D01*
X0327897Y0228691D02*
X0323772Y0228691D01*
X0322393Y0229489D02*
X0329276Y0229489D01*
X0332393Y0229489D02*
X0339276Y0229489D01*
X0339940Y0229764D02*
X0338286Y0229079D01*
X0337020Y0227813D01*
X0336335Y0226159D01*
X0336335Y0224369D01*
X0337020Y0222715D01*
X0338286Y0221449D01*
X0339940Y0220764D01*
X0341730Y0220764D01*
X0343384Y0221449D01*
X0344650Y0222715D01*
X0345335Y0224369D01*
X0345335Y0226159D01*
X0344650Y0227813D01*
X0343384Y0229079D01*
X0341730Y0229764D01*
X0339940Y0229764D01*
X0337897Y0228691D02*
X0333772Y0228691D01*
X0334570Y0227892D02*
X0337099Y0227892D01*
X0336722Y0227094D02*
X0334948Y0227094D01*
X0335278Y0226295D02*
X0336391Y0226295D01*
X0336335Y0225497D02*
X0335335Y0225497D01*
X0335335Y0224698D02*
X0336335Y0224698D01*
X0336529Y0223900D02*
X0335140Y0223900D01*
X0334809Y0223101D02*
X0336860Y0223101D01*
X0337432Y0222302D02*
X0334237Y0222302D01*
X0333439Y0221504D02*
X0338231Y0221504D01*
X0343439Y0221504D02*
X0348231Y0221504D01*
X0348286Y0221449D02*
X0349940Y0220764D01*
X0351730Y0220764D01*
X0353384Y0221449D01*
X0354650Y0222715D01*
X0355335Y0224369D01*
X0355335Y0226159D01*
X0354650Y0227813D01*
X0353384Y0229079D01*
X0351730Y0229764D01*
X0349940Y0229764D01*
X0348286Y0229079D01*
X0347020Y0227813D01*
X0346335Y0226159D01*
X0346335Y0224369D01*
X0347020Y0222715D01*
X0348286Y0221449D01*
X0347432Y0222302D02*
X0344237Y0222302D01*
X0344809Y0223101D02*
X0346860Y0223101D01*
X0346529Y0223900D02*
X0345140Y0223900D01*
X0345335Y0224698D02*
X0346335Y0224698D01*
X0346335Y0225497D02*
X0345335Y0225497D01*
X0345278Y0226295D02*
X0346391Y0226295D01*
X0346722Y0227094D02*
X0344948Y0227094D01*
X0344570Y0227892D02*
X0347099Y0227892D01*
X0347897Y0228691D02*
X0343772Y0228691D01*
X0342393Y0229489D02*
X0349276Y0229489D01*
X0352393Y0229489D02*
X0387177Y0229489D01*
X0387177Y0228691D02*
X0353772Y0228691D01*
X0354570Y0227892D02*
X0387177Y0227892D01*
X0387177Y0227094D02*
X0354948Y0227094D01*
X0355278Y0226295D02*
X0387177Y0226295D01*
X0387177Y0225497D02*
X0379940Y0225497D01*
X0378547Y0226073D02*
X0381377Y0224901D01*
X0383543Y0222735D01*
X0384715Y0219906D01*
X0384715Y0216843D01*
X0383543Y0214013D01*
X0381377Y0211847D01*
X0378547Y0210675D01*
X0375484Y0210675D01*
X0372654Y0211847D01*
X0370489Y0214013D01*
X0369317Y0216843D01*
X0369317Y0219906D01*
X0370489Y0222735D01*
X0372654Y0224901D01*
X0375484Y0226073D01*
X0378547Y0226073D01*
X0381580Y0224698D02*
X0387177Y0224698D01*
X0387177Y0223900D02*
X0382379Y0223900D01*
X0383177Y0223101D02*
X0387177Y0223101D01*
X0387177Y0222302D02*
X0383722Y0222302D01*
X0384053Y0221504D02*
X0387177Y0221504D01*
X0387177Y0220705D02*
X0384384Y0220705D01*
X0384714Y0219907D02*
X0387177Y0219907D01*
X0387177Y0219108D02*
X0384715Y0219108D01*
X0384715Y0218310D02*
X0387177Y0218310D01*
X0387177Y0217511D02*
X0384715Y0217511D01*
X0384661Y0216713D02*
X0387177Y0216713D01*
X0387177Y0215914D02*
X0384330Y0215914D01*
X0384000Y0215116D02*
X0387177Y0215116D01*
X0387177Y0214317D02*
X0383669Y0214317D01*
X0383049Y0213519D02*
X0387177Y0213519D01*
X0387177Y0212720D02*
X0382250Y0212720D01*
X0381452Y0211922D02*
X0387177Y0211922D01*
X0387177Y0211123D02*
X0379630Y0211123D01*
X0374402Y0211123D02*
X0332435Y0211123D01*
X0332435Y0210325D02*
X0387177Y0210325D01*
X0387177Y0209526D02*
X0332435Y0209526D01*
X0332435Y0208728D02*
X0387177Y0208728D01*
X0387177Y0207929D02*
X0332416Y0207929D01*
X0332061Y0207131D02*
X0387177Y0207131D01*
X0387177Y0206332D02*
X0331794Y0206332D01*
X0330995Y0205534D02*
X0387177Y0205534D01*
X0372580Y0211922D02*
X0332435Y0211922D01*
X0332435Y0212720D02*
X0371781Y0212720D01*
X0370983Y0213519D02*
X0332435Y0213519D01*
X0332435Y0214317D02*
X0370363Y0214317D01*
X0370032Y0215116D02*
X0332435Y0215116D01*
X0332435Y0215914D02*
X0369701Y0215914D01*
X0369370Y0216713D02*
X0332435Y0216713D01*
X0332435Y0217511D02*
X0369317Y0217511D01*
X0369317Y0218310D02*
X0332435Y0218310D01*
X0332435Y0219108D02*
X0369317Y0219108D01*
X0369317Y0219907D02*
X0332435Y0219907D01*
X0332435Y0220705D02*
X0369648Y0220705D01*
X0369979Y0221504D02*
X0353439Y0221504D01*
X0354237Y0222302D02*
X0370309Y0222302D01*
X0370854Y0223101D02*
X0354809Y0223101D01*
X0355140Y0223900D02*
X0371653Y0223900D01*
X0372451Y0224698D02*
X0355335Y0224698D01*
X0355335Y0225497D02*
X0374092Y0225497D01*
X0387177Y0053018D02*
X0329603Y0053018D01*
X0329603Y0052220D02*
X0387177Y0052220D01*
X0387177Y0051421D02*
X0329603Y0051421D01*
X0329603Y0050623D02*
X0387177Y0050623D01*
X0387177Y0049824D02*
X0329603Y0049824D01*
X0329603Y0049026D02*
X0387177Y0049026D01*
X0387177Y0048227D02*
X0329603Y0048227D01*
X0329603Y0047429D02*
X0387177Y0047429D01*
D18*
X0205756Y0166209D02*
X0203197Y0168768D01*
X0199299Y0168768D01*
X0196248Y0165815D02*
X0196248Y0161937D01*
X0197882Y0160303D01*
X0190244Y0165815D02*
X0188039Y0163610D01*
X0188039Y0160303D01*
X0187291Y0168768D02*
X0182724Y0168768D01*
X0182134Y0168177D01*
X0183413Y0174772D02*
X0182134Y0176051D01*
X0183413Y0174772D02*
X0187291Y0174772D01*
X0190244Y0171819D02*
X0196248Y0171819D01*
X0199299Y0174772D02*
X0203098Y0174772D01*
X0205756Y0172114D01*
X0196248Y0177626D02*
X0196248Y0182291D01*
X0197882Y0183925D01*
X0190008Y0183925D02*
X0190008Y0178059D01*
X0190244Y0177823D01*
D19*
X0351425Y0166209D02*
X0375047Y0142587D01*
X0375047Y0069752D01*
X0361268Y0055973D01*
X0323866Y0055973D01*
X0327803Y0055455D02*
X0304181Y0055455D01*
X0304181Y0053857D02*
X0327803Y0053857D01*
X0327803Y0052258D02*
X0304181Y0052258D01*
X0304181Y0050660D02*
X0327803Y0050660D01*
X0327803Y0049061D02*
X0304181Y0049061D01*
X0304181Y0048099D02*
X0304181Y0059910D01*
X0327803Y0059910D01*
X0327803Y0048099D01*
X0304181Y0048099D01*
X0304181Y0057054D02*
X0327803Y0057054D01*
X0327803Y0058652D02*
X0304181Y0058652D01*
D20*
X0312055Y0055973D02*
X0030559Y0055973D01*
X0030559Y0191799D01*
X0048276Y0209516D01*
X0142764Y0209516D01*
D21*
X0329772Y0207547D02*
X0330835Y0208610D01*
X0330835Y0225264D01*
D22*
X0235283Y0195736D02*
X0223472Y0195736D01*
X0235283Y0150461D02*
X0234293Y0149471D01*
X0203787Y0149471D01*
X0195913Y0144555D02*
X0233315Y0144555D01*
X0235283Y0142587D01*
X0232610Y0141323D02*
X0235283Y0138650D01*
X0232610Y0141323D02*
X0224177Y0141323D01*
X0234726Y0147082D02*
X0235283Y0146524D01*
X0234726Y0147082D02*
X0192534Y0147082D01*
X0016780Y0160067D02*
X0016780Y0111799D01*
X0010913Y0105933D01*
X0010913Y0115933D02*
X0014966Y0119986D01*
X0014966Y0141880D01*
X0010913Y0145933D01*
X0006937Y0144178D02*
X0006937Y0139910D01*
X0010913Y0135933D01*
X0006937Y0144178D02*
X0006861Y0144255D01*
X0006861Y0157612D01*
X0006906Y0157657D01*
X0006906Y0164209D01*
X0006861Y0164255D01*
X0006861Y0171880D01*
X0010913Y0175933D01*
X0010913Y0165933D02*
X0016780Y0160067D01*
M02*
