G75*
%MOIN*%
%OFA0B0*%
%FSLAX25Y25*%
%IPPOS*%
%LPD*%
%AMOC8*
5,1,8,0,0,1.08239X$1,22.5*
%
%ADD10C,0.00000*%
%ADD11C,0.00500*%
D10*
X0003000Y0010697D02*
X0003000Y0231169D01*
X0388827Y0231169D01*
X0388827Y0010697D01*
X0003000Y0010697D01*
X0008512Y0023492D02*
X0008514Y0023650D01*
X0008520Y0023808D01*
X0008530Y0023966D01*
X0008544Y0024124D01*
X0008562Y0024281D01*
X0008583Y0024438D01*
X0008609Y0024594D01*
X0008639Y0024750D01*
X0008672Y0024905D01*
X0008710Y0025058D01*
X0008751Y0025211D01*
X0008796Y0025363D01*
X0008845Y0025514D01*
X0008898Y0025663D01*
X0008954Y0025811D01*
X0009014Y0025957D01*
X0009078Y0026102D01*
X0009146Y0026245D01*
X0009217Y0026387D01*
X0009291Y0026527D01*
X0009369Y0026664D01*
X0009451Y0026800D01*
X0009535Y0026934D01*
X0009624Y0027065D01*
X0009715Y0027194D01*
X0009810Y0027321D01*
X0009907Y0027446D01*
X0010008Y0027568D01*
X0010112Y0027687D01*
X0010219Y0027804D01*
X0010329Y0027918D01*
X0010442Y0028029D01*
X0010557Y0028138D01*
X0010675Y0028243D01*
X0010796Y0028345D01*
X0010919Y0028445D01*
X0011045Y0028541D01*
X0011173Y0028634D01*
X0011303Y0028724D01*
X0011436Y0028810D01*
X0011571Y0028894D01*
X0011707Y0028973D01*
X0011846Y0029050D01*
X0011987Y0029122D01*
X0012129Y0029192D01*
X0012273Y0029257D01*
X0012419Y0029319D01*
X0012566Y0029377D01*
X0012715Y0029432D01*
X0012865Y0029483D01*
X0013016Y0029530D01*
X0013168Y0029573D01*
X0013321Y0029612D01*
X0013476Y0029648D01*
X0013631Y0029679D01*
X0013787Y0029707D01*
X0013943Y0029731D01*
X0014100Y0029751D01*
X0014258Y0029767D01*
X0014415Y0029779D01*
X0014574Y0029787D01*
X0014732Y0029791D01*
X0014890Y0029791D01*
X0015048Y0029787D01*
X0015207Y0029779D01*
X0015364Y0029767D01*
X0015522Y0029751D01*
X0015679Y0029731D01*
X0015835Y0029707D01*
X0015991Y0029679D01*
X0016146Y0029648D01*
X0016301Y0029612D01*
X0016454Y0029573D01*
X0016606Y0029530D01*
X0016757Y0029483D01*
X0016907Y0029432D01*
X0017056Y0029377D01*
X0017203Y0029319D01*
X0017349Y0029257D01*
X0017493Y0029192D01*
X0017635Y0029122D01*
X0017776Y0029050D01*
X0017915Y0028973D01*
X0018051Y0028894D01*
X0018186Y0028810D01*
X0018319Y0028724D01*
X0018449Y0028634D01*
X0018577Y0028541D01*
X0018703Y0028445D01*
X0018826Y0028345D01*
X0018947Y0028243D01*
X0019065Y0028138D01*
X0019180Y0028029D01*
X0019293Y0027918D01*
X0019403Y0027804D01*
X0019510Y0027687D01*
X0019614Y0027568D01*
X0019715Y0027446D01*
X0019812Y0027321D01*
X0019907Y0027194D01*
X0019998Y0027065D01*
X0020087Y0026934D01*
X0020171Y0026800D01*
X0020253Y0026664D01*
X0020331Y0026527D01*
X0020405Y0026387D01*
X0020476Y0026245D01*
X0020544Y0026102D01*
X0020608Y0025957D01*
X0020668Y0025811D01*
X0020724Y0025663D01*
X0020777Y0025514D01*
X0020826Y0025363D01*
X0020871Y0025211D01*
X0020912Y0025058D01*
X0020950Y0024905D01*
X0020983Y0024750D01*
X0021013Y0024594D01*
X0021039Y0024438D01*
X0021060Y0024281D01*
X0021078Y0024124D01*
X0021092Y0023966D01*
X0021102Y0023808D01*
X0021108Y0023650D01*
X0021110Y0023492D01*
X0021108Y0023334D01*
X0021102Y0023176D01*
X0021092Y0023018D01*
X0021078Y0022860D01*
X0021060Y0022703D01*
X0021039Y0022546D01*
X0021013Y0022390D01*
X0020983Y0022234D01*
X0020950Y0022079D01*
X0020912Y0021926D01*
X0020871Y0021773D01*
X0020826Y0021621D01*
X0020777Y0021470D01*
X0020724Y0021321D01*
X0020668Y0021173D01*
X0020608Y0021027D01*
X0020544Y0020882D01*
X0020476Y0020739D01*
X0020405Y0020597D01*
X0020331Y0020457D01*
X0020253Y0020320D01*
X0020171Y0020184D01*
X0020087Y0020050D01*
X0019998Y0019919D01*
X0019907Y0019790D01*
X0019812Y0019663D01*
X0019715Y0019538D01*
X0019614Y0019416D01*
X0019510Y0019297D01*
X0019403Y0019180D01*
X0019293Y0019066D01*
X0019180Y0018955D01*
X0019065Y0018846D01*
X0018947Y0018741D01*
X0018826Y0018639D01*
X0018703Y0018539D01*
X0018577Y0018443D01*
X0018449Y0018350D01*
X0018319Y0018260D01*
X0018186Y0018174D01*
X0018051Y0018090D01*
X0017915Y0018011D01*
X0017776Y0017934D01*
X0017635Y0017862D01*
X0017493Y0017792D01*
X0017349Y0017727D01*
X0017203Y0017665D01*
X0017056Y0017607D01*
X0016907Y0017552D01*
X0016757Y0017501D01*
X0016606Y0017454D01*
X0016454Y0017411D01*
X0016301Y0017372D01*
X0016146Y0017336D01*
X0015991Y0017305D01*
X0015835Y0017277D01*
X0015679Y0017253D01*
X0015522Y0017233D01*
X0015364Y0017217D01*
X0015207Y0017205D01*
X0015048Y0017197D01*
X0014890Y0017193D01*
X0014732Y0017193D01*
X0014574Y0017197D01*
X0014415Y0017205D01*
X0014258Y0017217D01*
X0014100Y0017233D01*
X0013943Y0017253D01*
X0013787Y0017277D01*
X0013631Y0017305D01*
X0013476Y0017336D01*
X0013321Y0017372D01*
X0013168Y0017411D01*
X0013016Y0017454D01*
X0012865Y0017501D01*
X0012715Y0017552D01*
X0012566Y0017607D01*
X0012419Y0017665D01*
X0012273Y0017727D01*
X0012129Y0017792D01*
X0011987Y0017862D01*
X0011846Y0017934D01*
X0011707Y0018011D01*
X0011571Y0018090D01*
X0011436Y0018174D01*
X0011303Y0018260D01*
X0011173Y0018350D01*
X0011045Y0018443D01*
X0010919Y0018539D01*
X0010796Y0018639D01*
X0010675Y0018741D01*
X0010557Y0018846D01*
X0010442Y0018955D01*
X0010329Y0019066D01*
X0010219Y0019180D01*
X0010112Y0019297D01*
X0010008Y0019416D01*
X0009907Y0019538D01*
X0009810Y0019663D01*
X0009715Y0019790D01*
X0009624Y0019919D01*
X0009535Y0020050D01*
X0009451Y0020184D01*
X0009369Y0020320D01*
X0009291Y0020457D01*
X0009217Y0020597D01*
X0009146Y0020739D01*
X0009078Y0020882D01*
X0009014Y0021027D01*
X0008954Y0021173D01*
X0008898Y0021321D01*
X0008845Y0021470D01*
X0008796Y0021621D01*
X0008751Y0021773D01*
X0008710Y0021926D01*
X0008672Y0022079D01*
X0008639Y0022234D01*
X0008609Y0022390D01*
X0008583Y0022546D01*
X0008562Y0022703D01*
X0008544Y0022860D01*
X0008530Y0023018D01*
X0008520Y0023176D01*
X0008514Y0023334D01*
X0008512Y0023492D01*
X0008512Y0218374D02*
X0008514Y0218532D01*
X0008520Y0218690D01*
X0008530Y0218848D01*
X0008544Y0219006D01*
X0008562Y0219163D01*
X0008583Y0219320D01*
X0008609Y0219476D01*
X0008639Y0219632D01*
X0008672Y0219787D01*
X0008710Y0219940D01*
X0008751Y0220093D01*
X0008796Y0220245D01*
X0008845Y0220396D01*
X0008898Y0220545D01*
X0008954Y0220693D01*
X0009014Y0220839D01*
X0009078Y0220984D01*
X0009146Y0221127D01*
X0009217Y0221269D01*
X0009291Y0221409D01*
X0009369Y0221546D01*
X0009451Y0221682D01*
X0009535Y0221816D01*
X0009624Y0221947D01*
X0009715Y0222076D01*
X0009810Y0222203D01*
X0009907Y0222328D01*
X0010008Y0222450D01*
X0010112Y0222569D01*
X0010219Y0222686D01*
X0010329Y0222800D01*
X0010442Y0222911D01*
X0010557Y0223020D01*
X0010675Y0223125D01*
X0010796Y0223227D01*
X0010919Y0223327D01*
X0011045Y0223423D01*
X0011173Y0223516D01*
X0011303Y0223606D01*
X0011436Y0223692D01*
X0011571Y0223776D01*
X0011707Y0223855D01*
X0011846Y0223932D01*
X0011987Y0224004D01*
X0012129Y0224074D01*
X0012273Y0224139D01*
X0012419Y0224201D01*
X0012566Y0224259D01*
X0012715Y0224314D01*
X0012865Y0224365D01*
X0013016Y0224412D01*
X0013168Y0224455D01*
X0013321Y0224494D01*
X0013476Y0224530D01*
X0013631Y0224561D01*
X0013787Y0224589D01*
X0013943Y0224613D01*
X0014100Y0224633D01*
X0014258Y0224649D01*
X0014415Y0224661D01*
X0014574Y0224669D01*
X0014732Y0224673D01*
X0014890Y0224673D01*
X0015048Y0224669D01*
X0015207Y0224661D01*
X0015364Y0224649D01*
X0015522Y0224633D01*
X0015679Y0224613D01*
X0015835Y0224589D01*
X0015991Y0224561D01*
X0016146Y0224530D01*
X0016301Y0224494D01*
X0016454Y0224455D01*
X0016606Y0224412D01*
X0016757Y0224365D01*
X0016907Y0224314D01*
X0017056Y0224259D01*
X0017203Y0224201D01*
X0017349Y0224139D01*
X0017493Y0224074D01*
X0017635Y0224004D01*
X0017776Y0223932D01*
X0017915Y0223855D01*
X0018051Y0223776D01*
X0018186Y0223692D01*
X0018319Y0223606D01*
X0018449Y0223516D01*
X0018577Y0223423D01*
X0018703Y0223327D01*
X0018826Y0223227D01*
X0018947Y0223125D01*
X0019065Y0223020D01*
X0019180Y0222911D01*
X0019293Y0222800D01*
X0019403Y0222686D01*
X0019510Y0222569D01*
X0019614Y0222450D01*
X0019715Y0222328D01*
X0019812Y0222203D01*
X0019907Y0222076D01*
X0019998Y0221947D01*
X0020087Y0221816D01*
X0020171Y0221682D01*
X0020253Y0221546D01*
X0020331Y0221409D01*
X0020405Y0221269D01*
X0020476Y0221127D01*
X0020544Y0220984D01*
X0020608Y0220839D01*
X0020668Y0220693D01*
X0020724Y0220545D01*
X0020777Y0220396D01*
X0020826Y0220245D01*
X0020871Y0220093D01*
X0020912Y0219940D01*
X0020950Y0219787D01*
X0020983Y0219632D01*
X0021013Y0219476D01*
X0021039Y0219320D01*
X0021060Y0219163D01*
X0021078Y0219006D01*
X0021092Y0218848D01*
X0021102Y0218690D01*
X0021108Y0218532D01*
X0021110Y0218374D01*
X0021108Y0218216D01*
X0021102Y0218058D01*
X0021092Y0217900D01*
X0021078Y0217742D01*
X0021060Y0217585D01*
X0021039Y0217428D01*
X0021013Y0217272D01*
X0020983Y0217116D01*
X0020950Y0216961D01*
X0020912Y0216808D01*
X0020871Y0216655D01*
X0020826Y0216503D01*
X0020777Y0216352D01*
X0020724Y0216203D01*
X0020668Y0216055D01*
X0020608Y0215909D01*
X0020544Y0215764D01*
X0020476Y0215621D01*
X0020405Y0215479D01*
X0020331Y0215339D01*
X0020253Y0215202D01*
X0020171Y0215066D01*
X0020087Y0214932D01*
X0019998Y0214801D01*
X0019907Y0214672D01*
X0019812Y0214545D01*
X0019715Y0214420D01*
X0019614Y0214298D01*
X0019510Y0214179D01*
X0019403Y0214062D01*
X0019293Y0213948D01*
X0019180Y0213837D01*
X0019065Y0213728D01*
X0018947Y0213623D01*
X0018826Y0213521D01*
X0018703Y0213421D01*
X0018577Y0213325D01*
X0018449Y0213232D01*
X0018319Y0213142D01*
X0018186Y0213056D01*
X0018051Y0212972D01*
X0017915Y0212893D01*
X0017776Y0212816D01*
X0017635Y0212744D01*
X0017493Y0212674D01*
X0017349Y0212609D01*
X0017203Y0212547D01*
X0017056Y0212489D01*
X0016907Y0212434D01*
X0016757Y0212383D01*
X0016606Y0212336D01*
X0016454Y0212293D01*
X0016301Y0212254D01*
X0016146Y0212218D01*
X0015991Y0212187D01*
X0015835Y0212159D01*
X0015679Y0212135D01*
X0015522Y0212115D01*
X0015364Y0212099D01*
X0015207Y0212087D01*
X0015048Y0212079D01*
X0014890Y0212075D01*
X0014732Y0212075D01*
X0014574Y0212079D01*
X0014415Y0212087D01*
X0014258Y0212099D01*
X0014100Y0212115D01*
X0013943Y0212135D01*
X0013787Y0212159D01*
X0013631Y0212187D01*
X0013476Y0212218D01*
X0013321Y0212254D01*
X0013168Y0212293D01*
X0013016Y0212336D01*
X0012865Y0212383D01*
X0012715Y0212434D01*
X0012566Y0212489D01*
X0012419Y0212547D01*
X0012273Y0212609D01*
X0012129Y0212674D01*
X0011987Y0212744D01*
X0011846Y0212816D01*
X0011707Y0212893D01*
X0011571Y0212972D01*
X0011436Y0213056D01*
X0011303Y0213142D01*
X0011173Y0213232D01*
X0011045Y0213325D01*
X0010919Y0213421D01*
X0010796Y0213521D01*
X0010675Y0213623D01*
X0010557Y0213728D01*
X0010442Y0213837D01*
X0010329Y0213948D01*
X0010219Y0214062D01*
X0010112Y0214179D01*
X0010008Y0214298D01*
X0009907Y0214420D01*
X0009810Y0214545D01*
X0009715Y0214672D01*
X0009624Y0214801D01*
X0009535Y0214932D01*
X0009451Y0215066D01*
X0009369Y0215202D01*
X0009291Y0215339D01*
X0009217Y0215479D01*
X0009146Y0215621D01*
X0009078Y0215764D01*
X0009014Y0215909D01*
X0008954Y0216055D01*
X0008898Y0216203D01*
X0008845Y0216352D01*
X0008796Y0216503D01*
X0008751Y0216655D01*
X0008710Y0216808D01*
X0008672Y0216961D01*
X0008639Y0217116D01*
X0008609Y0217272D01*
X0008583Y0217428D01*
X0008562Y0217585D01*
X0008544Y0217742D01*
X0008530Y0217900D01*
X0008520Y0218058D01*
X0008514Y0218216D01*
X0008512Y0218374D01*
X0370717Y0218374D02*
X0370719Y0218532D01*
X0370725Y0218690D01*
X0370735Y0218848D01*
X0370749Y0219006D01*
X0370767Y0219163D01*
X0370788Y0219320D01*
X0370814Y0219476D01*
X0370844Y0219632D01*
X0370877Y0219787D01*
X0370915Y0219940D01*
X0370956Y0220093D01*
X0371001Y0220245D01*
X0371050Y0220396D01*
X0371103Y0220545D01*
X0371159Y0220693D01*
X0371219Y0220839D01*
X0371283Y0220984D01*
X0371351Y0221127D01*
X0371422Y0221269D01*
X0371496Y0221409D01*
X0371574Y0221546D01*
X0371656Y0221682D01*
X0371740Y0221816D01*
X0371829Y0221947D01*
X0371920Y0222076D01*
X0372015Y0222203D01*
X0372112Y0222328D01*
X0372213Y0222450D01*
X0372317Y0222569D01*
X0372424Y0222686D01*
X0372534Y0222800D01*
X0372647Y0222911D01*
X0372762Y0223020D01*
X0372880Y0223125D01*
X0373001Y0223227D01*
X0373124Y0223327D01*
X0373250Y0223423D01*
X0373378Y0223516D01*
X0373508Y0223606D01*
X0373641Y0223692D01*
X0373776Y0223776D01*
X0373912Y0223855D01*
X0374051Y0223932D01*
X0374192Y0224004D01*
X0374334Y0224074D01*
X0374478Y0224139D01*
X0374624Y0224201D01*
X0374771Y0224259D01*
X0374920Y0224314D01*
X0375070Y0224365D01*
X0375221Y0224412D01*
X0375373Y0224455D01*
X0375526Y0224494D01*
X0375681Y0224530D01*
X0375836Y0224561D01*
X0375992Y0224589D01*
X0376148Y0224613D01*
X0376305Y0224633D01*
X0376463Y0224649D01*
X0376620Y0224661D01*
X0376779Y0224669D01*
X0376937Y0224673D01*
X0377095Y0224673D01*
X0377253Y0224669D01*
X0377412Y0224661D01*
X0377569Y0224649D01*
X0377727Y0224633D01*
X0377884Y0224613D01*
X0378040Y0224589D01*
X0378196Y0224561D01*
X0378351Y0224530D01*
X0378506Y0224494D01*
X0378659Y0224455D01*
X0378811Y0224412D01*
X0378962Y0224365D01*
X0379112Y0224314D01*
X0379261Y0224259D01*
X0379408Y0224201D01*
X0379554Y0224139D01*
X0379698Y0224074D01*
X0379840Y0224004D01*
X0379981Y0223932D01*
X0380120Y0223855D01*
X0380256Y0223776D01*
X0380391Y0223692D01*
X0380524Y0223606D01*
X0380654Y0223516D01*
X0380782Y0223423D01*
X0380908Y0223327D01*
X0381031Y0223227D01*
X0381152Y0223125D01*
X0381270Y0223020D01*
X0381385Y0222911D01*
X0381498Y0222800D01*
X0381608Y0222686D01*
X0381715Y0222569D01*
X0381819Y0222450D01*
X0381920Y0222328D01*
X0382017Y0222203D01*
X0382112Y0222076D01*
X0382203Y0221947D01*
X0382292Y0221816D01*
X0382376Y0221682D01*
X0382458Y0221546D01*
X0382536Y0221409D01*
X0382610Y0221269D01*
X0382681Y0221127D01*
X0382749Y0220984D01*
X0382813Y0220839D01*
X0382873Y0220693D01*
X0382929Y0220545D01*
X0382982Y0220396D01*
X0383031Y0220245D01*
X0383076Y0220093D01*
X0383117Y0219940D01*
X0383155Y0219787D01*
X0383188Y0219632D01*
X0383218Y0219476D01*
X0383244Y0219320D01*
X0383265Y0219163D01*
X0383283Y0219006D01*
X0383297Y0218848D01*
X0383307Y0218690D01*
X0383313Y0218532D01*
X0383315Y0218374D01*
X0383313Y0218216D01*
X0383307Y0218058D01*
X0383297Y0217900D01*
X0383283Y0217742D01*
X0383265Y0217585D01*
X0383244Y0217428D01*
X0383218Y0217272D01*
X0383188Y0217116D01*
X0383155Y0216961D01*
X0383117Y0216808D01*
X0383076Y0216655D01*
X0383031Y0216503D01*
X0382982Y0216352D01*
X0382929Y0216203D01*
X0382873Y0216055D01*
X0382813Y0215909D01*
X0382749Y0215764D01*
X0382681Y0215621D01*
X0382610Y0215479D01*
X0382536Y0215339D01*
X0382458Y0215202D01*
X0382376Y0215066D01*
X0382292Y0214932D01*
X0382203Y0214801D01*
X0382112Y0214672D01*
X0382017Y0214545D01*
X0381920Y0214420D01*
X0381819Y0214298D01*
X0381715Y0214179D01*
X0381608Y0214062D01*
X0381498Y0213948D01*
X0381385Y0213837D01*
X0381270Y0213728D01*
X0381152Y0213623D01*
X0381031Y0213521D01*
X0380908Y0213421D01*
X0380782Y0213325D01*
X0380654Y0213232D01*
X0380524Y0213142D01*
X0380391Y0213056D01*
X0380256Y0212972D01*
X0380120Y0212893D01*
X0379981Y0212816D01*
X0379840Y0212744D01*
X0379698Y0212674D01*
X0379554Y0212609D01*
X0379408Y0212547D01*
X0379261Y0212489D01*
X0379112Y0212434D01*
X0378962Y0212383D01*
X0378811Y0212336D01*
X0378659Y0212293D01*
X0378506Y0212254D01*
X0378351Y0212218D01*
X0378196Y0212187D01*
X0378040Y0212159D01*
X0377884Y0212135D01*
X0377727Y0212115D01*
X0377569Y0212099D01*
X0377412Y0212087D01*
X0377253Y0212079D01*
X0377095Y0212075D01*
X0376937Y0212075D01*
X0376779Y0212079D01*
X0376620Y0212087D01*
X0376463Y0212099D01*
X0376305Y0212115D01*
X0376148Y0212135D01*
X0375992Y0212159D01*
X0375836Y0212187D01*
X0375681Y0212218D01*
X0375526Y0212254D01*
X0375373Y0212293D01*
X0375221Y0212336D01*
X0375070Y0212383D01*
X0374920Y0212434D01*
X0374771Y0212489D01*
X0374624Y0212547D01*
X0374478Y0212609D01*
X0374334Y0212674D01*
X0374192Y0212744D01*
X0374051Y0212816D01*
X0373912Y0212893D01*
X0373776Y0212972D01*
X0373641Y0213056D01*
X0373508Y0213142D01*
X0373378Y0213232D01*
X0373250Y0213325D01*
X0373124Y0213421D01*
X0373001Y0213521D01*
X0372880Y0213623D01*
X0372762Y0213728D01*
X0372647Y0213837D01*
X0372534Y0213948D01*
X0372424Y0214062D01*
X0372317Y0214179D01*
X0372213Y0214298D01*
X0372112Y0214420D01*
X0372015Y0214545D01*
X0371920Y0214672D01*
X0371829Y0214801D01*
X0371740Y0214932D01*
X0371656Y0215066D01*
X0371574Y0215202D01*
X0371496Y0215339D01*
X0371422Y0215479D01*
X0371351Y0215621D01*
X0371283Y0215764D01*
X0371219Y0215909D01*
X0371159Y0216055D01*
X0371103Y0216203D01*
X0371050Y0216352D01*
X0371001Y0216503D01*
X0370956Y0216655D01*
X0370915Y0216808D01*
X0370877Y0216961D01*
X0370844Y0217116D01*
X0370814Y0217272D01*
X0370788Y0217428D01*
X0370767Y0217585D01*
X0370749Y0217742D01*
X0370735Y0217900D01*
X0370725Y0218058D01*
X0370719Y0218216D01*
X0370717Y0218374D01*
X0370717Y0023492D02*
X0370719Y0023650D01*
X0370725Y0023808D01*
X0370735Y0023966D01*
X0370749Y0024124D01*
X0370767Y0024281D01*
X0370788Y0024438D01*
X0370814Y0024594D01*
X0370844Y0024750D01*
X0370877Y0024905D01*
X0370915Y0025058D01*
X0370956Y0025211D01*
X0371001Y0025363D01*
X0371050Y0025514D01*
X0371103Y0025663D01*
X0371159Y0025811D01*
X0371219Y0025957D01*
X0371283Y0026102D01*
X0371351Y0026245D01*
X0371422Y0026387D01*
X0371496Y0026527D01*
X0371574Y0026664D01*
X0371656Y0026800D01*
X0371740Y0026934D01*
X0371829Y0027065D01*
X0371920Y0027194D01*
X0372015Y0027321D01*
X0372112Y0027446D01*
X0372213Y0027568D01*
X0372317Y0027687D01*
X0372424Y0027804D01*
X0372534Y0027918D01*
X0372647Y0028029D01*
X0372762Y0028138D01*
X0372880Y0028243D01*
X0373001Y0028345D01*
X0373124Y0028445D01*
X0373250Y0028541D01*
X0373378Y0028634D01*
X0373508Y0028724D01*
X0373641Y0028810D01*
X0373776Y0028894D01*
X0373912Y0028973D01*
X0374051Y0029050D01*
X0374192Y0029122D01*
X0374334Y0029192D01*
X0374478Y0029257D01*
X0374624Y0029319D01*
X0374771Y0029377D01*
X0374920Y0029432D01*
X0375070Y0029483D01*
X0375221Y0029530D01*
X0375373Y0029573D01*
X0375526Y0029612D01*
X0375681Y0029648D01*
X0375836Y0029679D01*
X0375992Y0029707D01*
X0376148Y0029731D01*
X0376305Y0029751D01*
X0376463Y0029767D01*
X0376620Y0029779D01*
X0376779Y0029787D01*
X0376937Y0029791D01*
X0377095Y0029791D01*
X0377253Y0029787D01*
X0377412Y0029779D01*
X0377569Y0029767D01*
X0377727Y0029751D01*
X0377884Y0029731D01*
X0378040Y0029707D01*
X0378196Y0029679D01*
X0378351Y0029648D01*
X0378506Y0029612D01*
X0378659Y0029573D01*
X0378811Y0029530D01*
X0378962Y0029483D01*
X0379112Y0029432D01*
X0379261Y0029377D01*
X0379408Y0029319D01*
X0379554Y0029257D01*
X0379698Y0029192D01*
X0379840Y0029122D01*
X0379981Y0029050D01*
X0380120Y0028973D01*
X0380256Y0028894D01*
X0380391Y0028810D01*
X0380524Y0028724D01*
X0380654Y0028634D01*
X0380782Y0028541D01*
X0380908Y0028445D01*
X0381031Y0028345D01*
X0381152Y0028243D01*
X0381270Y0028138D01*
X0381385Y0028029D01*
X0381498Y0027918D01*
X0381608Y0027804D01*
X0381715Y0027687D01*
X0381819Y0027568D01*
X0381920Y0027446D01*
X0382017Y0027321D01*
X0382112Y0027194D01*
X0382203Y0027065D01*
X0382292Y0026934D01*
X0382376Y0026800D01*
X0382458Y0026664D01*
X0382536Y0026527D01*
X0382610Y0026387D01*
X0382681Y0026245D01*
X0382749Y0026102D01*
X0382813Y0025957D01*
X0382873Y0025811D01*
X0382929Y0025663D01*
X0382982Y0025514D01*
X0383031Y0025363D01*
X0383076Y0025211D01*
X0383117Y0025058D01*
X0383155Y0024905D01*
X0383188Y0024750D01*
X0383218Y0024594D01*
X0383244Y0024438D01*
X0383265Y0024281D01*
X0383283Y0024124D01*
X0383297Y0023966D01*
X0383307Y0023808D01*
X0383313Y0023650D01*
X0383315Y0023492D01*
X0383313Y0023334D01*
X0383307Y0023176D01*
X0383297Y0023018D01*
X0383283Y0022860D01*
X0383265Y0022703D01*
X0383244Y0022546D01*
X0383218Y0022390D01*
X0383188Y0022234D01*
X0383155Y0022079D01*
X0383117Y0021926D01*
X0383076Y0021773D01*
X0383031Y0021621D01*
X0382982Y0021470D01*
X0382929Y0021321D01*
X0382873Y0021173D01*
X0382813Y0021027D01*
X0382749Y0020882D01*
X0382681Y0020739D01*
X0382610Y0020597D01*
X0382536Y0020457D01*
X0382458Y0020320D01*
X0382376Y0020184D01*
X0382292Y0020050D01*
X0382203Y0019919D01*
X0382112Y0019790D01*
X0382017Y0019663D01*
X0381920Y0019538D01*
X0381819Y0019416D01*
X0381715Y0019297D01*
X0381608Y0019180D01*
X0381498Y0019066D01*
X0381385Y0018955D01*
X0381270Y0018846D01*
X0381152Y0018741D01*
X0381031Y0018639D01*
X0380908Y0018539D01*
X0380782Y0018443D01*
X0380654Y0018350D01*
X0380524Y0018260D01*
X0380391Y0018174D01*
X0380256Y0018090D01*
X0380120Y0018011D01*
X0379981Y0017934D01*
X0379840Y0017862D01*
X0379698Y0017792D01*
X0379554Y0017727D01*
X0379408Y0017665D01*
X0379261Y0017607D01*
X0379112Y0017552D01*
X0378962Y0017501D01*
X0378811Y0017454D01*
X0378659Y0017411D01*
X0378506Y0017372D01*
X0378351Y0017336D01*
X0378196Y0017305D01*
X0378040Y0017277D01*
X0377884Y0017253D01*
X0377727Y0017233D01*
X0377569Y0017217D01*
X0377412Y0017205D01*
X0377253Y0017197D01*
X0377095Y0017193D01*
X0376937Y0017193D01*
X0376779Y0017197D01*
X0376620Y0017205D01*
X0376463Y0017217D01*
X0376305Y0017233D01*
X0376148Y0017253D01*
X0375992Y0017277D01*
X0375836Y0017305D01*
X0375681Y0017336D01*
X0375526Y0017372D01*
X0375373Y0017411D01*
X0375221Y0017454D01*
X0375070Y0017501D01*
X0374920Y0017552D01*
X0374771Y0017607D01*
X0374624Y0017665D01*
X0374478Y0017727D01*
X0374334Y0017792D01*
X0374192Y0017862D01*
X0374051Y0017934D01*
X0373912Y0018011D01*
X0373776Y0018090D01*
X0373641Y0018174D01*
X0373508Y0018260D01*
X0373378Y0018350D01*
X0373250Y0018443D01*
X0373124Y0018539D01*
X0373001Y0018639D01*
X0372880Y0018741D01*
X0372762Y0018846D01*
X0372647Y0018955D01*
X0372534Y0019066D01*
X0372424Y0019180D01*
X0372317Y0019297D01*
X0372213Y0019416D01*
X0372112Y0019538D01*
X0372015Y0019663D01*
X0371920Y0019790D01*
X0371829Y0019919D01*
X0371740Y0020050D01*
X0371656Y0020184D01*
X0371574Y0020320D01*
X0371496Y0020457D01*
X0371422Y0020597D01*
X0371351Y0020739D01*
X0371283Y0020882D01*
X0371219Y0021027D01*
X0371159Y0021173D01*
X0371103Y0021321D01*
X0371050Y0021470D01*
X0371001Y0021621D01*
X0370956Y0021773D01*
X0370915Y0021926D01*
X0370877Y0022079D01*
X0370844Y0022234D01*
X0370814Y0022390D01*
X0370788Y0022546D01*
X0370767Y0022703D01*
X0370749Y0022860D01*
X0370735Y0023018D01*
X0370725Y0023176D01*
X0370719Y0023334D01*
X0370717Y0023492D01*
D11*
X0388827Y0008728D02*
X0003000Y0008728D01*
X0003000Y0233138D01*
X0388827Y0233138D01*
X0388827Y0008728D01*
X0388827Y0010028D02*
X0388827Y0231839D01*
X0003000Y0231839D01*
X0003000Y0010028D01*
X0388827Y0010028D01*
M02*
